<?xml version="1.0" standalone="no"?>
<!DOCTYPE svg PUBLIC "-//W3C//DTD SVG 1.1//EN" "http://www.w3.org/Graphics/SVG/1.1/DTD/svg11.dtd" >
<svg xmlns="http://www.w3.org/2000/svg">
<metadata>Generated by IcoMoon</metadata>
<defs>
<font id="icons" horiz-adv-x="1024">
<font-face units-per-em="1024" ascent="960" descent="-64" />
<missing-glyph horiz-adv-x="1024" />
<glyph unicode="&#x20;" horiz-adv-x="512" d="" />
<glyph unicode="&#xe900;" glyph-name="ArrowDown" d="M822.656 361.361l-288-288c-2.97-2.978-6.498-5.338-10.385-6.946-3.883-1.613-8.047-2.441-12.254-2.441-4.203 0-8.367 0.828-12.254 2.441-3.883 1.609-7.415 3.968-10.385 6.946l-288 288c-6.004 6.003-9.378 14.148-9.378 22.639s3.373 16.636 9.378 22.639c6.004 6.007 14.148 9.378 22.64 9.378s16.635-3.371 22.64-9.378l233.359-233.399v626.761c0 8.487 3.371 16.626 9.374 22.627 5.999 6.001 14.14 9.373 22.626 9.373s16.627-3.372 22.626-9.373c6.003-6.001 9.374-14.141 9.374-22.627v-626.761l233.361 233.399c6.003 6.007 14.148 9.378 22.639 9.378s16.636-3.371 22.639-9.378c6.007-6.003 9.378-14.148 9.378-22.639s-3.371-16.636-9.378-22.639z" />
<glyph unicode="&#xe901;" glyph-name="ArrowDownRight" d="M800.017 607.982v-415.999c0-8.486-3.371-16.627-9.374-22.626-5.999-6.003-14.14-9.374-22.626-9.374h-415.999c-8.487 0-16.626 3.371-22.627 9.374-6.001 5.999-9.373 14.14-9.373 22.626s3.371 16.627 9.373 22.626c6.001 6.003 14.14 9.374 22.627 9.374h338.76l-457.4 457.359c-6.004 6.004-9.378 14.148-9.378 22.64s3.373 16.636 9.378 22.64c6.004 6.004 14.148 9.378 22.64 9.378s16.635-3.373 22.64-9.378l457.359-457.4v338.76c0 8.487 3.371 16.626 9.374 22.627 5.999 6.001 14.14 9.373 22.626 9.373s16.627-3.371 22.626-9.373c6.003-6.001 9.374-14.14 9.374-22.627z" />
<glyph unicode="&#xe902;" glyph-name="BellSimple" d="M672.038 64c0-8.486-3.371-16.627-9.374-22.626-6.003-6.003-14.14-9.374-22.626-9.374h-256.001c-8.487 0-16.626 3.371-22.627 9.374-6.001 5.999-9.373 14.14-9.373 22.626s3.372 16.627 9.373 22.626c6.001 6.003 14.14 9.374 22.627 9.374h256.001c8.486 0 16.623-3.371 22.626-9.374 6.003-5.999 9.374-14.14 9.374-22.626zM887.279 256.239c-22.242 38.242-55.241 146.441-55.241 287.761 0 84.869-33.715 166.263-93.726 226.274-60.015 60.012-141.406 93.726-226.274 93.726-84.873 0-166.264-33.714-226.275-93.726s-93.726-141.405-93.726-226.274c0-141.359-33.040-249.519-55.24-287.761-5.669-9.719-8.675-20.766-8.713-32.021-0.038-11.251 2.891-22.319 8.493-32.077 5.603-9.762 13.679-17.873 23.416-23.514 9.737-5.645 20.79-8.619 32.044-8.627h640.001c11.251 0.017 22.298 2.995 32.030 8.64 9.728 5.649 17.801 13.76 23.398 23.518s8.525 20.821 8.482 32.073c-0.038 11.251-3.046 22.289-8.713 32.009h0.043z" />
<glyph unicode="&#xe903;" glyph-name="BookmarkSimple" d="M736 959.999h-448c-16.974 0-52.563 0.001-64 0 0.001-12.708 0-47.026 0-64v-703.999c0.003-5.713 1.534-11.315 4.434-16.235s7.064-8.977 12.060-11.742c4.995-2.769 10.641-4.147 16.349-3.998 5.709 0.154 11.273 1.826 16.116 4.855l239.040 149.397 239.078-149.397c4.843-3.017 10.402-4.685 16.107-4.83s11.341 1.237 16.329 4.002c4.992 2.765 9.152 6.814 12.049 11.729s4.429 10.513 4.437 16.218v703.999c0 16.974 0 49.191 0 64.001-13.257 0-47.027-0.001-64-0.001z" />
<glyph unicode="&#xe904;" glyph-name="car" d="M946.33 377.173c-6.4 70.4-25.173 145.493-162.133 145.493h-544.427c-136.96 0-155.307-75.093-162.133-145.493l-23.893-259.84c-2.987-32.427 7.68-64.853 29.867-89.173 22.613-24.747 54.613-38.827 88.747-38.827h80.213c69.12 0 82.347 39.68 90.88 65.707l8.533 25.6c9.813 29.44 12.373 36.693 50.773 36.693h218.453c38.4 0 39.68-4.267 50.773-36.693l8.533-25.6c8.533-26.027 21.76-65.707 90.88-65.707h80.213c33.707 0 66.133 14.080 88.747 38.827 22.187 24.32 32.853 56.747 29.867 89.173l-23.893 259.84zM896 650.746h-42.667c-0.427 0-0.427 0-0.853 0l-16.213 77.227c-15.36 74.667-47.36 143.36-174.507 143.36h-299.52c-127.147 0-159.147-68.694-174.507-143.36l-16.213-77.227c-0.427 0-0.427 0-0.853 0h-42.667c-17.493 0-32-14.507-32-32s14.507-32 32-32h30.293l-17.92-85.332c23.040 13.227 55.040 21.333 99.413 21.333h544.427c44.373 0 76.373-8.107 99.413-21.333l-17.92 85.332h30.293c17.493 0 32 14.507 32 32s-14.507 32-32 32zM384 288h-128c-17.493 0-32 14.507-32 32s14.507 32 32 32h128c17.493 0 32-14.507 32-32s-14.507-32-32-32zM768 288h-128c-17.493 0-32 14.507-32 32s14.507 32 32 32h128c17.493 0 32-14.507 32-32s-14.507-32-32-32z" />
<glyph unicode="&#xe905;" glyph-name="car5" d="M927.983 618.746c0-17.493-14.507-32-32-32h-767.999c-17.493 0-32 14.507-32 32s14.507 32 32 32h43.52l16.213 77.227c15.36 74.667 47.36 143.36 174.507 143.36h299.519c127.147 0 159.147-68.694 174.507-143.36l16.213-77.227h43.52c17.493 0 32-14.507 32-32zM946.33 377.259c-6.4 70.4-25.173 145.493-162.133 145.493h-544.427c-136.96 0-155.307-75.093-162.133-145.493l-23.893-259.84c-2.987-32.427 7.68-64.853 29.867-89.173 22.613-24.747 54.613-38.827 88.747-38.827h80.213c69.12 0 82.347 39.68 90.88 65.707l8.533 25.6c9.813 29.44 12.373 36.693 50.773 36.693h218.453c38.4 0 39.68-4.267 50.773-36.693l8.533-25.6c8.533-26.027 21.76-65.707 90.88-65.707h80.213c33.707 0 66.133 14.080 88.747 38.827 22.187 24.32 32.853 56.747 29.867 89.173l-23.893 259.84zM383.983 288.085h-128c-17.493 0-32 14.507-32 32s14.507 32 32 32h128c17.493 0 32-14.507 32-32s-14.507-32-32-32zM767.983 288.085h-128c-17.493 0-32 14.507-32 32s14.507 32 32 32h128c17.493 0 32-14.507 32-32s-14.507-32-32-32z" />
<glyph unicode="&#xe906;" glyph-name="CaretDown" d="M848.943 558.972l-320-320c-4.497-4.493-10.598-7.019-16.96-7.019-6.357 0-12.459 2.526-16.96 7.019l-319.998 320c-4.239 4.55-6.547 10.567-6.438 16.785s2.628 12.15 7.025 16.547c4.397 4.397 10.33 6.916 16.547 7.026s12.235-2.198 16.785-6.438l303.038-303.002 303.040 303.002c4.553 4.239 10.569 6.547 16.785 6.438 6.221-0.11 12.151-2.629 16.55-7.026 4.395-4.397 6.916-10.33 7.023-16.547 0.111-6.218-2.197-12.235-6.438-16.785z" />
<glyph unicode="&#xe907;" glyph-name="CaretLeft" d="M656.939 144.892c2.359-2.197 4.25-4.847 5.559-7.791 1.314-2.944 2.018-6.123 2.074-9.344 0.060-3.221-0.533-6.426-1.741-9.412s-3.004-5.705-5.282-7.983c-2.278-2.278-4.996-4.075-7.983-5.282s-6.191-1.801-9.412-1.741c-3.221 0.055-6.4 0.759-9.344 2.074-2.944 1.31-5.594 3.2-7.791 5.559l-320 320c-4.495 4.501-7.019 10.598-7.019 16.96s2.525 12.459 7.019 16.96l320 320c4.548 4.239 10.569 6.547 16.785 6.438s12.151-2.629 16.546-7.026c4.399-4.397 6.916-10.33 7.027-16.547s-2.197-12.235-6.438-16.785l-303-303.040 303-303.040z" />
<glyph unicode="&#xe908;" glyph-name="CaretRight" d="M720.943 430.972l-319.998-320c-4.55-4.241-10.567-6.545-16.785-6.438-6.218 0.111-12.15 2.628-16.547 7.027-4.397 4.395-6.916 10.33-7.025 16.546s2.198 12.237 6.438 16.785l303 303.040-303 303.040c-4.239 4.55-6.547 10.567-6.438 16.785s2.629 12.15 7.025 16.547c4.397 4.397 10.33 6.916 16.547 7.026s12.235-2.198 16.785-6.438l319.998-320c4.497-4.501 7.019-10.598 7.019-16.96s-2.522-12.459-7.019-16.96z" />
<glyph unicode="&#xe909;" glyph-name="CaretUp" d="M848.943 303.061c-4.497-4.493-10.598-7.019-16.96-7.019-6.357 0-12.459 2.526-16.96 7.019l-303.040 303-303.038-303c-4.55-4.241-10.567-6.549-16.785-6.438s-12.15 2.628-16.547 7.027c-4.397 4.395-6.916 10.33-7.025 16.546s2.198 12.237 6.438 16.785l319.998 320c4.501 4.495 10.603 7.019 16.96 7.019 6.362 0 12.463-2.525 16.96-7.019l320-320c4.497-4.501 7.019-10.598 7.019-16.96s-2.522-12.459-7.019-16.96z" />
<glyph unicode="&#xe90a;" glyph-name="CornersOut" d="M374.64 150.639c4.48-4.476 7.532-10.18 8.769-16.388 1.237-6.212 0.603-12.651-1.821-18.5s-6.53-10.85-11.796-14.366c-5.267-3.516-11.459-5.389-17.792-5.385h-160c-8.487 0-16.626 3.371-22.627 9.374-6.001 5.999-9.373 14.14-9.373 22.626v160c-0.005 6.332 1.869 12.523 5.385 17.792 3.516 5.265 8.515 9.374 14.366 11.797s12.288 3.055 18.499 1.818c6.211-1.233 11.915-4.288 16.39-8.768l160-160zM352 800h-160c-8.487 0-16.626-3.372-22.627-9.373s-9.373-14.141-9.373-22.627v-160c-0.005-6.333 1.869-12.524 5.385-17.792s8.515-9.372 14.366-11.796c5.85-2.424 12.288-3.058 18.499-1.821s11.915 4.289 16.39 8.769l160 160c4.48 4.476 7.532 10.18 8.769 16.39s0.603 12.649-1.821 18.499c-2.424 5.85-6.53 10.85-11.796 14.366s-11.459 5.39-17.792 5.385zM844.241 317.559c-5.85 2.428-12.284 3.063-18.492 1.83-6.208-1.229-11.913-4.275-16.388-8.751l-160-160c-4.48-4.476-7.535-10.18-8.768-16.388-1.237-6.212-0.606-12.651 1.818-18.5s6.532-10.85 11.797-14.366c5.269-3.516 11.46-5.389 17.792-5.385h160c8.486 0 16.627 3.371 22.626 9.374 6.003 5.999 9.374 14.14 9.374 22.626v160c0 6.327-1.877 12.514-5.397 17.775-3.516 5.265-8.516 9.365-14.362 11.785zM832 800h-160c-6.332 0.005-12.523-1.869-17.792-5.385-5.265-3.516-9.374-8.515-11.797-14.366s-3.055-12.288-1.818-18.499c1.233-6.211 4.288-11.915 8.768-16.39l160-160c4.476-4.48 10.18-7.532 16.388-8.769 6.212-1.237 12.651-0.603 18.5 1.821s10.85 6.53 14.366 11.796c3.516 5.267 5.389 11.459 5.385 17.792v160c0 8.487-3.371 16.626-9.374 22.627-5.999 6.001-14.14 9.373-22.626 9.373z" />
<glyph unicode="&#xe90b;" glyph-name="Download-2" d="M938.667 277.342v42.667c0 120.678-0.009 181.001-37.5 218.491s-97.83 37.49-218.509 37.49h-341.335c-120.679 0-181.019 0-218.51-37.49-37.481-37.482-37.481-97.779-37.481-218.397v-42.761c0-120.678 0-181.018 37.49-218.509s97.83-37.491 218.51-37.491h341.333c120.678 0 181.018 0 218.509 37.491s37.491 97.83 37.491 218.509zM512 906.667c-17.673 0-32-14.327-32-32v-468.164l-71.704 83.657c-11.502 13.419-31.703 14.972-45.122 3.469-13.418-11.499-14.972-31.701-3.471-45.12l127.998-149.333c6.080-7.091 14.955-11.174 24.299-11.174 9.34 0 18.214 4.083 24.294 11.174l128 149.333c11.503 13.419 9.95 33.621-3.469 45.12-13.419 11.503-33.621 9.95-45.124-3.469l-71.701-83.657v468.164c0 17.673-14.327 32-32 32z" />
<glyph unicode="&#xe90c;" glyph-name="Download" d="M938.667 277.342v42.667c0 120.678-0.009 181.001-37.5 218.491s-97.83 37.49-218.509 37.49h-341.335c-120.679 0-181.019 0-218.51-37.49-37.481-37.482-37.481-97.779-37.481-218.397v-42.761c0-120.678 0-181.018 37.49-218.509s97.83-37.491 218.51-37.491h341.333c120.678 0 181.018 0 218.509 37.491s37.491 97.83 37.491 218.509zM512 906.667c-17.673 0-32-14.327-32-32v-468.164l-71.704 83.657c-11.502 13.419-31.703 14.972-45.122 3.469-13.418-11.499-14.972-31.701-3.471-45.12l127.998-149.333c6.080-7.091 14.955-11.174 24.299-11.174 9.34 0 18.214 4.083 24.294 11.174l128 149.333c11.503 13.419 9.95 33.621-3.469 45.12-13.419 11.503-33.621 9.95-45.124-3.469l-71.701-83.657v468.164c0 17.673-14.327 32-32 32z" />
<glyph unicode="&#xe90d;" glyph-name="Facebook---Dark" d="M1024 448c0 282.77-229.231 512-512 512s-512-229.23-512-512c0-255.552 187.23-467.371 432-505.779v357.777h-130v148.002h130v112.8c0 128.32 76.442 199.2 193.391 199.2 56 0 114.611-10 114.611-10v-126h-64.563c-63.599 0-83.439-39.47-83.439-80v-96h141.999l-22.699-148.002h-119.3v-357.777c244.77 38.409 432 250.227 432 505.779z" />
<glyph unicode="&#xe90e;" glyph-name="GlobeSimple" d="M896 448c0-75.949-22.522-150.192-64.717-213.338-42.192-63.149-102.166-112.368-172.333-141.434-70.166-29.062-147.376-36.666-221.866-21.85-74.486 14.816-142.91 51.389-196.614 105.091s-90.276 122.125-105.092 196.614c-14.817 74.49-7.212 151.699 21.852 221.866s78.282 130.14 141.431 172.334c63.15 42.194 137.39 64.716 213.339 64.716 101.843 0 199.514-40.457 271.53-112.471 72.013-72.014 112.47-169.686 112.47-271.529zM512 864c-82.278 0-162.707-24.398-231.117-70.109s-121.731-110.681-153.217-186.694c-31.486-76.016-39.724-159.658-23.673-240.355 16.052-80.694 55.671-154.819 113.85-212.998s132.303-97.798 212.998-113.85c80.698-16.051 164.342-7.814 240.355 23.674 76.013 31.485 140.986 84.803 186.694 153.216 45.712 68.41 70.109 148.838 70.109 231.117-0.115 110.294-43.981 216.038-121.971 294.028s-183.734 121.856-294.029 121.972zM862.522 480h-159.322c-5.638 113.84-41.078 221.88-100.48 308 69.568-18.677 131.754-58.202 178.195-113.262 46.445-55.061 74.922-123.017 81.606-194.738zM384.922 416h254.16c-6.72-123.478-52-238.48-127.082-319.558-74.918 81.078-120.358 196.080-127.078 319.558zM384.922 480c6.72 123.482 52 238.48 127.078 319.56 74.922-81.080 120.362-196.002 127.082-319.56h-254.16zM421.28 788c-59.398-86.12-94.838-194.16-100.48-308h-159.32c6.683 71.722 35.16 139.677 81.604 194.738 46.444 55.060 108.628 94.584 178.196 113.262zM161.48 416h159.32c5.642-113.84 41.082-221.882 100.48-308-69.568 18.678-131.753 58.202-178.196 113.261-46.444 55.062-74.92 123.018-81.604 194.739zM602.72 108c59.402 86.24 94.842 194.282 100.48 308h159.322c-6.685-71.722-35.162-139.677-81.606-194.739-46.442-55.059-108.627-94.582-178.195-113.261z" />
<glyph unicode="&#xe90f;" glyph-name="GoogleLogo" d="M512 864c-82.278 0-162.706-24.398-231.117-70.109s-121.731-110.681-153.216-186.695c-31.486-76.013-39.724-159.657-23.673-240.352s55.671-154.82 113.85-213.001c58.179-58.18 132.303-97.801 213-113.852 80.695-16.051 164.339-7.812 240.354 23.676 76.011 31.484 140.983 84.804 186.692 153.216 45.713 68.412 70.11 148.838 70.11 231.117 0 110.33-43.827 216.141-121.843 294.156s-183.825 121.844-294.157 121.844zM512 128c-51.87 0.004-102.959 12.621-148.871 36.757-45.911 24.132-85.268 59.068-114.679 101.794-29.411 42.722-47.996 91.955-54.154 143.458s0.296 103.731 18.806 152.185c18.51 48.454 48.521 91.683 87.448 125.962s85.603 58.583 136.010 70.816c50.406 12.234 103.027 12.031 153.34-0.591 50.308-12.621 96.798-37.283 135.458-71.862 6.17-5.7 9.847-13.597 10.244-21.987 0.401-8.39-2.517-16.599-8.119-22.857s-13.44-10.063-21.82-10.594c-8.384-0.53-16.636 2.255-22.985 7.757-42.662 38.16-96.883 60.921-154.001 64.647s-113.836-11.796-161.095-44.089c-47.26-32.293-82.333-79.492-99.619-134.060-17.286-54.566-15.785-113.348 4.261-166.963s57.482-98.965 106.327-128.802c48.844-29.841 106.282-42.453 163.135-35.814 56.853 6.635 109.841 32.132 150.502 72.418s66.65 93.035 73.809 149.824h-253.999c-8.486 0-16.627 3.371-22.626 9.374-6.003 5.999-9.374 14.14-9.374 22.626s3.371 16.627 9.374 22.626c5.999 6.003 14.14 9.374 22.626 9.374h288c8.486 0 16.627-3.371 22.626-9.374 6.003-5.999 9.374-14.14 9.374-22.626-0.094-84.838-33.839-166.178-93.833-226.167-59.989-59.994-141.329-93.739-226.167-93.833z" />
<glyph unicode="&#xe910;" glyph-name="HandPointing" d="M831.983 496v-144c0-42.022-8.273-83.635-24.358-122.458-16.081-38.827-39.65-74.103-69.367-103.817-29.713-29.713-64.99-53.286-103.812-69.367-38.827-16.081-80.435-24.358-122.462-24.358-176.718 0-223.238 96-373.278 360-10.441 18.364-13.195 40.115-7.66 60.501s18.909 37.756 37.204 48.32c18.295 10.564 40.026 13.461 60.449 8.060 20.424-5.397 37.882-18.658 48.566-36.881l74.72-120v432c0 21.217 8.429 41.565 23.432 56.569s35.351 23.431 56.567 23.431c21.218 0 41.566-8.428 56.572-23.431 15.002-15.003 23.428-35.351 23.428-56.569v-224c0 21.217 8.431 41.565 23.433 56.569 15.006 15.003 35.354 23.431 56.567 23.431 21.218 0 41.566-8.428 56.572-23.431 15.002-15.003 23.428-35.351 23.428-56.569v-64c0 21.218 8.431 41.565 23.433 56.569 15.006 15.003 35.354 23.431 56.567 23.431 21.218 0 41.566-8.428 56.572-23.431 15.002-15.003 23.428-35.351 23.428-56.569zM751.979 608c-18.654 0.020-37.018-4.642-53.402-13.56-4.898 15.169-12.979 29.118-23.701 40.913s-23.842 21.167-38.477 27.486c-14.635 6.32-30.447 9.443-46.387 9.16-15.936-0.283-31.633-3.965-46.033-10.799v122.8c0 29.704-11.802 58.192-32.802 79.196-21.005 21.004-49.493 32.804-79.198 32.804s-58.192-11.8-79.196-32.804c-21.004-21.004-32.804-49.492-32.804-79.196v-320l-15.28 24.521c-7.388 12.723-17.21 23.868-28.906 32.798s-25.035 15.468-39.257 19.242c-28.723 7.621-59.298 3.52-84.997-11.4s-44.419-39.441-52.041-68.164c-7.621-28.723-3.52-59.298 11.401-84.996l18.68-32.922c137.64-242.637 194.6-343.078 382.4-343.078 93.325 0.107 182.793 37.227 248.785 103.215 65.988 65.988 103.108 155.46 103.215 248.785v144c0 29.705-11.802 58.192-32.802 79.196-21.005 21.004-49.493 32.804-79.198 32.804zM799.979 352c-0.085-76.356-30.455-149.559-84.446-203.554-53.995-53.99-127.198-84.361-203.554-84.446-150.52 0-191.36 72-326.72 310.72l-18.76 33.079v0.201c-6.37 11.012-8.107 24.107-4.829 36.399s11.302 22.78 22.309 29.163c7.291 4.22 15.574 6.43 24 6.4 8.438 0.013 16.73-2.202 24.040-6.413 7.31-4.215 13.381-10.283 17.6-17.587 0.163-0.32 0.35-0.631 0.56-0.922l74.68-120c3.686-5.884 9.186-10.411 15.669-12.894 6.484-2.487 13.6-2.795 20.275-0.879s12.545 5.948 16.726 11.49c4.181 5.547 6.445 12.301 6.45 19.243v432c0 12.73 5.057 24.94 14.059 33.941s21.211 14.059 33.941 14.059c12.732 0 24.939-5.057 33.941-14.059s14.059-21.211 14.059-33.941v-272c0-8.486 3.371-16.627 9.374-22.626 5.999-6.003 14.14-9.374 22.626-9.374s16.627 3.371 22.626 9.374c6.003 5.999 9.374 14.14 9.374 22.626v48c0 12.73 5.056 24.94 14.059 33.941s21.21 14.059 33.941 14.059c12.732 0 24.939-5.057 33.941-14.059s14.059-21.211 14.059-33.941v-80c0-8.486 3.371-16.627 9.374-22.626 5.999-6.003 14.14-9.374 22.626-9.374s16.627 3.371 22.626 9.374c6.003 5.999 9.374 14.14 9.374 22.626v16c0 12.732 5.056 24.939 14.059 33.941s21.21 14.059 33.941 14.059 24.939-5.057 33.941-14.059c9.003-9.003 14.059-21.21 14.059-33.941v-144z" />
<glyph unicode="&#xe911;" glyph-name="Hash" d="M435.238 862.825c17.028-4.73 26.999-22.369 22.268-39.397l-213.332-767.999c-4.73-17.028-22.369-26.999-39.397-22.268-17.028 4.727-26.998 22.366-22.268 39.394l213.333 768.002c4.73 17.028 22.369 26.998 39.396 22.268zM819.238 862.825c17.028-4.73 26.999-22.369 22.268-39.397l-213.333-767.999c-4.727-17.028-22.366-26.999-39.394-22.268-17.028 4.727-26.999 22.366-22.268 39.394l213.333 768.002c4.727 17.028 22.366 26.998 39.394 22.268zM138.667 576c0 17.673 14.327 32 32 32h768c17.673 0 32-14.327 32-32s-14.327-32-32-32h-768c-17.673 0-32 14.327-32 32zM53.333 277.333c0 17.673 14.327 32 32 32h768c17.673 0 32-14.327 32-32s-14.327-32-32-32h-768c-17.673 0-32 14.327-32 32z" />
<glyph unicode="&#xe912;" glyph-name="History" d="M480 874.667c0 17.673 14.327 32 32 32 253.316 0 458.667-205.352 458.667-458.667s-205.35-458.667-458.667-458.667c-253.315 0-458.667 205.35-458.667 458.667 0 17.673 14.327 32 32 32s32-14.327 32-32c0-217.967 176.698-394.667 394.667-394.667 217.967 0 394.667 176.7 394.667 394.667 0 217.968-176.7 394.667-394.667 394.667-17.673 0-32 14.327-32 32zM388.251 857.703c6.364-16.487-1.842-35.012-18.329-41.377-6.034-2.33-11.998-4.803-17.885-7.417-16.153-7.171-35.060 0.111-42.231 16.264s0.111 35.060 16.263 42.231c6.848 3.040 13.785 5.918 20.806 8.628 16.487 6.364 35.012-1.842 41.377-18.329zM240.971 779.080c12.188-12.798 11.694-33.053-1.104-45.241-4.679-4.457-9.249-9.027-13.705-13.706-12.188-12.798-32.443-13.292-45.241-1.104s-13.292 32.444-1.104 45.242c5.174 5.433 10.48 10.739 15.913 15.913 12.798 12.189 33.053 11.694 45.242-1.104zM134.828 650.195c16.153-7.171 23.434-26.079 16.264-42.231-2.614-5.888-5.088-11.851-7.417-17.885-6.365-16.487-24.89-24.694-41.377-18.329s-24.693 24.89-18.329 41.377c2.71 7.021 5.588 13.958 8.628 20.806 7.171 16.153 26.079 23.434 42.231 16.263zM512 608c17.673 0 32-14.327 32-32v-138.667h138.667c17.673 0 32-14.327 32-32s-14.327-32-32-32h-170.667c-17.673 0-32 14.327-32 32v170.667c0 17.673 14.327 32 32 32z" />
<glyph unicode="&#xe913;" glyph-name="hot-food-1" d="M239.917 27.665c0-16.567 13.431-29.999 30-29.999h483.999c16.567 0 29.999 13.431 29.999 29.999v60.352c140.774 58.748 240 197.385 240 359.65 0 16.567-13.431 29.999-29.999 29.999h-963.999c-16.569 0-30-13.431-30-29.999 0-162.266 99.227-300.902 240-359.65v-60.352zM299.917 57.668v50.923c0 12.71-8.008 24.038-19.988 28.284-119.153 42.185-206.889 150.477-218.663 280.794h901.303c-11.776-130.317-99.511-238.609-218.662-280.794-11.981-4.245-19.989-15.573-19.989-28.284v-50.923h-424zM20.497 327.667c0-16.567 13.431-29.999 30-29.999h922.922c16.567 0 29.999 13.431 29.999 29.999s-13.431 29.999-29.999 29.999h-922.922c-16.569 0-30-13.431-30-29.999zM310.769 606.453c11.716-11.715 30.711-11.715 42.426 0 44.852 44.852 44.852 117.575 0 162.426-21.42 21.42-21.42 56.154 0 77.574 11.715 11.716 11.715 30.711 0 42.426s-30.711 11.716-42.426 0c-44.852-44.852-44.852-117.574 0-162.426 21.42-21.42 21.42-56.153 0-77.574-11.716-11.716-11.716-30.711 0-42.426zM490.769 606.453c11.716-11.715 30.711-11.715 42.428 0 44.851 44.852 44.851 117.575 0 162.426-21.423 21.42-21.423 56.154 0 77.574 11.716 11.716 11.716 30.711 0 42.426s-30.711 11.716-42.428 0c-44.851-44.852-44.851-117.574 0-162.426 21.419-21.42 21.419-56.153 0-77.574-11.716-11.716-11.716-30.711 0-42.426zM670.767 606.453c11.716-11.715 30.711-11.715 42.428 0 44.851 44.852 44.851 117.575 0 162.426-21.419 21.42-21.419 56.154 0 77.574 11.716 11.716 11.716 30.711 0 42.426s-30.711 11.716-42.428 0c-44.851-44.852-44.851-117.574 0-162.426 21.423-21.42 21.423-56.153 0-77.574-11.712-11.716-11.712-30.711 0-42.426z" />
<glyph unicode="&#xe914;" glyph-name="Instagram---Dark" d="M512 867.8c136.802 0 152.998-0.6 206.801-3 50.001-2.2 77.001-10.6 94.997-17.6 23.804-9.2 41.003-20.4 58.803-38.2 17.997-18 29.001-35 38.199-58.8 6.997-18 15.398-45.2 17.6-95 2.398-54 2.999-70.2 2.999-206.799 0-136.802-0.602-153.003-2.999-206.801-2.202-50.001-10.603-77.001-17.6-95.002-9.199-23.799-20.403-40.998-38.199-58.799-18.001-18.001-34.999-29.001-58.803-38.199-17.997-7.002-45.197-15.398-94.997-17.6-53.999-2.398-70.199-2.999-206.801-2.999-136.8 0-153 0.602-206.8 2.999-50 2.202-77 10.598-95 17.6-23.8 9.199-41 20.399-58.8 38.199-18 18.001-29 34.999-38.2 58.799-7 18.001-15.4 45.201-17.6 95.002-2.4 53.999-3 70.199-3 206.801 0 136.799 0.6 152.999 3 206.799 2.2 50 10.6 77 17.6 95 9.2 23.8 20.4 41 38.2 58.8 18 18 35 29 58.8 38.2 18 7 45.2 15.4 95 17.6 53.8 2.4 70 3 206.8 3zM512 960c-139 0-156.4-0.6-211-3-54.4-2.4-91.8-11.2-124.2-23.8-33.8-13.2-62.4-30.6-90.8-59.2-28.6-28.4-46-57-59.2-90.6-12.6-32.6-21.4-69.8-23.8-124.2-2.4-54.8-3-72.2-3-211.2s0.6-156.399 3-210.999c2.4-54.4 11.2-91.802 23.8-124.203 13.2-33.796 30.6-62.4 59.2-90.799 28.4-28.399 57-45.999 90.6-58.999 32.6-12.599 69.8-21.397 124.2-23.799 54.6-2.398 72-2.999 210.999-2.999s156.399 0.602 210.999 2.999c54.4 2.402 91.802 11.2 124.203 23.799 33.6 13.001 62.199 30.601 90.598 58.999s45.999 57.003 58.999 90.603c12.599 32.597 21.402 69.798 23.799 124.198 2.402 54.601 2.999 72 2.999 210.999s-0.597 156.401-2.999 211c-2.398 54.4-11.2 91.8-23.799 124.2-12.599 34-29.999 62.6-58.598 91-28.399 28.4-57.003 46-90.603 59-32.597 12.6-69.798 21.4-124.198 23.8-54.801 2.6-72.201 3.2-211.2 3.2zM512 711c-145.2 0-263-117.8-263-263s117.8-263.002 263-263.002c145.199 0 263.002 117.803 263.002 263.002s-117.803 263-263.002 263zM512 277.402c-94.2 0-170.6 76.399-170.6 170.598s76.4 170.6 170.6 170.6c94.199 0 170.598-76.4 170.598-170.6s-76.399-170.598-170.598-170.598zM846.801 721.412c0-34-27.601-61.4-61.402-61.4-34.001 0-61.397 27.6-61.397 61.4 0 34 27.597 61.4 61.397 61.4s61.402-27.6 61.402-61.4z" />
<glyph unicode="&#xe915;" glyph-name="Ladle" d="M682.615 234.667c130.3 0 256 47.757 256 106.667s-125.7 106.667-256 106.667c-130.3 0-282.949-47.757-282.949-106.667s152.649-106.667 282.949-106.667zM274.526 853.333c-69.142 0-125.193-56.051-125.193-125.193 0-17.673-14.327-32-32-32s-32 14.327-32 32c0 104.489 84.704 189.193 189.193 189.193s189.192-84.704 189.192-189.193v-322.909c-38.278-17.596-63.399-39.398-63.999-63.031v385.941c0 69.142-56.051 125.193-125.193 125.193zM399.719 340.467c0.35-13.777 9.032-26.931 23.796-38.993 47.942-39.168 160.006-66.807 259.138-66.807 130.304 0 256 47.757 256 106.667v-50.526c0-148.826-120.644-269.474-269.47-269.474-148.83 0-269.476 120.649-269.476 269.474v50.526c0-0.29 0.004-0.576 0.011-0.866z" />
<glyph unicode="&#xe916;" glyph-name="Letter" d="M605.867 832h-187.733c-176.997 0-265.495 0-320.481-56.236s-54.986-146.745-54.986-327.764c0-181.018 0-271.531 54.986-327.765s143.484-56.235 320.481-56.235h187.733c176.998 0 265.493 0 320.482 56.235 54.985 56.235 54.985 146.748 54.985 327.765 0 181.019 0 271.529-54.985 327.764-54.989 56.236-143.484 56.236-320.482 56.236zM816.017 617.258c14.938 12.445 16.956 34.641 4.51 49.576s-34.641 16.952-49.579 4.507l-101.321-84.436c-43.789-36.489-74.189-61.741-99.857-78.249-24.841-15.979-41.69-21.342-57.886-21.342s-33.045 5.363-57.89 21.342c-25.664 16.508-56.065 41.76-99.852 78.249l-101.324 84.436c-14.935 12.445-37.131 10.428-49.576-4.507s-10.427-37.13 4.507-49.576l103.089-85.908c41.6-34.667 75.316-62.767 105.075-81.903 30.998-19.938 61.189-32.533 95.971-32.533s64.969 12.595 95.97 32.533c29.76 19.136 63.475 47.236 105.075 81.903l103.087 85.908z" />
<glyph unicode="&#xe917;" glyph-name="mdi_location" d="M512 469.333c-28.288 0-55.42 11.238-75.426 31.241-20.003 20.006-31.241 47.136-31.241 75.426s11.238 55.421 31.241 75.425c20.006 20.004 47.138 31.242 75.426 31.242s55.42-11.238 75.426-31.242c20.002-20.004 31.241-47.135 31.241-75.425 0-14.007-2.761-27.878-8.119-40.82-5.359-12.94-13.218-24.699-23.121-34.607-9.907-9.903-21.666-17.762-34.607-23.121s-26.812-8.119-40.819-8.119zM512 874.667c-79.211 0-155.178-31.467-211.189-87.477s-87.477-131.978-87.477-211.189c0-224 298.667-554.667 298.667-554.667s298.667 330.667 298.667 554.667c0 79.212-31.467 155.178-87.479 211.189-56.009 56.011-131.977 87.477-211.187 87.477z" />
<glyph unicode="&#xe918;" glyph-name="Minus" d="M888 448c0-6.366-2.53-12.471-7.031-16.969-4.497-4.501-10.603-7.031-16.969-7.031h-704c-6.365 0-12.47 2.53-16.971 7.031-4.501 4.497-7.029 10.603-7.029 16.969s2.528 12.471 7.029 16.969c4.501 4.501 10.606 7.031 16.971 7.031h704c6.366 0 12.471-2.53 16.969-7.031 4.501-4.497 7.031-10.603 7.031-16.969z" />
<glyph unicode="&#xe919;" glyph-name="MinusCircle" d="M512 864c-82.278 0-162.706-24.398-231.117-70.109s-121.731-110.681-153.216-186.695c-31.486-76.013-39.724-159.657-23.673-240.352s55.671-154.82 113.85-213.001c58.179-58.18 132.303-97.801 213-113.852 80.695-16.051 164.339-7.812 240.354 23.676 76.011 31.484 140.983 84.804 186.692 153.216 45.713 68.412 70.11 148.838 70.11 231.117-0.115 110.294-43.981 216.038-121.971 294.028s-183.735 121.856-294.029 121.972zM672 416h-320c-8.487 0-16.626 3.371-22.627 9.374-6.001 5.999-9.373 14.14-9.373 22.626s3.372 16.627 9.373 22.626c6.001 6.003 14.141 9.374 22.627 9.374h320c8.486 0 16.627-3.371 22.626-9.374 6.003-5.999 9.374-14.14 9.374-22.626s-3.371-16.627-9.374-22.626c-5.999-6.003-14.14-9.374-22.626-9.374z" />
<glyph unicode="&#xe91a;" glyph-name="Pause" d="M85.333 704c0 80.453 0 120.68 24.994 145.673s65.22 24.994 145.673 24.994c80.453 0 120.68 0 145.673-24.994s24.994-65.22 24.994-145.673v-512c0-80.452 0-120.678-24.994-145.673s-65.22-24.994-145.673-24.994c-80.453 0-120.68 0-145.673 24.994s-24.994 65.22-24.994 145.673v512zM597.333 704c0 80.453 0 120.68 24.994 145.673s65.22 24.994 145.673 24.994c80.452 0 120.678 0 145.673-24.994s24.994-65.22 24.994-145.673v-512c0-80.452 0-120.678-24.994-145.673s-65.22-24.994-145.673-24.994c-80.452 0-120.678 0-145.673 24.994s-24.994 65.22-24.994 145.673v512z" />
<glyph unicode="&#xe91b;" glyph-name="Person" d="M399.993 816c0 22.152 6.569 43.805 18.876 62.224 12.308 18.418 29.797 32.774 50.264 41.251 20.463 8.477 42.982 10.695 64.708 6.373s41.685-14.988 57.348-30.652c15.663-15.663 26.33-35.62 30.652-57.346s2.103-44.245-6.374-64.71c-8.478-20.465-22.831-37.958-41.25-50.264s-40.073-18.875-62.225-18.875c-29.705 0-58.189 11.8-79.194 32.804s-32.805 49.492-32.805 79.196zM861.675 396.881l-181.001 205.199c-10.513 11.918-23.437 21.463-37.922 28-14.481 6.538-30.191 9.92-46.080 9.92h-169.361c-15.888 0-31.596-3.381-46.079-9.92s-27.409-16.083-37.919-28l-181-205.199c-11.753-12.028-18.301-28.194-18.229-45.009s6.759-32.926 18.615-44.851c11.856-11.921 27.928-18.701 44.742-18.871 16.814-0.166 33.019 6.289 45.112 17.971l103.44 83.081-78.8-299.52c-6.856-15.39-7.366-32.866-1.42-48.627 5.946-15.765 17.868-28.548 33.18-35.58 15.312-7.027 32.778-7.735 48.609-1.971 15.831 5.769 28.749 17.545 35.951 32.777l118.479 203.721 118.323-203.998c7.202-15.232 20.117-27.012 35.951-32.777 15.829-5.769 33.297-5.060 48.606 1.967 15.313 7.031 27.234 19.814 33.182 35.58 5.943 15.765 5.436 33.237-1.421 48.627l-78.639 299.802 103.599-83.081c12.092-11.682 28.297-18.138 45.111-17.971 16.815 0.171 32.887 6.95 44.745 18.871 11.853 11.925 18.543 28.036 18.615 44.851 0.068 16.815-6.477 32.981-18.231 45.009h-0.158z" />
<glyph unicode="&#xe91c;" glyph-name="Phone-Calling" d="M663.731 339.298l-19.435-20.459c0 0-46.191-48.631-172.271 84.109s-79.889 181.369-79.889 181.369l12.238 12.884c30.147 31.738 32.989 82.694 6.687 119.894l-53.802 76.096c-32.554 46.042-95.458 52.124-132.771 12.841l-66.97-70.507c-18.501-19.478-30.899-44.728-29.396-72.738 3.846-71.66 34.467-225.837 205.332-405.728 181.194-190.763 351.208-198.345 420.733-191.484 21.99 2.172 41.114 14.029 56.525 30.255l60.612 63.812c40.913 43.072 29.376 116.915-22.972 147.046l-81.515 46.921c-34.372 19.785-76.245 13.973-103.108-14.31zM565.739 879.794c2.825 17.446 19.315 29.28 36.762 26.456 1.079-0.207 4.557-0.856 6.374-1.262 3.644-0.811 8.721-2.059 15.053-3.904 12.663-3.688 30.353-9.764 51.584-19.498 42.509-19.488 99.076-53.579 157.777-112.28s92.791-115.269 112.277-157.777c9.737-21.232 15.812-38.921 19.499-51.584 1.843-6.332 3.093-11.411 3.904-15.051 0.405-1.821 0.704-3.282 0.909-4.362l0.247-1.331c2.825-17.444-8.905-34.622-26.351-37.446-17.395-2.816-33.783 8.964-36.676 26.325-0.090 0.469-0.337 1.719-0.597 2.901-0.529 2.364-1.438 6.111-2.88 11.067-2.889 9.913-7.902 24.647-16.23 42.809-16.631 36.28-46.541 86.378-99.358 139.194-52.813 52.815-102.912 82.724-139.191 99.357-18.163 8.327-32.896 13.341-42.812 16.229-4.954 1.443-11.183 2.873-13.547 3.399-17.365 2.894-29.559 19.36-26.743 36.756zM575.39 732.617c4.855 16.993 22.566 26.833 39.561 21.978l-8.789-30.769c8.789 30.769 8.789 30.769 8.789 30.769l0.064-0.018 0.205-0.060 0.333-0.099 0.845-0.263c0.64-0.206 1.446-0.474 2.402-0.814 1.916-0.68 4.45-1.647 7.556-2.978 6.217-2.664 14.707-6.778 25.143-12.952 20.881-12.36 49.391-32.89 82.884-66.382s54.020-62.001 66.381-82.886c6.174-10.432 10.287-18.926 12.954-25.142 1.331-3.106 2.3-5.639 2.978-7.555 0.341-0.958 0.606-1.761 0.815-2.405l0.26-0.844 0.098-0.331 0.043-0.142 0.017-0.066c0 0 0.021-0.061-30.75-8.852l30.771 8.791c4.855-16.993-4.988-34.703-21.978-39.559-16.849-4.813-34.406 4.817-39.437 21.545l-0.158 0.46c-0.226 0.641-0.695 1.903-1.485 3.747-1.579 3.684-4.442 9.71-9.203 17.756-9.515 16.074-26.697 40.362-56.563 70.227-29.862 29.865-54.153 47.046-70.225 56.56-8.047 4.762-14.071 7.625-17.758 9.204-1.843 0.79-3.106 1.261-3.746 1.488l-0.461 0.157c-16.725 5.030-26.359 22.585-21.547 39.433z" />
<glyph unicode="&#xe91d;" glyph-name="Play" d="M913.434 560.957c90.534-49.234 90.534-176.679 0-225.912l-546.644-297.263c-87.99-47.851-196.122 14.43-196.122 112.956v594.526c0 98.527 108.132 160.806 196.122 112.957l546.645-297.263z" />
<glyph unicode="&#xe91e;" glyph-name="Plus" d="M888 448c0-6.366-2.53-12.471-7.031-16.969-4.497-4.501-10.603-7.031-16.969-7.031h-328v-328c0-6.366-2.53-12.471-7.031-16.969-4.497-4.501-10.603-7.031-16.969-7.031s-12.471 2.53-16.969 7.031c-4.501 4.497-7.031 10.603-7.031 16.969v328h-328c-6.365 0-12.47 2.53-16.971 7.031-4.501 4.497-7.029 10.603-7.029 16.969s2.528 12.471 7.029 16.969c4.501 4.501 10.606 7.031 16.971 7.031h328v328c0 6.365 2.53 12.47 7.031 16.971 4.497 4.501 10.603 7.029 16.969 7.029s12.471-2.528 16.969-7.029c4.501-4.501 7.031-10.606 7.031-16.971v-328h328c6.366 0 12.471-2.53 16.969-7.031 4.501-4.497 7.031-10.603 7.031-16.969z" />
<glyph unicode="&#xe91f;" glyph-name="PlusCircle" d="M512 864c-82.278 0-162.706-24.398-231.117-70.109s-121.731-110.681-153.216-186.695c-31.486-76.013-39.724-159.657-23.673-240.352s55.671-154.82 113.85-213.001c58.179-58.18 132.303-97.801 213-113.852 80.695-16.051 164.339-7.812 240.354 23.676 76.011 31.484 140.983 84.804 186.692 153.216 45.713 68.412 70.11 148.838 70.11 231.117-0.137 110.288-44.011 216.019-121.997 294.004-77.982 77.985-183.714 121.858-294.003 121.996zM672 416h-128v-128c0-8.486-3.371-16.627-9.374-22.626-5.999-6.003-14.14-9.374-22.626-9.374s-16.627 3.371-22.626 9.374c-6.003 5.999-9.374 14.14-9.374 22.626v128h-128c-8.487 0-16.626 3.371-22.627 9.374-6.001 5.999-9.373 14.14-9.373 22.626s3.372 16.627 9.373 22.626c6.001 6.003 14.141 9.374 22.627 9.374h128v128c0 8.487 3.371 16.626 9.374 22.627 5.999 6.001 14.14 9.373 22.626 9.373s16.627-3.372 22.626-9.373c6.003-6.001 9.374-14.141 9.374-22.627v-128h128c8.486 0 16.627-3.371 22.626-9.374 6.003-5.999 9.374-14.14 9.374-22.626s-3.371-16.627-9.374-22.626c-5.999-6.003-14.14-9.374-22.626-9.374z" />
<glyph unicode="&#xe920;" glyph-name="Question" d="M512 864c-82.278 0-162.706-24.398-231.117-70.109s-121.731-110.681-153.216-186.695c-31.486-76.013-39.724-159.657-23.673-240.352s55.671-154.82 113.85-213.001c58.179-58.18 132.303-97.801 213-113.852 80.695-16.051 164.339-7.812 240.354 23.676 76.011 31.484 140.983 84.804 186.692 153.216 45.713 68.412 70.11 148.838 70.11 231.117-0.115 110.294-43.981 216.038-121.971 294.028s-183.735 121.856-294.029 121.972zM512 192c-9.493 0-18.773 2.816-26.667 8.090s-14.046 12.77-17.681 21.542c-3.631 8.768-4.582 18.419-2.731 27.733 1.852 9.31 6.426 17.865 13.137 24.576s15.266 11.285 24.576 13.137c9.314 1.852 18.965 0.9 27.733-2.731 8.772-3.635 16.269-9.788 21.542-17.681s8.090-17.173 8.090-26.667c0-12.732-5.056-24.939-14.059-33.941s-21.21-14.059-33.941-14.059zM544 386.88v-2.88c0-8.486-3.371-16.627-9.374-22.626-5.999-6.003-14.14-9.374-22.626-9.374s-16.627 3.371-22.626 9.374c-6.003 5.999-9.374 14.14-9.374 22.626v32c0 8.486 3.371 16.627 9.374 22.626 5.999 6.003 14.14 9.374 22.626 9.374 52.919 0 96 36.002 96 80 0 44-43.081 80-96 80s-96-36-96-80v-16c0-8.486-3.371-16.627-9.373-22.626-6.001-6.003-14.14-9.374-22.627-9.374s-16.626 3.371-22.627 9.374c-6.001 5.999-9.373 14.14-9.373 22.626v16c0 79.4 71.76 144 160 144s160-64.6 160-144c0-69.521-55.040-127.718-128-141.12z" />
<glyph unicode="&#xe921;" glyph-name="Refresh" d="M508.634 864c204.523 0 372.655-156.288 389.047-355.554h40.986c12.966 0 24.649-7.825 29.585-19.814 4.941-11.989 2.155-25.771-7.049-34.901l-71.671-71.113c-12.476-12.378-32.602-12.378-45.077 0l-71.671 71.113c-9.203 9.131-11.989 22.912-7.049 34.901 4.937 11.989 16.623 19.814 29.589 19.814h38.093c-16.201 163.483-155.221 291.554-324.783 291.554-118.166 0-221.603-62.227-278.898-155.426-9.256-15.055-28.964-19.757-44.020-10.502s-19.757 28.964-10.502 44.020c68.538 111.485 192.26 185.908 333.42 185.908zM134.774 513.425c12.466 12.322 32.524 12.322 44.99 0l71.946-71.113c9.229-9.122 12.036-22.912 7.105-34.918-4.931-12.002-16.623-19.84-29.6-19.84h-38.362c16.266-163.392 155.771-291.554 326.147-291.554 118.72 0 222.588 62.281 280.098 155.473 9.28 15.040 28.996 19.708 44.036 10.423 15.040-9.28 19.708-28.996 10.428-44.036-68.809-111.492-192.964-185.86-334.562-185.86-205.138 0-373.963 156.194-390.417 355.554h-41.261c-12.977 0-24.669 7.838-29.6 19.84-4.931 12.006-2.125 25.796 7.105 34.918l71.946 71.113z" />
<glyph unicode="&#xe922;" glyph-name="slippers" d="M1015.915 709.531c-4.518 4.838-10.479 7.976-16.913 9.070-7.095 56.644-24.55 104.61-52.087 142.829-45.15 62.664-114.526 95.732-206.212 98.288-60.979 1.71-108.885-15.674-142.494-51.64-51.75-55.374-54.741-140.679-52.045-191.657-3.61-1.618-6.908-3.936-9.664-6.888-5.675-6.078-8.572-14.238-8-22.534l17.988-261.071c1.084-15.731 14.157-27.938 29.926-27.938h3.78c3.093-43.75 4.949-87.159 5.606-131.908l2.398-162.709c0.009-0.521 0.030-1.041 0.064-1.557 6.229-93.073 84.86-165.978 179.021-165.978 40.482 0 80.209 13.769 111.859 38.775 31.723 25.058 54.135 60.454 63.108 99.652 7.659 33.468 11.072 83.473 15.394 146.782 3.652 53.589 7.744 113.472 15.292 176.947h3.055c15.77 0 28.847 12.207 29.931 27.934l17.988 261.073c0.572 8.292-2.325 16.452-7.996 22.53zM947.989 457.988h-343.569l-4.86 70.537h353.289l-4.86-70.537zM956.983 588.524h-361.557l-4.86 70.538h371.277l-4.86-70.538zM487.817 709.534c-2.756 2.954-6.054 5.274-9.664 6.892 2.697 50.978-0.294 136.283-52.044 191.657-33.61 35.964-81.531 53.314-142.497 51.64-91.683-2.556-161.062-35.624-206.209-98.288-27.538-38.222-44.992-86.188-52.086-142.83-6.434-1.094-12.396-4.232-16.912-9.070-5.674-6.078-8.572-14.238-8-22.534l17.988-261.069c1.084-15.731 14.16-27.938 29.928-27.938h3.056c7.548-63.475 11.638-123.358 15.294-176.943 4.32-63.309 7.732-113.314 15.392-146.786 8.972-39.202 31.386-74.594 63.11-99.652 31.65-25.007 71.375-38.775 111.859-38.775 94.158 0 172.793 72.905 179.018 165.978 0.034 0.521 0.055 1.037 0.064 1.557l2.398 162.709c0.661 44.749 2.513 88.158 5.606 131.908h3.78c15.77 0 28.847 12.207 29.931 27.938l17.988 261.071c0.572 8.294-2.33 16.456-8 22.534zM419.895 457.993h-343.57l-4.86 70.537h353.291l-4.86-70.537zM428.885 588.526h-361.555l-4.86 70.538h371.275l-4.86-70.538z" />
<glyph unicode="&#xe923;" glyph-name="Snowflake" d="M512 906.667c17.673 0 32-14.327 32-32v-93.412l73.374 73.373c12.497 12.497 32.755 12.497 45.252 0s12.497-32.758 0-45.255l-118.626-118.627v-485.489l118.626-118.63c12.497-12.497 12.497-32.755 0-45.252s-32.755-12.497-45.252 0l-73.374 73.37v-93.41c0-17.673-14.327-32-32-32s-32 14.327-32 32v93.41l-73.373-73.37c-12.497-12.497-32.758-12.497-45.255 0s-12.497 32.755 0 45.252l118.627 118.63v485.489l-118.627 118.627c-12.497 12.497-12.497 32.758 0 45.255s32.758 12.497 45.255 0l73.373-73.373v93.412c0 17.673 14.327 32 32 32zM235.151 781.735c17.071 4.574 34.618-5.556 39.191-22.627l43.421-162.048 194.22-112.131 194.219 112.131 43.422 162.048c4.574 17.071 22.118 27.202 39.189 22.627s27.204-22.121 22.63-39.191l-26.859-100.229 80.896 46.706c15.309 8.837 34.88 3.593 43.716-11.713s3.593-34.876-11.716-43.713l-80.896-46.706 100.228-26.856c17.071-4.574 27.204-22.121 22.63-39.192s-22.123-27.2-39.194-22.626l-162.048 43.419-162.219-93.655 162.227-93.666 162.048 43.422c17.071 4.574 34.62-5.555 39.194-22.626s-5.559-34.62-22.63-39.194l-100.228-26.854 80.896-46.707c15.309-8.836 20.553-28.407 11.716-43.712s-28.407-20.548-43.716-11.712l-80.896 46.703 26.859-100.228c4.574-17.071-5.559-34.615-22.63-39.189s-34.615 5.555-39.189 22.626l-43.422 162.048-194.227 112.137-194.228-112.137-43.421-162.048c-4.574-17.071-22.121-27.2-39.192-22.626s-27.202 22.118-22.627 39.189l26.856 100.228-80.897-46.703c-15.305-8.836-34.876-3.593-43.713 11.712s-3.593 34.876 11.713 43.712l80.897 46.707-100.229 26.854c-17.071 4.574-27.202 22.123-22.627 39.194s22.121 27.2 39.192 22.626l162.048-43.422 162.228 93.666-162.22 93.655-162.048-43.419c-17.071-4.574-34.618 5.555-39.191 22.626s5.556 34.618 22.627 39.192l100.229 26.856-80.897 46.706c-15.305 8.837-20.549 28.407-11.712 43.713s28.407 20.55 43.712 11.713l80.897-46.706-26.856 100.229c-4.574 17.071 5.556 34.618 22.627 39.191z" />
<glyph unicode="&#xe924;" glyph-name="Star" d="M788.625 244.553c-27.149-6.49-55.488-9.929-84.625-9.929-200.294 0-362.667 162.372-362.667 362.668 0 20.628 1.722 40.854 5.031 60.542-1.544-1.485-3.14-2.853-4.82-4.128-11.973-9.089-26.884-12.463-56.706-19.21l-27.151-6.143c-104.946-23.745-157.42-35.618-169.904-75.763s23.289-81.979 94.834-165.64l18.51-21.645c20.331-23.774 30.496-35.661 35.069-50.368s3.037-30.566-0.038-62.285l-2.798-28.881c-10.817-111.625-16.225-167.437 16.459-192.247s81.814-2.189 180.077 43.051l25.421 11.708c27.921 12.855 41.882 19.285 56.683 19.285s28.762-6.43 56.683-19.285l25.421-11.708c98.261-45.239 147.392-67.861 180.079-43.051 32.683 24.811 27.273 80.623 16.457 192.247l-2.014 20.783zM390.529 729.242l-13.982-25.082c-15.357-27.55-23.036-41.325-35.009-50.414 1.68 1.276 3.276 2.643 4.82 4.128-3.309-19.688-5.031-39.914-5.031-60.542 0-200.294 162.37-362.666 362.668-362.666 29.137 0 57.472 3.435 84.625 9.924l-0.785 8.098c-3.076 31.723-4.612 47.582-0.038 62.289s14.737 26.594 35.068 50.368l18.513 21.645c71.543 83.661 107.315 125.495 94.831 165.639s-64.956 52.018-169.903 75.763l-27.149 6.143c-29.824 6.748-44.736 10.121-56.708 19.21s-19.652 22.864-35.008 50.414l-13.982 25.082c-54.046 96.949-81.067 145.424-121.463 145.424-40.401 0-67.422-48.475-121.467-145.424z" />
<glyph unicode="&#xe925;" glyph-name="Tag" d="M201.748 271.492c-65.943 65.941-98.914 98.914-111.183 141.692s-1.784 88.213 19.186 179.083l12.093 52.402c17.642 76.448 26.463 114.673 52.638 140.848s64.399 34.996 140.848 52.638l52.402 12.093c90.869 20.97 136.305 31.455 179.083 19.186s75.75-45.24 141.692-111.183l78.063-78.065c114.731-114.73 172.096-172.095 172.096-243.378s-57.365-128.649-172.096-243.379v0 0c-114.731-114.731-172.096-172.096-243.379-172.096s-128.648 57.365-243.378 172.096v0l-78.065 78.063zM431.893 649.797c33.604-33.603 33.604-88.086 0-121.69s-88.087-33.604-121.69 0c-33.604 33.605-33.604 88.087 0 121.69s88.086 33.604 121.69 0zM812.809 445.845l-297.771-297.779c-12.497-12.497-32.759-12.497-45.257 0-12.497 12.493-12.497 32.755 0 45.252l297.771 297.783c12.497 12.497 32.759 12.497 45.257 0s12.497-32.759 0-45.257z" />
<glyph unicode="&#xe926;" glyph-name="Tea-Cup" d="M96.018 453.082c2.35 39.39 31.397 72.026 70.244 78.933 7.411 1.318 16.587 1.318 34.938 1.318h450.887c18.355 0 27.529 0 34.94-1.318 9.459-1.681 18.338-4.89 26.394-9.348h97.225c88.367 0 160-71.633 160-160s-71.633-160-160-160h-92.378c-16.943-37.619-43.661-70.519-77.943-94.963-39.868-28.425-87.616-43.703-136.585-43.703h-154.191c-48.967 0-96.714 15.279-136.585 43.703-54.114 38.583-89.387 98.253-97.103 164.262l-17.096 146.261c-2.13 18.227-3.196 27.341-2.747 34.854zM756.757 458.667c0.23-1.843 0.401-3.708 0.516-5.585 0.448-7.514-0.619-16.627-2.748-34.85l-17.097-146.266c-0.209-1.771-0.435-3.537-0.683-5.299h73.899c53.022 0 96 42.982 96 96s-42.978 96-96 96h-53.888zM449.267 897.294c12.497-12.497 12.497-32.758 0-45.255-11.068-11.067-11.068-29.011 0-40.079 36.062-36.061 36.062-94.527 0-130.588-12.497-12.497-32.758-12.497-45.255 0s-12.497 32.758 0 45.255c11.068 11.067 11.068 29.011 0 40.079-36.061 36.061-36.061 94.527 0 130.588 12.497 12.497 32.758 12.497 45.255 0zM257.26 833.294c12.497-12.497 12.497-32.758 0-45.255l-4.954-4.954c-10.379-10.379-11.546-26.809-2.74-38.551 27.916-37.222 24.215-89.307-8.685-122.206l-4.954-4.954c-12.497-12.497-32.758-12.497-45.255 0s-12.497 32.758 0 45.255l4.954 4.954c10.379 10.379 11.546 26.809 2.74 38.551-27.916 37.222-24.215 89.307 8.685 122.206l4.954 4.954c12.497 12.497 32.758 12.497 45.255 0zM662.592 833.294c12.497-12.497 12.497-32.758 0-45.255l-4.954-4.954c-10.377-10.379-11.546-26.809-2.739-38.551 27.917-37.222 24.213-89.307-8.683-122.206l-4.958-4.954c-12.493-12.497-32.755-12.497-45.252 0s-12.497 32.758 0 45.255l4.954 4.954c10.381 10.379 11.546 26.809 2.739 38.551-27.917 37.222-24.213 89.307 8.687 122.206l4.954 4.954c12.497 12.497 32.759 12.497 45.252 0z" />
<glyph unicode="&#xe927;" glyph-name="Twitter---Dark" d="M322.14 31.97c386.319 0 597.681 320.141 597.681 597.679 0 9-0.201 18.2-0.602 27.2 41.118 29.734 76.599 66.564 104.781 108.76-38.293-17.037-78.95-28.163-120.58-33 43.836 26.275 76.655 67.553 92.382 116.18-41.237-24.439-86.336-41.679-133.363-50.98-31.684 33.666-73.574 55.957-119.198 63.427s-92.437-0.299-133.205-22.103c-40.764-21.804-73.212-56.431-92.326-98.526-19.11-42.095-23.825-89.315-13.41-134.357-83.499 4.19-165.187 25.881-239.766 63.667s-140.386 90.823-193.152 155.673c-26.819-46.239-35.026-100.955-22.952-153.027s43.521-97.594 87.952-127.313c-33.356 1.059-65.981 10.040-95.18 26.2v-2.6c-0.030-48.525 16.746-95.561 47.475-133.116s73.515-63.309 121.085-72.883c-30.899-8.457-63.329-9.685-94.78-3.601 13.423-41.732 39.54-78.229 74.706-104.405 35.166-26.172 77.626-40.713 121.454-41.596-74.407-58.445-166.322-90.15-260.94-89.997-16.78 0.026-33.543 1.054-50.2 3.076 96.122-61.666 207.937-94.417 322.14-94.357z" />
<glyph unicode="&#xe928;" glyph-name="User-2" d="M682.667 704c0-94.257-76.412-170.667-170.667-170.667-94.257 0-170.667 76.41-170.667 170.667s76.41 170.667 170.667 170.667c94.255 0 170.667-76.41 170.667-170.667zM853.333 213.333c0-106.039 0-192-341.333-192s-341.333 85.961-341.333 192c0 106.039 152.82 192 341.333 192s341.333-85.961 341.333-192z" />
<glyph unicode="&#xe929;" glyph-name="Waves" d="M310.72 73.259c-2.973-2.987-6.508-5.359-10.4-6.976s-8.066-2.449-12.28-2.449c-4.215 0-8.388 0.832-12.28 2.449s-7.427 3.989-10.4 6.976c-3 3.081-73.36 75.081-73.36 214.682 0 73.677 36.84 128.96 69.36 177.758 30.16 45.201 58.64 87.921 58.64 142.24 0.655 43.859-8.688 87.29-27.32 127-7.105 15.401-16.357 29.716-27.48 42.52-2.96 2.984-5.303 6.521-6.897 10.41s-2.404 8.054-2.387 12.257c0.017 4.203 0.861 8.361 2.485 12.238s3.995 7.395 6.979 10.355c2.984 2.96 6.521 5.303 10.411 6.896s8.054 2.404 12.257 2.387c4.203-0.017 8.361-0.861 12.238-2.485s7.395-3.995 10.355-6.979c3-3 73.36-75 73.36-214.6 0-73.68-36.84-128.958-69.36-177.76-30.16-45.201-58.64-87.919-58.64-142.238-0.655-43.861 8.688-87.292 27.32-127.002 7.105-15.403 16.357-29.717 27.48-42.522 5.962-6.007 9.3-14.131 9.286-22.596-0.015-8.461-3.383-16.576-9.365-22.562zM489.199 777.459c11.123-12.804 20.378-27.12 27.482-42.52 18.633-39.709 27.972-83.141 27.319-127 0-54.32-28.48-97.039-58.641-142.24-32.521-48.798-69.359-104.081-69.359-177.758 0-139.601 70.362-211.601 73.361-214.601 5.978-6.029 14.106-9.429 22.592-9.463s16.64 3.302 22.669 9.284c6.025 5.978 9.429 14.101 9.463 22.592 0.034 8.486-3.307 16.64-9.284 22.665-11.123 12.804-20.378 27.119-27.482 42.522-18.633 39.71-27.972 83.14-27.319 127.002 0 54.319 28.48 97.037 58.641 142.238 32.521 48.802 69.359 104 69.359 177.76 0 139.6-70.362 211.6-73.361 214.6-2.957 2.984-6.477 5.355-10.355 6.979-3.874 1.624-8.034 2.468-12.237 2.485s-8.367-0.794-12.258-2.387c-3.887-1.593-7.424-3.936-10.411-6.896-2.982-2.96-5.355-6.479-6.976-10.355-1.626-3.877-2.47-8.035-2.487-12.238s0.798-8.368 2.389-12.257c1.591-3.889 3.938-7.427 6.895-10.41zM713.199 777.459c11.123-12.804 20.378-27.12 27.482-42.52 18.633-39.709 27.972-83.141 27.319-127 0-54.32-28.48-97.039-58.641-142.24-32.521-48.798-69.359-104.081-69.359-177.758 0-139.601 70.362-211.601 73.361-214.601 5.978-6.029 14.106-9.429 22.592-9.463s16.64 3.302 22.669 9.284c6.025 5.978 9.429 14.101 9.463 22.592 0.034 8.486-3.307 16.64-9.284 22.665-11.123 12.804-20.378 27.119-27.482 42.522-18.633 39.71-27.972 83.14-27.319 127.002 0 54.319 28.48 97.037 58.641 142.238 32.521 48.802 69.359 104 69.359 177.76 0 139.6-70.362 211.6-73.361 214.6-5.978 6.026-14.106 9.43-22.592 9.463s-16.64-3.305-22.669-9.283c-6.025-5.978-9.429-14.105-9.463-22.593s3.307-16.641 9.284-22.667z" />
<glyph unicode="&#xe92a;" glyph-name="whatsapp-1" d="M368.912 699.928c12.344-29.792 42.432-103.24 46.048-110.784 3.608-7.528 7.224-17.768 2.104-27.696-4.816-10.24-9.024-14.752-16.552-23.48-7.52-8.735-14.736-15.352-22.264-24.688-6.92-8.119-14.744-16.858-6.016-31.902 8.72-14.754 38.808-63.812 83.047-103.236 57.178-50.863 103.514-67.132 120.064-74.044 12.339-5.124 27.089-3.913 36.113 5.717 11.439 12.335 25.574 32.806 40.026 52.975 10.223 14.451 23.159 16.256 36.702 11.145 13.841-4.817 86.967-40.934 102.007-48.461 15.040-7.539 24.977-11.14 28.587-17.459 3.614-6.319 3.614-36.117-8.721-71.040-12.343-34.901-61.393-63.817-100.514-72.239-26.773-5.713-61.687-10.231-179.341 38.528-150.458 62.319-247.354 215.232-254.882 225.152-7.224 9.946-60.784 80.977-60.784 154.424 0 73.44 37.32 109.256 52.36 124.608 12.344 12.64 32.8 18.36 52.368 18.36 6.328 0 12.032-0.296 17.152-0.592 15.040-0.608 22.568-1.512 32.496-25.288zM511.846 960c-282.255 0-511.846-229.656-511.846-511.991 0-111.97 36.112-215.817 97.496-300.096l-63.8-190.234 196.8 62.899c80.944-53.577 177.536-84.578 281.658-84.578 282.253 0 511.846 229.67 511.846 511.991 0 282.336-229.594 511.993-511.846 511.993h-0.299l-0.009 0.016z" />
<glyph unicode="&#xe92b;" glyph-name="WhatsappLogo" d="M610.321 379.085l91.998-45.922c-4.361-21.79-16.145-41.391-33.348-55.462-17.199-14.071-38.75-21.739-60.971-21.696-76.356 0.085-149.559 30.455-203.553 84.446-53.992 53.995-84.362 127.198-84.447 203.554-0.006 22.195 7.679 43.707 21.746 60.875s33.65 28.93 55.414 33.286l45.92-92-39.081-58.16c-2.92-4.382-4.715-9.412-5.224-14.656-0.509-5.239 0.282-10.522 2.304-15.386 22.895-54.413 66.184-97.702 120.601-120.597 4.873-2.112 10.202-2.978 15.492-2.517 5.295 0.461 10.389 2.231 14.827 5.154l58.321 39.083zM928 448.004c0.017-71.821-18.564-142.426-53.931-204.932-35.362-62.511-86.31-114.803-147.883-151.782-61.568-36.979-131.665-57.387-203.46-59.238-71.799-1.852-142.852 14.916-206.246 48.674l-136.2-45.402c-11.276-3.759-23.377-4.305-34.947-1.574s-22.15 8.627-30.555 17.033c-8.405 8.405-14.304 18.987-17.034 30.554-2.73 11.571-2.185 23.671 1.576 34.948l45.4 136.201c-29.674 55.791-46.248 117.606-48.464 180.762-2.216 63.151 9.984 125.979 35.675 183.713s64.196 108.855 112.594 149.486c48.398 40.63 105.416 69.701 166.726 85.005 61.308 15.304 125.3 16.439 187.115 3.32s119.829-40.148 169.638-79.036c49.809-38.888 90.103-88.611 117.824-145.397 27.725-56.785 42.146-119.142 42.172-182.332zM768 352.004c0.004 5.943-1.647 11.772-4.77 16.832s-7.595 9.148-12.911 11.806l-128 64c-5.039 2.513-10.65 3.648-16.269 3.298s-11.042-2.176-15.731-5.295l-58.761-39.202c-26.974 14.831-49.169 37.026-64 64l39.202 58.761c3.119 4.685 4.945 10.113 5.295 15.732 0.354 5.618-0.785 11.23-3.294 16.269l-64 128c-2.654 5.357-6.754 9.864-11.836 13.010-5.086 3.146-10.948 4.806-16.926 4.79-42.435 0-83.131-16.857-113.137-46.863s-46.863-70.703-46.863-113.137c0.106-93.324 37.225-182.796 103.215-248.785s155.46-103.108 248.785-103.215c21.013 0 41.818 4.139 61.231 12.177 19.409 8.043 37.047 19.827 51.908 34.684 14.857 14.861 26.641 32.499 34.679 51.908 8.043 19.413 12.181 40.218 12.181 61.231z" />
<glyph unicode="&#xe92c;" glyph-name="X" d="M822.656 182.622c2.974-2.974 5.333-6.502 6.942-10.385 1.609-3.887 2.436-8.051 2.436-12.254 0-4.207-0.828-8.367-2.436-12.254-1.609-3.883-3.968-7.415-6.942-10.385-2.97-2.974-6.502-5.333-10.385-6.942-3.887-1.609-8.047-2.436-12.254-2.436-4.203 0-8.367 0.828-12.254 2.436-3.883 1.609-7.411 3.968-10.385 6.942l-265.361 265.399-265.359-265.399c-6.004-6.007-14.148-9.378-22.64-9.378s-16.636 3.371-22.64 9.378c-6.004 6.003-9.378 14.148-9.378 22.639s3.373 16.636 9.378 22.639l265.4 265.361-265.4 265.359c-6.004 6.004-9.378 14.148-9.378 22.64s3.373 16.636 9.378 22.64c6.004 6.004 14.148 9.378 22.64 9.378s16.635-3.373 22.64-9.378l265.359-265.4 265.361 265.4c6.003 6.004 14.148 9.378 22.639 9.378s16.636-3.373 22.639-9.378c6.007-6.004 9.378-14.148 9.378-22.64s-3.371-16.635-9.378-22.64l-265.399-265.359 265.399-265.361z" />
<glyph unicode="&#xe92d;" glyph-name="YouTube---Dark" d="M1013.965 652.767c0 0-9.997 70.6-40.798 101.6-39.002 40.8-82.598 41-102.601 43.4-143.198 10.4-358.199 10.4-358.199 10.4h-0.401c0 0-214.999 0-358.199-10.4-20-2.4-63.6-2.6-102.6-43.4-30.8-31-40.6-101.6-40.6-101.6s-10.4-83-10.4-165.799v-77.602c0-82.799 10.2-165.798 10.2-165.798s10-70.601 40.6-101.602c39-40.798 90.2-39.398 113-43.797 82-7.799 348.2-10.202 348.2-10.202s215.202 0.401 358.4 10.603c20.002 2.398 63.599 2.598 102.601 43.396 30.801 31.002 40.798 101.602 40.798 101.602s10.202 82.799 10.202 165.798v77.602c0 82.799-10.202 165.799-10.202 165.799zM406.367 315.166v287.801l276.599-144.398-276.599-143.403z" />
<glyph unicode="&#xe92e;" glyph-name="uniE92E" d="M1005.295-49.749c10.539 9.532 17.101 22.532 18.423 36.501 2.261 22.148-9.178 43.78-32.060 44.881-16.098 0.781-34.125-9.092-45.568-24.094-36.983-48.393 15.433-96.132 59.204-57.289zM869.461 833.083c7.556 9.165 13.286 19.629 16.896 30.852 2.573 9.428 6.14 18.571 10.645 27.28-11.917 7.249-25.455 11.558-39.454 12.554-14.003 0.996-28.041-1.351-40.9-6.838-9.498-4.093-18.069-9.988-25.212-17.342 1.553 11.848 0.256 23.887-3.785 35.161s-10.718 21.474-19.499 29.791c-5.431 4.666-10.377 9.844-14.767 15.459-7.428-7.108-13.158-15.731-16.781-25.252s-5.047-19.706-4.173-29.827c0-2.208 0.465-4.222 0.734-6.495-8.973 15.782-21.965 29.037-37.722 38.481-15.753 9.444-33.737 14.759-52.211 15.429-10.5-0.43-21.013 0.333-31.33 2.273-1.314-19.39 1.967-38.814 9.579-56.768-12.757-2.728-25.28-6.419-37.453-11.042-13.577-4.907-26.799-10.7-39.578-17.342-19.644 26.778-48.909 45.333-81.95 51.962-1.050-13.193-3.456-26.249-7.185-38.971-4.766-20.078-5.060-40.922-0.862-61.12-17.882 6.696-37.588 7.11-55.744 1.169 3.419-8.896 5.937-18.099 7.517-27.475 1.039-4.581 2.372-9.093 3.991-13.51-13.984 6.439-29.605 8.699-44.9 6.495-29.202-3.118-55.61-21.11-71.907-50.533 9.551-5.557 18.47-12.089 26.607-19.485 1.929-1.624 3.991-3.118 5.987-4.612-16.63-7.924-33.259-15.459-49.756-23.773 0 2.208 0 4.547-0.4 6.95-1.508 16.198-6.421 31.919-14.433 46.179s-18.95 26.754-32.13 36.7c-5.312-9.124-11.648-17.642-18.891-25.396-11.564-14.416-19.337-31.377-22.641-49.402s-2.040-36.565 3.683-54.003c-1.264 1.494-2.661 3.053-4.125 4.611-6.911 7.299-15.469 12.924-24.995 16.431s-19.758 4.797-29.883 3.77c1.328-7.069 1.929-14.249 1.796-21.434 0.315-12.010 3.543-23.777 9.417-34.333s14.227-19.603 24.375-26.397c-10.449-0.567-20.664-3.243-30-7.859-24.080-11.042-42.039-34.425-48.492-64.954 9.471-2.253 18.644-5.564 27.339-9.869 11.804-5.030 24.573-7.535 37.45-7.343-3.392-22.276-8.248-44.753-23.614-59.234-6.543 7.855-15.657 13.265-25.809 15.326-8.147 1.95-16.661 1.903-24.785-0.137s-15.605-6.007-21.778-11.554c4.038-4.685 7.581-9.754 10.576-15.134 3.179-5.094 7.075-9.732 11.574-13.769-2.062 0.649-4.257 1.233-6.652 1.818-12.906 3.183-26.422 3.157-39.318-0.064s-24.761-9.54-34.517-18.381c6.327-7.398 11.896-15.381 16.63-23.838 11.133-18.257 28.17-32.38 48.426-40.141-13.974-9.523-26.321-21.141-36.585-34.423 13.276-10.773 25.379-22.857 36.12-36.049 39.911-44.429 96.052-62.81 146.34-53.005-6.515-14.588-10.409-30.165-11.508-46.050 12.241-1.143 24.313-3.627 35.986-7.403 19.607-5.474 40.404-5.38 59.959 0.269 19.555 5.645 37.058 16.614 50.461 31.62-1.302-10.654-0.853-21.44 1.331-31.953 8.039 1.856 16.285 2.731 24.545 2.594 12.364 0.597 24.381 4.186 34.972 10.445s19.419 14.993 25.694 25.412c15.031 0.516 30.199 0.713 45.299 0.585-1.165-5.039-2.052-10.133-2.662-15.266-1.638-16.171 0.137-32.495 5.214-47.97 5.082-15.471 13.359-29.764 24.32-41.988 7.019 7.607 14.921 14.387 23.548 20.203 17.105 13.222 29.453 31.424 35.255 51.959 4.446-9.357 10.85-17.702 18.799-24.491 7.953-6.793 17.276-11.878 27.366-14.933 1.186 7.172 3.149 14.208 5.85 20.979 4.151 12.425 5.065 25.66 2.662 38.515 49.954-9.677 103.77-25.98 146.675-57.549 6.118 44.429 45.299 86.972 89.933 84.437-9.698 21.751-13.457 45.585-10.91 69.175 44.169-4.092 84.877 31.373 63.991 95.219-8.188-2.829-16.597-5.001-25.143-6.494 5.129 9.412 6.323 20.403 3.324 30.656-3.503-1.050-7.121-1.681-10.778-1.882 5.722 18.965 10.377 35.789 13.773 51.507 7.479-1.626 15.27-1.246 22.549 1.105 8.009 2.526 15.275 6.895 21.193 12.74 5.914 5.845 10.304 12.992 12.796 20.838-5.436 2.163-10.611 4.907-15.433 8.183-6.677 4.105-14.191 6.746-22.016 7.731 12.638 8.572 22.549 18.445 27.537 43.453 2.227 12.457 1.805 25.228-1.242 37.519-3.042 12.291-8.644 23.84-16.452 33.928-6.071-5.436-12.766-10.166-19.955-14.095-4.279-2.718-8.269-5.852-11.904-9.353-1.796 8.704-3.925 17.862-6.255 27.605-1.596 6.495-3.127 13.9-4.591 21.37 17.562 8.638 31.531 14.095 39.915 42.804 3.209 11.46 3.964 23.444 2.21 35.202-1.749 11.758-5.969 23.036-12.39 33.128-6.161-4.487-12.86-8.218-19.955-11.107-6.601-3.265-12.638-7.516-17.894-12.601 0.998 30.787 6.652 60.276 19.959 82.814-5.76 6.793-11.866 13.297-18.295 19.486l0.798 0.065zM794.295 102.498c-0.614 7.147-0.030 14.34 1.732 21.303l68.911-73.655c-2.052-5.193-3.593-10.564-4.591-16.043-24.61 25.98-41.306 42.803-66.052 68.395zM869.73 60.732l-69.914 74.697c3.204 7.697 7.501 14.912 12.774 21.436l70.575-76.578c-5.167-5.99-9.63-12.527-13.303-19.486l-0.132-0.068zM890.615 88.013l-70.844 76.838c5.623 5.568 12.198 10.142 19.426 13.513l70.374-76.322c-6.891-3.887-13.261-8.597-18.957-14.029zM919.616 106.914l-69.111 74.893c6.046 1.079 12.279 0.631 18.099-1.301 5.824-1.933 11.042-5.286 15.159-9.741 18.359-23.253 32.329-37.35 52.22-59.366-5.568-0.887-11.017-2.389-16.23-4.484h-0.137zM888.021 4.617c-0.922 6.485-0.674 13.082 0.73 19.486l23.083-24.683c-1.673-5.397-2.79-10.948-3.324-16.563l-20.489 21.76zM916.16 10.722l-23.548 25.783c3.025 7.39 7.151 14.306 12.237 20.527l24.482-26.5c-5.18-5.905-9.519-12.459-12.907-19.486l-0.265-0.324zM936.58 37.871c5.982 5.239 12.702 9.613 19.955 12.992l-24.614 26.692c-7.377-3.153-14.131-7.552-19.955-12.988l24.614-26.697zM967.044 55.215l-23.812 25.98c2.876 0.478 5.798 0.627 8.713 0.452 3.49-0.098 6.921-0.9 10.082-2.355 3.157-1.451 5.978-3.524 8.277-6.089l13.303-15.002c-5.687-0.265-11.319-1.225-16.764-2.859l0.201-0.128zM673.634 460.514c-11.712 16.627-18.726 35.972-20.335 56.085-1.613 20.117 2.236 40.292 11.153 58.493 5.303 9.138 9.583 18.807 12.77 28.839 14.033-6.591 26.547-15.905 36.77-27.374s17.946-24.852 22.699-39.332c-11.358 15.902-26.701 28.694-44.565 37.153-3.2-10.048-7.484-19.737-12.774-28.904-13.154-26.515-15.206-56.992-5.717-84.96zM282.703 332.493c-14.406-12.378-32.433-20.023-51.531-21.854s-38.303 2.249-54.898 11.657c-9.079 5.402-18.71 9.865-28.736 13.316 3.717 14.020 10.656 27.025 20.292 38.033s21.714 19.725 35.317 25.489c-13.303-11.819-16.497-25.655-22.417-45.141 40.909-12.079 49.024-28.706 102.239-21.367l-0.266-0.132zM527.292 408.098c-44.237-2.338-89.468 23.253-113.747 68.527-5.521 11.716-12.205 22.878-19.956 33.318 13.521 10.342 29.384 17.365 46.257 20.484 16.875 3.12 34.27 2.244 50.726-2.556-13.969-11.627-28.736-16.951-47.36-30.592 19.422-24.034 55.74-80.93 84.211-89.182h-0.132zM597.666 660.049c-18.825 43.778-45.363 32.866-75.964 51.183-9.007-12.969-13.914-28.238-14.101-43.907-17.028 25.007-9.446 55.274 4.459 77.553 34.389-20.525 82.679-25.332 85.606-84.828zM708.42 738.772c-1.395 39.686 23.215 62.874 55.343 73.396 8.29 2.213 16.286 5.374 23.817 9.418 5.675-11.717 8.896-24.422 9.476-37.371 0.585-12.949-1.485-25.881-6.084-38.039 1.062 15.849-3.392 24.098-10.778 40.271-30.131-17.862-48.158-9.353-71.774-47.675zM332.858 492.992c-34.124 5.197-65.121 31.437-77.427 69.044-2.622 9.673-6.209 19.071-10.71 28.059 12.018 5.597 25.217 8.355 38.529 8.051s26.363-3.663 38.1-9.804c-13.303-6.495-24.944-9.548-41.108-16.823 19.955-35.919 16.962-45.789 52.616-78.528zM731.238 276.83c-30.4-16.823-70.046-13.38-100.843 11.887-7.415 6.737-15.531 12.702-24.213 17.796 6.007 12.011 14.818 22.477 25.724 30.558 10.906 8.077 23.603 13.538 37.069 15.949-15.322-8.841-27.755-21.747-35.853-37.218 8.704-5.094 16.841-11.059 24.282-17.796 10.001-8.538 21.786-14.852 34.534-18.509s26.155-4.565 39.3-2.667zM945.229-31.305c0.457 0.593 1.050 1.071 1.732 1.404 0.678 0.329 1.429 0.503 2.189 0.503 0.764 0 1.51-0.175 2.193-0.503 0.683-0.333 1.276-0.811 1.732-1.404 0.841-1.481 1.165-3.187 0.926-4.86-0.239-1.677-1.033-3.23-2.257-4.429-0.448-0.602-1.041-1.092-1.719-1.434-0.683-0.337-1.438-0.516-2.202-0.516-0.768 0-1.523 0.179-2.202 0.516-0.683 0.341-1.276 0.832-1.724 1.434-0.841 1.481-1.165 3.187-0.926 4.864 0.239 1.673 1.033 3.23 2.257 4.425zM956.335-9.609c0.619 0.819 1.425 1.485 2.355 1.941 0.93 0.461 1.958 0.7 2.999 0.7s2.069-0.239 2.999-0.7c0.93-0.457 1.737-1.122 2.355-1.941 1.148-2.022 1.587-4.352 1.25-6.639s-1.429-4.403-3.11-6.029c-0.619-0.819-1.425-1.485-2.355-1.941-0.93-0.461-1.958-0.7-2.999-0.7-1.045 0-2.069 0.239-2.999 0.7-0.93 0.457-1.741 1.122-2.355 1.941-1.156 2.010-1.596 4.331-1.259 6.609s1.434 4.386 3.119 5.99v0.068zM981.414-24.811c0.525 0.7 1.212 1.267 2.001 1.66 0.794 0.393 1.668 0.593 2.556 0.593 0.883 0 1.762-0.201 2.551-0.593 0.794-0.393 1.476-0.96 2.001-1.66 0.994-1.711 1.382-3.695 1.105-5.641-0.277-1.95-1.203-3.755-2.633-5.141-0.533-0.695-1.225-1.263-2.022-1.655s-1.677-0.593-2.569-0.593c-0.892 0-1.771 0.201-2.569 0.593s-1.489 0.96-2.022 1.655c-0.994 1.719-1.374 3.708-1.088 5.658 0.29 1.954 1.233 3.755 2.688 5.124zM994.317 0.457c0.717 0.956 1.655 1.728 2.735 2.266 1.079 0.533 2.274 0.811 3.486 0.811s2.406-0.277 3.486-0.811c1.079-0.538 2.018-1.31 2.731-2.266 1.357-2.334 1.882-5.039 1.498-7.693s-1.66-5.111-3.622-6.985c-0.717-0.956-1.655-1.728-2.735-2.261-1.079-0.538-2.274-0.815-3.486-0.815s-2.406 0.277-3.486 0.815c-1.079 0.533-2.018 1.306-2.735 2.261-1.353 2.334-1.877 5.039-1.493 7.693s1.66 5.111 3.622 6.985zM1001.835-25.135c0.448 0.606 1.041 1.097 1.724 1.434 0.683 0.341 1.434 0.516 2.202 0.516 0.764 0 1.519-0.175 2.202-0.516 0.678-0.337 1.271-0.828 1.719-1.434 0.845-1.476 1.169-3.183 0.926-4.86-0.239-1.677-1.028-3.23-2.253-4.429-0.452-0.602-1.041-1.092-1.724-1.434-0.683-0.337-1.438-0.512-2.202-0.512s-1.519 0.175-2.202 0.512c-0.683 0.341-1.271 0.832-1.724 1.434-0.841 1.481-1.165 3.187-0.926 4.864s1.033 3.23 2.257 4.425zM980.548 13.124c0.452 0.602 1.041 1.097 1.724 1.434s1.434 0.516 2.202 0.516c0.764 0 1.519-0.179 2.202-0.516s1.271-0.832 1.724-1.434c0.862-1.476 1.199-3.187 0.96-4.868-0.243-1.681-1.050-3.234-2.291-4.42-0.452-0.606-1.041-1.097-1.724-1.434-0.683-0.341-1.438-0.516-2.202-0.516s-1.519 0.175-2.202 0.516c-0.683 0.337-1.271 0.828-1.724 1.434-0.845 1.468-1.173 3.166-0.934 4.83 0.243 1.668 1.037 3.213 2.266 4.395v0.064zM1012.143-12.339c0.243 0.324 0.559 0.585 0.922 0.768 0.363 0.179 0.768 0.273 1.173 0.273 0.41 0 0.815-0.094 1.178-0.273 0.363-0.183 0.678-0.444 0.917-0.768 0.444-0.789 0.61-1.694 0.478-2.586s-0.555-1.715-1.207-2.351c-0.239-0.32-0.555-0.585-0.922-0.764-0.363-0.179-0.764-0.273-1.173-0.273s-0.811 0.094-1.173 0.273c-0.367 0.179-0.683 0.444-0.922 0.764-0.444 0.789-0.61 1.698-0.478 2.59 0.132 0.887 0.555 1.715 1.207 2.347zM976.823-43.776c0.384 0.512 0.883 0.926 1.459 1.212 0.58 0.286 1.22 0.435 1.865 0.435 0.649 0 1.289-0.149 1.865-0.435 0.58-0.286 1.079-0.7 1.463-1.212 0.713-1.242 0.986-2.675 0.781-4.083s-0.875-2.709-1.911-3.708c-0.375-0.525-0.87-0.951-1.451-1.246s-1.225-0.448-1.877-0.448c-0.653 0-1.293 0.154-1.873 0.448s-1.075 0.721-1.451 1.246c-0.713 1.237-0.986 2.675-0.781 4.083s0.875 2.709 1.911 3.708zM999.373 19.098c0.329 0.431 0.755 0.781 1.246 1.020 0.491 0.243 1.033 0.367 1.583 0.367 0.546 0 1.088-0.124 1.579-0.367 0.491-0.239 0.917-0.589 1.246-1.020 0.559-1.045 0.764-2.236 0.585-3.405-0.179-1.165-0.734-2.249-1.583-3.089-0.32-0.431-0.738-0.781-1.225-1.020s-1.024-0.367-1.566-0.367c-0.546 0-1.084 0.128-1.57 0.367s-0.905 0.589-1.225 1.020c-0.614 1.062-0.858 2.291-0.687 3.499 0.166 1.207 0.734 2.33 1.617 3.191v-0.196z" />
<glyph unicode="&#xe92f;" glyph-name="--" d="M720.828 960c-61.798 0-113.323-47.799-117.7-109.44l-31.522-440.107c-1.399-19.196 5.214-38.204 18.355-52.271 13.099-14.067 31.454-22.221 50.667-22.221h1.852l-10.769-344.597c-0.474-14.746 5.082-28.629 15.356-39.177 10.249-10.611 24.363-16.141 39.104-16.141h45.205c30.076 0 55.159 23.684 55.159 53.803v904.807c0 36.081-29.602 65.344-65.707 65.344zM460.868 959.294h-4.608c-10.995 0-19.439-8.241-19.439-19.282v-193.953c0-17.205-14.429-31.272-31.612-31.272h-4.629c-17.182 0-31.746 14.067-31.746 31.272v193.953c0 11.018-8.287 19.282-19.305 19.282h-4.674c-11.018 0-19.779-8.241-19.779-19.282v-193.953c0-17.205-14.089-31.272-31.294-31.272h-4.606c-17.182 0-30.504 14.067-30.504 31.272v193.953c0 11.018-9.551 19.282-20.569 19.282h-4.629c-10.996 0-20.14-8.241-20.14-19.282v-293.368c0-36.081 29.42-64.621 65.501-64.621h8.716l-18.424-590.505c-0.474-14.746 5.058-28.698 15.331-39.287 10.251-10.59 24.385-16.213 39.152-16.213h43.442c14.722 0 28.856 5.623 39.129 16.213 10.274 10.611 15.783 24.721 15.354 39.467l-18.425 590.348h12.419c36.103 0 65.027 28.562 65.027 64.621v293.368c-0.043 11.041-8.623 19.26-19.686 19.26z" />
</font>
</defs>
</svg>
