<svg width="110" height="52" viewBox="0 0 110 52" fill="none" xmlns="http://www.w3.org/2000/svg">
<rect width="109" height="53" transform="translate(0.5)" fill="#F78D40"/>
<path d="M17.963 15.272C18.0143 15.2767 18.082 15.2813 18.166 15.286C18.25 15.286 18.3643 15.286 18.509 15.286C19.1017 15.286 19.5427 15.1367 19.832 14.838C20.126 14.5347 20.273 14.1123 20.273 13.571C20.273 13.0203 20.1307 12.598 19.846 12.304C19.5613 12.01 19.1203 11.863 18.523 11.863C18.2617 11.863 18.075 11.87 17.963 11.884V15.272ZM21.197 13.571C21.197 13.991 21.1317 14.3573 21.001 14.67C20.8703 14.978 20.6837 15.237 20.441 15.447C20.203 15.6523 19.9137 15.8063 19.573 15.909C19.237 16.007 18.8637 16.056 18.453 16.056C18.257 16.056 18.0353 16.0467 17.788 16.028C17.5407 16.014 17.305 15.9813 17.081 15.93V11.219C17.305 11.1677 17.543 11.135 17.795 11.121C18.047 11.107 18.271 11.1 18.467 11.1C18.873 11.1 19.244 11.149 19.58 11.247C19.916 11.3403 20.203 11.4897 20.441 11.695C20.6837 11.8957 20.8703 12.1523 21.001 12.465C21.1317 12.773 21.197 13.1417 21.197 13.571ZM22.3001 16V11.149H25.4151V11.898H23.1821V13.095H25.1701V13.83H23.1821V15.251H25.5831V16H22.3001ZM27.9277 16C27.5777 15.244 27.2393 14.453 26.9127 13.627C26.5907 12.801 26.2897 11.975 26.0097 11.149H26.9827C27.0947 11.4757 27.209 11.8093 27.3257 12.15C27.4423 12.4907 27.559 12.8267 27.6757 13.158C27.7923 13.4847 27.909 13.802 28.0257 14.11C28.1423 14.418 28.2567 14.7003 28.3687 14.957C28.476 14.7003 28.588 14.4203 28.7047 14.117C28.8213 13.809 28.938 13.4893 29.0547 13.158C29.176 12.8267 29.295 12.4907 29.4117 12.15C29.5283 11.8093 29.6403 11.4757 29.7477 11.149H30.6927C30.408 11.975 30.1047 12.801 29.7827 13.627C29.4607 14.453 29.1247 15.244 28.7747 16H27.9277ZM31.46 16V11.149H34.575V11.898H32.342V13.095H34.33V13.83H32.342V15.251H34.743V16H31.46ZM38.7675 15.237V16H35.7015V11.149H36.5835V15.237H38.7675ZM40.0215 13.571C40.0215 13.837 40.0542 14.0797 40.1195 14.299C40.1849 14.5137 40.2782 14.698 40.3995 14.852C40.5255 15.0013 40.6772 15.118 40.8545 15.202C41.0319 15.286 41.2325 15.328 41.4565 15.328C41.6759 15.328 41.8742 15.286 42.0515 15.202C42.2289 15.118 42.3782 15.0013 42.4995 14.852C42.6255 14.698 42.7212 14.5137 42.7865 14.299C42.8519 14.0797 42.8845 13.837 42.8845 13.571C42.8845 13.305 42.8519 13.0647 42.7865 12.85C42.7212 12.6307 42.6255 12.4463 42.4995 12.297C42.3782 12.143 42.2289 12.024 42.0515 11.94C41.8742 11.856 41.6759 11.814 41.4565 11.814C41.2325 11.814 41.0319 11.856 40.8545 11.94C40.6772 12.024 40.5255 12.143 40.3995 12.297C40.2782 12.451 40.1849 12.6353 40.1195 12.85C40.0542 13.0647 40.0215 13.305 40.0215 13.571ZM43.8085 13.571C43.8085 13.9863 43.7455 14.3527 43.6195 14.67C43.4982 14.9873 43.3302 15.2533 43.1155 15.468C42.9055 15.678 42.6582 15.8367 42.3735 15.944C42.0889 16.0513 41.7855 16.105 41.4635 16.105C41.1415 16.105 40.8359 16.0513 40.5465 15.944C40.2619 15.8367 40.0122 15.678 39.7975 15.468C39.5875 15.2533 39.4195 14.9873 39.2935 14.67C39.1675 14.3527 39.1045 13.9863 39.1045 13.571C39.1045 13.1557 39.1675 12.7917 39.2935 12.479C39.4195 12.1617 39.5899 11.8957 39.8045 11.681C40.0239 11.4663 40.2759 11.3053 40.5605 11.198C40.8452 11.0907 41.1462 11.037 41.4635 11.037C41.7809 11.037 42.0819 11.0907 42.3665 11.198C42.6512 11.3053 42.8985 11.4663 43.1085 11.681C43.3232 11.8957 43.4935 12.1617 43.6195 12.479C43.7455 12.7917 43.8085 13.1557 43.8085 13.571ZM46.2881 11.1C46.9928 11.1 47.5318 11.2283 47.9051 11.485C48.2831 11.7417 48.4721 12.143 48.4721 12.689C48.4721 12.9737 48.4208 13.2187 48.3181 13.424C48.2201 13.6247 48.0755 13.7903 47.8841 13.921C47.6928 14.047 47.4595 14.1403 47.1841 14.201C46.9088 14.2617 46.5938 14.292 46.2391 14.292H45.7981V16H44.9161V11.219C45.1215 11.1723 45.3478 11.142 45.5951 11.128C45.8471 11.1093 46.0781 11.1 46.2881 11.1ZM46.3511 11.863C46.1271 11.863 45.9428 11.87 45.7981 11.884V13.536H46.2251C46.6498 13.536 46.9765 13.4777 47.2051 13.361C47.4338 13.2397 47.5481 13.0133 47.5481 12.682C47.5481 12.5233 47.5178 12.3903 47.4571 12.283C47.3965 12.1757 47.3125 12.0917 47.2051 12.031C47.0978 11.9703 46.9695 11.9283 46.8201 11.905C46.6755 11.877 46.5191 11.863 46.3511 11.863ZM49.4174 16V11.149H52.5324V11.898H50.2994V13.095H52.2874V13.83H50.2994V15.251H52.7004V16H49.4174ZM54.541 15.272C54.5923 15.2767 54.66 15.2813 54.744 15.286C54.828 15.286 54.9423 15.286 55.087 15.286C55.6797 15.286 56.1207 15.1367 56.41 14.838C56.704 14.5347 56.851 14.1123 56.851 13.571C56.851 13.0203 56.7087 12.598 56.424 12.304C56.1393 12.01 55.6983 11.863 55.101 11.863C54.8397 11.863 54.653 11.87 54.541 11.884V15.272ZM57.775 13.571C57.775 13.991 57.7097 14.3573 57.579 14.67C57.4483 14.978 57.2617 15.237 57.019 15.447C56.781 15.6523 56.4917 15.8063 56.151 15.909C55.815 16.007 55.4417 16.056 55.031 16.056C54.835 16.056 54.6133 16.0467 54.366 16.028C54.1187 16.014 53.883 15.9813 53.659 15.93V11.219C53.883 11.1677 54.121 11.135 54.373 11.121C54.625 11.107 54.849 11.1 55.045 11.1C55.451 11.1 55.822 11.149 56.158 11.247C56.494 11.3403 56.781 11.4897 57.019 11.695C57.2617 11.8957 57.4483 12.1523 57.579 12.465C57.7097 12.773 57.775 13.1417 57.775 13.571ZM62.1149 16.056C61.8582 16.056 61.5992 16.0467 61.3379 16.028C61.0766 16.014 60.8479 15.9813 60.6519 15.93V11.219C60.7546 11.2003 60.8642 11.184 60.9809 11.17C61.0976 11.1513 61.2166 11.1373 61.3379 11.128C61.4592 11.1187 61.5782 11.1117 61.6949 11.107C61.8162 11.1023 61.9306 11.1 62.0379 11.1C62.3319 11.1 62.6049 11.1233 62.8569 11.17C63.1089 11.212 63.3259 11.2843 63.5079 11.387C63.6946 11.4897 63.8392 11.625 63.9419 11.793C64.0446 11.961 64.0959 12.1687 64.0959 12.416C64.0959 12.6447 64.0399 12.8407 63.9279 13.004C63.8206 13.1673 63.6689 13.298 63.4729 13.396C63.7669 13.494 63.9839 13.6387 64.1239 13.83C64.2639 14.0213 64.3339 14.264 64.3339 14.558C64.3339 15.0573 64.1519 15.433 63.7879 15.685C63.4239 15.9323 62.8662 16.056 62.1149 16.056ZM61.5199 13.816V15.293C61.6179 15.3023 61.7229 15.3093 61.8349 15.314C61.9469 15.3187 62.0496 15.321 62.1429 15.321C62.3249 15.321 62.4929 15.3093 62.6469 15.286C62.8056 15.2627 62.9409 15.223 63.0529 15.167C63.1696 15.1063 63.2606 15.027 63.3259 14.929C63.3959 14.831 63.4309 14.705 63.4309 14.551C63.4309 14.2757 63.3306 14.0843 63.1299 13.977C62.9292 13.8697 62.6516 13.816 62.2969 13.816H61.5199ZM61.5199 13.123H62.1429C62.4789 13.123 62.7426 13.0763 62.9339 12.983C63.1252 12.885 63.2209 12.7123 63.2209 12.465C63.2209 12.2317 63.1206 12.066 62.9199 11.968C62.7239 11.87 62.4672 11.821 62.1499 11.821C62.0146 11.821 61.8932 11.8233 61.7859 11.828C61.6832 11.8327 61.5946 11.8397 61.5199 11.849V13.123ZM66.8663 13.298C67.0763 12.948 67.2816 12.5933 67.4823 12.234C67.6829 11.8747 67.8649 11.513 68.0283 11.149H69.0083C68.7469 11.6437 68.4739 12.136 68.1893 12.626C67.9093 13.1113 67.6083 13.6013 67.2863 14.096V16H66.4043V14.11C66.0823 13.6107 65.7789 13.116 65.4943 12.626C65.2096 12.136 64.9366 11.6437 64.6753 11.149H65.7113C65.8746 11.513 66.0543 11.8747 66.2503 12.234C66.4463 12.5933 66.6516 12.948 66.8663 13.298Z" fill="#F0F0F0" fill-opacity="0.5"/>
<g clip-path="url(#clip0_1046_13558)">
<path d="M18.7506 27.9693C18.8331 28.5749 19.549 28.9786 20.4257 28.9786C21.3478 28.9786 21.946 28.5866 21.946 28.0555C21.946 27.5656 21.5541 27.3265 20.502 27.1187L19.2849 26.8914C17.5706 26.5798 16.6877 25.6978 16.6877 24.3573C16.6877 22.6425 18.2349 21.5391 20.3865 21.5391C22.7134 21.5391 24.0873 22.6111 24.1121 24.2711H21.9275C21.8821 23.6282 21.257 23.2422 20.4071 23.2422C19.5572 23.2422 19.0332 23.5969 19.0332 24.1358C19.0332 24.614 19.4458 24.8767 20.4195 25.0668L21.6242 25.2804C23.4623 25.6175 24.2874 26.4073 24.2874 27.8047C24.2874 29.5685 22.7588 30.6817 20.3679 30.6817C17.977 30.6817 16.5289 29.6881 16.5 27.9693H18.7506Z" fill="#F0F0F0"/>
<path d="M32.2585 30.5328V26.9757H28.5452V30.5328H26.1874V21.6978H28.5514V25.1628H32.2647V21.6978H34.6225V30.5328H32.2585Z" fill="#F0F0F0"/>
<path d="M36.3059 30.5328L39.427 21.6978H42.3151L45.4507 30.5328H42.934L42.346 28.5925H39.3094L36.3059 30.5328ZM39.7653 26.9757H41.886L40.8546 23.5714H40.803L39.7653 26.9757Z" fill="#F0F0F0"/>
<path d="M47.1319 30.5328V21.6978H51.1608C53.1577 21.6978 54.5109 22.9286 54.5109 24.8336C54.5109 26.7385 53.0875 27.9497 51.0184 27.9497H49.4981L47.1319 30.5328ZM49.4981 26.2603H50.5295C51.5342 26.2603 52.1262 25.7645 52.1262 24.8394C52.1262 23.9144 51.5342 23.4244 50.5419 23.4244H49.5105L49.4981 26.2603Z" fill="#F0F0F0"/>
<path d="M65.2813 26.1173C65.2813 28.9336 63.5093 30.6857 60.6914 30.6857C57.8734 30.6857 56.0973 28.9336 56.0973 26.1173C56.0973 23.301 57.8755 21.543 60.6914 21.543C63.5072 21.543 65.2813 23.301 65.2813 26.1173ZM58.5067 26.1173C58.5067 27.7949 59.3649 28.861 60.6914 28.861C62.0178 28.861 62.878 27.7949 62.878 26.1173C62.878 24.4397 62.0137 23.3735 60.6914 23.3735C59.369 23.3735 58.5067 24.4416 58.5067 26.1173Z" fill="#F0F0F0"/>
<path d="M69.6897 23.9693L70.8676 28.3338H70.9192L72.7057 21.6978H75.2967L72.3302 30.5328H69.3535L66.3891 21.6978" fill="#F0F0F0"/>
<path d="M75.3792 30.5328L78.5045 21.6978H81.3925L84.5178 30.5328H82.0114L81.4235 28.5925H78.3828L75.3792 30.5328ZM78.8407 26.9757H80.9614L79.9299 23.5714H79.8784L78.8407 26.9757Z" fill="#F0F0F0"/>
<path d="M88.5714 28.7199H92.4187V30.5328H86.2053V21.6978" fill="#F0F0F0"/>
<path d="M16.5664 42.3732L19.7515 33.3716H22.6994L25.8845 42.3732H23.3224L22.718 40.3957H19.6236L16.5664 42.3732ZM20.0898 38.7494H22.2518L21.1997 35.2805H21.1481L20.0898 38.7494Z" fill="#F0F0F0"/>
<path d="M39.3882 37.4638V38.5691C39.3882 41.0268 37.7854 42.53 35.0871 42.53C32.164 42.53 30.4043 40.8151 30.4043 37.8577C30.4043 34.9375 32.164 33.2148 35.0273 33.2148C37.3253 33.2148 39.0458 34.5064 39.2892 36.3506H36.9066C36.6693 35.5529 35.9597 35.0669 35.0335 35.0669C33.6678 35.0669 32.8612 36.0821 32.8612 37.8361C32.8612 39.5902 33.7545 40.6995 35.1304 40.6995C36.2217 40.6995 36.987 40.088 37.0489 39.1826V39.0454H35.3161" fill="#F0F0F0"/>
<path d="M51.5201 42.3732H45.0241V33.3716H51.5201V35.2198H47.4356V37.0111H51.2767V38.6946H47.4356V40.529H51.5201V42.3732Z" fill="#F0F0F0"/>
<path d="M57.321 42.3732V33.3716H59.2436L63.2642 38.6064H63.3158V33.3716H65.6015V42.3732H63.6974L59.6582 37.0816H59.6067V42.3732H57.321Z" fill="#F0F0F0"/>
<path d="M70.9237 37.8832C70.9237 34.9434 72.6999 33.2423 75.5137 33.2423C77.9046 33.2423 79.7178 34.7043 79.79 36.8249H77.4775C77.36 35.7685 76.5678 35.061 75.5137 35.061C74.2037 35.061 73.3724 36.1252 73.3724 37.8675C73.3724 39.6098 74.1975 40.7073 75.5281 40.7073C76.5822 40.7073 77.3496 40.0469 77.5002 38.9964H79.8107C79.6993 41.1306 77.9541 42.5358 75.5219 42.5358C72.6854 42.53 70.9237 40.819 70.9237 37.8832Z" fill="#F0F0F0"/>
<path d="M87.0143 42.3732V39.2806L83.7508 33.3716H86.3377L88.2211 37.1149H88.2686L90.1458 33.3716H92.6873L89.4238 39.2806V42.3732H87.0143Z" fill="#F0F0F0"/>
</g>
<defs>
<clipPath id="clip0_1046_13558">
<rect width="77" height="24" fill="white" transform="translate(16.5 21)"/>
</clipPath>
</defs>
</svg>
