<svg width="64" height="64" viewBox="0 0 64 64" fill="none" xmlns="http://www.w3.org/2000/svg">
<rect width="64" height="64" fill="#14120D"/>
<path d="M49.9494 38.3476C49.8246 36.6177 49.2994 35.0113 48.4041 33.5373C47.5218 32.0854 46.3467 30.9556 44.8746 30.148C44.6723 30.0333 44.47 29.9097 44.2505 29.7817L44.2333 29.7685L44.3495 29.6625L44.3839 29.6361L44.7455 29.3095L44.7627 29.2918C45.262 28.824 45.6882 28.2945 46.054 27.6987C46.5275 26.922 46.9106 26.0967 47.0784 25.1964C47.2334 24.3888 47.3496 23.5724 47.4228 22.7515C47.5648 21.2069 47.3496 19.6932 46.8116 18.2457C46.2649 16.7805 45.3868 15.5493 44.2333 14.5519C43.3036 13.7487 41.5474 12.8705 40.3767 12.5307C39.8731 12.385 39.3609 12.2615 38.8486 12.1556C38.2977 12.0364 37.7166 12.0055 37.1528 12.0055C30.2186 11.9967 23.28 12.0011 16.3458 12.0011H14V49.5394L14.099 49.3982L14.2152 49.2393L14.7102 48.5597L14.2841 49.1422C14.3185 49.0892 14.353 49.0407 14.3917 48.9877C14.6069 48.6965 14.8221 48.4052 15.033 48.1095L14.7102 48.5553L15.3085 47.7344C15.8638 46.9798 16.4233 46.2207 16.9786 45.4661C17.5812 44.6496 18.201 43.8376 18.8036 43.0123C19.0791 42.6372 19.3029 42.2136 19.4062 41.7546C19.5181 41.2603 19.5138 40.7572 19.3976 40.2541C19.2168 39.4774 18.9715 38.7228 18.7132 37.9769C18.2483 36.6353 17.6974 35.3246 17.5338 33.8903C17.4133 32.7782 17.3832 31.6794 17.8007 30.6202C18.0073 30.0994 18.5668 29.6184 19.2211 29.7905C19.7376 29.9229 20.1078 30.2936 20.5296 30.5849C20.7836 30.7614 21.0117 30.9777 21.2872 31.1277C21.7434 31.3793 22.346 31.1939 22.5741 30.7438C22.6904 30.501 22.798 30.2407 22.8453 29.9803C23.0433 28.9432 23.2155 27.8973 23.4049 26.8602C23.6416 25.5583 23.9859 24.2917 24.6531 23.1355C25.0663 22.425 25.9745 22.0675 26.6632 22.4338C26.8655 22.5441 27.0592 22.6633 27.24 22.8001C28.2041 23.5018 29.2845 23.0737 29.5858 21.9042C29.5858 21.8954 29.5858 21.8866 29.5901 21.8777C29.8398 20.898 30.0421 19.9006 30.4897 18.9915C30.6447 18.6694 30.8556 18.3472 31.1268 18.131C32.1297 17.319 33.5931 17.7867 34.0838 19.0224C34.4497 19.9271 35.0307 20.1125 35.7065 19.83C36.4985 19.4946 37.2474 19.0666 38.0136 18.6738C38.2116 18.5767 38.401 18.462 38.6033 18.3781C38.9907 18.2192 39.3781 17.9942 39.7784 17.9544C40.8501 17.8574 41.7799 19.0445 41.4829 20.1125C41.3322 20.6509 41.1127 21.1716 40.8674 21.6659C40.5488 22.3102 40.2346 22.9457 40.0969 23.6607C39.8688 24.8346 40.3035 25.6951 41.4829 26.0482C41.6636 26.1055 41.8444 26.1762 42.0166 26.26C42.5632 26.516 42.9592 27.2441 42.6235 27.9017C42.4255 28.2901 42.1242 28.5548 41.7928 28.7623C41.1945 29.1418 40.5359 29.4154 39.9635 29.8347C39.2619 30.351 39.0768 30.7923 39.6837 31.5426C40.1141 32.0765 40.6392 32.5223 41.0869 33.043C41.4441 33.4623 41.8014 33.8904 42.0769 34.3758C42.5934 35.2849 42.107 36.4941 41.2676 36.9972C40.7684 37.2885 40.2131 37.2797 39.6621 37.2443C38.8486 37.1958 38.0351 37.1296 37.2173 37.1208C36.8515 37.1164 36.5286 37.2179 36.2445 37.3988C35.3622 37.9593 35.1168 39.1773 35.6161 40.1129C36.0164 40.8631 36.4167 41.6134 36.5544 42.4695C36.7998 43.9965 36.1972 45.2013 34.9059 45.8059C34.3464 46.0707 33.6921 46.1986 33.0723 46.256C31.5055 46.3972 29.9775 46.2339 28.4968 45.6205C27.7952 45.3293 27.1367 44.9894 26.5513 44.4996C26.2973 44.2922 26.0735 44.0406 25.8755 43.7714C25.4881 43.2374 25.2815 42.6328 25.4709 41.9753C25.656 41.3221 25.8239 40.6469 26.1209 40.0467C26.5728 39.1244 27.1066 38.2373 27.6446 37.3591C28.4925 35.991 29.3663 34.645 30.2358 33.2902C30.9072 32.2398 31.5873 31.1983 32.2588 30.148C32.4568 29.8391 32.6462 29.5169 32.8097 29.1815C32.8571 29.0888 32.8312 28.8814 32.7753 28.8373C32.6806 28.7755 32.5041 28.7799 32.4051 28.8373C32.2631 28.9167 32.1555 29.0579 32.0565 29.1903C31.4754 29.9362 30.9029 30.6864 30.3262 31.4366C29.4179 32.6194 28.5011 33.7977 27.5929 34.976C26.9172 35.8542 26.2543 36.728 25.5828 37.6018C24.6273 38.8463 23.6674 40.082 22.7162 41.3265C22.0232 42.2312 21.3345 43.1359 20.6415 44.0406C20.2326 44.579 19.8151 45.1086 19.4019 45.647C18.5798 46.7326 17.749 47.8139 16.9269 48.8995C16.2468 49.791 15.5711 50.6824 14.8953 51.5739L14.5725 51.9975H17.112C23.7406 51.9975 30.3649 52.0019 36.9892 51.9931C37.9878 51.9931 38.995 52.0505 39.9979 51.8342C40.9706 51.6268 41.9477 51.4812 42.8818 51.0752C43.7555 50.6956 44.6164 50.2852 45.3524 49.663C45.8732 49.2261 46.3811 48.7715 46.8632 48.2949C47.7714 47.4034 48.4214 46.3178 48.9379 45.1527C49.5276 43.8552 49.8848 42.4916 49.9709 41.0661C50.0226 40.1614 50.001 39.2479 49.9408 38.3432L49.9494 38.3476ZM14.3788 12.0055C14.3486 12.0055 14.3228 12.0143 14.297 12.0232V12.0055C14.3185 12.0055 14.3486 12.0055 14.3788 12.0055Z" fill="#BAA886"/>
</svg>
