<svg width="213" height="26" viewBox="0 0 213 26" fill="none" xmlns="http://www.w3.org/2000/svg">
<path d="M138.932 0.801928C139.268 0.801928 139.639 0.912411 140.233 1.08504V0.608582H136.903V1.08504C137.512 0.912411 137.876 0.801928 138.219 0.801928H138.268V3.77807C138.268 4.17167 138.219 4.33049 137.953 4.43407V4.46169H139.205V4.43407C138.925 4.33049 138.89 4.17167 138.89 3.77807V0.801928H138.939H138.932Z" fill="#F6F3EF"/>
<path d="M145.04 3.77796V1.28518C145.04 0.86396 145.082 0.725856 145.348 0.629183V0.601562H144.369L142.997 3.72272L141.598 0.601562H140.612V0.629183C140.885 0.732761 140.927 0.870865 140.927 1.28518V3.77796C140.927 4.17155 140.885 4.33037 140.591 4.43395V4.46157H141.556V4.43395C141.255 4.33037 141.213 4.17155 141.213 3.77796V1.12636L142.753 4.50991H142.914L144.446 1.0435V3.77796C144.446 4.17155 144.397 4.33037 144.11 4.43395V4.46157H145.362V4.43395C145.082 4.33037 145.04 4.17155 145.04 3.77796Z" fill="#F6F3EF"/>
<path d="M17.7174 11.8986V11.65C20.0681 10.8629 21.3834 9.10893 21.3834 6.57472C21.3834 2.67328 18.2491 0.601715 12.2814 0.601715H0.5V0.746724C1.9412 1.31986 2.31199 2.60422 2.31199 3.85407V21.6902C2.31199 22.9401 1.9412 24.2244 0.5 24.8321V24.9771H11.9106C18.8718 24.9771 22.4188 21.9733 22.4188 17.4711C22.4188 15.075 20.8936 12.7549 17.7244 11.8986H17.7174ZM8.48955 3.70906H10.7143C13.5547 3.70906 15.0449 4.8208 15.0449 6.89236C15.0449 8.96392 13.5197 10.4278 11.1691 10.4278H8.48955V3.70906ZM11.246 21.4762H8.48955V13.6802H11.0851C14.1354 13.6802 15.9474 15.1165 15.9474 17.5402C15.9474 19.9639 14.1354 21.4692 11.246 21.4692V21.4762Z" fill="#F6F3EF"/>
<path d="M72.172 0.601746V0.746755C73.6551 1.31989 73.984 2.60426 73.984 3.8541V14.5434L63.6857 0.601746H56.6406V0.746755C58.0818 1.31989 58.4526 2.60426 58.4526 3.8541V21.7248C58.4526 22.9746 58.0818 24.259 56.6406 24.8321V24.9771H64.5532V24.8321C63.07 24.259 62.7412 22.9746 62.7412 21.7248V9.71662L73.991 24.9771H78.2796V3.8541C78.2796 2.60426 78.6504 1.31989 80.0916 0.746755V0.601746H72.172Z" fill="#F6F3EF"/>
<path d="M102.775 0.601624V0.815685C103.72 1.42334 103.23 2.60413 102.566 3.85398L98.9416 10.8628L95.2757 3.85398C94.618 2.60413 94.1213 1.42334 95.1077 0.815685V0.601624H85.8799V0.850211C87.447 1.42334 87.9787 2.67319 88.6433 3.85398L95.0658 15.365V21.7316C95.0658 22.9814 94.695 24.2658 93.2538 24.8389V24.9839H103.055V24.8389C101.614 24.2658 101.243 22.9814 101.243 21.7316V14.8333L107.302 3.86088C107.918 2.68009 108.456 1.43025 110.023 0.857116V0.608528H102.775V0.601624Z" fill="#F6F3EF"/>
<path d="M136.631 21.6902L130.243 3.85407C130.194 3.69525 130.145 3.54333 130.103 3.38451L129.117 0.601715H121.344V0.815776C122.708 1.35438 122.415 2.88734 122.044 3.85407L115.656 21.6902C115.244 22.9055 114.754 24.1554 113.306 24.7285V24.9771H120.68V24.7976C119.483 24.1899 119.609 22.9055 120.022 21.6902L121.176 18.3619H129.131L130.285 21.6902C130.698 22.9055 130.614 24.1899 129.418 24.7976V24.9771H138.981V24.7285C137.54 24.1554 137.085 22.9055 136.631 21.6902ZM122.457 14.6814L125.178 6.74735L127.9 14.6814H122.457Z" fill="#F6F3EF"/>
<path d="M49.7655 21.6902L43.378 3.85407C43.329 3.69525 43.2801 3.54333 43.2381 3.38451L42.2516 0.601715H34.479V0.815776C35.8432 1.35438 35.5494 2.88734 35.1786 3.85407L28.7911 21.6902C28.3784 22.9055 27.8886 24.1554 26.4404 24.7285V24.9771H33.8143V24.7976C32.618 24.1899 32.7439 22.9055 33.1567 21.6902L34.311 18.3619H42.2656L43.42 21.6902C43.8327 22.9055 43.7488 24.1899 42.5525 24.7976V24.9771H52.1161V24.7285C50.6749 24.1554 50.2202 22.9055 49.7655 21.6902ZM35.5913 14.6814L38.3128 6.74735L41.0343 14.6814H35.5913Z" fill="#F6F3EF"/>
<path d="M174.894 0.601562V0.746572C176.377 1.3197 176.705 2.60407 176.705 3.85391V14.5432L166.407 0.601562H159.362V0.746572C160.803 1.3197 161.174 2.60407 161.174 3.85391V21.7246C161.174 22.9744 160.803 24.2588 159.362 24.8319V24.9769H167.275V24.8319C165.792 24.2588 165.463 22.9744 165.463 21.7246V9.71643L176.712 24.9769H181.001V3.85391C181.001 2.60407 181.372 1.3197 182.813 0.746572V0.601562H174.894Z" fill="#F6F3EF"/>
<path d="M189.491 0.601593C186.469 0.601593 184.531 2.50743 184.531 5.31094C184.531 8.11446 186.469 10.0617 189.491 10.0617C192.514 10.0617 194.445 8.11446 194.445 5.31094C194.445 2.50743 192.521 0.601593 189.491 0.601593ZM189.491 8.31471C188.428 8.31471 187.84 7.43084 187.84 5.31094C187.84 3.19104 188.428 2.27265 189.491 2.27265C190.555 2.27265 191.142 3.19104 191.142 5.31094C191.142 7.43084 190.583 8.31471 189.491 8.31471Z" fill="#F6F3EF"/>
<path d="M202.118 25.391C203.475 24.376 203.832 22.5392 203.832 19.6942V8.43184C202.922 9.84051 201.18 11.0489 198.85 11.1525V7.05771C202.474 6.62959 205.707 3.91584 206.868 0.608246H211.332V19.929C211.332 22.6497 211.653 24.445 212.85 25.3979H202.118V25.391Z" fill="#F6F3EF"/>
</svg>
