<svg width="17" height="17" viewBox="0 0 17 17" fill="none" xmlns="http://www.w3.org/2000/svg">
<path opacity="0.5" d="M10.8708 10.1985L10.5671 10.5181C10.5671 10.5181 9.84542 11.278 7.87541 9.20393C5.90541 7.12989 6.62714 6.37005 6.62714 6.37005L6.81835 6.16874C7.28938 5.67283 7.33379 4.87664 6.92283 4.2954L6.08217 3.10641C5.57352 2.387 4.59064 2.29197 4.00763 2.90576L2.96123 4.00742C2.67215 4.31177 2.47843 4.7063 2.50193 5.14396C2.56202 6.26364 3.04048 8.6727 5.71024 11.4835C8.54143 14.4642 11.1979 14.5826 12.2842 14.4754C12.6278 14.4415 12.9266 14.2562 13.1674 14.0027L14.1144 13.0056C14.7537 12.3326 14.5735 11.1788 13.7556 10.708L12.4819 9.97488C11.9448 9.66576 11.2905 9.75656 10.8708 10.1985Z" fill="white"/>
<path d="M9.34031 1.75387C9.38444 1.48128 9.64213 1.29636 9.91473 1.34049C9.9316 1.34372 9.98589 1.35387 10.0143 1.36021C10.0712 1.37287 10.1506 1.39238 10.2495 1.4212C10.4474 1.47883 10.7238 1.57376 11.0555 1.72585C11.7197 2.03036 12.6036 2.56303 13.5208 3.48023C14.438 4.39743 14.9706 5.2813 15.2751 5.94549C15.4272 6.27723 15.5222 6.55363 15.5798 6.75149C15.6086 6.85042 15.6281 6.92977 15.6408 6.98666C15.6471 7.01511 15.6518 7.03795 15.655 7.05482L15.6588 7.07562C15.703 7.34821 15.5197 7.61655 15.2471 7.66069C14.9753 7.70469 14.7192 7.52067 14.674 7.24935C14.6726 7.24207 14.6688 7.2225 14.6647 7.20404C14.6565 7.16712 14.6423 7.10857 14.6197 7.03113C14.5746 6.87624 14.4962 6.64602 14.3661 6.36224C14.1062 5.79537 13.6389 5.01257 12.8137 4.18733C11.9884 3.36209 11.2056 2.89476 10.6388 2.63487C10.355 2.50477 10.1248 2.42641 9.96986 2.3813C9.89243 2.35875 9.7951 2.3364 9.75817 2.32818C9.48686 2.28297 9.2963 2.02569 9.34031 1.75387Z" fill="white"/>
<path fill-rule="evenodd" clip-rule="evenodd" d="M9.49114 4.05352C9.567 3.788 9.84375 3.63425 10.1093 3.71011L9.9719 4.19088C10.1093 3.71011 10.1093 3.71011 10.1093 3.71011L10.1102 3.71039L10.1112 3.71068L10.1135 3.71133L10.1186 3.71288L10.1318 3.71699C10.1419 3.7202 10.1544 3.72439 10.1694 3.7297C10.1993 3.74032 10.2389 3.75543 10.2875 3.77623C10.3846 3.81786 10.5173 3.88214 10.6803 3.97861C11.0066 4.17173 11.4521 4.49252 11.9754 5.01583C12.4987 5.53915 12.8195 5.98461 13.0126 6.31092C13.1091 6.47392 13.1733 6.60663 13.215 6.70376C13.2358 6.75229 13.2509 6.79187 13.2615 6.82181C13.2668 6.83677 13.271 6.84933 13.2742 6.85938L13.2783 6.87257L13.2799 6.87774L13.2805 6.87996L13.2808 6.88098C13.2808 6.88098 13.2811 6.88194 12.8003 7.0193L13.2811 6.88194C13.357 7.14746 13.2032 7.4242 12.9377 7.50007C12.6744 7.57528 12.4001 7.42478 12.3215 7.1634L12.3191 7.15622C12.3155 7.1462 12.3082 7.12648 12.2958 7.09767C12.2712 7.04012 12.2264 6.94596 12.152 6.82024C12.0034 6.56908 11.7349 6.18958 11.2683 5.72294C10.8016 5.25631 10.4221 4.98784 10.171 4.83919C10.0452 4.76478 9.95109 4.72005 9.89353 4.69538C9.86473 4.68304 9.84501 4.67568 9.83499 4.67213L9.8278 4.66966C9.56643 4.59108 9.41592 4.31678 9.49114 4.05352Z" fill="white"/>
</svg>
