<svg width="25" height="24" viewBox="0 0 25 24" fill="none" xmlns="http://www.w3.org/2000/svg">
<path d="M19.2504 8.25042V18.0004C19.2504 18.1993 19.1714 18.3901 19.0307 18.5307C18.8901 18.6714 18.6993 18.7504 18.5004 18.7504H8.75042C8.5515 18.7504 8.36074 18.6714 8.22009 18.5307C8.07943 18.3901 8.00042 18.1993 8.00042 18.0004C8.00042 17.8015 8.07943 17.6107 8.22009 17.4701C8.36074 17.3294 8.5515 17.2504 8.75042 17.2504H16.6901L5.96979 6.53104C5.82906 6.39031 5.75 6.19944 5.75 6.00042C5.75 5.80139 5.82906 5.61052 5.96979 5.46979C6.11052 5.32906 6.30139 5.25 6.50042 5.25C6.69944 5.25 6.89031 5.32906 7.03104 5.46979L17.7504 16.1901V8.25042C17.7504 8.0515 17.8294 7.86074 17.9701 7.72009C18.1107 7.57943 18.3015 7.50042 18.5004 7.50042C18.6993 7.50042 18.8901 7.57943 19.0307 7.72009C19.1714 7.86074 19.2504 8.0515 19.2504 8.25042Z" fill="#5B9087"/>
</svg>
