<svg width="25" height="24" viewBox="0 0 25 24" fill="none" xmlns="http://www.w3.org/2000/svg">
<path opacity="0.5" d="M5.22848 16.1369C3.68295 14.5914 2.91018 13.8186 2.62264 12.816C2.33509 11.8134 2.58083 10.7485 3.07231 8.61875L3.35574 7.39057C3.76922 5.59881 3.97597 4.70292 4.58944 4.08944C5.20292 3.47597 6.0988 3.26922 7.89057 2.85574L9.11875 2.57231C11.2485 2.08083 12.3134 1.83509 13.316 2.12264C14.3186 2.41018 15.0914 3.18295 16.6369 4.72848L18.4665 6.55812L18.4665 6.55813C21.1555 9.24711 22.5 10.5916 22.5 12.2623C22.5 13.933 21.1555 15.2775 18.4665 17.9665L18.4665 17.9665L18.4665 17.9665C15.7775 20.6555 14.433 22 12.7623 22C11.0916 22 9.74711 20.6555 7.05813 17.9665L7.05812 17.9665L5.22848 16.1369Z" fill="#958464"/>
<path d="M10.6225 7.27038C11.4101 8.05796 11.4101 9.33489 10.6225 10.1225C9.83489 10.9101 8.55796 10.9101 7.77038 10.1225C6.98279 9.33489 6.98279 8.05796 7.77038 7.27038C8.55796 6.48279 9.83489 6.48279 10.6225 7.27038Z" fill="#958464"/>
<path d="M19.5502 12.0505L12.5712 19.0297C12.2783 19.3226 11.8034 19.3226 11.5105 19.0297C11.2176 18.7369 11.2176 18.262 11.5105 17.9691L18.4895 10.9898C18.7824 10.6969 19.2573 10.6969 19.5502 10.9898C19.8431 11.2827 19.8431 11.7576 19.5502 12.0505Z" fill="#958464"/>
</svg>
