<svg width="25" height="24" viewBox="0 0 25 24" fill="none" xmlns="http://www.w3.org/2000/svg">
<g opacity="0.5">
<path d="M12.4211 2.25C17.2146 2.25 21.1552 5.913 21.5394 10.5833H22.5C22.8039 10.5833 23.0777 10.7667 23.1934 11.0477C23.3092 11.3287 23.2439 11.6517 23.0282 11.8657L21.3484 13.5324C21.056 13.8225 20.5843 13.8225 20.2919 13.5324L18.6121 11.8657C18.3964 11.6517 18.3311 11.3287 18.4469 11.0477C18.5626 10.7667 18.8365 10.5833 19.1404 10.5833H20.0332C19.6535 6.75167 16.3952 3.75 12.4211 3.75C9.65158 3.75 7.22729 5.20845 5.88442 7.39279C5.66748 7.74565 5.20557 7.85585 4.85271 7.63892C4.49984 7.42199 4.38965 6.96007 4.60658 6.60721C6.21295 3.99427 9.11268 2.25 12.4211 2.25Z" fill="#F6F3EF"/>
<path d="M3.65877 10.4666C3.95094 10.1778 4.42105 10.1778 4.71322 10.4666L6.39946 12.1333C6.61577 12.3471 6.68155 12.6703 6.56598 12.9517C6.45041 13.233 6.17637 13.4167 5.87223 13.4167H4.97313C5.35437 17.2462 8.62401 20.25 12.6172 20.25C15.3997 20.25 17.8341 18.7903 19.182 16.6061C19.3995 16.2536 19.8616 16.1442 20.2141 16.3618C20.5666 16.5793 20.676 17.0414 20.4585 17.3939C18.8458 20.007 15.9359 21.75 12.6172 21.75C7.80928 21.75 3.85245 18.0892 3.46681 13.4167H2.49976C2.19562 13.4167 1.92159 13.233 1.80602 12.9517C1.69045 12.6703 1.75622 12.3471 1.97254 12.1333L3.65877 10.4666Z" fill="#F6F3EF"/>
</g>
</svg>
