<svg width="15" height="14" viewBox="0 0 15 14" fill="none" xmlns="http://www.w3.org/2000/svg">
<path d="M9.48159 11.1428C9.51382 11.1728 9.53968 11.209 9.55762 11.2493C9.57555 11.2895 9.58519 11.333 9.58597 11.377C9.58675 11.4211 9.57864 11.4648 9.56214 11.5057C9.54564 11.5466 9.52107 11.5837 9.48992 11.6148C9.45876 11.646 9.42164 11.6706 9.38079 11.6871C9.33993 11.7036 9.29617 11.7117 9.25211 11.7109C9.20805 11.7101 9.1646 11.7005 9.12435 11.6825C9.0841 11.6646 9.04788 11.6387 9.01784 11.6065L4.64284 7.2315C4.58139 7.16998 4.54687 7.08658 4.54688 6.99963C4.54687 6.91267 4.58139 6.82928 4.64284 6.76775L9.01784 2.39275C9.08004 2.33479 9.16231 2.30324 9.24732 2.30474C9.33232 2.30624 9.41343 2.34067 9.47355 2.40079C9.53366 2.46091 9.5681 2.54202 9.5696 2.62702C9.5711 2.71203 9.53955 2.7943 9.48159 2.8565L5.33901 6.99963L9.48159 11.1428Z" fill="#727272"/>
</svg>
