<svg width="14" height="14" viewBox="0 0 14 14" fill="none" xmlns="http://www.w3.org/2000/svg">
<path fill-rule="evenodd" clip-rule="evenodd" d="M6.5599 1.16602C6.5599 0.924391 6.75577 0.728516 6.9974 0.728516C10.4607 0.728516 13.2682 3.53606 13.2682 6.99935C13.2682 10.4626 10.4607 13.2702 6.9974 13.2702C3.53411 13.2702 0.726562 10.4626 0.726562 6.99935C0.726562 6.75772 0.922438 6.56185 1.16406 6.56185C1.40569 6.56185 1.60156 6.75772 1.60156 6.99935C1.60156 9.97939 4.01736 12.3952 6.9974 12.3952C9.97743 12.3952 12.3932 9.97939 12.3932 6.99935C12.3932 4.01931 9.97743 1.60352 6.9974 1.60352C6.75577 1.60352 6.5599 1.40764 6.5599 1.16602Z" fill="#4B4B4B"/>
<path fill-rule="evenodd" clip-rule="evenodd" d="M5.30551 1.39794C5.39253 1.62336 5.28033 1.87663 5.05492 1.96364C4.97242 1.99549 4.89089 2.02931 4.81039 2.06505C4.58955 2.16309 4.33105 2.06354 4.23301 1.8427C4.13497 1.62186 4.23452 1.36335 4.45536 1.26531C4.54899 1.22375 4.64383 1.1844 4.73981 1.14735C4.96523 1.06034 5.2185 1.17253 5.30551 1.39794ZM3.29192 2.47287C3.45856 2.64784 3.4518 2.92477 3.27683 3.0914C3.21285 3.15233 3.15037 3.21481 3.08945 3.27878C2.92281 3.45375 2.64588 3.46051 2.47091 3.29387C2.29594 3.12724 2.28919 2.85031 2.45582 2.67534C2.52656 2.60106 2.59911 2.52852 2.67339 2.45778C2.84836 2.29114 3.12528 2.2979 3.29192 2.47287ZM1.84074 4.23496C2.06158 4.333 2.16113 4.5915 2.06309 4.81235C2.02736 4.89284 1.99354 4.97437 1.96169 5.05687C1.87468 5.28229 1.6214 5.39448 1.39599 5.30747C1.17058 5.22045 1.05838 4.96718 1.1454 4.74177C1.18245 4.64578 1.22179 4.55094 1.26336 4.45731C1.3614 4.23647 1.6199 4.13692 1.84074 4.23496Z" fill="#4B4B4B"/>
<path d="M6.9974 4.81185C7.23902 4.81185 7.4349 5.00772 7.4349 5.24935V7.14518H9.33073C9.57235 7.14518 9.76823 7.34106 9.76823 7.58268C9.76823 7.82431 9.57235 8.02018 9.33073 8.02018H6.9974C6.75577 8.02018 6.5599 7.82431 6.5599 7.58268V5.24935C6.5599 5.00772 6.75577 4.81185 6.9974 4.81185Z" fill="#4B4B4B"/>
</svg>
