<svg width="15" height="14" viewBox="0 0 15 14" fill="none" xmlns="http://www.w3.org/2000/svg">
<path d="M10.3565 7.2315L5.9815 11.6065C5.9193 11.6645 5.83703 11.696 5.75202 11.6945C5.66702 11.693 5.58591 11.6586 5.52579 11.5985C5.46568 11.5383 5.43124 11.4572 5.42974 11.3722C5.42824 11.2872 5.45979 11.205 5.51775 11.1428L9.66033 6.99963L5.51775 2.8565C5.45979 2.7943 5.42824 2.71203 5.42974 2.62702C5.43124 2.54202 5.46568 2.46091 5.52579 2.40079C5.58591 2.34067 5.66702 2.30624 5.75202 2.30474C5.83703 2.30324 5.9193 2.33479 5.9815 2.39275L10.3565 6.76775C10.418 6.82928 10.4525 6.91267 10.4525 6.99963C10.4525 7.08658 10.418 7.16998 10.3565 7.2315Z" fill="#727272"/>
</svg>
