<svg width="24" height="24" viewBox="0 0 24 24" fill="none" xmlns="http://www.w3.org/2000/svg">
<path d="M15.7509 21C15.7509 21.1989 15.6718 21.3897 15.5312 21.5303C15.3905 21.671 15.1998 21.75 15.0009 21.75H9.00087C8.80195 21.75 8.61119 21.671 8.47054 21.5303C8.32988 21.3897 8.25087 21.1989 8.25087 21C8.25087 20.8011 8.32988 20.6103 8.47054 20.4697C8.61119 20.329 8.80195 20.25 9.00087 20.25H15.0009C15.1998 20.25 15.3905 20.329 15.5312 20.4697C15.6718 20.6103 15.7509 20.8011 15.7509 21ZM20.7956 16.4944C20.2743 15.5981 19.5009 13.0622 19.5009 9.75C19.5009 7.76088 18.7107 5.85322 17.3042 4.4467C15.8976 3.04018 13.99 2.25 12.0009 2.25C10.0117 2.25 8.10409 3.04018 6.69757 4.4467C5.29104 5.85322 4.50087 7.76088 4.50087 9.75C4.50087 13.0631 3.72649 15.5981 3.20618 16.4944C3.07331 16.7222 3.00287 16.9811 3.00196 17.2449C3.00106 17.5086 3.06972 17.768 3.20102 17.9967C3.33233 18.2255 3.52163 18.4156 3.74984 18.5478C3.97805 18.6801 4.2371 18.7498 4.50087 18.75H19.5009C19.7646 18.7496 20.0235 18.6798 20.2516 18.5475C20.4796 18.4151 20.6688 18.225 20.8 17.9963C20.9312 17.7676 20.9998 17.5083 20.9988 17.2446C20.9979 16.9809 20.9274 16.7222 20.7946 16.4944H20.7956Z" fill="#35675F"/>
</svg>
