<svg width="17" height="16" viewBox="0 0 17 16" fill="none" xmlns="http://www.w3.org/2000/svg">
<path fill-rule="evenodd" clip-rule="evenodd" d="M7.30078 1.51837C7.56685 1.59228 7.72262 1.86788 7.64872 2.13395L4.31538 14.1339C4.24147 14.4 3.96587 14.5558 3.6998 14.4819C3.43373 14.408 3.27796 14.1324 3.35186 13.8663L6.6852 1.8663C6.75911 1.60024 7.03471 1.44446 7.30078 1.51837Z" fill="#27534C"/>
<path fill-rule="evenodd" clip-rule="evenodd" d="M13.3008 1.51837C13.5668 1.59228 13.7226 1.86788 13.6487 2.13395L10.3154 14.1339C10.2415 14.4 9.96587 14.5558 9.6998 14.4819C9.43373 14.408 9.27796 14.1324 9.35186 13.8663L12.6852 1.8663C12.7591 1.60024 13.0347 1.44446 13.3008 1.51837Z" fill="#27534C"/>
<path opacity="0.5" fill-rule="evenodd" clip-rule="evenodd" d="M2.6665 6C2.6665 5.72386 2.89036 5.5 3.1665 5.5H15.1665C15.4426 5.5 15.6665 5.72386 15.6665 6C15.6665 6.27614 15.4426 6.5 15.1665 6.5H3.1665C2.89036 6.5 2.6665 6.27614 2.6665 6Z" fill="#27534C"/>
<path opacity="0.5" fill-rule="evenodd" clip-rule="evenodd" d="M1.3335 10.668C1.3335 10.3918 1.55735 10.168 1.8335 10.168H13.8335C14.1096 10.168 14.3335 10.3918 14.3335 10.668C14.3335 10.9441 14.1096 11.168 13.8335 11.168H1.8335C1.55735 11.168 1.3335 10.9441 1.3335 10.668Z" fill="#27534C"/>
</svg>
