<svg width="25" height="24" viewBox="0 0 25 24" fill="none" xmlns="http://www.w3.org/2000/svg">
<path fill-rule="evenodd" clip-rule="evenodd" d="M2.75042 11.8809C2.73991 12.057 2.76488 12.2706 2.81481 12.6978L3.21549 16.1258C3.39632 17.6729 4.22303 19.0714 5.49133 19.9757C6.42581 20.6419 7.54488 21 8.69255 21H12.3064C13.4541 21 14.5732 20.6419 15.5076 19.9757C16.3111 19.4028 16.9373 18.6317 17.3344 17.75H19.4995C21.5706 17.75 23.2495 16.0711 23.2495 14C23.2495 11.9289 21.5706 10.25 19.4995 10.25L17.2208 10.25C17.032 10.1455 16.8239 10.0703 16.6022 10.0309C16.4285 10 16.2135 10 15.7833 10L5.21563 10C4.78551 10 4.57045 10 4.39676 10.0309C3.48628 10.1928 2.8055 10.9577 2.75042 11.8809ZM18.2365 11.75C18.2419 11.7932 18.2459 11.8369 18.2486 11.8809C18.2591 12.057 18.2341 12.2706 18.1842 12.6977L17.7835 16.1258C17.7786 16.1673 17.7733 16.2087 17.7675 16.25H19.4995C20.7422 16.25 21.7495 15.2426 21.7495 14C21.7495 12.7574 20.7422 11.75 19.4995 11.75L18.2365 11.75Z" fill="#F6F3EF"/>
<g opacity="0.5">
<path fill-rule="evenodd" clip-rule="evenodd" d="M11.0307 1.46967C11.3236 1.76256 11.3236 2.23744 11.0307 2.53033C10.7713 2.78972 10.7713 3.21028 11.0307 3.46967C11.8758 4.31485 11.8758 5.68515 11.0307 6.53033C10.7378 6.82322 10.2629 6.82322 9.97001 6.53033C9.67712 6.23744 9.67712 5.76256 9.97001 5.46967C10.2294 5.21028 10.2294 4.78972 9.97001 4.53033C9.12483 3.68515 9.12483 2.31485 9.97001 1.46967C10.2629 1.17678 10.7378 1.17678 11.0307 1.46967Z" fill="white"/>
<path fill-rule="evenodd" clip-rule="evenodd" d="M6.53052 2.96967C6.82341 3.26256 6.82341 3.73744 6.53052 4.03033L6.4144 4.14645C6.17115 4.3897 6.14379 4.77479 6.35019 5.05C7.00448 5.92239 6.91772 7.14313 6.14664 7.91421L6.03052 8.03033C5.73763 8.32322 5.26275 8.32322 4.96986 8.03033C4.67697 7.73744 4.67697 7.26256 4.96986 6.96967L5.08598 6.85355C5.32923 6.6103 5.35659 6.22521 5.15019 5.95C4.4959 5.07761 4.58266 3.85687 5.35374 3.08579L5.46986 2.96967C5.76275 2.67678 6.23763 2.67678 6.53052 2.96967Z" fill="white"/>
<path fill-rule="evenodd" clip-rule="evenodd" d="M16.0305 2.96967C16.3234 3.26256 16.3234 3.73744 16.0305 4.03033L15.9144 4.14645C15.6712 4.3897 15.6438 4.77479 15.8502 5.05C16.5045 5.92239 16.4177 7.14313 15.6466 7.91421L15.5305 8.03033C15.2376 8.32322 14.7628 8.32322 14.4699 8.03033C14.177 7.73744 14.177 7.26256 14.4699 6.96967L14.586 6.85355C14.8292 6.6103 14.8566 6.22521 14.6502 5.95C13.9959 5.07761 14.0827 3.85687 14.8537 3.08579L14.9699 2.96967C15.2628 2.67678 15.7376 2.67678 16.0305 2.96967Z" fill="white"/>
</g>
</svg>
