<svg width="24" height="24" viewBox="0 0 24 24" fill="none" xmlns="http://www.w3.org/2000/svg">
<g clip-path="url(#clip0_3210_204372)">
<path d="M23.8105 5.87036C23.7046 5.75697 23.5649 5.68342 23.4141 5.65778C23.2478 4.33019 22.8387 3.20599 22.1933 2.31022C21.1351 0.841533 19.5091 0.0665053 17.3602 0.00659927C15.931 -0.0334787 14.8082 0.373957 14.0205 1.21691C12.8076 2.51473 12.7375 4.51408 12.8007 5.70887C12.7161 5.7468 12.6388 5.80112 12.5742 5.87031C12.4412 6.01276 12.3733 6.20401 12.3867 6.39845L12.8083 12.5173C12.8337 12.886 13.1401 13.1721 13.5097 13.1721H13.5983C13.6708 14.1975 13.7143 15.2149 13.7297 16.2637L13.7859 20.0772C13.7861 20.0894 13.7866 20.1016 13.7874 20.1137C13.9334 22.2951 15.7763 24.0038 17.9832 24.0038C18.932 24.0038 19.8631 23.6811 20.6049 23.095C21.3484 22.5077 21.8737 21.6781 22.084 20.7594C22.2635 19.975 22.3435 18.803 22.4448 17.3192C22.5304 16.0632 22.6263 14.6597 22.8032 13.172H22.8748C23.2444 13.172 23.5509 12.8859 23.5763 12.5173L23.9979 6.3984C24.0113 6.20406 23.9434 6.01281 23.8105 5.87036ZM22.2185 11.7659H14.1661L14.0522 10.1127H22.3324L22.2185 11.7659ZM22.4293 8.70647H13.9553L13.8414 7.05324H22.5432L22.4293 8.70647Z" fill="#5B9087"/>
<path d="M11.4332 5.8703C11.3686 5.80107 11.2913 5.74669 11.2067 5.70877C11.2699 4.51398 11.1998 2.51463 9.98692 1.2168C9.19919 0.373901 8.07603 -0.0327379 6.64714 0.00649635C4.49831 0.0664024 2.87226 0.841431 1.81411 2.31011C1.16869 3.20594 0.759617 4.33014 0.593352 5.65768C0.442556 5.68332 0.302822 5.75686 0.196978 5.87025C0.0639946 6.01271 -0.00392705 6.20396 0.00947914 6.39839L0.431071 12.5172C0.456477 12.8859 0.762945 13.172 1.13251 13.172H1.20413C1.38104 14.6597 1.4769 16.0632 1.56258 17.3191C1.66383 18.8029 1.7438 19.9749 1.92333 20.7594C2.13361 21.6782 2.65894 22.5077 3.40247 23.095C4.14426 23.6811 5.07533 24.0038 6.02417 24.0038C8.23099 24.0038 10.074 22.2951 10.2199 20.1137C10.2207 20.1015 10.2212 20.0894 10.2214 20.0772L10.2776 16.2637C10.2931 15.2149 10.3365 14.1975 10.409 13.1721H10.4976C10.8672 13.1721 11.1737 12.886 11.1991 12.5173L11.6207 6.39844C11.6341 6.20405 11.5661 6.01275 11.4332 5.8703ZM9.84128 11.7658H1.78885L1.67494 10.1126H9.95519L9.84128 11.7658ZM10.052 8.70642H1.57805L1.46415 7.05319H10.1659L10.052 8.70642Z" fill="#5B9087"/>
</g>
<defs>
<clipPath id="clip0_3210_204372">
<rect width="24" height="24" fill="white"/>
</clipPath>
</defs>
</svg>
