<svg width="15" height="14" viewBox="0 0 15 14" fill="none" xmlns="http://www.w3.org/2000/svg">
<g clip-path="url(#clip0_3284_198528)">
<path d="M7.5 1.3125C6.37512 1.3125 5.2755 1.64607 4.3402 2.27102C3.40489 2.89597 2.67591 3.78423 2.24544 4.82349C1.81496 5.86274 1.70233 7.00631 1.92179 8.10958C2.14124 9.21284 2.68292 10.2263 3.47833 11.0217C4.27374 11.8171 5.28716 12.3588 6.39043 12.5782C7.49369 12.7977 8.63726 12.685 9.67651 12.2546C10.7158 11.8241 11.604 11.0951 12.229 10.1598C12.8539 9.2245 13.1875 8.12488 13.1875 7C13.1859 5.49207 12.5862 4.04636 11.5199 2.98009C10.4536 1.91382 9.00793 1.31409 7.5 1.3125ZM7.5 10.5C7.37021 10.5 7.24333 10.4615 7.13541 10.3894C7.02749 10.3173 6.94338 10.2148 6.89371 10.0949C6.84404 9.97497 6.83104 9.84302 6.85636 9.71572C6.88168 9.58842 6.94419 9.47149 7.03596 9.37971C7.12774 9.28793 7.24467 9.22543 7.37197 9.20011C7.49927 9.17479 7.63122 9.18778 7.75114 9.23745C7.87105 9.28712 7.97354 9.37124 8.04565 9.47916C8.11776 9.58708 8.15625 9.71396 8.15625 9.84375C8.15625 10.0178 8.08711 10.1847 7.96404 10.3078C7.84097 10.4309 7.67405 10.5 7.5 10.5ZM7.9375 7.83562V7.875C7.9375 7.99103 7.89141 8.10231 7.80936 8.18436C7.72731 8.26641 7.61603 8.3125 7.5 8.3125C7.38397 8.3125 7.27269 8.26641 7.19064 8.18436C7.1086 8.10231 7.0625 7.99103 7.0625 7.875V7.4375C7.0625 7.32147 7.1086 7.21019 7.19064 7.12814C7.27269 7.04609 7.38397 7 7.5 7C8.22352 7 8.8125 6.50781 8.8125 5.90625C8.8125 5.30469 8.22352 4.8125 7.5 4.8125C6.77649 4.8125 6.1875 5.30469 6.1875 5.90625V6.125C6.1875 6.24103 6.14141 6.35231 6.05936 6.43436C5.97731 6.51641 5.86603 6.5625 5.75 6.5625C5.63397 6.5625 5.52269 6.51641 5.44064 6.43436C5.3586 6.35231 5.3125 6.24103 5.3125 6.125V5.90625C5.3125 4.8207 6.2936 3.9375 7.5 3.9375C8.70641 3.9375 9.6875 4.8207 9.6875 5.90625C9.6875 6.85672 8.935 7.65242 7.9375 7.83562Z" fill="#C6C6C6"/>
</g>
<defs>
<clipPath id="clip0_3284_198528">
<rect x="0.5" width="14" height="14" rx="1.75" fill="white"/>
</clipPath>
</defs>
</svg>
