<svg width="25" height="24" viewBox="0 0 25 24" fill="none" xmlns="http://www.w3.org/2000/svg">
<path d="M7.78152 20.783C7.71183 20.853 7.629 20.9086 7.53778 20.9465C7.44656 20.9844 7.34875 21.0039 7.24996 21.0039C7.15118 21.0039 7.05336 20.9844 6.96214 20.9465C6.87092 20.9086 6.78809 20.853 6.7184 20.783C6.64809 20.7108 4.99902 19.0233 4.99902 15.7514C4.99902 14.0246 5.86246 12.7289 6.62465 11.5852C7.33152 10.5258 7.99902 9.52456 7.99902 8.25144C8.01437 7.2235 7.79539 6.20557 7.35871 5.27488C7.19219 4.91393 6.97534 4.5784 6.71465 4.27831C6.64527 4.20838 6.59035 4.12548 6.55302 4.03432C6.51568 3.94317 6.49667 3.84555 6.49706 3.74705C6.49745 3.64855 6.51724 3.55109 6.5553 3.46023C6.59336 3.36938 6.64894 3.28691 6.71887 3.21753C6.7888 3.14816 6.8717 3.09324 6.96286 3.0559C7.05401 3.01857 7.15163 2.99955 7.25013 2.99995C7.34863 3.00034 7.44609 3.02013 7.53695 3.05819C7.6278 3.09624 7.71027 3.15182 7.77965 3.22175C7.84996 3.29206 9.49902 4.97956 9.49902 8.25144C9.49902 9.97831 8.63559 11.2739 7.8734 12.4177C7.16652 13.4771 6.49902 14.4783 6.49902 15.7514C6.48368 16.7794 6.70266 17.7973 7.13934 18.728C7.30586 19.089 7.5227 19.4245 7.7834 19.7246C7.92312 19.8654 8.00137 20.0558 8.00102 20.2542C8.00067 20.4525 7.92175 20.6427 7.78152 20.783ZM11.9646 4.27831C12.2253 4.5784 12.4422 4.91393 12.6087 5.27488C13.0454 6.20557 13.2644 7.2235 13.249 8.25144C13.249 9.52456 12.5815 10.5258 11.8746 11.5852C11.1125 12.7289 10.249 14.0246 10.249 15.7514C10.249 19.0233 11.8981 20.7108 11.9684 20.7811C12.1085 20.9224 12.299 21.0021 12.4979 21.0029C12.6969 21.0037 12.888 20.9255 13.0292 20.7853C13.1704 20.6452 13.2502 20.4548 13.251 20.2558C13.2518 20.0569 13.1735 19.8658 13.0334 19.7246C12.7727 19.4245 12.5559 19.089 12.3893 18.728C11.9527 17.7973 11.7337 16.7794 11.749 15.7514C11.749 14.4783 12.4165 13.4771 13.1234 12.4177C13.8856 11.2739 14.749 9.98019 14.749 8.25144C14.749 4.97956 13.1 3.29206 13.0296 3.22175C12.9603 3.15182 12.8778 3.09624 12.7869 3.05819C12.6961 3.02013 12.5986 3.00034 12.5001 2.99995C12.4016 2.99955 12.304 3.01857 12.2129 3.0559C12.1217 3.09324 12.0388 3.14816 11.9689 3.21753C11.8989 3.28691 11.8434 3.36938 11.8053 3.46023C11.7672 3.55109 11.7475 3.64855 11.7471 3.74705C11.7467 3.84555 11.7657 3.94317 11.803 4.03432C11.8404 4.12548 11.8953 4.20838 11.9646 4.27831ZM17.2146 4.27831C17.4753 4.5784 17.6922 4.91393 17.8587 5.27488C18.2954 6.20557 18.5144 7.2235 18.499 8.25144C18.499 9.52456 17.8315 10.5258 17.1246 11.5852C16.3625 12.7289 15.499 14.0246 15.499 15.7514C15.499 19.0233 17.1481 20.7108 17.2184 20.7811C17.3585 20.9224 17.549 21.0021 17.7479 21.0029C17.9468 21.0037 18.138 20.9255 18.2792 20.7853C18.4204 20.6452 18.5002 20.4548 18.501 20.2558C18.5018 20.0569 18.4235 19.8658 18.2834 19.7246C18.0227 19.4245 17.8059 19.089 17.6393 18.728C17.2027 17.7973 16.9837 16.7794 16.999 15.7514C16.999 14.4783 17.6665 13.4771 18.3734 12.4177C19.1356 11.2739 19.999 9.98019 19.999 8.25144C19.999 4.97956 18.35 3.29206 18.2796 3.22175C18.1395 3.08052 17.9491 3.00074 17.7501 2.99995C17.5512 2.99916 17.3601 3.07742 17.2189 3.21753C17.0776 3.35764 16.9979 3.54811 16.9971 3.74705C16.9963 3.94598 17.0745 4.13709 17.2146 4.27831Z" fill="#F6F3EF"/>
</svg>
