<svg width="17" height="16" viewBox="0 0 17 16" fill="none" xmlns="http://www.w3.org/2000/svg">
<path fill-rule="evenodd" clip-rule="evenodd" d="M2.00158 7.91993C1.99457 8.03733 2.01122 8.17973 2.04451 8.46454L2.31163 10.7499C2.43218 11.7813 2.98332 12.7136 3.82886 13.3165C4.45184 13.7606 5.19789 13.9993 5.963 13.9993H8.37225C9.13736 13.9993 9.88341 13.7606 10.5064 13.3165C11.042 12.9346 11.4595 12.4205 11.7243 11.8327H13.1676C14.5484 11.8327 15.6676 10.7134 15.6676 9.33268C15.6676 7.95197 14.5484 6.83268 13.1676 6.83268H11.6485C11.5226 6.763 11.3839 6.71288 11.2361 6.6866C11.1203 6.66602 10.9769 6.66602 10.6902 6.66602H3.64506C3.35831 6.66602 3.21494 6.66602 3.09915 6.6866C2.49215 6.79452 2.0383 7.30451 2.00158 7.91993ZM12.3256 7.83268C12.3292 7.8615 12.3319 7.8906 12.3337 7.91993C12.3407 8.03732 12.324 8.17972 12.2907 8.4645L12.0236 10.7499C12.0204 10.7776 12.0168 10.8052 12.013 10.8327H13.1676C13.9961 10.8327 14.6676 10.1611 14.6676 9.33268C14.6676 8.50426 13.9961 7.83268 13.1676 7.83268H12.3256Z" fill="#5B9087"/>
<g opacity="0.5">
<path fill-rule="evenodd" clip-rule="evenodd" d="M7.5211 0.980431C7.71636 1.17569 7.71636 1.49228 7.5211 1.68754C7.34817 1.86047 7.34817 2.14084 7.5211 2.31376C8.08455 2.87722 8.08455 3.79075 7.5211 4.3542C7.32584 4.54947 7.00925 4.54947 6.81399 4.3542C6.61873 4.15894 6.61873 3.84236 6.81399 3.6471C6.98692 3.47417 6.98692 3.1938 6.81399 3.02087C6.25054 2.45742 6.25054 1.54388 6.81399 0.980431C7.00925 0.785169 7.32584 0.785169 7.5211 0.980431Z" fill="#5B9087"/>
<path fill-rule="evenodd" clip-rule="evenodd" d="M4.521 1.98043C4.71626 2.17569 4.71626 2.49228 4.521 2.68754L4.44359 2.76495C4.28142 2.92712 4.26317 3.18385 4.40078 3.36732C4.83697 3.94891 4.77913 4.76273 4.26508 5.27679L4.18766 5.3542C3.9924 5.54947 3.67582 5.54947 3.48056 5.3542C3.2853 5.15894 3.2853 4.84236 3.48056 4.6471L3.55797 4.56969C3.72013 4.40752 3.73838 4.15079 3.60078 3.96732C3.16458 3.38573 3.22242 2.5719 3.73648 2.05784L3.81389 1.98043C4.00915 1.78517 4.32574 1.78517 4.521 1.98043Z" fill="#5B9087"/>
<path fill-rule="evenodd" clip-rule="evenodd" d="M10.8543 1.98043C11.0496 2.17569 11.0496 2.49228 10.8543 2.68754L10.7769 2.76495C10.6148 2.92712 10.5965 3.18385 10.7341 3.36732C11.1703 3.94891 11.1125 4.76273 10.5984 5.27679L10.521 5.3542C10.3257 5.54947 10.0092 5.54947 9.81389 5.3542C9.61863 5.15894 9.61863 4.84236 9.81389 4.6471L9.8913 4.56969C10.0535 4.40752 10.0717 4.15079 9.93411 3.96732C9.49792 3.38573 9.55576 2.5719 10.0698 2.05784L10.1472 1.98043C10.3425 1.78517 10.6591 1.78517 10.8543 1.98043Z" fill="#5B9087"/>
</g>
</svg>
