<svg width="17" height="16" viewBox="0 0 17 16" fill="none" xmlns="http://www.w3.org/2000/svg">
<path d="M11.7617 0C10.7961 0 9.99098 0.746881 9.92254 1.71003L9.43003 8.58684C9.40816 8.88672 9.51153 9.18378 9.71686 9.40358C9.92148 9.62337 10.2083 9.75073 10.5085 9.75073H10.5375L10.3692 15.1352C10.3618 15.3656 10.4486 15.5825 10.6091 15.7473C10.7692 15.9131 10.9897 15.9996 11.2201 15.9996H11.9264C12.3963 15.9996 12.7883 15.6295 12.7883 15.1588V1.02101C12.7883 0.457231 12.3258 0 11.7617 0Z" fill="#5B9087"/>
<path d="M7.69973 0.0110253H7.62776C7.45595 0.0110253 7.324 0.139798 7.324 0.312318V3.34288C7.324 3.61172 7.09857 3.83152 6.83009 3.83152H6.75777C6.48929 3.83152 6.26174 3.61172 6.26174 3.34288V0.312318C6.26174 0.140151 6.13226 0.0110253 5.9601 0.0110253H5.88707C5.7149 0.0110253 5.57802 0.139798 5.57802 0.312318V3.34288C5.57802 3.61172 5.35787 3.83152 5.08904 3.83152H5.01707C4.74859 3.83152 4.54045 3.61172 4.54045 3.34288V0.312318C4.54045 0.140151 4.39121 0.0110253 4.21905 0.0110253H4.14672C3.97491 0.0110253 3.83203 0.139798 3.83203 0.312318V4.89627C3.83203 5.46005 4.29172 5.90599 4.85549 5.90599H4.99167L4.70379 15.1328C4.69638 15.3632 4.78282 15.5812 4.94334 15.7467C5.10351 15.9122 5.32436 16 5.55509 16H6.23387C6.46389 16 6.68474 15.9122 6.84526 15.7467C7.00578 15.5809 7.09186 15.3604 7.08516 15.13L6.79728 5.90564H6.99132C7.55544 5.90564 8.00737 5.45934 8.00737 4.89592V0.311965C8.00666 0.139445 7.8726 0.0110253 7.69973 0.0110253Z" fill="#5B9087"/>
</svg>
