<svg width="17" height="16" viewBox="0 0 17 16" fill="none" xmlns="http://www.w3.org/2000/svg">
<path fill-rule="evenodd" clip-rule="evenodd" d="M16.2077 15.7773C16.3724 15.6284 16.4749 15.4253 16.4956 15.207C16.5309 14.8609 16.3522 14.523 15.9946 14.5057C15.7431 14.4935 15.4614 14.6478 15.2827 14.8822C14.7048 15.6383 15.5238 16.3842 16.2077 15.7773ZM14.0854 1.98308C14.2034 1.83987 14.2929 1.67637 14.3493 1.50101C14.3895 1.35369 14.4453 1.21085 14.5156 1.07476C14.3295 0.961488 14.1179 0.894165 13.8992 0.878604C13.6804 0.863044 13.4611 0.899715 13.2601 0.98545C13.1117 1.0494 12.9778 1.14151 12.8662 1.25642C12.8904 1.07129 12.8702 0.883194 12.807 0.707035C12.7439 0.530876 12.6396 0.3715 12.5024 0.241542C12.4176 0.168635 12.3403 0.0877294 12.2717 0C12.1556 0.111067 12.066 0.245798 12.0094 0.394569C11.9529 0.54334 11.9306 0.70248 11.9443 0.86062C11.9443 0.895126 11.9516 0.926587 11.9557 0.962108C11.8155 0.715506 11.6125 0.508406 11.3663 0.36084C11.1202 0.213274 10.8392 0.130235 10.5505 0.119756C10.3865 0.126481 10.2222 0.114561 10.061 0.0842354C10.0405 0.387202 10.0917 0.690708 10.2107 0.971242C10.0113 1.01386 9.81567 1.07154 9.6255 1.14377C9.41336 1.22044 9.20676 1.31097 9.00708 1.41475C8.70016 0.996348 8.24289 0.70641 7.72661 0.60284C7.71022 0.808981 7.67261 1.01299 7.61436 1.21177C7.53985 1.52548 7.53524 1.85117 7.60084 2.16677C7.32149 2.06215 7.01356 2.05569 6.72987 2.1485C6.78329 2.28751 6.82263 2.4313 6.84731 2.5778C6.86355 2.64937 6.88437 2.71988 6.90967 2.7889C6.69118 2.68828 6.4471 2.65297 6.20811 2.68741C5.75184 2.73612 5.33921 3.01724 5.08457 3.47698C5.2338 3.56381 5.37317 3.66587 5.50031 3.78145C5.53045 3.80682 5.56268 3.83016 5.59386 3.85351C5.33402 3.97732 5.07418 4.09505 4.81643 4.22495C4.81643 4.19045 4.81642 4.15391 4.81018 4.11636C4.78662 3.86326 4.70985 3.61763 4.58467 3.39481C4.45948 3.17199 4.28858 2.97678 4.08264 2.82137C3.99965 2.96394 3.90065 3.09703 3.78747 3.21819C3.60679 3.44344 3.48533 3.70845 3.4337 3.99008C3.38206 4.27172 3.40182 4.56142 3.49125 4.83388C3.47151 4.81054 3.44967 4.78618 3.42681 4.76182C3.31882 4.64779 3.1851 4.55989 3.03627 4.5051C2.88743 4.45031 2.72756 4.43015 2.56934 4.4462C2.59009 4.55664 2.59949 4.66884 2.59741 4.78111C2.60233 4.96877 2.65276 5.15262 2.74454 5.31757C2.83632 5.48252 2.96684 5.62387 3.1254 5.73002C2.96214 5.73888 2.80253 5.78069 2.65665 5.85282C2.28041 6.02535 1.99979 6.39071 1.89897 6.8677C2.04695 6.90294 2.19029 6.9547 2.32614 7.02197C2.51057 7.10054 2.7101 7.13965 2.91129 7.13665C2.85829 7.48475 2.78242 7.8359 2.54233 8.06222C2.4401 7.93949 2.29768 7.8549 2.13906 7.82271C2.01176 7.79225 1.87873 7.79299 1.75179 7.82486C1.62486 7.85673 1.50797 7.91874 1.41151 8.00539C1.47461 8.07857 1.52997 8.1578 1.57677 8.24185C1.62643 8.32149 1.68731 8.39391 1.75761 8.45701C1.72539 8.44686 1.69109 8.43773 1.65368 8.42859C1.45201 8.3789 1.24083 8.37923 1.03933 8.42957C0.83784 8.47991 0.652439 8.57866 0.5 8.71682C0.598855 8.83239 0.685882 8.95714 0.759838 9.08928C0.933789 9.37454 1.19998 9.59519 1.51649 9.71648C1.29814 9.86528 1.10522 10.0468 0.944845 10.2544C1.15228 10.4227 1.3414 10.6114 1.50921 10.8176C2.13282 11.5118 3.01003 11.799 3.79578 11.6458C3.69398 11.8738 3.63315 12.1172 3.61597 12.3653C3.80724 12.3832 3.99586 12.422 4.17826 12.481C4.48462 12.5665 4.80958 12.5651 5.11512 12.4768C5.42067 12.3886 5.69416 12.2172 5.90358 11.9827C5.88324 12.1492 5.89026 12.3177 5.92437 12.482C6.04999 12.453 6.17882 12.4393 6.30789 12.4414C6.50107 12.4321 6.68885 12.3761 6.85432 12.2783C7.01979 12.1805 7.15775 12.044 7.25578 11.8812C7.49067 11.8731 7.72764 11.8701 7.96358 11.8721C7.9454 11.9508 7.93152 12.0304 7.922 12.1106C7.89638 12.3632 7.92412 12.6183 8.0035 12.8601C8.08287 13.1019 8.21219 13.3252 8.38347 13.5162C8.49311 13.3974 8.61659 13.2914 8.7514 13.2006C9.01868 12.9939 9.21162 12.7096 9.30226 12.3887C9.37171 12.5349 9.47179 12.6652 9.59603 12.7713C9.72027 12.8775 9.86592 12.9569 10.0236 13.0047C10.0421 12.8926 10.0728 12.7827 10.115 12.6769C10.1799 12.4828 10.1942 12.2759 10.1566 12.0751C10.9372 12.2263 11.778 12.481 12.4484 12.9742C12.544 12.2801 13.1562 11.6153 13.8536 11.6549C13.702 11.3151 13.6433 10.9427 13.6831 10.5741C14.3733 10.638 15.0093 10.0839 14.683 9.08624C14.5551 9.13044 14.4237 9.16438 14.2901 9.18772C14.3703 9.04064 14.3889 8.86892 14.3421 8.7087C14.2874 8.7251 14.2308 8.73498 14.1737 8.73813C14.2631 8.44178 14.3358 8.17893 14.3888 7.93333C14.5057 7.95875 14.6275 7.95279 14.7412 7.91608C14.8663 7.8766 14.9799 7.80833 15.0723 7.71701C15.1647 7.62569 15.2333 7.51401 15.2723 7.39138C15.1873 7.35761 15.1064 7.31472 15.0312 7.26351C14.9268 7.19937 14.8094 7.15816 14.6871 7.14274C14.8846 7.00877 15.0395 6.85451 15.1174 6.46378C15.1522 6.26913 15.1456 6.06959 15.098 5.87754C15.0504 5.68549 14.9629 5.50505 14.841 5.34741C14.7461 5.43236 14.6415 5.50626 14.5291 5.56764C14.4623 5.61011 14.3999 5.65908 14.3431 5.71378C14.315 5.57779 14.2818 5.43469 14.2454 5.28246C14.2205 5.18097 14.1966 5.06527 14.1737 4.94856C14.4481 4.81358 14.6663 4.72833 14.7973 4.27976C14.8475 4.10069 14.8592 3.91344 14.8319 3.72973C14.8045 3.54601 14.7386 3.36979 14.6383 3.2121C14.542 3.28221 14.4373 3.3405 14.3265 3.38565C14.2234 3.43666 14.129 3.50309 14.0469 3.58253C14.0625 3.10148 14.1508 2.64072 14.3587 2.28856C14.2688 2.18242 14.1734 2.0808 14.0729 1.98409L14.0854 1.98308ZM12.9109 13.3985C12.9013 13.2868 12.9104 13.1744 12.9379 13.0656L14.0147 14.2165C13.9826 14.2976 13.9586 14.3815 13.943 14.4671C13.5584 14.0612 13.2975 13.7983 12.9109 13.3985ZM14.0895 14.051L12.9971 12.8839C13.0472 12.7637 13.1144 12.6509 13.1967 12.549L14.2995 13.7456C14.2188 13.8392 14.149 13.9413 14.0916 14.05L14.0895 14.051ZM14.4159 13.6248L13.309 12.4242C13.3968 12.3372 13.4995 12.2657 13.6124 12.2131L14.7121 13.4056C14.6044 13.4663 14.5049 13.54 14.4159 13.6248ZM14.869 13.3295L13.7891 12.1593C13.8836 12.1424 13.981 12.1494 14.0719 12.1796C14.1629 12.2098 14.2444 12.2622 14.3088 12.3318C14.5957 12.6952 14.8139 12.9154 15.1247 13.2594C15.0377 13.2732 14.9526 13.2967 14.8711 13.3295H14.869ZM14.3753 14.9279C14.3609 14.8265 14.3648 14.7235 14.3868 14.6234L14.7474 15.0091C14.7212 15.0934 14.7038 15.1801 14.6954 15.2679L14.3753 14.9279ZM14.815 14.8325L14.447 14.4296C14.4943 14.3141 14.5588 14.2061 14.6383 14.1089L15.0208 14.523C14.9399 14.6152 14.8721 14.7176 14.8191 14.8274L14.815 14.8325ZM15.1341 14.4083C15.2275 14.3264 15.3325 14.258 15.4459 14.2053L15.0613 13.7882C14.946 13.8375 14.8405 13.9062 14.7495 13.9912L15.1351 14.4093L15.1341 14.4083ZM15.6101 14.1373L15.238 13.7313C15.2829 13.7239 15.3286 13.7215 15.3741 13.7242C15.4287 13.7258 15.4823 13.7383 15.5317 13.761C15.581 13.7837 15.625 13.8161 15.661 13.8562L15.8689 14.0906C15.78 14.0948 15.692 14.1098 15.607 14.1353L15.6101 14.1373ZM11.0255 7.80444C10.8425 7.54468 10.733 7.24241 10.7078 6.92811C10.6826 6.6138 10.7427 6.29857 10.8821 6.01419C10.9649 5.8714 11.0318 5.72033 11.0816 5.56358C11.3009 5.66656 11.4964 5.8121 11.6561 5.9913C11.8159 6.1705 11.9366 6.37961 12.0108 6.60587C11.8334 6.35739 11.5936 6.15752 11.3144 6.02535C11.2644 6.18235 11.1975 6.33374 11.1149 6.47697C10.9093 6.89125 10.8773 7.36745 11.0255 7.80444ZM4.91724 9.80477C4.69215 9.9982 4.41048 10.1177 4.11207 10.1463C3.81365 10.1748 3.51358 10.1111 3.25428 9.96411C3.11242 9.87971 2.96194 9.80999 2.80528 9.75606C2.86335 9.53702 2.97179 9.33379 3.12235 9.1618C3.27291 8.98982 3.46163 8.8536 3.67417 8.7635C3.4663 8.94821 3.41642 9.16438 3.32391 9.46884C3.96311 9.65761 4.08991 9.91742 4.92139 9.80274L4.91724 9.80477ZM8.73893 8.62345C8.04776 8.65998 7.341 8.26012 6.96164 7.55275C6.87537 7.36967 6.77094 7.1953 6.64983 7.03211C6.8611 6.87055 7.10896 6.76079 7.37263 6.71205C7.6363 6.66332 7.90808 6.67702 8.16521 6.75201C7.94695 6.93367 7.71621 7.01689 7.42519 7.23002C7.72868 7.60552 8.29617 8.49456 8.74101 8.62345H8.73893ZM9.83856 4.68672C9.54442 4.00269 9.12973 4.17319 8.65162 3.887C8.51086 4.08963 8.43423 4.32822 8.43128 4.57306C8.16521 4.18233 8.28369 3.70939 8.50092 3.36129C9.03826 3.68199 9.79283 3.75709 9.83856 4.68672ZM11.5691 3.45669C11.5473 2.83659 11.9318 2.47428 12.4338 2.30987C12.5634 2.27529 12.6882 2.2259 12.8059 2.16271C12.8946 2.3458 12.9449 2.54431 12.954 2.74664C12.9631 2.94896 12.9308 3.15102 12.8589 3.34099C12.8755 3.09336 12.8059 2.96447 12.6905 2.71176C12.2197 2.99086 11.9381 2.85791 11.5691 3.45669ZM5.70091 7.297C5.16772 7.21581 4.68339 6.8058 4.49111 6.21818C4.45014 6.06705 4.39408 5.9202 4.32377 5.77975C4.51156 5.69229 4.71779 5.6492 4.92578 5.65396C5.13378 5.65872 5.33772 5.7112 5.5211 5.80715C5.31323 5.90864 5.13135 5.95634 4.87878 6.07001C5.19059 6.63124 5.14382 6.7855 5.70091 7.297ZM11.9256 10.6745C11.4506 10.9374 10.8311 10.8836 10.3499 10.4888C10.234 10.3835 10.1073 10.2903 9.9716 10.2107C10.0654 10.023 10.2031 9.8595 10.3735 9.73329C10.544 9.60707 10.7424 9.52171 10.9527 9.48407C10.7134 9.62218 10.5191 9.82385 10.3925 10.0656C10.5285 10.1452 10.6557 10.2384 10.7719 10.3437C10.9282 10.4771 11.1123 10.5757 11.3115 10.6328C11.5107 10.69 11.7202 10.7042 11.9256 10.6745ZM15.2692 15.4891C15.2763 15.4799 15.2856 15.4724 15.2962 15.4672C15.3069 15.462 15.3186 15.4594 15.3305 15.4594C15.3424 15.4594 15.3541 15.462 15.3647 15.4672C15.3754 15.4724 15.3846 15.4799 15.3918 15.4891C15.405 15.5122 15.41 15.5389 15.4063 15.5651C15.4025 15.5913 15.3902 15.6155 15.371 15.6343C15.364 15.6437 15.3548 15.6514 15.3441 15.6567C15.3334 15.662 15.3217 15.6647 15.3097 15.6647C15.2977 15.6647 15.286 15.662 15.2753 15.6567C15.2647 15.6514 15.2554 15.6437 15.2484 15.6343C15.2352 15.6111 15.2302 15.5845 15.2339 15.5583C15.2377 15.5321 15.25 15.5078 15.2692 15.4891ZM15.4427 15.1502C15.4524 15.1374 15.465 15.127 15.4795 15.1198C15.4941 15.1126 15.5101 15.1089 15.5264 15.1089C15.5427 15.1089 15.5587 15.1126 15.5733 15.1198C15.5878 15.127 15.6004 15.1374 15.6101 15.1502C15.628 15.1817 15.6349 15.2182 15.6296 15.2539C15.6244 15.2896 15.6073 15.3227 15.581 15.3481C15.5713 15.3609 15.5587 15.3713 15.5442 15.3784C15.5296 15.3856 15.5136 15.3893 15.4973 15.3893C15.481 15.3893 15.465 15.3856 15.4504 15.3784C15.4359 15.3713 15.4233 15.3609 15.4136 15.3481C15.3956 15.3167 15.3887 15.2804 15.394 15.2448C15.3992 15.2092 15.4164 15.1763 15.4427 15.1512V15.1502ZM15.8346 15.3876C15.8428 15.3767 15.8535 15.3679 15.8659 15.3617C15.8782 15.3556 15.8919 15.3524 15.9058 15.3524C15.9196 15.3524 15.9333 15.3556 15.9457 15.3617C15.958 15.3679 15.9688 15.3767 15.977 15.3876C15.9925 15.4144 15.9985 15.4454 15.9942 15.4758C15.9899 15.5063 15.9754 15.5345 15.9531 15.5561C15.9447 15.567 15.9339 15.5759 15.9215 15.582C15.909 15.5881 15.8953 15.5913 15.8813 15.5913C15.8674 15.5913 15.8537 15.5881 15.8412 15.582C15.8288 15.5759 15.8179 15.567 15.8096 15.5561C15.7941 15.5293 15.7881 15.4982 15.7926 15.4677C15.7971 15.4372 15.8119 15.409 15.8346 15.3876ZM16.0362 14.9928C16.0474 14.978 16.062 14.9658 16.0789 14.9575C16.0958 14.9491 16.1145 14.9448 16.1334 14.9448C16.1523 14.9448 16.171 14.9491 16.1879 14.9575C16.2047 14.9658 16.2194 14.978 16.2306 14.9928C16.2517 15.0293 16.26 15.0716 16.2539 15.1131C16.2479 15.1545 16.228 15.1929 16.1973 15.2222C16.1861 15.2371 16.1715 15.2492 16.1546 15.2576C16.1377 15.2659 16.1191 15.2703 16.1001 15.2703C16.0812 15.2703 16.0625 15.2659 16.0457 15.2576C16.0288 15.2492 16.0141 15.2371 16.0029 15.2222C15.9818 15.1858 15.9736 15.1435 15.9796 15.102C15.9856 15.0605 16.0055 15.0221 16.0362 14.9928ZM16.1537 15.3927C16.1607 15.3833 16.1699 15.3756 16.1806 15.3703C16.1912 15.365 16.203 15.3623 16.215 15.3623C16.2269 15.3623 16.2387 15.365 16.2494 15.3703C16.26 15.3756 16.2693 15.3833 16.2763 15.3927C16.2894 15.4158 16.2945 15.4425 16.2908 15.4687C16.287 15.4949 16.2746 15.5191 16.2555 15.5378C16.2485 15.5473 16.2392 15.5549 16.2286 15.5602C16.2179 15.5655 16.2061 15.5683 16.1942 15.5683C16.1822 15.5683 16.1704 15.5655 16.1598 15.5602C16.1491 15.5549 16.1399 15.5473 16.1329 15.5378C16.1197 15.5147 16.1147 15.4881 16.1184 15.4619C16.1222 15.4357 16.1345 15.4114 16.1537 15.3927ZM15.8211 14.7949C15.8281 14.7855 15.8373 14.7778 15.848 14.7725C15.8586 14.7672 15.8704 14.7645 15.8824 14.7645C15.8943 14.7645 15.9061 14.7672 15.9168 14.7725C15.9274 14.7778 15.9367 14.7855 15.9437 14.7949C15.9572 14.818 15.9625 14.8447 15.9587 14.871C15.9549 14.8972 15.9424 14.9215 15.9229 14.9401C15.9159 14.9495 15.9067 14.9572 15.896 14.9625C15.8853 14.9678 15.8736 14.9705 15.8616 14.9705C15.8496 14.9705 15.8379 14.9678 15.8272 14.9625C15.8165 14.9572 15.8073 14.9495 15.8003 14.9401C15.7871 14.9172 15.7819 14.8906 15.7857 14.8646C15.7894 14.8385 15.8019 14.8144 15.8211 14.796V14.7949ZM16.3148 15.1928C16.3185 15.1877 16.3234 15.1837 16.3291 15.1808C16.3348 15.178 16.3411 15.1765 16.3475 15.1765C16.3539 15.1765 16.3602 15.178 16.3659 15.1808C16.3715 15.1837 16.3765 15.1877 16.3802 15.1928C16.3871 15.2051 16.3897 15.2193 16.3877 15.2332C16.3856 15.2471 16.379 15.26 16.3688 15.2699C16.365 15.2749 16.3601 15.279 16.3544 15.2819C16.3487 15.2847 16.3424 15.2862 16.3361 15.2862C16.3297 15.2862 16.3234 15.2847 16.3177 15.2819C16.312 15.279 16.3071 15.2749 16.3033 15.2699C16.2964 15.2576 16.2938 15.2434 16.2959 15.2295C16.2979 15.2156 16.3046 15.2027 16.3148 15.1928ZM15.7629 15.684C15.7688 15.676 15.7767 15.6695 15.7857 15.6651C15.7947 15.6606 15.8047 15.6583 15.8148 15.6583C15.8249 15.6583 15.8349 15.6606 15.844 15.6651C15.853 15.6695 15.8608 15.676 15.8668 15.684C15.8779 15.7034 15.8822 15.7258 15.879 15.7478C15.8758 15.7698 15.8653 15.7902 15.8491 15.8058C15.8433 15.8139 15.8355 15.8206 15.8265 15.8252C15.8174 15.8298 15.8074 15.8322 15.7972 15.8322C15.787 15.8322 15.7769 15.8298 15.7679 15.8252C15.7588 15.8206 15.751 15.8139 15.7452 15.8058C15.7341 15.7864 15.7298 15.764 15.733 15.742C15.7362 15.72 15.7467 15.6996 15.7629 15.684ZM16.1152 14.7016C16.1203 14.6949 16.127 14.6894 16.1347 14.6856C16.1423 14.6819 16.1508 14.6799 16.1594 14.6799C16.168 14.6799 16.1764 14.6819 16.1841 14.6856C16.1918 14.6894 16.1984 14.6949 16.2035 14.7016C16.2123 14.7179 16.2154 14.7366 16.2126 14.7548C16.2098 14.773 16.2012 14.7899 16.188 14.8031C16.1829 14.8098 16.1764 14.8152 16.1688 14.819C16.1612 14.8228 16.1528 14.8247 16.1443 14.8247C16.1358 14.8247 16.1274 14.8228 16.1198 14.819C16.1122 14.8152 16.1057 14.8098 16.1006 14.8031C16.0911 14.7865 16.0873 14.7673 16.0899 14.7484C16.0925 14.7295 16.1014 14.712 16.1152 14.6985V14.7016Z" fill="#5B9087"/>
</svg>
