<svg width="17" height="16" viewBox="0 0 17 16" fill="none" xmlns="http://www.w3.org/2000/svg">
<path d="M12 1.00798e-05H5C4.73478 1.00798e-05 4.1787 -1.25998e-05 4 1.00798e-05C4.00002 0.198566 4 0.734794 4 1.00001V12C4.00004 12.0892 4.02397 12.1768 4.06929 12.2537C4.1146 12.3306 4.17967 12.3939 4.25772 12.4371C4.33578 12.4804 4.42399 12.5019 4.51319 12.4996C4.60239 12.4972 4.68933 12.4711 4.765 12.4238L8.5 10.0894L12.2356 12.4238C12.3113 12.4709 12.3982 12.4969 12.4873 12.4992C12.5764 12.5015 12.6645 12.4799 12.7424 12.4367C12.8204 12.3934 12.8854 12.3302 12.9307 12.2534C12.9759 12.1766 12.9999 12.0891 13 12V1.00001C13 0.734794 13 0.231401 13 3.13321e-10C12.7929 3.13321e-10 12.2652 1.00798e-05 12 1.00798e-05Z" fill="#D1C5B1"/>
</svg>
