<svg width="25" height="24" viewBox="0 0 25 24" fill="none" xmlns="http://www.w3.org/2000/svg">
<path opacity="0.2" d="M19.9996 10.875V14.25C19.9996 15.2349 19.8057 16.2102 19.4287 17.1201C19.0518 18.0301 18.4994 18.8569 17.8029 19.5533C17.1065 20.2497 16.2797 20.8022 15.3698 21.1791C14.4598 21.556 13.4846 21.75 12.4996 21.75C8.35777 21.75 7.26746 19.5 3.75089 13.3125C3.50618 12.8821 3.44164 12.3723 3.57137 11.8945C3.70109 11.4167 4.01455 11.0096 4.44334 10.762C4.87213 10.5144 5.38144 10.4465 5.86012 10.5731C6.3388 10.6996 6.74799 11.0104 6.99839 11.4375L8.74964 14.25V4.125C8.74964 3.62772 8.94719 3.15081 9.29882 2.79917C9.65045 2.44754 10.1274 2.25 10.6246 2.25C11.1219 2.25 11.5988 2.44754 11.9505 2.79917C12.3021 3.15081 12.4996 3.62772 12.4996 4.125V9.375C12.4996 8.87772 12.6972 8.40081 13.0488 8.04917C13.4005 7.69754 13.8774 7.5 14.3746 7.5C14.8719 7.5 15.3488 7.69754 15.7005 8.04917C16.0521 8.40081 16.2496 8.87772 16.2496 9.375V10.875C16.2496 10.3777 16.4472 9.90081 16.7988 9.54917C17.1505 9.19754 17.6274 9 18.1246 9C18.6219 9 19.0988 9.19754 19.4505 9.54917C19.8021 9.90081 19.9996 10.3777 19.9996 10.875Z" fill="white" fill-opacity="0.5"/>
<path d="M18.1245 8.25C17.6873 8.24952 17.2569 8.35879 16.8729 8.56781C16.7581 8.21228 16.5687 7.88536 16.3174 7.6089C16.0661 7.33244 15.7586 7.11281 15.4156 6.96469C15.0726 6.81657 14.702 6.74338 14.3284 6.75001C13.9549 6.75664 13.587 6.84293 13.2495 7.00312V4.125C13.2495 3.42881 12.9729 2.76113 12.4807 2.26884C11.9884 1.77656 11.3207 1.5 10.6245 1.5C9.9283 1.5 9.26062 1.77656 8.76834 2.26884C8.27606 2.76113 7.9995 3.42881 7.9995 4.125V11.625L7.64137 11.0503C7.46821 10.7521 7.238 10.4909 6.96389 10.2816C6.68978 10.0723 6.37713 9.91906 6.0438 9.83061C5.3706 9.65199 4.65401 9.7481 4.05168 10.0978C3.44935 10.4475 3.01061 11.0222 2.83198 11.6954C2.65336 12.3686 2.74947 13.0852 3.09918 13.6875L3.537 14.4591C6.76293 20.1459 8.09793 22.5 12.4995 22.5C14.6868 22.4975 16.7837 21.6275 18.3304 20.0809C19.877 18.5343 20.747 16.4373 20.7495 14.25V10.875C20.7495 10.1788 20.4729 9.51113 19.9807 9.01884C19.4884 8.52656 18.8207 8.25 18.1245 8.25ZM19.2495 14.25C19.2475 16.0396 18.5357 17.7553 17.2703 19.0208C16.0048 20.2862 14.2891 20.998 12.4995 21C8.97168 21 8.0145 19.3125 4.842 13.7175L4.40231 12.9422V12.9375C4.25302 12.6794 4.21231 12.3725 4.28913 12.0844C4.36595 11.7963 4.55401 11.5505 4.812 11.4009C4.98288 11.302 5.17701 11.2502 5.3745 11.2509C5.57226 11.2506 5.7666 11.3025 5.93794 11.4012C6.10927 11.5 6.25155 11.6422 6.35043 11.8134C6.35425 11.8209 6.35864 11.8282 6.36356 11.835L8.11387 14.6475C8.20025 14.7854 8.32916 14.8915 8.48112 14.9497C8.63309 15.008 8.79988 15.0152 8.95631 14.9703C9.11274 14.9254 9.25033 14.8309 9.34832 14.701C9.44631 14.571 9.49937 14.4127 9.4995 14.25V4.125C9.4995 3.82663 9.61802 3.54048 9.829 3.3295C10.04 3.11853 10.3261 3 10.6245 3C10.9229 3 11.209 3.11853 11.42 3.3295C11.631 3.54048 11.7495 3.82663 11.7495 4.125V10.5C11.7495 10.6989 11.8285 10.8897 11.9692 11.0303C12.1098 11.171 12.3006 11.25 12.4995 11.25C12.6984 11.25 12.8892 11.171 13.0298 11.0303C13.1705 10.8897 13.2495 10.6989 13.2495 10.5V9.375C13.2495 9.07663 13.368 8.79048 13.579 8.5795C13.79 8.36853 14.0761 8.25 14.3745 8.25C14.6729 8.25 14.959 8.36853 15.17 8.5795C15.381 8.79048 15.4995 9.07663 15.4995 9.375V11.25C15.4995 11.4489 15.5785 11.6397 15.7192 11.7803C15.8598 11.921 16.0506 12 16.2495 12C16.4484 12 16.6392 11.921 16.7798 11.7803C16.9205 11.6397 16.9995 11.4489 16.9995 11.25V10.875C16.9995 10.5766 17.118 10.2905 17.329 10.0795C17.54 9.86853 17.8261 9.75 18.1245 9.75C18.4229 9.75 18.709 9.86853 18.92 10.0795C19.131 10.2905 19.2495 10.5766 19.2495 10.875V14.25Z" fill="white" fill-opacity="0.5"/>
</svg>
