<svg width="17" height="16" viewBox="0 0 17 16" fill="none" xmlns="http://www.w3.org/2000/svg">
<g clip-path="url(#clip0_3291_202080)">
<path fill-rule="evenodd" clip-rule="evenodd" d="M4.25 14.5684C4.25 14.8272 4.45987 15.0371 4.71875 15.0371H12.2812C12.5401 15.0371 12.75 14.8272 12.75 14.5684V13.6254C14.9496 12.7074 16.5 10.5413 16.5 8.00586C16.5 7.74698 16.2901 7.53711 16.0312 7.53711H0.96875C0.709867 7.53711 0.5 7.74698 0.5 8.00586C0.5 10.5413 2.05042 12.7074 4.25 13.6254V14.5684ZM5.1875 14.0996V13.3039C5.1875 13.1053 5.06238 12.9283 4.87519 12.862C3.01342 12.2029 1.64254 10.5108 1.45857 8.47461H15.5414C15.3575 10.5108 13.9866 12.2029 12.1248 12.862C11.9376 12.9283 11.8125 13.1053 11.8125 13.3039V14.0996H5.1875Z" fill="#5B9087"/>
<path fill-rule="evenodd" clip-rule="evenodd" d="M0.821562 9.88086C0.821562 10.1397 1.03143 10.3496 1.29031 10.3496H15.7109C15.9698 10.3496 16.1797 10.1397 16.1797 9.88086C16.1797 9.62198 15.9698 9.41211 15.7109 9.41211H1.29031C1.03143 9.41211 0.821562 9.62198 0.821562 9.88086Z" fill="#5B9087"/>
<path fill-rule="evenodd" clip-rule="evenodd" d="M5.35707 5.52482C5.54013 5.70787 5.83692 5.70787 6.01998 5.52482C6.72079 4.82401 6.72079 3.68771 6.01998 2.9869C5.68529 2.65221 5.68529 2.10951 6.01998 1.77482C6.20304 1.59176 6.20304 1.29496 6.01998 1.1119C5.83692 0.928845 5.54013 0.928845 5.35707 1.1119C4.65626 1.81271 4.65626 2.94901 5.35707 3.64982C5.69176 3.98451 5.69176 4.52721 5.35707 4.8619C5.17401 5.04496 5.17401 5.34176 5.35707 5.52482Z" fill="#5B9087"/>
<path fill-rule="evenodd" clip-rule="evenodd" d="M8.16957 5.52482C8.35263 5.70787 8.64942 5.70787 8.83248 5.52482C9.53329 4.82401 9.53329 3.68771 8.83248 2.9869C8.49779 2.65221 8.49779 2.10951 8.83248 1.77482C9.01554 1.59176 9.01554 1.29496 8.83248 1.1119C8.64942 0.928845 8.35263 0.928845 8.16957 1.1119C7.46876 1.81271 7.46876 2.94901 8.16957 3.64982C8.50426 3.98451 8.50426 4.52721 8.16957 4.8619C7.98651 5.04496 7.98651 5.34176 8.16957 5.52482Z" fill="#5B9087"/>
<path fill-rule="evenodd" clip-rule="evenodd" d="M10.9821 5.52482C11.1651 5.70787 11.4619 5.70787 11.645 5.52482C12.3458 4.82401 12.3458 3.68771 11.645 2.9869C11.3103 2.65221 11.3103 2.10951 11.645 1.77482C11.828 1.59176 11.828 1.29496 11.645 1.1119C11.4619 0.928845 11.1651 0.928845 10.9821 1.1119C10.2813 1.81271 10.2813 2.94901 10.9821 3.64982C11.3168 3.98451 11.3168 4.52721 10.9821 4.8619C10.799 5.04496 10.799 5.34176 10.9821 5.52482Z" fill="#5B9087"/>
</g>
<defs>
<clipPath id="clip0_3291_202080">
<rect width="16" height="16" fill="white" transform="translate(0.5)"/>
</clipPath>
</defs>
</svg>
