<svg width="16" height="17" viewBox="0 0 16 17" fill="none" xmlns="http://www.w3.org/2000/svg">
<path opacity="0.5" d="M9.46602 2.5H6.53268C3.76711 2.5 2.38432 2.5 1.52517 3.37868C0.666016 4.25736 0.666016 5.67157 0.666016 8.5C0.666016 11.3284 0.666016 12.7426 1.52517 13.6213C2.38432 14.5 3.76711 14.5 6.53268 14.5H9.46602C12.2316 14.5 13.6144 14.5 14.4735 13.6213C15.3327 12.7426 15.3327 11.3284 15.3327 8.5C15.3327 5.67157 15.3327 4.25736 14.4735 3.37868C13.6144 2.5 12.2316 2.5 9.46602 2.5Z" fill="white"/>
<path d="M12.7509 5.85339C12.9843 5.65893 13.0158 5.31212 12.8214 5.07877C12.6269 4.84542 12.2801 4.81389 12.0467 5.00835L10.4636 6.32768C9.77938 6.89782 9.30437 7.29238 8.90335 7.5503C8.51515 7.79997 8.2519 7.88378 7.99884 7.88378C7.74579 7.88378 7.48253 7.79997 7.09434 7.5503C6.69331 7.29238 6.2183 6.89782 5.53413 6.32768L3.95094 5.00835C3.71759 4.81389 3.37078 4.84542 3.17632 5.07877C2.98186 5.31212 3.01339 5.65893 3.24674 5.85339L4.8575 7.1957C5.5075 7.73738 6.03433 8.17642 6.49931 8.47547C6.98367 8.78699 7.45539 8.98378 7.99884 8.98378C8.5423 8.98378 9.01402 8.78699 9.49838 8.47547C9.96336 8.17641 10.4902 7.73737 11.1402 7.19569L12.7509 5.85339Z" fill="white"/>
</svg>
