<svg width="76" height="25" viewBox="0 0 76 25" fill="none" xmlns="http://www.w3.org/2000/svg">
<path d="M21.459 15.9381C21.3859 14.9319 21.0695 13.9946 20.5339 13.1345C20.0105 12.2906 19.3086 11.6333 18.4322 11.1627C18.3105 11.0977 18.1888 11.0247 18.0549 10.9517L18.0468 10.9436L18.1158 10.8787L18.136 10.8584L18.3511 10.6717L18.3632 10.6596C18.6594 10.3837 18.915 10.0753 19.1341 9.73044C19.4181 9.28008 19.6453 8.80133 19.7468 8.27794C19.836 7.80729 19.905 7.32853 19.9496 6.85383C20.0308 5.95311 19.905 5.07268 19.5845 4.22877C19.2559 3.37674 18.7325 2.66266 18.0427 2.08247C17.4909 1.61588 16.4401 1.10061 15.7422 0.905858C15.442 0.820656 15.1337 0.751682 14.8294 0.686765C14.5007 0.617792 14.1518 0.601562 13.8191 0.601562C9.68067 0.601562 5.54224 0.601562 1.39976 0.601562H0.231265C0.231265 0.601562 0.198807 0.609677 0.182578 0.613734V0.601562H0V23.8863H1.87446C5.82625 23.8863 9.7821 23.8863 13.7339 23.8863C14.3303 23.8863 14.9308 23.9188 15.5313 23.797C16.1115 23.6753 16.6957 23.5942 17.2475 23.3548C17.7709 23.1316 18.2862 22.8923 18.7243 22.5352C19.0368 22.2796 19.337 22.0159 19.6291 21.7359C20.1728 21.2207 20.5582 20.5877 20.8666 19.9061C21.2196 19.1514 21.4306 18.3562 21.4833 17.5285C21.5117 17.0051 21.5036 16.4696 21.463 15.9462L21.459 15.9381ZM16.1926 19.1028C16.0952 19.2935 15.9411 19.3949 15.7301 19.4111C15.6814 19.4192 15.6368 19.4111 15.5881 19.4111C11.5186 19.4111 7.44511 19.4111 3.37971 19.4111C3.11599 19.4111 2.90501 19.3421 2.77924 19.0946C2.66563 18.8634 2.72243 18.6524 2.87255 18.4536C3.69212 17.3378 4.51981 16.2221 5.33938 15.1063C5.3759 15.0577 5.40835 15.0049 5.46516 14.9278H4.3494C4.26014 14.9278 4.17088 14.9278 4.08568 14.9278C3.84224 14.9359 3.6475 14.8386 3.53389 14.6195C3.41623 14.3882 3.46492 14.1772 3.61504 13.9784C4.11408 13.3333 4.60907 12.6801 5.1 12.0309C5.50167 11.5075 5.90334 10.9801 6.33341 10.4161C6.04535 10.4161 5.78974 10.4161 5.53413 10.4161C5.27446 10.4161 5.0716 10.2619 4.99451 10.0145C4.9296 9.81159 4.99451 9.63713 5.11217 9.46672C5.74917 8.56195 6.37804 7.66123 7.01098 6.75646C7.66014 5.82734 8.31337 4.89822 8.95847 3.96911C9.25465 3.54715 9.70501 3.54715 9.99714 3.96911C11.2833 5.803 12.5654 7.63283 13.8475 9.46672C13.9936 9.66958 14.0463 9.88056 13.9246 10.1078C13.8069 10.335 13.6041 10.4242 13.3566 10.4161C13.174 10.408 12.9914 10.4161 12.8088 10.4161H12.6465C12.6871 10.481 12.7115 10.5257 12.7439 10.5622C13.6041 11.6982 14.4723 12.8343 15.3365 13.9703C15.6205 14.3436 15.4907 14.802 15.0728 14.9116C14.9998 14.9359 14.9186 14.9359 14.8415 14.9359H13.5757C13.5757 14.9359 13.5554 14.9359 13.5107 14.9481C13.5554 15.013 13.5919 15.0658 13.6284 15.1185C14.452 16.2343 15.2757 17.35 16.0993 18.4617C16.2494 18.6605 16.2981 18.8715 16.1845 19.1028H16.1926Z" fill="#BAA886"/>
<path d="M29.2935 17.8165L29.1758 17.4879H29.7925C30.6405 17.4879 31.0422 17.8165 31.0422 18.3724C31.0422 18.9282 30.6283 19.2812 29.7925 19.2853V20.0156L29.9102 20.3442H29.1799L29.2935 20.0156V17.8165ZM29.7925 19.1595C30.2672 19.1595 30.5391 18.8836 30.5391 18.4048C30.5391 17.9261 30.2551 17.6096 29.7925 17.6096V19.1595Z" fill="#BAA886"/>
<path d="M33.6912 20.0115C33.5979 19.5125 33.2287 19.1189 32.823 19.054V20.0115L32.9406 20.3401H32.2103L32.3239 20.0115V17.8165L32.2063 17.4879H32.823C33.675 17.4879 34.1213 17.7557 34.1213 18.2588C34.1213 18.6969 33.7886 18.9647 33.1719 19.0378C33.8251 19.1838 34.1619 19.5936 34.2552 20.3442H33.5817L33.6872 20.0156L33.6912 20.0115ZM32.823 18.9282C33.3382 18.9282 33.6182 18.701 33.6182 18.2872C33.6182 17.8733 33.3261 17.6096 32.823 17.6055V18.9282Z" fill="#BAA886"/>
<path d="M35.5948 20.0116V17.8166L35.4771 17.488H36.2115L36.0938 17.8166V20.0116L36.2115 20.3402H35.4771L35.5948 20.0116Z" fill="#BAA886"/>
<path d="M37.6467 17.829L37.4357 17.4841H38.2553L38.1741 17.829L38.9369 19.9834L39.6997 17.829L39.6185 17.4841H40.0364L39.8254 17.829L38.9978 20.166L39.0627 20.3404L38.5515 20.4053L37.6467 17.829Z" fill="#BAA886"/>
<path d="M40.3993 20.3442L40.6102 19.9993L41.4379 17.6623L41.373 17.4878L41.8802 17.4229L42.789 19.9993L43 20.3442H42.1804L42.2615 19.9993L42.0627 19.4313H40.9389L40.736 19.9993L40.8172 20.3442H40.3993ZM42.0181 19.3096L41.5028 17.8449L40.9835 19.3096H42.0181Z" fill="#BAA886"/>
<path d="M44.5063 20.0119V17.5856H44.1898L43.6583 18.0968V17.4842H45.8574V18.0968L45.3259 17.5856H45.0094V20.0119L45.1433 20.3405H44.3724L44.5063 20.0119Z" fill="#BAA886"/>
<path d="M47.1936 20.0115V17.8165L47.0759 17.4879H48.9057V18.1005L48.3702 17.6096H47.6885V18.7456H48.1064L48.5893 18.4454V19.1717L48.1064 18.8714H47.6885V20.2265H48.3783L48.9017 19.7356V20.3483H47.0718L47.1895 20.0196L47.1936 20.0115Z" fill="#BAA886"/>
<path d="M52.1842 17.8166L52.0706 17.488H52.6833C53.4785 17.488 53.8761 17.6827 53.8761 18.0722C53.8761 18.3441 53.6732 18.5591 53.3446 18.6402C53.799 18.7741 54.0222 19.0622 54.0222 19.4639C54.0222 20.0238 53.584 20.3443 52.6833 20.3484H52.0666L52.1842 20.0197V17.8166ZM52.6833 18.5469C52.8821 18.5469 53.0646 18.5672 53.2188 18.6037C53.3324 18.5023 53.4014 18.3197 53.4014 18.129C53.4014 17.776 53.1661 17.6056 52.6833 17.6056V18.5469ZM52.6833 20.2185C53.1985 20.2185 53.5191 19.9183 53.5191 19.4233C53.5191 18.9283 53.2107 18.6686 52.6833 18.6686V20.2185Z" fill="#BAA886"/>
<path d="M54.9797 20.3442L55.1907 19.9993L56.0184 17.6623L55.9535 17.4878L56.4607 17.4229L57.3695 19.9993L57.5805 20.3442H56.7609L56.842 19.9993L56.6432 19.4313H55.5194L55.3165 19.9993L55.3976 20.3442H54.9797ZM56.5986 19.3096L56.0833 17.8449L55.564 19.3096H56.5986Z" fill="#BAA886"/>
<path d="M58.9222 20.0119V17.6465L58.8045 17.4842H59.4212L60.8372 19.4844V17.8128L60.7236 17.4842H61.0766L60.963 17.8128V20.3405H60.8413L59.048 17.8169V20.0119L59.1616 20.3405H58.8086L58.9222 20.0119Z" fill="#BAA886"/>
<path d="M63.2948 20.0119V19.1761L62.2967 17.4842H63.1285L63.0798 17.825L63.7614 18.9894L64.4471 17.825L64.3781 17.4842H64.7879L63.7939 19.1761V20.0119L63.9318 20.3405H63.1569L63.2948 20.0119Z" fill="#BAA886"/>
<path d="M65.2811 20.3443L65.492 19.9995L66.3197 17.6625L66.2548 17.488L66.762 17.4231L67.6708 19.9995L67.8818 20.3443H67.0622L67.1433 19.9995L66.9445 19.4315H65.8207L65.6178 19.9995L65.699 20.3443H65.2811ZM66.8999 19.3097L66.3846 17.8451L65.8653 19.3097H66.8999Z" fill="#BAA886"/>
<path d="M35.0361 4.23255L35.1821 6.18816H35.1172C34.7886 5.70128 34.0988 5.37264 32.9871 5.37264H32.5287V11.9901C32.5287 12.4485 32.6747 12.9232 33.2508 13.1342V13.187H29.3477V13.1342C29.9198 12.9232 30.0699 12.4526 30.0699 11.9901V5.3767H29.6277C28.5119 5.3767 27.8263 5.70534 27.4976 6.19221H27.4327L27.5788 4.23661H35.0361V4.23255Z" fill="#003E37"/>
<path d="M45.8717 11.9824C46.0502 12.4287 46.2328 12.8871 46.8049 13.0981V13.1914H43.0032V13.1265C43.4779 12.9034 43.5103 12.4327 43.3481 11.9824L42.8896 10.7611H39.7249L39.2664 11.9824C39.1041 12.4287 39.0514 12.9034 39.5302 13.1265V13.1914H36.5967V13.0981C37.1688 12.8871 37.3676 12.4287 37.5299 11.9824L40.0698 5.42984C40.2158 5.07686 40.3335 4.50884 39.7898 4.31409V4.237H43.5753V4.31409C43.1168 4.52507 43.1655 4.98354 43.3278 5.42984L45.8676 11.9824H45.8717ZM42.3946 9.41003L41.3113 6.49691L40.228 9.41003H42.3946Z" fill="#003E37"/>
<path d="M49.2996 5.42945C49.2996 4.97097 49.1535 4.49627 48.5774 4.28529V4.23255H52.4805V4.28529C51.9084 4.49627 51.7583 4.96692 51.7583 5.42945V11.9941C51.7583 12.4526 51.9044 12.9273 52.4805 13.1383V13.191H48.5774V13.1383C49.1495 12.9273 49.2996 12.4567 49.2996 11.9941V5.42945Z" fill="#003E37"/>
<path d="M61.4315 9.05289C61.4315 8.59442 61.2692 8.11972 60.6931 7.89656V7.84382H64.2675V7.89656C63.6589 8.11972 63.5291 8.59442 63.5291 9.05289V13.1873H63.4155C63.2694 13.1345 63.0706 13.1223 62.8272 13.1223C62.0563 13.1223 60.9406 13.3049 60.1372 13.3049C56.7129 13.3049 55.1549 11.2682 55.1549 8.72425C55.1549 6.00587 57.1064 4.13952 60.1048 4.13952C61.1556 4.13952 62.0563 4.36267 62.4012 4.36267C62.5635 4.36267 62.7136 4.33833 62.8597 4.26936H62.9083L62.9408 6.48869H62.7461C62.4661 5.72592 61.4356 5.36076 60.4983 5.36076C58.7618 5.36076 57.6947 6.48869 57.6947 8.59036C57.6947 10.8097 59.0052 11.8849 60.762 11.8849C60.9608 11.8849 61.2367 11.8727 61.4356 11.82V9.04883L61.4315 9.05289Z" fill="#003E37"/>
<path d="M75.0668 11.9824C75.2453 12.4287 75.4279 12.8871 76 13.0981V13.1914H72.1983V13.1265C72.673 12.9034 72.7055 12.4327 72.5432 11.9824L72.0847 10.7611H68.92L68.4616 11.9824C68.2993 12.4287 68.2506 12.9034 68.7253 13.1265V13.1914H65.7919V13.0981C66.364 12.8871 66.5628 12.4287 66.7251 11.9824L69.2649 5.42984C69.411 5.07686 69.5286 4.50884 68.985 4.31409V4.237H72.7704V4.31409C72.3119 4.52507 72.3606 4.98354 72.5229 5.42984L75.0628 11.9824H75.0668ZM71.5897 9.41003L70.5064 6.49691L69.4231 9.41003H71.5897Z" fill="#003E37"/>
</svg>
