<svg width="90" height="30" viewBox="0 0 90 30" fill="none" xmlns="http://www.w3.org/2000/svg">
<g clip-path="url(#clip0_3204_14002)">
<path d="M20.4114 15.9765C20.7165 15.824 21.0521 15.6409 21.3571 15.4884C21.4792 15.4274 21.9063 15.2748 21.9673 15.1528C21.9978 15.0918 21.9673 14.9087 21.9673 14.8172V14.085V8.86805V3.77313V3.10195C21.9673 3.07144 21.9978 2.85788 21.9673 2.82737C21.9368 2.79686 21.6927 2.82737 21.6622 2.82737H20.991C20.747 2.82737 20.7775 2.85788 20.6249 3.04093C20.0453 3.80364 19.4656 4.56635 18.886 5.35957C18.6114 5.72568 18.3368 6.06127 18.0927 6.42737C17.9097 6.67144 17.9097 6.70195 17.5741 6.70195L17.6656 4.68839C17.6961 4.20025 17.6961 3.71212 17.7266 3.22398C17.7266 3.04093 17.7571 2.85788 17.7571 2.67483C17.7571 2.61381 17.7266 2.43076 17.7571 2.40025C17.8182 2.30873 18.3673 2.36974 18.5199 2.36974H29.93C29.991 2.36974 30.2656 2.33923 30.3266 2.36974C30.3877 2.40025 30.3571 2.5833 30.3571 2.67483C30.3877 3.07144 30.3876 3.49856 30.4182 3.89517C30.4487 4.77991 30.4792 5.63415 30.5402 6.5189V6.70195C30.3876 6.70195 30.2656 6.73246 30.1436 6.64093C30.0215 6.54941 29.93 6.36635 29.8385 6.24432C29.4724 5.75618 29.1063 5.23754 28.7097 4.7494L27.6114 3.285C27.5504 3.19347 27.4588 2.97991 27.3368 2.9189C27.2453 2.85788 27.0622 2.88839 26.9402 2.88839H26.4521C26.391 2.88839 26.147 2.85788 26.086 2.88839C26.0554 2.9189 26.086 2.9189 26.0554 2.97991C25.9944 3.22398 26.0554 3.52907 26.0554 3.77313V14.3901C26.0554 14.6036 25.9944 14.9087 26.0554 15.1223C26.1165 15.3358 26.6046 15.4884 26.8182 15.5799C27.0317 15.7019 27.3978 15.7935 27.5809 15.9765C27.6419 16.0375 27.7029 16.3426 27.6419 16.4342C27.6114 16.4647 27.4588 16.4342 27.4283 16.4342H20.7165C20.6554 16.4342 20.4419 16.4647 20.4114 16.4342C20.3809 16.3121 20.4114 16.068 20.4114 15.9765ZM31.73 15.4274V10.9731V3.68161V2.49178C31.73 2.30873 31.791 2.03415 31.73 1.8511C31.669 1.63754 31.3029 1.60703 31.0893 1.51551C30.9673 1.485 30.5707 1.39347 30.5097 1.27144V1.02737H30.6012C30.7232 0.966353 30.9673 0.966353 31.1199 0.935845C31.3944 0.874828 31.669 0.844319 31.9131 0.783302C32.5232 0.661269 33.1639 0.539235 33.7741 0.447709C34.1402 0.386692 34.5063 0.295167 34.8724 0.23415C34.9639 0.23415 35.33 0.173133 35.3605 0.23415C35.391 0.264658 35.3605 0.386692 35.3605 0.417201V6.73246C36.5199 5.57313 38.5334 4.93246 40.1504 5.32907C41.5538 5.66466 42.0114 6.97652 42.0114 8.3189C42.0419 10.0274 42.0114 11.7053 42.0114 13.4138V14.7867C42.0114 14.9392 41.9504 15.3053 42.0114 15.4579C42.0419 15.5189 42.1639 15.5494 42.2249 15.6104C42.4385 15.7325 42.6826 15.8545 42.8961 15.9765C42.9266 16.007 43.0182 16.0375 43.0182 16.068C43.0487 16.0986 43.0487 16.3731 43.0182 16.4036C42.9877 16.4647 42.9877 16.4342 42.8961 16.4342C42.5605 16.4952 42.1944 16.4342 41.8893 16.4342H37.4961C37.4656 16.4342 37.3131 16.4647 37.2826 16.4342C37.2521 16.4036 37.2521 16.068 37.2826 16.0375C37.3741 15.9155 37.7402 15.7935 37.8622 15.7019C37.9538 15.6409 38.2283 15.5494 38.2893 15.4579C38.3504 15.3664 38.2893 15.0308 38.2893 14.9392V13.6884C38.2893 11.9189 38.3199 10.1189 38.2893 8.34941C38.2893 7.83076 38.1978 7.22059 37.6792 6.94601C37.4046 6.79347 37.0385 6.76296 36.7334 6.76296C36.4893 6.76296 36.2453 6.82398 36.0317 6.885C35.8487 6.94601 35.5131 7.06805 35.391 7.22059C35.2995 7.34263 35.3605 7.52568 35.3605 7.67822V14.8782C35.3605 15.0308 35.2995 15.3358 35.3605 15.4579C35.391 15.5189 35.5131 15.5799 35.6046 15.6104C35.8182 15.7325 36.0927 15.8545 36.3063 15.9765C36.3368 16.007 36.3978 16.007 36.3978 16.0375C36.4283 16.068 36.4283 16.3426 36.3978 16.3731C36.3673 16.4036 36.3368 16.4036 36.2758 16.4036C35.9402 16.4342 35.5741 16.4036 35.2385 16.4036H30.8453C30.8148 16.4036 30.6622 16.4342 30.6317 16.4036C30.6012 16.3731 30.6317 16.068 30.6622 16.007C30.7538 15.885 31.0893 15.763 31.2114 15.7019C31.4249 15.6104 31.5775 15.5189 31.73 15.4274ZM46.2215 11.2172C46.2826 12.5596 46.7097 14.0545 47.93 14.7867C48.5707 15.1528 49.3639 15.2748 50.0961 15.2138C50.9809 15.1223 51.7131 14.6952 52.4758 14.2986C52.4758 14.4206 52.5063 14.6342 52.4758 14.7562C52.4148 14.8782 52.2622 15.0308 52.1707 15.1223C52.0487 15.2443 51.8961 15.3969 51.7436 15.5189C51.2249 15.946 50.6453 16.2511 50.0351 16.4647C48.8758 16.8613 47.5334 16.8308 46.3436 16.5257C45.3978 16.2816 44.5436 15.824 43.9029 15.0918C43.2622 14.3596 42.8961 13.4138 42.7436 12.4375C42.408 10.3325 42.8046 7.92229 44.5436 6.5189C46.069 5.29856 48.5097 5.05449 50.3097 5.78669C52.5063 6.67144 52.8724 9.17313 52.8724 11.2477H47.0453C46.7707 11.2172 46.4961 11.2172 46.2215 11.2172ZM46.1605 10.6986C46.7707 10.668 47.3809 10.6375 48.0215 10.5765C48.3876 10.546 48.7843 10.546 49.1504 10.5155C49.2114 10.5155 49.3639 10.5155 49.4249 10.485C49.5165 10.424 49.4555 9.81381 49.4555 9.69178C49.4249 8.59347 49.3944 7.2511 48.7538 6.30534C48.2961 5.63415 47.5944 5.75618 47.1673 6.36635C46.2826 7.55618 46.1605 9.32568 46.1605 10.6986ZM-0.0292969 21.8342C-0.0292969 20.1257 0.306296 18.3562 1.25206 16.9223C2.16731 15.5189 3.63172 14.6036 5.21816 14.146C7.14019 13.5969 9.27579 13.6579 11.2588 14.024C11.686 14.1155 12.1131 14.207 12.5097 14.3291C12.5707 14.3596 12.8453 14.4206 12.8758 14.4816V14.5731C12.9673 14.9392 12.9063 15.3969 12.9063 15.763C12.9368 16.7087 12.9368 17.685 12.9673 18.6308C12.8453 18.6308 12.6317 18.6613 12.5402 18.6308C12.4792 18.6003 12.4182 18.4477 12.3877 18.3867C12.1436 18.0206 11.8995 17.6545 11.686 17.2579C11.1673 16.4342 10.6182 15.6104 10.0995 14.7867C9.82494 14.3291 9.06223 14.3291 8.57409 14.3291C8.02494 14.3291 7.47579 14.4206 7.01816 14.6952C5.98087 15.3358 5.49274 16.5867 5.21816 17.7155C4.79104 19.5155 4.82155 21.407 4.91308 23.2375C5.0046 24.6409 5.12664 26.1358 5.67579 27.4172C6.01138 28.2104 6.59104 28.9121 7.47579 29.0952C7.75036 29.1562 8.02494 29.1562 8.33002 29.1257C8.51308 29.0952 9.15375 29.0647 9.24528 28.8816C9.27579 28.8206 9.24528 28.6681 9.24528 28.607V28.0884V24.8545V23.6036C9.24528 23.3901 9.3063 23.2986 9.12325 23.1765C8.90969 23.0545 8.66562 22.9325 8.45206 22.7799C8.29952 22.6884 7.99443 22.5969 7.90291 22.4748C7.84189 22.4138 7.81138 22.0782 7.8724 22.0172C7.90291 21.9562 7.90291 21.9867 7.99443 21.9867C8.26901 21.9257 8.63511 21.9867 8.90969 21.9867H13.6385C13.9436 21.9867 14.2792 21.9562 14.5843 21.9867H14.7063C14.7368 22.0172 14.7368 22.4443 14.7063 22.5053C14.6453 22.5969 14.3402 22.7189 14.2182 22.7799C14.0046 22.9019 13.7605 23.024 13.547 23.1765C13.3029 23.2986 13.3334 23.2986 13.3334 23.5731V28.546C13.3334 28.607 13.3639 28.7596 13.3334 28.8206C13.2724 28.9731 12.6317 29.0647 12.4487 29.1257C11.93 29.2782 11.3809 29.4003 10.8317 29.4918C9.76392 29.6748 8.69613 29.7358 7.62833 29.7053C5.91986 29.6443 4.11986 29.2782 2.71647 28.2409C1.49613 27.3562 0.702906 26.0138 0.336805 24.5494C0.0622286 23.6952 -0.0292969 22.7494 -0.0292969 21.8342ZM14.0351 19.0579C14.0351 18.9969 14.0046 18.7528 14.0351 18.7223C14.0656 18.6918 14.0961 18.7223 14.1266 18.6918C14.3097 18.6003 14.5538 18.6003 14.7673 18.5697C15.469 18.4477 16.1707 18.3257 16.9029 18.2036C17.4521 18.1121 18.0012 17.9901 18.5199 17.9291C18.6724 17.8986 18.8554 17.8986 19.008 17.9596C19.1605 17.9901 19.0995 17.9596 19.13 18.0816C19.191 18.4477 19.13 18.8748 19.13 19.2409V25.6172C19.13 26.3799 18.9165 27.7833 19.6487 28.2409C20.0148 28.485 20.5334 28.485 20.9605 28.3935C21.2961 28.3325 21.9368 28.0884 22.0588 27.7223C22.0893 27.6308 22.0588 27.5087 22.0588 27.4172V26.7765V22.5358V20.5833V19.9426C22.0588 19.8816 22.0893 19.6986 22.0588 19.6375C21.9673 19.546 21.6622 19.4545 21.5707 19.424C21.3876 19.363 21.2351 19.2714 21.0521 19.2104C20.991 19.1799 20.7775 19.1494 20.747 19.0884C20.7165 19.0579 20.7165 18.7833 20.747 18.7528C20.7775 18.7223 20.7775 18.7528 20.808 18.7223C20.9605 18.6308 21.2351 18.6613 21.3877 18.6308C22.6385 18.4172 23.9199 18.1426 25.2012 17.9596C25.3538 17.9291 25.5063 17.9291 25.6588 17.9596C25.8114 17.9901 25.7504 17.9291 25.7809 18.0816C25.8419 18.3867 25.7809 18.8138 25.7809 19.1494V27.9358C25.7809 28.0274 25.7504 28.1799 25.7809 28.3019C25.8114 28.3935 25.7809 28.363 25.9334 28.424C26.2385 28.546 26.5741 28.6986 26.8792 28.8206C26.9707 28.8511 27.0012 28.8511 27.0317 28.9121C27.0622 28.9731 27.0622 29.1867 27.0317 29.1867C26.9707 29.2477 26.6656 29.2172 26.6046 29.2477C25.9334 29.3392 25.2622 29.4003 24.5605 29.4918C23.9504 29.5528 23.3402 29.6443 22.7605 29.7053C22.6385 29.7358 22.5165 29.7358 22.3944 29.7053C22.3334 29.7053 22.1504 29.7053 22.1199 29.6748C22.0893 29.6138 22.1199 29.3697 22.1199 29.3087V28.7901C22.1199 28.6986 22.1809 28.4545 22.1199 28.363C22.0588 28.2714 21.9368 28.3935 21.8453 28.4545C21.6012 28.6681 21.3266 28.8816 21.0521 29.0342C20.0453 29.6443 18.7944 29.9189 17.6351 29.6748C16.7809 29.4918 16.0487 29.0036 15.6826 28.1799C15.408 27.6003 15.347 26.9596 15.347 26.3494V22.7189V20.6443V19.9426C15.347 19.8816 15.3775 19.6986 15.347 19.6375C15.286 19.546 14.9199 19.4545 14.8283 19.3935C14.5232 19.2714 14.2792 19.1799 14.0351 19.0579ZM42.8046 17.8986C42.8656 17.8986 43.1402 17.8986 43.1707 17.9596C43.2012 17.9901 43.1707 18.2036 43.1707 18.2341V20.9189C43.1707 21.0104 43.1402 21.163 43.1707 21.2545V21.3155C43.2927 21.4375 43.3232 21.0409 43.3538 21.0104C43.6283 19.8816 44.147 18.5697 45.3063 18.1121C45.5199 18.0206 45.7334 17.9901 45.947 17.9596C46.13 17.9596 46.6487 17.8986 46.7402 18.0511C46.7707 18.1121 46.7402 18.2647 46.7402 18.3257V21.4375C46.008 21.285 45.1843 21.3155 44.4826 21.4681C44.147 21.5291 43.8419 21.6206 43.5368 21.7731C43.3843 21.8342 43.3538 21.8036 43.3232 21.9257C43.2927 22.0477 43.3232 22.2613 43.3232 22.3833V28.2714C43.3232 28.3325 43.2927 28.424 43.3232 28.485C43.3843 28.5765 43.5978 28.6375 43.6893 28.6681C43.8419 28.7596 44.0249 28.8511 44.1775 28.9426C44.2385 28.9731 44.33 29.0036 44.3605 29.0647C44.391 29.0952 44.391 29.4613 44.3605 29.4918C44.33 29.5223 44.147 29.4918 44.086 29.4918H39.0215C38.869 29.4918 38.5944 29.5528 38.4724 29.4918H38.3809C38.3504 29.4613 38.3809 29.1257 38.3809 29.0952C38.4419 28.9121 38.8385 28.7901 39.0215 28.6986C39.1436 28.6375 39.3877 28.546 39.4487 28.424C39.4792 28.363 39.4487 28.1799 39.4487 28.1189V27.4782V19.6375C39.4487 19.607 39.4792 19.4545 39.4487 19.424C39.4182 19.3935 39.2656 19.363 39.2046 19.363C39.0215 19.3019 38.8385 19.2409 38.6554 19.2104C38.4724 19.1494 38.0148 19.1189 38.1673 18.8138C38.1978 18.7223 38.3199 18.7528 38.4419 18.7223C39.7843 18.4782 41.0961 18.2341 42.4385 17.9901C42.5605 17.9291 42.6826 17.9291 42.8046 17.8986ZM54.3063 18.1731V15.7325V15.0308C54.3063 14.9392 54.3368 14.7562 54.3063 14.6647C54.2758 14.6036 54.1538 14.5731 54.0622 14.5426C53.8182 14.4511 53.5741 14.3596 53.2995 14.268C53.1165 14.207 53.0249 14.2375 53.0249 14.024C53.0249 13.8409 52.9944 13.9019 53.147 13.8714C53.4826 13.7494 53.8792 13.7494 54.2148 13.6884C55.2215 13.5053 56.1978 13.3223 57.2046 13.1392C57.4182 13.1087 57.6317 13.0477 57.8453 13.0782C58.0893 13.1087 58.1199 13.0477 58.1199 13.2613C58.1504 13.7494 58.1199 14.268 58.1199 14.7562V28.1189C58.1199 28.2409 58.0893 28.2409 58.1809 28.3019C58.3639 28.424 58.669 28.485 58.8521 28.546C58.9741 28.5765 59.3097 28.6375 59.3707 28.7291C59.4012 28.7596 59.4012 29.0952 59.3707 29.1257C59.3402 29.1562 59.1571 29.1562 59.1266 29.1562C58.6995 29.2172 58.3029 29.2782 57.8758 29.3087C56.93 29.4308 55.9843 29.5528 55.008 29.6748C54.8554 29.7053 54.4893 29.7664 54.4283 29.6443C54.3673 29.5223 54.4283 29.1257 54.4283 29.0036C54.4283 28.9121 54.4893 28.5155 54.4283 28.4545C54.3673 28.3935 53.6961 29.0036 53.6046 29.0647C53.2385 29.3087 52.8419 29.4918 52.4148 29.6138C51.7436 29.7969 50.9809 29.7969 50.3097 29.6443C47.3809 28.9731 46.7707 25.4952 47.0148 22.963C47.1368 21.6206 47.5639 20.2782 48.4792 19.3019C49.3334 18.4172 50.4927 17.9596 51.6826 17.868C52.5978 17.7765 53.4826 17.8375 54.3063 18.1731ZM54.3063 27.9053V20.4003V18.9969C54.3063 18.8138 54.2758 18.7833 54.0622 18.6613C53.6351 18.4172 53.086 18.3257 52.6283 18.5087C51.9266 18.7833 51.591 19.607 51.408 20.2782C51.0419 21.4986 51.0114 22.8104 51.0419 24.0918C51.0724 25.1901 51.1029 26.5325 51.7131 27.5087C52.2622 28.363 53.5131 28.5765 54.3063 27.9053ZM64.4046 17.8986C64.5571 17.9291 64.7402 17.868 64.8012 18.0206C64.8317 18.1121 64.8012 18.3257 64.8012 18.4172V27.9664C64.8012 28.0884 64.7707 28.2714 64.8012 28.3935C64.8317 28.5155 64.9538 28.546 65.0758 28.607C65.2588 28.6986 65.4114 28.7901 65.5944 28.8816C65.6554 28.9121 65.8385 28.9731 65.869 29.0647C65.869 29.0952 65.8995 29.4613 65.869 29.4918H65.7775C65.5944 29.5223 65.3504 29.4918 65.1368 29.4918H60.4995C60.3775 29.4918 60.0419 29.5528 59.9504 29.4918C59.8893 29.4613 59.8588 29.0952 59.9199 29.0342C59.9809 28.9426 60.1944 28.8816 60.286 28.8511C60.469 28.7596 60.6521 28.6375 60.8351 28.546C60.9877 28.4545 60.9571 28.485 60.9571 28.363C61.0182 27.9053 60.9571 27.3867 60.9571 26.9291V24.5189V20.1257C60.9571 20.0036 60.9877 19.7901 60.9571 19.668C60.9266 19.546 60.7741 19.546 60.6521 19.485C60.4385 19.3935 60.2555 19.3325 60.0419 19.2409C59.9809 19.2104 59.7368 19.1799 59.6758 19.0884C59.6453 19.0579 59.6453 18.7528 59.6758 18.7223C59.7063 18.6918 59.7673 18.7223 59.7978 18.6918C60.0419 18.6003 60.3165 18.6003 60.591 18.5392C60.9877 18.4782 61.3538 18.3867 61.7504 18.3257C62.5131 18.2036 63.2453 18.0511 64.008 17.9291C64.1605 17.9596 64.2826 17.9291 64.4046 17.8986ZM64.8317 15.0613C64.7707 16.8918 62.2995 17.685 61.1707 16.2511C60.6521 15.5799 60.6215 14.6647 61.0792 13.963C61.5368 13.2613 62.4216 12.9562 63.2453 13.1392C64.1605 13.3223 64.8317 14.1155 64.8317 15.0613ZM78.1944 28.4545V21.1019V19.6986C78.1944 19.668 78.2249 19.5155 78.1944 19.485C78.1639 19.424 77.9809 19.3935 77.9199 19.3935L77.3707 19.2104C77.2792 19.1799 77.0351 19.1494 76.9741 19.0579C76.9131 18.9969 76.9436 18.8443 76.9436 18.7528C76.9436 18.5697 77.0046 18.6003 77.1877 18.5697L79.2012 18.2036L81.2148 17.8375C81.3368 17.807 81.4283 17.7765 81.5504 17.7765C81.6114 17.7765 81.9165 17.7765 81.9775 17.807C82.008 17.8375 81.9775 18.0206 81.9775 18.0816V18.6613C81.9775 18.7528 81.9165 19.0274 81.9775 19.1189C82.0385 19.2409 82.1605 19.1189 82.2521 19.0274C82.5266 18.8138 82.8012 18.6308 83.1063 18.4782C84.2046 17.868 85.5165 17.5935 86.7673 17.7765C87.6215 17.8986 88.3232 18.3562 88.6283 19.1799C88.8419 19.7596 88.8724 20.3697 88.8724 20.9799V27.9358C88.8724 28.0579 88.8419 28.2714 88.8724 28.3935C88.9029 28.5155 88.9944 28.546 89.147 28.607C89.2995 28.6986 89.4826 28.7901 89.6351 28.8816C89.6961 28.9121 89.9097 28.9731 89.9402 29.0647C89.9707 29.1257 89.9707 29.4308 89.9402 29.4613C89.9097 29.5223 89.9707 29.4613 89.8792 29.4918C89.7571 29.5528 89.4826 29.4918 89.33 29.4918H84.9673C84.7843 29.4918 84.0826 29.5833 83.991 29.4613C83.9605 29.4308 83.9605 29.0952 83.991 29.0342C84.0215 28.9731 84.2046 28.9121 84.2656 28.8816C84.4487 28.7901 84.6012 28.6986 84.7843 28.607C84.8453 28.5765 85.0283 28.5155 85.0588 28.4545C85.0893 28.3935 85.0588 28.2714 85.0588 28.2104V27.5392V25.4036V21.285C85.0588 20.7969 85.0893 20.2477 84.7843 19.8206C84.5402 19.4545 84.1131 19.363 83.686 19.3325C83.3504 19.3325 83.0453 19.363 82.7402 19.4545C82.5877 19.5155 82.13 19.6375 82.0385 19.8206C82.008 19.8816 82.0385 20.0036 82.0385 20.0647V27.9664C82.0385 28.0579 82.008 28.2714 82.0385 28.363C82.069 28.485 82.2521 28.5155 82.3436 28.5765C82.4961 28.6681 82.6792 28.7596 82.8317 28.8511C82.8927 28.8816 83.0148 28.9426 83.0453 28.9731C83.0758 29.0036 83.0758 29.3697 83.0453 29.4003C83.0453 29.4308 83.0148 29.4003 82.9843 29.4003C82.8622 29.4613 82.5571 29.4003 82.4351 29.4003H77.3097C77.1571 29.4003 77.1266 29.4308 77.0961 29.3392C77.0656 29.2782 77.0656 29.0036 77.0961 28.9426C77.1266 28.8816 77.3097 28.8206 77.3707 28.7901C77.6758 28.7596 77.9199 28.607 78.1944 28.4545ZM71.7266 22.8409C71.7266 22.0477 71.7571 21.224 71.6961 20.4003C71.6046 19.5155 71.3605 18.5392 70.3538 18.3562C70.0487 18.2952 69.4995 18.2036 69.286 18.4477C69.0724 18.6613 68.9199 18.9664 68.7368 19.2104L67.1809 21.3155C67.0893 21.4375 66.9978 21.6816 66.8758 21.7426C66.8453 21.7731 66.5402 21.7731 66.5402 21.7426C66.5097 21.7121 66.5402 21.4986 66.5402 21.4375V18.9664C66.5402 18.8748 66.5097 18.7223 66.5402 18.6308C66.6012 18.4782 67.2724 18.3867 67.4249 18.3257C68.2792 18.1121 69.1639 17.9596 70.0487 17.8986C71.2995 17.807 72.7029 17.8375 73.8622 18.3867C74.7775 18.8138 75.3571 19.5765 75.5097 20.5528C75.6012 21.0409 75.5707 21.5901 75.5707 22.0782V28.1799C75.5707 28.2714 75.5097 28.5155 75.5707 28.5765C75.6012 28.607 75.7538 28.6375 75.7843 28.6375C76.0283 28.6986 76.2419 28.7596 76.486 28.8206C76.6385 28.8511 76.669 28.8511 76.669 29.0036C76.669 29.1562 76.6995 29.1562 76.5165 29.2172C76.3029 29.3087 76.0893 29.4003 75.8758 29.4613C74.747 29.7969 72.9775 29.8884 72.1538 28.8511C72.0927 28.7596 71.9097 28.363 71.8182 28.3325C71.6961 28.3019 71.33 28.7901 71.208 28.8816C70.7199 29.3087 70.0792 29.5528 69.4385 29.6443C68.2487 29.7969 66.9673 29.5528 66.2351 28.5155C65.6249 27.6308 65.5029 26.2579 65.9605 25.2816C66.7843 23.4206 69.2249 23.2375 70.9944 22.9325C71.208 22.9325 71.4521 22.8714 71.7266 22.8409ZM71.7266 27.9053V23.3901C70.8114 23.4511 69.8656 23.5121 69.53 24.5189C69.286 25.1901 69.286 25.9833 69.3775 26.685C69.4385 27.1731 69.5605 27.7833 70.0182 28.0884C70.5063 28.424 71.33 28.363 71.7266 27.9053ZM33.1029 22.8409C33.1029 22.0477 33.1334 21.224 33.0724 20.4003C32.9809 19.5155 32.7368 18.5392 31.73 18.3562C31.4249 18.2952 30.8758 18.2036 30.6622 18.4477C30.4487 18.6613 30.2961 18.9664 30.1131 19.2104L28.5571 21.3155C28.4656 21.4375 28.3741 21.6816 28.2521 21.7426C28.2215 21.7731 27.9165 21.7731 27.9165 21.7426C27.886 21.7121 27.9165 21.4986 27.9165 21.4375V18.9969C27.9165 18.9053 27.886 18.7528 27.9165 18.6613C27.9775 18.5087 28.6182 18.4172 28.8012 18.3562C29.6554 18.1426 30.5402 17.9901 31.3944 17.9291C32.6453 17.8375 34.0487 17.868 35.208 18.4172C36.1232 18.8443 36.7029 19.607 36.8554 20.5833C36.947 21.0714 36.9165 21.6206 36.9165 22.1087V28.2104C36.9165 28.302 36.8554 28.546 36.9165 28.607C36.947 28.6375 37.0995 28.6681 37.13 28.6681C37.3741 28.7291 37.5877 28.7901 37.8317 28.8511C37.9843 28.8816 38.0148 28.8816 38.0148 29.0342C38.0148 29.1867 38.0453 29.1867 37.8622 29.2477C37.6487 29.3392 37.4351 29.4308 37.2215 29.4918C36.0927 29.8274 34.3232 29.9189 33.4995 28.8816C33.4385 28.7901 33.2554 28.3935 33.1639 28.363C33.0419 28.3325 32.6758 28.8206 32.5843 28.9121C32.0961 29.3392 31.4554 29.5833 30.8148 29.6748C29.6249 29.8274 28.3436 29.5833 27.6114 28.546C27.0012 27.6613 26.8792 26.2884 27.3368 25.3121C28.1605 23.4511 30.6012 23.268 32.3402 22.963C32.5843 22.9325 32.8283 22.8714 33.1029 22.8409ZM33.1029 27.9053V23.3901C32.1877 23.4511 31.2419 23.5121 30.9063 24.5189C30.6622 25.1901 30.6622 25.9833 30.7538 26.685C30.8148 27.1731 30.9368 27.7833 31.3944 28.0884C31.8826 28.424 32.7063 28.363 33.1029 27.9053Z" fill="#00528D"/>
</g>
<defs>
<clipPath id="clip0_3204_14002">
<rect width="90" height="29.5932" fill="white" transform="translate(0 0.203125)"/>
</clipPath>
</defs>
</svg>
