<svg width="81" height="22" viewBox="0 0 81 22" fill="none" xmlns="http://www.w3.org/2000/svg">
<g clip-path="url(#clip0_3204_14705)">
<path d="M8.20185 2.87982H9.95435C11.0216 2.72419 12.1116 2.86102 13.1058 3.27546C14.3531 4.01829 15.2578 5.21417 15.6269 6.60798C15.8882 7.3384 15.8882 7.3384 16.5185 7.07971H17.0105V1.29726H0.515456V2.31679H1.19186C1.48579 2.31478 1.77645 2.37797 2.04248 2.50174C2.3085 2.6255 2.54313 2.80669 2.72914 3.03199C3.35942 4.03631 3.46703 5.16237 3.46703 11.0209C3.46703 17.2446 3.32868 18.7663 2.72914 19.5424C2.58113 19.7419 2.3895 19.9058 2.16856 20.0217C1.94762 20.1376 1.70308 20.2027 1.4532 20.212C0.515456 20.3793 0.515456 20.3641 0.515456 20.775C0.463598 20.9124 0.463598 21.0637 0.515456 21.2011H10.9228C10.9917 21.0667 11.0276 20.9181 11.0276 20.7674C11.0276 20.6167 10.9917 20.4681 10.9228 20.3337C10.6708 20.2643 10.4138 20.2134 10.1542 20.1815C9.8733 20.1485 9.59564 20.0925 9.32406 20.0141C8.93516 19.7331 8.62707 19.3565 8.43026 18.9214C8.23344 18.4864 8.15471 18.0081 8.20185 17.5338C8.04812 16.5295 7.97126 14.6882 7.97126 13.1665V11.9644H8.58617C9.35228 11.9412 10.1179 12.0231 10.8613 12.2078C11.2175 12.4257 11.5206 12.7187 11.7492 13.0659C11.9777 13.4131 12.126 13.806 12.1834 14.2165L12.3218 14.6882H13.2595V7.94708H12.3986L12.2603 8.60141C12.2021 9.02119 12.0452 9.4216 11.8022 9.77046C11.5592 10.1193 11.237 10.4069 10.8613 10.61C10.4976 10.7172 10.1143 10.7432 9.73913 10.6861H7.97126V9.0427C7.97126 7.3384 8.06349 3.74719 8.12499 3.18416L8.20185 2.87982ZM80.1465 14.9469C79.4199 13.7892 78.2865 12.9383 76.9643 12.5578C75.9507 12.2442 75.0138 11.7261 74.2126 11.0361C74.0323 10.8635 73.8974 10.6499 73.8197 10.4138C73.742 10.1777 73.7239 9.92642 73.7668 9.68181C73.768 9.202 73.9615 8.74227 74.3048 8.40358C74.5375 8.16233 74.8321 7.98818 75.157 7.89974C75.4819 7.81129 75.825 7.81188 76.1496 7.90142C76.8216 8.09101 77.4293 8.45701 77.9084 8.96064C78.3874 9.46427 78.7198 10.0868 78.8706 10.7622C79.1165 11.447 79.1473 11.447 79.5931 11.2644L79.8698 11.1579V7.36883L79.6699 7.27753C78.1565 6.75137 76.5511 6.53397 74.9505 6.63842C73.5721 6.67299 72.2564 7.21564 71.261 8.16011C70.8096 8.57841 70.456 9.08933 70.225 9.65709C69.9939 10.2249 69.8911 10.8357 69.9236 11.447C69.9322 12.3815 70.307 13.2762 70.9689 13.9426C71.7005 14.6547 72.5981 15.1774 73.5823 15.4643C75.9651 16.3925 76.6569 16.986 76.6569 18.0664C76.6671 18.522 76.5205 18.9675 76.2411 19.3297C75.9618 19.692 75.5663 19.9494 75.1196 20.0598C74.5828 20.1765 74.0269 20.1765 73.4901 20.0598C72.7873 19.7898 72.1598 19.3576 71.6598 18.7991C71.1598 18.2406 70.8017 17.5721 70.6154 16.849L70.4155 16.3621H70.1388C70.0066 16.3718 69.8768 16.4026 69.7545 16.4534H69.6008V20.775H69.8621C70.9007 21.117 71.9722 21.3516 73.0596 21.475H74.5969C75.2636 21.5234 75.9338 21.4617 76.58 21.2924C77.4004 21.1425 78.1669 20.7827 78.8034 20.2488C79.4398 19.7149 79.9241 19.0255 80.208 18.249C80.3914 17.8153 80.4855 17.3496 80.4847 16.8794C80.5453 16.217 80.4286 15.5505 80.1465 14.9469ZM65.6653 7.07971C64.7441 6.69686 63.7516 6.51115 62.7528 6.53475C61.754 6.55836 60.7715 6.79074 59.8698 7.21666C59.0222 7.62704 58.271 8.20878 57.6647 8.92432C57.0583 9.63987 56.6102 10.4733 56.3494 11.3709C56.0169 12.35 55.876 13.3829 55.9344 14.4143C55.9233 14.9754 55.9697 15.5362 56.0727 16.0882C56.321 17.4452 56.9828 18.6946 57.9694 19.6684C58.9559 20.6422 60.2199 21.2939 61.5915 21.5358C62.4848 21.6472 63.3886 21.6472 64.2818 21.5358C65.2087 21.3741 66.0957 21.0384 66.8952 20.5467C67.5564 20.1798 68.1161 19.6571 68.5247 19.025C68.4985 18.9259 68.4523 18.8329 68.3889 18.7519C68.3255 18.6708 68.2462 18.6033 68.1557 18.5533C67.9803 18.6162 67.8147 18.7033 67.6638 18.812C66.8992 19.3108 65.9963 19.5608 65.0812 19.5272C64.4738 19.5678 63.8649 19.4742 63.2985 19.2531C62.7322 19.0321 62.2226 18.6891 61.8068 18.249C61.4851 17.9532 61.2195 17.6027 61.0228 17.2142C60.5451 16.2682 60.2876 15.2283 60.2695 14.1708V13.5774H68.786V13.273C68.8048 12.969 68.8048 12.6641 68.786 12.36C68.783 11.2855 68.4926 10.231 67.9445 9.30359C67.3964 8.37616 66.61 7.60888 65.6653 7.07971ZM61.3763 12.3448H60.3002V11.447C60.6538 9.14922 61.5301 7.77969 62.6061 7.77969C63.6822 7.77969 64.1434 9.134 64.3433 11.6144V12.3143H63.4209L61.3763 12.3448ZM39.2703 6.57755C38.7391 6.55716 38.211 6.66692 37.733 6.8971C36.694 7.39657 35.8548 8.22727 35.3502 9.25574L35.1504 9.62094V6.57755H35.0735C34.889 6.57755 29.2011 7.7036 29.0166 7.77969C28.8321 7.85577 28.8936 7.87099 28.8936 8.1449C28.8936 8.4188 28.8936 8.46445 29.0166 8.47967L29.6161 8.60141C29.7841 8.60548 29.9488 8.64734 30.098 8.72379C30.2471 8.80025 30.3768 8.90931 30.477 9.0427C30.8613 9.54486 30.9382 10.4274 30.9382 14.186C31.0141 15.8781 30.9421 17.5735 30.723 19.2533C30.6714 19.5066 30.5416 19.7378 30.3516 19.9149C30.1616 20.0921 29.9208 20.2065 29.6623 20.2424L29.1396 20.3489H28.9397V20.775C28.884 20.9169 28.884 21.0744 28.9397 21.2163H37.5331V20.775C37.5629 20.6294 37.5629 20.4793 37.5331 20.3337C37.0157 20.3137 36.5012 20.2475 35.9959 20.1359C35.7207 19.9934 35.4955 19.7717 35.3501 19.5001C35.2046 19.2285 35.1457 18.9196 35.1811 18.6142C35.0581 17.7316 34.9966 15.1447 35.0274 13.1665C35.0581 11.1883 35.0274 11.0666 35.1965 10.9296C35.7109 10.5392 36.3474 10.3399 36.9951 10.3666C37.6056 10.3798 38.205 10.5307 38.7476 10.8079C38.9357 10.9113 39.1375 10.9881 39.3471 11.0361C39.3471 11.0361 40.8844 7.35361 40.8844 7.18623C40.6877 6.95994 40.4371 6.78578 40.1552 6.6795C39.8734 6.57323 39.5692 6.53818 39.2703 6.57755ZM28.909 12.9687C28.8553 11.8813 28.54 10.8223 27.9891 9.88001C27.4383 8.93771 26.6679 8.13934 25.7422 7.55143C24.6421 6.96398 23.4182 6.64007 22.1687 6.60571C20.9193 6.57136 19.6791 6.82751 18.5477 7.35361C16.9482 8.18854 15.7405 9.60783 15.1811 11.31C14.6033 13.2158 14.6033 15.2476 15.1811 17.1533C15.484 18.1949 16.0501 19.1428 16.826 19.9076C17.7923 20.841 19.0383 21.439 20.3771 21.6119C21.2365 21.6831 22.1004 21.6831 22.9597 21.6119C23.276 21.5643 23.5891 21.4982 23.8975 21.4141C25.1488 21.0676 26.2745 20.3756 27.1429 19.4189C28.0114 18.4622 28.5866 17.2805 28.8014 16.0121C28.9549 15.005 28.991 13.9839 28.909 12.9687ZM22.5139 20.5772C20.9766 21.0337 19.8237 19.5576 19.4394 16.4534C19.2982 14.8281 19.2982 13.1939 19.4394 11.5687C19.7468 9.07313 20.5308 7.81012 21.7453 7.81012C21.9903 7.79509 22.2354 7.83836 22.46 7.93632C22.6847 8.03427 22.8824 8.18406 23.0366 8.37315C24.0666 9.39269 24.5739 11.4165 24.5739 14.4599C24.7018 16.1823 24.4283 17.9108 23.7745 19.512C23.4858 19.979 23.0391 20.3294 22.5139 20.5011V20.5772ZM50.1849 6.88189C49.7512 6.82663 49.312 6.82663 48.8783 6.88189C48.0456 6.88119 47.2225 7.05763 46.4647 7.39926L45.9882 7.59709V4.295C46.0714 3.18061 46.0714 2.06165 45.9882 0.947266C45.8037 0.947266 39.9313 2.0581 39.8391 2.10376C39.7937 2.2161 39.7937 2.3414 39.8391 2.45375C39.8391 2.7733 39.8391 2.75809 40.5308 2.91026C40.7251 2.95337 40.9116 3.02519 41.0842 3.12329C41.3843 3.40262 41.584 3.77129 41.653 4.17326C41.8281 5.33131 41.8847 6.50387 41.8221 7.67317V21.0337L42.2372 21.125C42.8521 21.2619 44.5892 21.5511 45.158 21.6119C46.2938 21.7013 47.435 21.7013 48.5708 21.6119C49.8315 21.4845 51.0331 21.0189 52.0463 20.2654C53.0594 19.5119 53.8456 18.499 54.3202 17.3359C54.6031 16.5895 54.7991 15.8134 54.9044 15.023C54.9959 13.9522 54.9598 12.8746 54.7968 11.8122C54.6319 10.6213 54.1009 9.50951 53.2759 8.62754C52.4509 7.74556 51.3718 7.13612 50.1849 6.88189ZM46.1573 20.3185C46.1573 20.1207 46.0035 13.4556 46.0343 10.7927V8.70792L46.4801 8.60141C46.7809 8.55875 47.0863 8.55875 47.3871 8.60141C47.7197 8.56792 48.0544 8.64272 48.3402 8.81444C48.9143 9.20664 49.391 9.72264 49.7345 10.3236C50.078 10.9246 50.2793 11.5948 50.3233 12.2839C50.4353 13.392 50.4353 14.5084 50.3233 15.6164C50.2313 17.2269 49.6044 18.7622 48.5401 19.9837C48.238 20.2677 47.8586 20.4581 47.4486 20.5315C47.1383 20.5849 46.8211 20.5849 46.5108 20.5315C46.2188 20.5315 46.2188 20.4402 46.2188 20.3185H46.1573Z" fill="#33629A"/>
</g>
<defs>
<clipPath id="clip0_3204_14705">
<rect width="80" height="20.7407" fill="white" transform="translate(0.5 0.951172)"/>
</clipPath>
</defs>
</svg>
