<svg width="90" height="24" viewBox="0 0 90 24" fill="none" xmlns="http://www.w3.org/2000/svg">
<g clip-path="url(#clip0_3204_13976)">
<path d="M26.4908 0.73651C21.3132 0.773528 17.0781 6.52802 17.0781 11.5473C17.0781 16.8292 20.1826 23.2723 26.4908 23.2514C32.799 23.2304 36.0731 16.2939 36.0731 11.5473C36.0731 6.30421 31.6684 0.699494 26.4908 0.73651ZM26.4908 0.933382C30.8242 0.933382 31.9933 5.71933 31.9933 11.5473C31.9933 19.2371 30.5831 23.0309 26.4908 23.0236C22.3985 23.0164 21.0672 19.9114 21.0672 11.5473C21.0672 6.30781 22.1574 0.933382 26.4908 0.933382Z" fill="#4B4B4B"/>
<path d="M37.7833 11.6882C37.7601 5.97705 42.331 0.9181 46.2003 0.667102C47.5979 0.568084 49.3945 1.20812 50.4434 1.66405C51.205 1.99513 52.7597 1.51591 53.0358 0.636719H53.1863V8.41633H53.0358C53.0358 8.08468 51.5951 0.862694 46.2003 0.862694C42.2155 0.862694 41.8306 7.86935 41.8306 11.6882C41.8306 15.507 41.9467 23.0669 46.5967 23.0669C48.8493 23.0669 50.5167 22.0813 50.9489 20.0876V14.0253H49.0582V13.767H56.3871V14.0253H54.5795V22.8883H54.4323C54.4323 22.8883 54.1384 21.6095 52.6472 21.6138C50.7412 21.6192 48.9438 23.2751 46.7526 23.255C40.958 23.2016 37.8065 17.3993 37.7833 11.6882Z" fill="#4B4B4B"/>
<path d="M2.86405 1.50066H0.582031V1.24414H8.57607V1.50066H6.57056L12.2825 17.0125C14.0686 11.5135 15.4523 7.44865 17.3144 1.50066H15.3307V1.24414H19.5516V1.50066H17.6295L10.6872 23.1427L2.86405 1.50066Z" fill="#4B4B4B"/>
<path d="M57.5071 17.844L57.471 1.47566H55.2988V1.23047H63.3014V1.47566H61.1306L61.1788 19.4227C61.6593 21.4778 62.5138 23.0372 65.4329 23.0604C68.352 23.0836 70.3365 21.3335 71.074 18.9419V1.47566H68.5892L68.5891 1.23769H88.9271L88.9694 9.09518H88.774C88.3967 4.02189 86.4392 2.10455 83.0156 1.5452C81.8376 1.35272 80.6017 1.49541 79.0393 1.48326V11.5115C80.3999 11.6166 81.8491 11.5306 82.8257 10.6918C83.7138 9.929 83.9648 8.16666 84.0301 7.4507H84.2021V16.1822H84.016C83.9622 16.1822 83.8908 13.991 82.8257 12.9515C81.7536 11.9051 80.3885 11.6479 79.0393 11.8972V22.6095C80.945 22.6095 82.464 22.7709 83.7832 22.4092C87.7932 21.3099 89.2048 17.9269 89.194 14.5338H89.417V22.8631H73.4644V22.6095H75.2681V1.47566H71.371V18.9419C70.9293 20.6131 69.3149 23.3778 65.1775 23.359C61.3307 23.3414 57.5154 21.6072 57.5071 17.844Z" fill="#4B4B4B"/>
</g>
<defs>
<clipPath id="clip0_3204_13976">
<rect width="90" height="23.8894" fill="white" transform="translate(0 0.0546875)"/>
</clipPath>
</defs>
</svg>
