<svg width="142" height="24" viewBox="0 0 142 24" fill="none" xmlns="http://www.w3.org/2000/svg">
<path d="M5.44278 10.4456V5.14616C5.44278 4.93324 5.32449 4.673 4.87499 4.93324C4.35452 5.21713 1.72848 6.61295 1.61019 6.66027C1.51555 6.70759 1.44458 6.82587 1.44458 6.96782V13.2135C1.44458 13.6157 1.34995 14.3491 0.829472 15.0589C0.711182 15.2245 0.545576 15.3428 0.687524 15.4611C0.782156 15.532 0.924104 15.532 1.13703 15.4374C3.69209 14.4674 5.44278 12.5038 5.44278 10.4456Z" fill="#2F5F9D"/>
<path d="M106.601 7.9846H106.152V3.93908C106.152 3.79713 106.199 3.58421 106.601 3.74982V7.9846ZM106.601 14.0884L106.412 13.9701C106.341 13.9228 106.152 13.8045 106.152 13.5915V10.9892H106.601V14.0884ZM101.894 7.9846H101.728C101.633 7.9846 101.515 8.05558 101.468 8.12655C101.42 8.17387 100.379 9.75895 99.9062 10.4687V4.01005C100.214 4.17566 101.562 4.88541 101.633 4.93272C101.799 5.02735 101.894 5.12198 101.894 5.31124V7.9846ZM99.5987 14.6325C99.4094 14.5142 99.2675 14.4196 99.2202 14.3959C99.1255 14.325 99.0545 14.254 99.0545 14.0884V4.29395C99.0545 4.08103 99.2911 3.89176 99.5987 3.91542V14.6325ZM114.172 14.8691C114.03 14.7981 113.013 14.254 113.013 13.1657V3.48958C113.013 3.41861 112.989 3.32397 112.847 3.22934C112.705 3.15837 109.346 1.1711 109.275 1.14744C109.157 1.10012 109.086 1.10012 108.825 1.24207C108.612 1.38402 106.436 2.73252 105.915 3.06373H105.679C105.111 2.75618 102.84 1.50231 102.769 1.45499C102.651 1.38402 102.556 1.40767 102.414 1.45499C102.319 1.50231 99.3148 3.11105 98.747 3.4186H98.5814C98.1319 3.15836 96.0973 1.97547 96.0027 1.92815C95.9317 1.88084 95.7897 1.83352 95.6478 1.90449C95.5058 1.99912 92.9981 3.60787 92.9035 3.65518C92.8325 3.7025 92.7379 3.79713 92.7615 3.91542C92.7852 4.01005 92.9035 4.10469 93.0691 4.22298L94.9144 5.47685C95.08 5.59514 95.1037 5.71343 95.1037 5.85538V14.2303L94.0627 14.8218C93.9917 14.8691 93.7315 15.0347 94.039 15.2003C94.2047 15.2949 96.7124 16.5961 97.4931 16.9983C97.6351 17.0693 97.8007 17.0693 97.919 17.022C98.5577 16.6671 100.474 15.6025 100.521 15.5552C100.64 15.4842 100.782 15.3422 100.545 15.1766C100.474 15.1293 100.19 14.9401 99.8826 14.7508V10.9419H101.87V13.8991L100.947 14.4669C100.876 14.5142 100.711 14.6798 101.042 14.8691C101.16 14.9401 104.094 16.5015 105.016 16.9746C105.182 17.0693 105.371 17.0693 105.513 16.9746C106.176 16.5488 108.092 15.3659 108.139 15.3422L108.281 15.2003L108.163 15.0347C108.092 14.9874 107.382 14.5379 106.885 14.2067V10.7999C107.24 10.2558 108.636 8.15021 108.683 8.10289C108.731 8.03192 108.731 7.93728 108.612 7.93728H106.885V3.84445C107.429 4.12835 108.612 4.74345 108.683 4.76711C108.849 4.86174 108.967 5.00369 108.967 5.26393V14.0647C108.967 14.6562 109.251 16.2176 111.357 17.0456C111.428 17.0693 111.617 17.0693 111.735 16.9983C112.303 16.5961 114.196 15.2476 114.243 15.2003C114.338 15.2003 114.409 15.0347 114.172 14.8691Z" fill="#2F5F9D"/>
<path d="M10.7405 7.81953C10.5986 7.98513 10.0071 8.60024 9.32104 8.52927C8.82422 8.50561 8.37471 8.12708 7.97253 7.46466V4.48374H10.4093C10.7405 4.48374 10.7405 4.50741 10.7405 4.76764V7.81953ZM10.7405 9.97241C10.4803 9.71217 9.98346 9.3573 9.36835 9.3573C8.87153 9.3573 8.39837 9.57022 7.94887 10.0197V8.05611C8.35106 8.57658 8.80056 8.83682 9.27372 8.88414C9.88883 8.93145 10.433 8.57658 10.7169 8.29269V9.97241H10.7405ZM10.7405 14.3728L10.5986 14.4674C10.2437 14.3255 9.2264 13.9469 7.97253 13.8287V10.4929C8.42203 9.92509 8.89519 9.66485 9.39201 9.66485C10.0544 9.66485 10.6222 10.2326 10.7642 10.3982V14.3728H10.7405ZM12.7041 1.4082H4.02164C3.85604 1.4082 3.69043 1.47918 3.54848 1.57381C2.79142 2.1416 0.354649 4.01058 0.212701 4.12887C0.0944114 4.19985 0.0234375 4.29448 0.0234375 4.38911L0.189044 4.5074H7.66497V13.805C5.72502 13.6867 3.28824 14.2072 1.63218 16.9042C1.53755 17.0698 1.53755 17.2591 1.79779 17.2118C3.90335 16.9752 7.42839 16.5966 9.9598 17.2591L10.2674 17.1408C10.6695 16.5493 12.16 14.5147 14.857 13.8996C14.928 13.876 15.0699 13.7813 15.0699 13.6394V4.22351C15.0463 2.89866 14.7624 1.4082 12.7041 1.4082Z" fill="#2F5F9D"/>
<path d="M22.6873 14.4672L22.64 14.5854C22.5453 14.7037 22.2378 14.9167 21.6937 14.6801C20.9603 14.3489 19.7774 13.5208 19.2569 12.4326C18.902 11.7228 18.5708 10.5872 18.8547 9.61726C19.044 8.93118 19.3515 8.33972 20.3925 7.6773H20.6764C21.1022 7.9612 22.4034 8.83655 22.498 8.90752C22.5927 8.97849 22.6636 9.09679 22.6636 9.19142V14.4672H22.6873ZM29.004 14.8457C28.8857 14.751 27.6791 13.9703 27.3479 13.7338L27.2533 13.5445V8.90752C27.2533 8.76557 27.3006 8.71825 27.3716 8.64728L28.034 8.10315C28.1286 8.03218 28.1996 7.81925 27.9394 7.65365C27.6318 7.46438 23.9175 5.50076 23.7282 5.42979C23.5626 5.35882 23.3497 5.33516 23.0895 5.40614C22.4507 5.5954 18.9966 6.75464 16.7255 9.68823C15.6845 11.0131 15.4716 12.7401 15.7555 14.0413C16.0157 15.2006 16.6782 16.6673 19.4698 17.1878L19.8247 17.0932C20.3452 16.6673 22.0012 15.3425 22.0958 15.2479C22.2141 15.1532 22.3088 15.1532 22.4034 15.2242C22.498 15.2715 25.5026 16.7383 26.307 17.1169C26.4253 17.1878 26.5672 17.1642 26.6618 17.0932C27.1823 16.691 28.8857 15.3662 29.004 15.2479C29.2169 15.1532 29.1933 14.9876 29.004 14.8457Z" fill="#2F5F9D"/>
<path d="M36.0094 15.0363C35.9384 14.989 34.9921 14.4685 34.7318 14.3029C34.6135 14.2319 34.6135 14.09 34.6135 13.948V9.07446C34.6135 8.8852 34.6609 8.83788 34.8265 8.71959C34.9447 8.64862 35.2523 8.41203 35.4179 8.27008C35.5599 8.17545 35.6308 8.0335 35.4416 7.91521C35.2996 7.82058 32.0821 6.06989 31.7982 5.90428C31.5143 5.76233 31.396 5.76234 31.2541 5.85697C31.1121 5.9516 28.7937 7.51303 28.6281 7.63132C28.4624 7.74961 28.4861 7.96253 28.6044 8.0335C28.7227 8.10448 29.7873 8.69593 29.9292 8.79056C30.0712 8.88519 30.1185 8.95617 30.1185 9.0508V14.4685C30.1185 14.4685 29.811 14.7051 29.5507 14.918C29.2905 15.1309 29.4088 15.3202 29.4797 15.3675C29.5507 15.4148 32.3187 16.8106 33.0758 17.1655C33.1941 17.2128 33.3123 17.2128 33.407 17.1418C33.9511 16.7633 35.8674 15.4385 36.033 15.3202C36.1513 15.2255 36.1276 15.1072 36.0094 15.0363Z" fill="#2F5F9D"/>
<path d="M33.0278 5.14737C33.43 4.86347 33.8085 4.53225 34.0924 4.13007C34.4946 3.58593 34.7549 2.89985 34.471 2.23743C34.2107 1.64598 33.43 1.31476 32.8149 1.52769C32.1761 1.74061 31.6557 2.33206 31.4901 3.0418C31.3244 3.75155 31.6083 4.76884 31.9396 5.242C32.1525 5.57321 32.4837 5.50224 33.0278 5.14737Z" fill="#2F5F9D"/>
<path d="M43.0105 15.1765C42.9395 15.1292 42.0405 14.6087 41.7566 14.4431C41.6384 14.3721 41.6384 14.2302 41.6384 14.0882V2.11726C41.6384 1.95165 41.4254 1.85702 41.1652 1.95166C40.9523 2.02263 36.6465 3.34748 36.5282 3.41845L36.4336 3.58406C36.4336 3.67869 36.5519 3.726 36.7175 3.77332C36.9777 3.86795 37.3326 3.98624 37.3326 4.95622V14.2775C37.3326 14.3721 37.2853 14.4667 37.2143 14.5141C37.096 14.6087 36.9304 14.727 36.7648 14.8689C36.5046 15.0819 36.6229 15.2711 36.6938 15.3184C36.7411 15.3657 39.4855 16.7379 40.2662 17.1164C40.3845 17.1874 40.5264 17.1638 40.6447 17.0928C41.2125 16.7143 42.8686 15.5787 43.0105 15.484C43.1525 15.3657 43.1288 15.2475 43.0105 15.1765Z" fill="#2F5F9D"/>
<path d="M56.5659 7.41688C56.4477 7.3459 53.4194 5.52423 53.2775 5.45326C53.0409 5.33497 52.8753 5.31131 52.6387 5.45326C52.4968 5.54789 50.5568 6.94372 50.4385 7.03835C50.2729 7.15664 50.2729 7.36956 50.4385 7.51151C50.5805 7.6298 51.4085 8.05564 51.5031 8.10296C51.6451 8.17393 51.7634 8.31588 51.7634 8.59978V14.9638C51.7634 14.9638 51.787 15.3423 51.3612 15.5316C50.959 15.7208 49.9654 15.9338 48.9954 15.153C48.8534 15.0584 48.8298 14.8455 48.8298 14.7509V8.67075C48.8298 8.67075 48.8298 8.31588 49.09 8.10296L49.3976 7.84272C49.5868 7.67711 49.8234 7.53517 49.3739 7.25127C49.2556 7.1803 46.393 5.61886 46.2511 5.54789C46.0145 5.4296 45.8489 5.40594 45.6123 5.54789C45.4703 5.64252 43.4121 6.99103 43.2938 7.08566C43.1282 7.20395 43.1282 7.41688 43.2938 7.53517C43.4358 7.65346 44.2638 8.0793 44.3584 8.15027C44.5004 8.22124 44.6187 8.36319 44.6187 8.64709V15.4843C44.6187 15.7208 44.524 15.8155 44.4767 15.8628C43.8616 16.4779 43.3884 17.1403 43.2228 18.134C43.0572 19.0566 42.9626 20.4051 44.6896 21.4934C46.5113 22.6526 49.1373 22.1558 50.2256 21.7063C51.3139 21.2568 52.1656 20.7363 53.1592 20.618C54.1292 20.4998 54.5787 21.2332 53.9399 22.0375C53.2775 22.8892 51.9763 22.8182 51.858 22.8182C51.7397 22.8182 51.3612 22.8419 51.8343 23.0312C52.8753 23.457 54.4131 22.9365 55.3357 22.0139C56.2111 21.1622 56.6133 19.1039 55.0045 18.063C53.4194 17.0457 51.5031 17.5425 50.6041 17.8264C49.6815 18.1103 48.12 18.891 46.6296 18.891C45.1391 18.891 43.6487 17.7791 44.8079 16.4069C45.8489 15.153 47.8361 15.295 48.6405 15.7682C49.4685 16.2413 50.6751 17.022 52.7097 17.022C54.7443 17.022 55.8089 15.8391 55.8089 15.153V9.09659C55.8089 9.09659 55.8089 8.78904 56.0691 8.5288L56.6369 7.96101C56.7316 7.84272 56.9208 7.60614 56.5659 7.41688Z" fill="#2F5F9D"/>
<path d="M121.553 14.3248L121.505 14.4431C121.411 14.5614 121.103 14.7743 120.559 14.5377C119.826 14.2065 118.643 13.3785 118.122 12.2902C117.768 11.5805 117.436 10.4449 117.72 9.49856C117.933 8.81248 118.217 8.22103 119.258 7.5586H119.542C119.968 7.8425 121.269 8.71785 121.364 8.78882C121.458 8.85979 121.529 8.97809 121.529 9.07272V14.3248H121.553ZM127.869 14.7033C127.751 14.6087 126.545 13.828 126.213 13.5914L126.119 13.4021V8.7415C126.119 8.59955 126.166 8.55224 126.237 8.48127L126.9 7.93713C126.994 7.86616 127.065 7.65324 126.805 7.48763C126.474 7.29837 122.783 5.33475 122.594 5.26378C122.428 5.1928 122.215 5.16914 121.979 5.24012C121.34 5.42938 117.886 6.58863 115.615 9.52222C114.574 10.8471 114.361 12.5741 114.668 13.8753C114.929 15.0345 115.591 16.5013 118.359 17.0218L118.737 16.9272C119.258 16.5013 120.914 15.1765 121.009 15.0819C121.127 14.9872 121.222 14.9872 121.316 15.0582C121.411 15.1055 124.415 16.5723 125.22 16.9508C125.338 16.9982 125.48 16.9981 125.575 16.9272C126.095 16.525 127.799 15.2001 127.917 15.0819C128.059 15.0109 128.059 14.8453 127.869 14.7033Z" fill="#2F5F9D"/>
<path d="M134.874 14.8917C134.803 14.8444 133.857 14.324 133.597 14.1583C133.479 14.0874 133.479 13.9454 133.479 13.8035V8.92993C133.479 8.74066 133.526 8.69335 133.691 8.57506C133.81 8.50408 134.117 8.2675 134.307 8.12556C134.425 8.03092 134.52 7.91263 134.33 7.77069C134.188 7.67605 130.971 5.92536 130.687 5.75975C130.427 5.61781 130.285 5.6178 130.143 5.71244C130.001 5.80707 127.682 7.3685 127.517 7.48679C127.351 7.60508 127.375 7.818 127.493 7.88898C127.611 7.95995 128.676 8.57505 128.818 8.64603C128.96 8.74066 129.007 8.81164 129.007 8.90627V14.0637C129.007 14.2293 128.96 14.3476 128.913 14.3949C128.794 14.4896 128.605 14.6315 128.439 14.7498C128.179 14.9627 128.297 15.152 128.368 15.1993C128.439 15.2466 131.207 16.6424 131.964 16.9973C132.083 17.0446 132.201 17.0446 132.296 16.9736C132.84 16.5951 134.756 15.2703 134.922 15.152C135.016 15.0573 134.993 14.9627 134.874 14.8917Z" fill="#2F5F9D"/>
<path d="M131.893 5.00478C132.295 4.72089 132.65 4.38968 132.958 3.98749C133.36 3.44336 133.62 2.75727 133.336 2.09485C133.076 1.5034 132.295 1.17219 131.68 1.38511C131.041 1.59803 130.521 2.18948 130.355 2.89922C130.19 3.60896 130.474 4.62625 130.805 5.12307C131.018 5.43063 131.349 5.35965 131.893 5.00478Z" fill="#2F5F9D"/>
<path d="M141.878 15.0359C141.807 14.9885 140.908 14.4681 140.624 14.3025C140.506 14.2315 140.506 14.0895 140.506 13.9476V1.97664C140.506 1.81103 140.293 1.7164 140.032 1.81103C139.819 1.882 135.514 3.20685 135.395 3.25417L135.301 3.41977C135.301 3.5144 135.419 3.56172 135.585 3.60904C135.845 3.70367 136.223 3.82196 136.223 4.79194V14.1132C136.223 14.2078 136.176 14.3025 136.105 14.3498C135.987 14.4444 135.821 14.5627 135.656 14.7046C135.395 14.9176 135.514 15.1068 135.585 15.1541C135.656 15.2015 138.376 16.5736 139.157 16.9522C139.275 17.0231 139.417 16.9995 139.536 16.9285C140.103 16.55 141.736 15.4144 141.901 15.3198C142.02 15.2251 141.996 15.1068 141.878 15.0359Z" fill="#2F5F9D"/>
<path d="M89.6387 7.53529L89.6624 7.84284C89.6624 8.0321 89.7333 8.19771 89.828 8.33966L86.8471 8.29234C85.9244 8.15039 85.948 7.2987 85.9717 7.10944C86.019 6.96749 86.09 6.8492 86.2319 6.77823C86.6578 6.56531 87.4148 6.82555 87.4148 6.82555C88.2429 7.20408 88.9999 7.39334 89.6624 7.417L89.6387 7.53529ZM62.3374 14.609C62.1717 14.0649 61.4147 13.8993 61.1781 13.8756L61.2491 13.5208C61.2964 13.3552 61.4383 13.1422 61.5093 13.0476C61.8879 13.2132 62.8578 13.4025 63.189 13.4498C63.0708 13.5681 62.8815 13.6627 62.7159 13.7337L62.5266 13.8283C62.2427 13.9939 62.361 14.4907 62.3847 14.5381C62.4556 14.7273 62.6449 14.7983 62.8342 14.8693L62.9051 14.8929L62.9761 14.9166C63.1181 14.9639 63.4966 15.0585 63.8751 15.1295C62.7395 15.1295 62.3137 15.0822 62.1718 15.0822C62.3374 14.8456 62.3374 14.6327 62.3374 14.609ZM68.3938 14.7983L68.3465 14.5144V14.4671V14.2778L68.2755 14.1122L68.3228 14.1359C68.4411 14.1832 68.4411 14.1832 68.4175 14.3015V14.3251V14.3488C68.4648 14.5144 68.654 14.6564 68.8196 14.751L68.3938 14.7983ZM69.7896 12.5981C69.5294 12.4088 69.1982 12.3852 69.1745 12.3852H69.1272L69.1035 12.4088L69.0562 12.4562C68.8433 12.3142 68.5121 12.3142 68.4884 12.3142H68.4411L68.4175 12.3379L68.3938 12.5508C68.1336 12.5271 67.8733 12.5508 67.8733 12.5508H67.8024V12.6218C67.8024 12.811 67.8497 13.0239 67.9443 13.1896L68.0153 13.2842L67.8497 13.3315L67.7787 13.5208L67.8497 13.7337L67.755 13.6864C67.5185 13.5681 67.3055 13.6391 67.2346 13.6627C66.927 13.5681 66.6668 13.5681 66.5012 13.6864C66.3356 13.781 66.2646 13.9229 66.2409 14.0176L65.9334 14.1832L65.8151 14.2778C65.7205 14.2542 65.5075 14.2305 65.2946 14.1595C65.1053 14.0886 64.9161 13.9939 64.7978 13.9466L65.058 13.5681C65.6022 13.5917 66.1699 13.0476 66.2173 13.0239L66.3592 12.882H66.17C65.5785 12.882 65.129 12.4325 64.9161 12.1723C65.2236 12.3142 65.6022 12.4798 65.8151 12.5508C67.4238 13.0239 68.1809 12.3615 68.3701 12.1486C68.867 12.4798 69.1509 12.3142 69.1509 12.3142C69.2928 12.2196 69.4348 12.1249 69.4821 12.1249C69.9789 12.4798 70.8306 12.7637 71.1854 12.882C71.0908 12.9766 71.0198 13.0949 70.9725 13.1659C70.7833 13.0476 70.5703 13.1186 70.4521 13.1659C70.3574 12.6218 69.8606 12.5508 69.8369 12.5508H69.7896V12.5981ZM71.2091 10.2086C71.1618 10.5162 71.1381 10.942 71.1618 11.2969L70.6886 11.013C70.6886 11.013 70.523 10.8947 70.3574 10.7764C70.5703 10.7764 70.8069 10.7764 70.9016 10.6818C70.9489 10.6345 71.0908 10.4216 71.2091 10.2086ZM86.7524 9.16769C87.2729 9.215 88.6214 9.21501 89.615 9.19135H89.757C89.6624 9.30964 89.5914 9.45158 89.5677 9.61719L89.5204 9.9484L89.4968 10.114L89.6387 10.043L89.9226 9.87743L90.0882 9.80645L90.0409 9.85377L90.1592 9.87743L90.3958 9.90109C90.3958 9.90109 91.1528 9.97206 91.6969 9.38061C91.7679 9.40427 91.8389 9.42792 91.9809 9.47524C92.3357 9.59353 92.596 9.7828 92.7142 10.0194C92.9508 10.5399 92.5723 11.0367 92.525 11.1076C92.2647 11.3442 91.7206 11.2969 91.6969 11.2969C89.8516 10.942 87.1546 10.2796 86.8944 10.2086C86.8234 10.0904 86.7288 10.0194 86.6105 9.99572L86.4212 10.043L86.2556 9.99572C86.2083 9.87743 86.1137 9.7828 86.019 9.75914C85.9007 9.73548 85.8061 9.78279 85.7351 9.80645C85.4276 9.71182 84.5049 9.21501 84.221 9.07306C84.6942 8.52892 84.9781 7.93747 85.12 7.44065C85.1437 7.96113 85.3093 8.38697 85.6168 8.69453C86.0427 9.12037 86.6341 9.16769 86.7524 9.16769ZM80.0336 10.5162L79.4894 10.4925L79.3475 10.4689L79.0872 10.4452C79.0636 9.99572 78.9926 9.45158 78.8743 9.09671C78.756 8.74184 78.6377 8.45794 78.5431 8.26868L78.7087 8.45795C78.7797 8.55258 79.8679 9.7828 80.0336 9.97206C79.9862 10.2323 80.0099 10.4216 80.0336 10.5162ZM83.1091 14.3961L83.0618 14.4198C82.8489 14.4907 82.5886 14.5854 82.3047 14.68L82.2101 14.7037L82.2811 14.7983L82.565 15.1532C82.3284 15.1295 82.0918 15.0585 81.9735 15.0349C81.9735 14.7746 82.0208 14.609 82.1155 14.3961C82.1391 14.3251 82.1864 14.2068 82.2101 14.1122L82.1628 13.852C81.9262 13.4971 80.8379 13.4498 80.6013 13.4498L80.2465 13.1186L80.1992 13.0713L79.3711 12.2905L79.2528 12.1723V12.3379C79.2528 12.5508 79.1345 12.9057 79.0163 13.1659C78.9453 13.3315 78.8506 13.4971 78.827 13.5681L78.5667 13.4971L78.7324 13.1896C78.9689 12.6691 79.0399 11.8884 79.0636 11.6754C79.1582 11.6754 79.3238 11.6991 79.6787 11.7937L79.8679 11.841C80.1282 11.912 80.3884 11.983 80.6487 12.0776C81.0272 12.1959 81.3347 12.2905 81.5003 12.3142L81.6423 12.3379C82.0208 12.4088 82.1391 12.4325 82.1864 12.3852L82.2337 12.3142C82.2337 12.1249 82.2811 12.0303 82.3284 12.0067C82.494 12.1723 82.8252 12.2432 83.0854 12.2905L83.251 12.3142C83.8188 12.3852 84.5522 12.3379 84.9308 12.1959L85.191 12.1013C85.4985 11.983 85.8061 11.841 86.1137 11.7937C85.0964 12.4798 84.6232 12.811 84.7178 13.2605C84.7652 13.4498 85.0254 13.6864 85.3093 13.9466L85.4749 14.0886C84.4576 14.822 84.1264 14.5617 84.1027 14.5381C83.5822 14.1122 83.1801 14.3488 83.1091 14.3961ZM88.1246 15.0585C87.817 15.1058 86.5158 15.3188 85.2383 15.2715C85.4986 15.0349 86.0663 14.5617 86.4922 14.4434C86.5395 14.4434 86.8471 14.3725 86.918 14.1595C86.989 13.923 86.7051 13.5917 86.4685 13.3078L86.6341 13.2605L86.918 13.2369C87.2019 13.2369 87.7697 13.0713 87.9353 13.0239C88.1009 13.3078 88.4321 13.7337 89.0946 13.9939C88.8343 14.1122 88.4085 14.3251 88.3375 14.3961C88.3139 14.4434 88.1009 14.6563 88.1246 15.0585ZM80.5777 15.65C80.3648 15.579 80.3411 15.4607 80.3411 15.4607L80.4357 15.3188L80.5777 15.2478C80.5777 15.4371 80.5777 15.579 80.5777 15.65ZM93.4476 9.59353C93.2347 9.09671 92.7852 8.74184 92.1465 8.52892L91.9335 8.48161L91.8152 8.43429C91.2711 7.79552 90.585 7.70089 90.514 7.70089L90.2301 7.67723L90.0882 7.65358L90.1592 7.77187L89.9936 7.67723L89.7333 7.48797L89.686 7.46431C90.1355 7.46431 90.5377 7.39334 90.9162 7.25139C91.7679 6.87286 92.0518 6.18678 92.0755 6.09215L92.1938 5.76094L92.2411 5.59533L92.0755 5.6663L91.7443 5.83191C91.4131 5.99751 91.1292 6.11581 90.8689 6.21044C90.9872 6.04483 91.0345 5.90288 91.0345 5.90288L91.1292 5.61899L91.1765 5.47704L91.0345 5.52436L90.7506 5.59533C90.4431 5.68996 90.1828 5.76093 89.9463 5.80825L90.0172 5.61899L90.0645 5.35875L90.0882 5.24046L89.9699 5.28778L89.7333 5.38241C89.4258 5.47704 88.6214 5.52436 88.3375 5.52436C87.7697 5.5007 86.8471 5.57167 86.8234 5.57167C85.9007 5.71362 85.4749 6.1158 85.262 6.3997L85.2147 6.49433C85.2383 6.21043 85.2383 6.04483 85.2383 6.04483C85.0727 3.84463 83.6532 3.65537 83.393 3.63172C83.1327 2.94563 82.2811 2.94563 82.2811 2.94563H82.2101V3.01661C82.1864 3.22953 82.2811 3.51343 82.3284 3.63172L82.2337 3.70269C81.9735 3.51342 80.625 2.61442 80.1045 2.44881C79.8679 2.37784 79.7733 2.44881 79.7023 2.51979C79.6077 2.63808 79.655 2.80368 79.7023 2.87466C79.8443 3.08758 81.3111 4.12853 81.666 4.41243C81.3584 4.7673 80.9089 5.2168 80.8616 5.24046H80.7906H80.625C80.4594 5.28777 80.2938 5.59533 80.2938 5.59533C80.2465 5.6663 80.2938 5.85557 80.3174 5.97386C80.1755 6.04483 80.0572 6.02117 80.0572 6.02117L79.9153 6.04483L79.8443 6.18678L79.9153 6.3997C80.0809 6.6836 80.5067 6.6836 80.625 6.6836L81.0272 7.08578H81.0508C81.2401 7.18041 81.3584 7.06213 81.3584 7.03847L81.7133 6.61262L82.2101 6.35239L82.352 6.42336C81.9498 6.65994 81.7606 7.03847 81.6896 7.18042C81.524 7.15676 81.2165 7.10944 81.2165 7.10944H81.1455L81.1218 7.18042L80.8852 8.00845C80.6723 8.1504 80.4831 8.4816 80.3884 8.64721L80.0572 8.29234L79.9626 8.17405L79.0636 7.25139C78.898 7.06212 78.7087 6.94384 78.4721 6.94384C78.1409 6.92018 77.857 7.1331 77.7387 7.22773C77.8334 7.15676 77.9043 7.06213 77.9043 6.94384C77.928 6.80189 77.857 6.65994 77.7387 6.58897L77.6914 6.56531L78.4958 4.43609C78.685 3.91561 78.5194 3.63171 78.3538 3.48977C78.1882 3.34782 77.9516 3.3005 77.8097 3.3005C77.7151 3.06392 77.5968 2.89831 77.4312 2.87466L77.2182 2.89832C77.1473 2.63808 77.029 2.47247 76.8634 2.42516C76.6741 2.35418 76.4848 2.44881 76.3666 2.49613C76.2956 2.2832 76.1773 2.16491 76.059 2.1176L75.7988 2.14126V0.816406H74.5449V2.1176C74.3793 2.07028 74.2373 2.07028 74.1427 2.14126C73.9771 2.23589 73.9298 2.4015 73.8825 2.51979C73.6932 2.42515 73.5039 2.40149 73.3856 2.47247C73.22 2.5671 73.1727 2.80369 73.1491 2.92198C72.9835 2.89832 72.8415 2.89831 72.7469 2.99295C72.6049 3.08758 72.5813 3.25318 72.5813 3.34782C72.3684 3.37147 72.2027 3.46611 72.1081 3.60806C71.8715 3.96293 72.0608 4.4834 72.0608 4.50706C72.0608 4.50706 72.4393 5.85557 72.4866 6.06849C72.3447 6.42336 70.9725 8.17405 70.4047 8.88379L69.9552 8.74184L70.0735 8.71819L70.1208 8.69453V8.64721C70.0972 8.52892 70.0972 8.45794 70.0735 8.38697C70.0262 8.24502 70.0262 8.15039 70.0972 7.79552C70.2155 7.18041 69.9552 6.51799 69.9552 6.49433C69.766 5.87922 69.766 5.6663 69.766 5.61899C69.8606 5.45338 69.9079 5.28777 69.8606 5.12217C69.7896 4.83827 69.5294 4.62535 69.4348 4.57804C69.4584 4.36511 69.5057 3.63171 69.4348 3.46611C69.3874 3.32416 69.2928 3.25318 69.1982 3.20587C69.0562 3.18221 68.9379 3.22953 68.8433 3.27685C68.7723 3.1349 68.6777 3.06392 68.5831 3.04027C68.4648 3.01661 68.3465 3.06392 68.2992 3.08758C68.1809 2.94563 68.0626 2.851 67.9443 2.851C67.826 2.851 67.7077 2.92197 67.6604 2.99295L67.4238 2.28321L67.4002 2.21223L67.3292 2.23589L66.5958 2.47247L66.5248 2.49613L66.5485 2.56711L66.7851 3.32416C66.6431 3.3005 66.5485 3.34781 66.4775 3.41879C66.3829 3.51342 66.4065 3.67903 66.4065 3.77366C66.2882 3.79732 66.2173 3.84463 66.17 3.91561C66.099 4.0339 66.1226 4.17584 66.1463 4.24682L65.9097 4.38877C65.8151 4.53072 65.8624 4.74364 65.8624 4.83827V4.86193C65.8624 4.90924 66.0517 5.2168 66.3829 5.78459C66.2173 6.28141 66.4775 6.51799 66.5958 6.61262L66.6195 6.63628C66.4775 7.18041 66.7377 7.72455 66.8324 7.89016L66.7614 7.96113C66.4302 8.36332 65.9097 9.00208 64.8688 9.23866L61.2018 10.3506L59.3801 10.8711C58.5994 11.1076 57.6294 11.2733 57.4638 10.8001L57.4401 10.7764C57.4165 10.7291 57.3928 10.3979 57.5821 9.99572C57.7714 9.59353 58.1499 9.30964 58.6467 9.14403C58.7413 9.30964 59.1199 9.73548 59.9952 9.68816H60.0662V9.61719L60.0425 9.52256C60.1845 9.56988 60.2318 9.61719 60.3028 9.66451L60.3974 9.73548L60.492 9.80645V9.68816C60.492 9.64085 60.5157 9.28598 60.3974 9.07306L64.9397 9.0494C64.9634 9.0494 66.4538 8.88379 66.4065 6.96749C66.3829 5.3824 64.4429 5.35875 63.5203 5.35875C63.331 5.35875 63.2127 5.35875 63.1181 5.33509L62.9051 5.31143C62.6449 5.28777 62.1717 5.2168 62.0771 5.16949L62.0061 5.14583L61.9588 5.19314C61.9115 5.28777 61.8405 5.45338 61.9115 5.61899C61.533 5.52436 61.1781 5.45338 61.1308 5.40607L61.0362 5.33509L61.0125 5.42972C61.0125 5.45338 60.9415 5.68996 61.0362 5.90288C60.7049 5.78459 60.3264 5.61898 60.2555 5.54801L60.1608 5.45338L60.1135 5.59533C60.1135 5.61899 59.9242 6.30507 60.7286 6.89652C61.533 7.48797 62.8815 7.39333 63.4966 7.08578C63.8515 6.92017 64.8924 6.3997 65.3183 6.65994C65.4366 6.73091 65.5075 6.89652 65.4839 7.10944C65.4366 8.17405 64.7505 8.1504 64.23 8.12674H64.0407C64.0407 8.12674 61.0598 8.17405 60.3501 8.17405C60.4211 8.05576 60.5157 7.81918 60.4447 7.48797L60.4211 7.39334L60.3264 7.44065L60.0189 7.60626L60.0425 7.55894L59.9479 7.53529C59.9479 7.53529 59.0489 7.36968 58.5284 8.29234C58.4101 8.33966 57.7714 8.55258 57.3219 8.93111C56.9906 9.215 56.3992 9.99572 56.5411 10.8711C56.6121 11.3442 56.8724 11.5571 57.0143 11.6281C56.8724 11.7937 56.8014 11.983 56.825 12.1723C56.8487 12.5271 57.1326 12.7637 57.1562 12.7874L57.2272 12.8583L57.2745 12.7637C57.5111 12.1723 57.9606 11.9593 58.9779 11.7228C59.4038 11.6281 59.8059 11.5098 60.0189 11.4389C59.9006 11.6518 59.8296 11.912 59.7586 12.1249C59.6877 12.3142 59.6403 12.5035 59.5694 12.5744C59.3091 12.8583 59.0252 12.74 58.7887 12.5508L58.765 12.5271H58.5048C58.1972 12.6691 58.0316 13.3552 57.9843 13.5681C57.5821 13.5681 57.2982 13.639 57.1562 13.8283C57.038 13.9939 57.0616 14.2068 57.0853 14.2542C56.9906 14.8693 56.825 15.9102 56.9433 16.0522C57.3219 16.5253 57.5821 16.4307 57.6057 16.407L57.6531 16.3834V16.3361V15.9339H57.9606C58.3155 16.5726 58.6704 16.7383 58.7177 16.7383L59.1435 17.0695L59.2145 17.1641L59.2618 17.0458C59.2855 16.9985 59.4038 16.7382 59.3564 16.549L59.4511 16.5253C59.4984 16.549 59.6403 16.6909 59.7586 16.8802L59.8059 16.9512L59.8769 16.9039C60.1135 16.7382 60.0898 16.4307 60.0898 16.3124C60.2554 16.1705 60.2318 15.8866 60.2081 15.7446C60.492 15.6973 60.7996 15.7683 60.9179 15.7919L60.9415 16.2651V16.2888V16.3124C61.1545 16.8329 61.6986 16.9039 61.7459 16.9039C62.0061 16.9748 62.3847 17.0458 62.8815 17.0695H62.9288C63.7568 17.1168 64.7741 17.0931 65.6258 17.0458C67.1636 16.9748 68.5831 16.7856 68.6777 16.7619C69.0326 16.8329 69.2928 16.8092 69.4348 16.7856L69.4111 16.8565L69.5057 16.8802C69.8843 16.9512 70.1208 16.7856 70.2155 16.6673C70.3811 16.8565 70.594 16.9512 70.594 16.9512L70.6413 16.9748L70.6886 16.9275L70.7123 16.9039L70.7833 16.9512L70.8306 16.9748L70.8779 16.9512C71.0672 16.8565 71.1145 16.6909 71.1618 16.549L71.3511 16.62L71.4693 16.5726C71.5876 16.7146 71.7769 16.8092 71.8242 16.8092L71.8715 16.8329L71.8952 16.7856L71.9425 16.7146C72.0845 16.8802 72.2974 16.9275 72.2974 16.9275H72.3447L72.3683 16.8802C72.6049 16.5726 72.6049 16.1705 72.5813 15.9575L72.6049 15.9339L72.6759 15.7919L72.8652 15.8156C72.6759 15.9339 72.5813 16.0285 72.6522 16.2414C72.7469 16.549 72.8652 16.6436 73.2437 16.6909L73.3383 16.7383C73.362 16.7856 73.3856 16.8565 73.5039 16.9748C73.5986 17.0695 73.7169 17.0931 73.8351 17.0458C74.0008 16.9748 74.1664 16.8092 74.1664 16.6436C74.19 16.5017 74.1664 16.407 74.1427 16.2888L74.2373 16.3597C74.4266 16.5017 75.1127 17.0695 75.1127 17.0931L75.16 17.1404L75.2073 17.0931L75.9407 16.5253C76.3902 16.8092 76.6504 16.8092 76.7687 16.8092L76.9343 16.7146L76.9817 16.5726C77.6914 17.0221 78.5668 16.9039 78.6141 16.9039H78.6377L78.6614 16.8802L78.756 16.6909C78.898 16.7146 79.0636 16.8092 79.1109 16.8565C79.3711 17.0695 79.797 16.9039 79.8206 16.9039L79.8679 16.8802V16.8329L79.797 16.6673L79.8206 16.5253L79.9862 16.6673C80.1755 16.9039 80.4831 16.8565 80.5067 16.8329H80.554L80.5777 16.7856C80.8379 16.9748 81.1455 16.8802 81.1455 16.8802H81.1691L81.1928 16.8565L81.2638 16.5726C83.0854 17.1404 85.7824 17.0695 85.8061 17.0695C89.4021 17.0458 89.9463 16.3597 89.9463 16.3361C90.0882 16.1468 90.0409 15.9339 90.0409 15.9102L89.9699 15.721C90.1828 15.6736 90.3721 15.6736 90.4667 15.6736C90.4667 15.7683 90.4431 16.0049 90.1592 16.2414C90.0409 16.3361 90.0645 16.478 90.1119 16.5253C90.7743 17.2587 91.7206 16.4544 91.7206 16.4544L91.7443 16.4307V16.3834L91.6969 16.1941C91.8152 16.1231 91.9335 15.9812 92.0045 15.9102L92.3594 16.0049C92.3121 16.2414 92.2411 16.4544 92.2411 16.4544L92.2174 16.5253L92.2884 16.549C92.5013 16.5963 92.6906 16.5963 92.8562 16.5017C93.1401 16.3361 93.2111 16.0285 93.2111 16.0049V15.9812V15.9575L92.8798 14.2068C92.7379 13.8756 91.7679 13.7573 91.4367 13.7337C91.4367 13.5444 91.4367 13.0949 91.2001 12.953C91.0818 12.882 90.9636 12.9057 90.7979 12.9766C90.5141 13.1422 90.0882 13.0239 89.9226 12.9766C89.9463 12.9057 89.9699 12.6927 89.9699 12.4325C89.9699 12.1486 89.8989 11.6518 89.8753 11.4389C90.3011 11.5335 90.4431 11.5808 90.8689 11.6754L91.4604 11.8174C92.3121 12.0066 92.5486 12.5035 92.596 12.5981L92.6906 12.8583L92.7142 12.9057H92.7616C92.8089 12.9057 92.8089 12.9057 92.9745 12.6454C93.1164 12.3852 93.2111 12.1486 93.0928 11.8884L92.9745 11.6991C93.282 11.5098 93.424 11.2023 93.4476 11.155C93.5896 10.8947 93.7079 10.2086 93.4476 9.59353Z" fill="#2F5F9D"/>
<path d="M77.741 6.66092H77.7168V6.63672L77.741 6.66092Z" fill="#2F5F9D"/>
<path d="M75.1624 1.05273H74.9022L75.0204 1.31297L75.0914 1.43126L75.0441 1.47858L74.9258 1.4076L74.7129 1.26566V1.54955V1.85711L74.9258 1.6915L75.0441 1.62053L75.0914 1.6915L75.0204 1.80979L74.9022 2.04637H75.1624H75.399L75.2807 1.80979L75.2097 1.6915L75.257 1.62053L75.3753 1.6915L75.5882 1.85711V1.54955V1.26566L75.3753 1.4076L75.257 1.47858L75.2097 1.43126L75.2807 1.31297L75.399 1.05273H75.1624Z" fill="#F6F3EF"/>
<path d="M73.5997 2.6618C73.4104 2.70912 73.2685 2.94569 73.3158 3.20593C73.5287 3.08764 73.7417 2.99301 74.0019 2.89838C73.9309 2.73277 73.7653 2.63814 73.5997 2.6618Z" fill="#F6F3EF"/>
<path d="M74.7372 2.70909C74.6899 2.44885 74.477 2.25959 74.2877 2.28325C74.0984 2.33056 74.0038 2.56714 74.0511 2.85104V2.8747C74.2877 2.80372 74.5006 2.7564 74.7372 2.70909Z" fill="#F6F3EF"/>
<path d="M76.3208 2.82652C76.2972 2.54262 76.1316 2.3297 75.9423 2.35336C75.7767 2.35336 75.6584 2.51897 75.6348 2.75555C75.8713 2.77921 76.1079 2.82652 76.3208 2.8975V2.82652Z" fill="#F6F3EF"/>
<path d="M77.0316 3.11167C77.0079 2.82778 76.8423 2.61486 76.653 2.63851C76.5347 2.63851 76.4165 2.73315 76.3691 2.87509C76.6057 2.94607 76.8186 3.0407 77.0316 3.15899V3.11167Z" fill="#F6F3EF"/>
<path d="M75.1624 2.82645C75.399 2.82645 75.6119 2.61353 75.6119 2.37695H74.7129C74.7129 2.61353 74.9258 2.82645 75.1624 2.82645Z" fill="#F6F3EF"/>
<path d="M72.3718 14.4198L71.9696 14.0176L71.946 14.1832L71.875 14.3251L71.9223 14.6563L72.1116 14.7037C72.2299 14.751 72.2772 14.8456 72.2772 14.8456C72.4428 14.68 72.3718 14.4198 72.3718 14.4198Z" fill="#F6F3EF"/>
<path d="M57.9622 13.8052C57.6073 15.1064 57.8675 15.8635 57.8675 15.8635H57.5836V14.444C57.0632 14.302 57.2997 14.0654 57.2997 14.0654C57.5363 13.7342 57.9622 13.8052 57.9622 13.8052Z" fill="#F6F3EF"/>
<path d="M59.1216 16.4794C59.2399 16.6687 59.1689 16.9289 59.1689 16.9289C59.1216 16.7397 58.8613 16.6923 58.8613 16.6923C58.9796 16.3138 59.1216 16.4794 59.1216 16.4794Z" fill="#F6F3EF"/>
<path d="M59.5938 16.4534C59.712 16.3351 59.7357 16.2168 59.7357 16.2168C59.9959 16.3587 59.854 16.7373 59.854 16.7373C59.783 16.5244 59.5938 16.4534 59.5938 16.4534Z" fill="#F6F3EF"/>
<path d="M59.3105 15.3904C59.7127 15.414 59.76 15.7452 59.76 15.7452C59.973 15.9108 59.9493 15.6506 59.9493 15.6506C59.7364 14.9409 59.3105 15.3904 59.3105 15.3904Z" fill="#F6F3EF"/>
<path d="M59.8066 15.9108C59.9249 15.9581 59.9959 15.8398 59.9959 15.8398C60.0905 16.0764 59.9722 16.2894 59.9722 16.2894C59.9249 16.1001 59.8066 16.1001 59.8066 16.1001V15.9108Z" fill="#F6F3EF"/>
<path d="M60.3503 14.846C60.7524 14.917 61.0837 14.1126 61.0837 14.1126C61.7224 14.089 62.0063 14.3965 62.0063 14.3965C62.2902 14.6804 61.9117 14.6331 61.9117 14.6331C61.5095 14.6094 60.8471 14.7514 60.8471 14.7514L60.7998 14.9407C60.8471 15.1063 60.8707 15.6267 60.8707 15.6267C60.5395 15.5321 60.09 15.6031 60.09 15.6031C59.7588 14.7514 59.191 15.2719 59.191 15.2719C58.9544 14.7041 59.262 14.2073 59.262 14.2073C59.333 14.1836 59.8061 14.1363 60.1846 14.2073C60.4922 14.2782 60.232 14.7987 60.232 14.7987L60.3503 14.846Z" fill="#F6F3EF"/>
<path d="M61.0371 14.9399C61.2973 15.4604 64.3019 15.3184 65.5321 15.2711C66.4785 15.2238 66.4785 15.2238 69.2701 14.8926C69.1518 15.5077 69.2228 16.2174 69.2228 16.2174C69.2701 16.5486 68.726 16.6433 68.726 16.6433C64.3729 17.4003 62.0071 16.8562 62.0071 16.8562C61.2264 16.7852 61.0844 16.3357 61.1081 16.1938C61.1554 15.7206 61.0371 14.9399 61.0371 14.9399Z" fill="#F6F3EF"/>
<path d="M66.457 14.0183C66.7882 13.5452 67.2377 13.8764 67.2377 13.8764C67.3324 13.9473 67.4507 14.1839 67.4507 14.1839C67.2377 14.1839 67.1904 14.3495 67.1904 14.3495C67.0248 13.9947 66.457 14.0183 66.457 14.0183Z" fill="#F6F3EF"/>
<path d="M67.0944 14.9875C67.0471 14.7745 67.2127 14.6562 67.2127 14.6562C67.331 14.7509 67.402 14.9638 67.402 14.9638L67.0944 14.9875Z" fill="#F6F3EF"/>
<path d="M67.2832 14.4903C67.4961 14.6086 67.5671 14.9161 67.5671 14.9161L67.78 14.8924C67.8273 14.4903 67.5671 14.2773 67.5671 14.2773C67.3305 14.301 67.2832 14.4903 67.2832 14.4903Z" fill="#F6F3EF"/>
<path d="M67.4023 13.7813C67.5206 13.8523 67.6389 14.1362 67.6389 14.1362C67.8045 14.2545 67.8755 14.5384 67.8755 14.5384C68.0175 14.4438 68.2067 14.4674 68.2067 14.4674C68.0884 13.7577 67.4023 13.7813 67.4023 13.7813Z" fill="#F6F3EF"/>
<path d="M67.9238 14.6325L67.9475 14.8927L68.255 14.8454C68.2787 14.7035 68.1841 14.5852 68.1841 14.5852C68.0185 14.5142 67.9238 14.6325 67.9238 14.6325Z" fill="#F6F3EF"/>
<path d="M69.9808 12.7405V12.9771C69.8388 12.7405 69.3656 12.5985 69.3656 12.5985C69.3183 12.6932 69.3893 12.9771 69.3893 12.9771C69.1527 12.5276 68.6322 12.5039 68.6322 12.5039C68.6322 12.6932 68.7742 12.8351 68.7742 12.8351C68.5376 12.6695 68.0645 12.7405 68.0645 12.7405C68.1354 13.19 68.514 13.5212 68.514 13.5212L68.4666 13.6158C68.1827 13.4266 68.0881 13.5685 68.0881 13.5685V13.6631C68.2301 13.9234 68.8215 14.1363 68.8215 14.1363C68.6559 14.2073 68.6086 14.3256 68.6086 14.3256C68.8215 14.7278 69.4603 14.7041 69.4603 14.7041C69.342 14.3256 69.413 13.9944 69.4839 13.8524L68.2774 12.8824C68.2774 12.8824 69.2237 13.5449 69.5786 13.7105C69.8388 13.4739 70.1937 13.5212 70.1937 13.5212L70.3593 13.3319C70.312 13.0007 69.9808 12.7405 69.9808 12.7405Z" fill="#F6F3EF"/>
<path d="M69.6253 14.6331C69.4361 14.3019 69.578 14.0653 69.578 14.0653C69.72 13.5922 70.1695 13.6631 70.1695 13.6631C70.3351 13.7104 70.3824 13.5922 70.3824 13.5922C70.6899 13.19 70.8555 13.4265 70.8555 13.4265C70.9502 13.5685 71.2341 13.5922 71.2341 13.5922C71.518 13.6631 71.376 13.9943 71.376 13.9943C71.2814 14.1836 71.4233 14.2309 71.4233 14.2309C72.0148 14.3019 71.518 15.2482 71.518 15.2482C71.4233 15.4138 71.1631 15.3428 71.1631 15.3428L71.0921 15.4138C71.2104 15.6267 71.0921 15.745 71.0921 15.745C70.8792 15.9816 70.5716 15.9343 70.5716 15.9343C70.1695 15.9343 70.1458 15.745 70.1458 15.745C70.0985 15.5558 69.8619 15.5558 69.8619 15.5558C69.5307 15.4611 69.507 15.1299 69.507 15.1299C69.4834 14.9643 69.6017 14.8697 69.6017 14.8697C69.7436 14.7514 69.6253 14.6331 69.6253 14.6331Z" fill="#F6F3EF"/>
<path d="M70.2414 13.9231C69.9338 13.6392 69.8392 13.9704 69.8865 14.0651C69.9102 14.1124 70.0758 14.1834 69.8156 14.2543C69.579 14.3016 69.6263 14.6092 69.8865 14.6092C70.1468 14.6329 70.336 14.5146 70.3833 14.3963C70.4307 14.3253 70.4307 14.1124 70.2414 13.9231Z" fill="#2F5F9D"/>
<path d="M71.2102 14.0876C71.4941 13.7327 71.1392 13.6618 71.0446 13.7327C70.9973 13.7564 70.9263 13.9457 70.8316 13.6854C70.7607 13.4252 70.4531 13.5198 70.4531 13.7801C70.4531 14.064 70.5951 14.2532 70.6897 14.2769C70.808 14.3242 71.0446 14.3005 71.2102 14.0876Z" fill="#2F5F9D"/>
<path d="M71.1157 15.1065C71.4706 15.2958 71.4706 14.9646 71.3996 14.8936C71.3759 14.87 71.2103 14.8226 71.3996 14.7043C71.6125 14.5861 71.4706 14.3495 71.234 14.3968C70.9974 14.4441 70.8555 14.6097 70.8555 14.7043C70.8555 14.799 70.9028 14.9882 71.1157 15.1065Z" fill="#2F5F9D"/>
<path d="M70.3125 15.3668C70.1705 15.7453 70.5017 15.698 70.549 15.6033C70.5727 15.5797 70.5963 15.3904 70.7383 15.5797C70.8802 15.769 71.0932 15.6033 71.0222 15.3904C70.9512 15.1775 70.762 15.0356 70.6673 15.0592C70.5727 15.0829 70.3834 15.1538 70.3125 15.3668Z" fill="#2F5F9D"/>
<path d="M69.9337 14.7744C69.5788 14.8218 69.7444 15.0583 69.8391 15.082C69.8864 15.082 70.0283 15.011 69.9337 15.224C69.8391 15.4132 70.0756 15.5315 70.2176 15.3659C70.3595 15.2003 70.3832 15.011 70.3359 14.9401C70.2886 14.8454 70.1703 14.7271 69.9337 14.7744Z" fill="#2F5F9D"/>
<path d="M71.2109 13.4255C71.2109 13.4255 71.2819 13.1416 71.4002 13.118C71.5185 13.0943 71.5421 13.1416 71.5421 13.1416C71.5895 13.5201 71.826 13.7804 71.826 13.7804L71.7787 14.3009C71.7314 14.1116 71.5185 14.1116 71.5185 14.1116C71.6841 13.6384 71.2109 13.4255 71.2109 13.4255Z" fill="#F6F3EF"/>
<path d="M70.0759 15.8381L69.8866 15.8145L69.4371 16.3349C69.3898 16.6188 69.0586 16.7371 69.0586 16.7371C69.7447 16.6661 69.8393 16.4059 69.8393 16.4059C69.792 16.6188 69.6974 16.8081 69.6974 16.8081C70.3834 16.5952 70.0759 15.8381 70.0759 15.8381Z" fill="#F6F3EF"/>
<path d="M70.3839 16.0273C70.6678 16.0983 70.8334 16.0747 70.8334 16.0747C71.1883 16.4059 70.8098 16.9027 70.8098 16.9027C70.6915 16.6661 70.6915 16.2876 70.6915 16.2876C70.5259 16.5005 70.6442 16.879 70.6442 16.879C70.3366 16.7607 70.2656 16.4295 70.2656 16.4295C70.2656 16.1693 70.3839 16.0273 70.3839 16.0273Z" fill="#F6F3EF"/>
<path d="M72.1336 15.0363L72.3229 15.0127C72.3229 15.0127 72.0627 14.6578 71.8024 14.7761C71.8024 14.7761 71.7788 15.1546 71.5895 15.3912C71.6841 15.5095 72.039 15.959 72.0627 16.2429C72.0627 16.2429 71.7551 15.7224 71.4239 15.5095L71.3529 15.5568C71.3529 15.5568 71.3766 15.959 70.998 16.03C70.998 16.03 71.069 16.2429 71.1873 16.2666L71.2819 16.5031C71.2819 16.5031 71.4475 16.6451 71.4712 16.3139C71.4712 16.3139 71.5895 16.6687 71.8261 16.7161C71.8261 16.7161 71.9207 16.6214 71.8734 16.3612C71.8734 16.3612 71.9207 16.7161 72.2519 16.858C72.2519 16.858 72.5595 16.1483 72.2519 15.7697C72.2519 15.7697 72.3229 15.8644 72.4885 15.8644C72.4648 15.888 72.5595 15.2256 72.1336 15.0363Z" fill="#F6F3EF"/>
<path d="M73.295 13.023C73.4606 12.9757 73.5316 12.8574 73.5316 12.8574C73.6262 13.1177 73.437 13.4252 73.437 13.4252C73.4606 13.1886 73.2714 13.023 73.295 13.023Z" fill="#F6F3EF"/>
<path d="M72.8906 13.3086C73.0562 13.2613 73.0799 13.0957 73.0799 13.0957C73.2455 13.3086 73.1982 13.6635 73.1982 13.6635C73.0562 13.4742 72.8906 13.3086 72.8906 13.3086Z" fill="#F6F3EF"/>
<path d="M72.7017 9.19141V9.66457C72.2758 10.5399 72.5597 11.6992 72.5597 11.6992C72.4178 11.7701 72.3468 11.8411 72.3468 11.8411C71.9683 10.1141 72.7017 9.19141 72.7017 9.19141Z" fill="#F6F3EF"/>
<path d="M74.3105 16.3134L75.1622 16.9758L75.9903 16.3134V14.6337L75.6354 14.8703V16.1951L75.1622 16.55L74.6654 16.1951V14.7993L74.3105 14.5391V16.3134Z" fill="#F6F3EF"/>
<path d="M75.0195 15.1773L75.1378 15.3429L75.2561 15.1773L75.1378 15.0117L75.0195 15.1773Z" fill="#F6F3EF"/>
<path d="M75.0195 15.9566L75.1378 16.1222L75.2561 15.9566L75.1378 15.791L75.0195 15.9566Z" fill="#F6F3EF"/>
<path d="M74.8066 15.5562L74.9249 15.7218L75.0669 15.5562L74.9249 15.3906L74.8066 15.5562Z" fill="#F6F3EF"/>
<path d="M75.2344 15.5562L75.3763 15.7218L75.4946 15.5562L75.3763 15.3906L75.2344 15.5562Z" fill="#F6F3EF"/>
<path d="M73.5524 14.1113C73.647 14.5372 73.1975 14.4662 73.1975 14.4662C73.0319 14.7738 73.2685 14.7737 73.2685 14.7737C73.6234 14.8447 73.789 14.6791 73.7653 14.4425C73.718 14.2296 73.5524 14.1113 73.5524 14.1113Z" fill="#F6F3EF"/>
<path d="M72.725 13.6628C72.654 13.4262 72.7959 13.3789 72.7959 13.3789C72.9379 13.7811 73.3637 14.1123 73.3637 14.1123C73.411 14.3016 73.1745 14.3252 73.1745 14.3252C72.8432 14.0413 72.725 13.6628 72.725 13.6628Z" fill="#F6F3EF"/>
<path d="M73.2441 13.7581L73.3388 13.5215L73.4334 13.6161L73.5044 13.5451L73.6463 13.7817C73.4807 13.829 73.4097 13.971 73.4097 13.971C73.2915 13.8527 73.2441 13.7581 73.2441 13.7581Z" fill="#F6F3EF"/>
<path d="M76.4395 14.445L76.5814 14.6342L76.9599 13.9955L76.818 13.8535L76.4395 14.445Z" fill="#F6F3EF"/>
<path d="M77.0777 14.0645L76.6992 14.7032C77.3143 15.1054 77.6929 14.0881 77.6929 14.0881C77.338 14.1827 77.0777 14.0645 77.0777 14.0645Z" fill="#F6F3EF"/>
<path d="M77.4805 8.95508V9.49921C77.7407 9.9014 77.788 10.8004 77.788 10.8004C77.788 10.8004 77.788 10.7531 77.9063 10.6585L78.0246 10.5875C78.0246 9.71213 77.4805 8.95508 77.4805 8.95508Z" fill="#F6F3EF"/>
<path d="M76.9375 16.2879C77.2924 16.832 78.4753 16.832 78.4753 16.832C78.357 16.5245 78.0258 16.4062 78.0258 16.4062C78.5462 16.1933 79.0194 16.6664 79.0194 16.6664C79.3033 16.9267 79.6345 16.9267 79.6345 16.9267C79.4926 16.7611 79.3506 16.6428 79.3506 16.6428C79.5162 16.7138 79.6582 16.6664 79.6582 16.6664C79.4689 16.3589 78.9721 16.0513 78.9721 16.0513C79.5162 15.7674 79.9657 16.4299 79.9657 16.4299C80.2023 16.7847 80.4152 16.832 80.4152 16.832L80.2496 16.3352C80.4152 16.7847 81.0303 16.9267 81.0303 16.9267L81.0777 16.7374C80.5808 16.5718 80.6282 16.4062 80.6282 16.4062L80.5808 15.8857C80.013 15.7911 80.084 15.4835 80.084 15.4835C80.155 15.034 80.5808 14.9631 80.5808 14.9631L80.5335 14.3716C80.8647 14.135 81.5272 14.2533 81.5272 14.2533C81.4562 13.8985 81.1723 14.0167 81.1723 14.0167C81.1723 13.7092 80.8647 13.7328 80.8647 13.7328L79.9421 14.5372C80.084 15.2706 79.7055 15.4599 79.7055 15.4599C79.0667 15.8621 78.5936 15.2943 78.5936 15.2943L78.1677 15.5545C78.4043 15.5545 78.8065 15.8857 78.8065 15.8621C78.5699 15.6965 77.9548 15.6728 77.9548 15.6728L76.9375 16.2879Z" fill="#F6F3EF"/>
<path d="M78.2124 14.2054C78.307 15.1517 79.1823 15.3409 79.1823 15.3409C79.7501 15.4119 79.7501 14.9624 79.7501 14.9624C79.7501 13.7795 78.5672 13.7559 78.5672 13.7559C78.0941 13.8032 78.2124 14.2054 78.2124 14.2054Z" fill="#F6F3EF"/>
<path d="M81.7169 14.2778C82.3557 14.1122 81.7405 13.8283 81.7405 13.8283C81.1964 13.6154 81.0781 13.6627 81.0781 13.6627C81.2674 13.7573 81.362 13.8993 81.362 13.8993C81.6696 13.8993 81.7169 14.2778 81.7169 14.2778Z" fill="#F6F3EF"/>
<path d="M81.7371 14.9647L81.9027 14.3496C81.5478 14.4916 81.3349 14.3969 81.3349 14.3969C80.9564 14.326 80.8144 14.4442 80.8144 14.4442C80.3886 14.7045 81.7608 14.9647 81.7371 14.9647Z" fill="#F6F3EF"/>
<path d="M82.4727 14.846L82.5909 14.9879L83.2061 14.9169L82.8275 15.1772L83.4426 15.2481L83.1824 14.6094L82.4727 14.846Z" fill="#F6F3EF"/>
<path d="M76.9844 13.7819C77.1736 14.0184 77.7178 13.9475 77.7178 13.9475C77.8124 13.8292 77.7414 13.5689 77.7414 13.5689C77.6941 13.3797 77.7178 13.3087 77.7178 13.3087C78.0963 13.3087 77.8124 13.8055 77.8124 13.8055C78.3802 13.4506 77.8361 12.6463 77.8361 12.6463C78.0963 11.1322 79.0426 11.4161 79.1373 11.4397C79.5158 11.4634 80.4858 11.7946 80.4858 11.7946C80.8406 11.8892 81.9762 12.1258 82.0235 12.1258C82.0709 12.1021 81.9762 12.0075 82.1182 11.9129C82.5913 11.5817 82.7096 10.5407 82.7096 10.5407C82.7096 10.3751 82.7806 10.4461 82.7806 10.4461C82.9225 11.0848 82.473 11.7946 82.473 11.7946C82.8516 12.2204 84.2237 12.1495 84.2237 12.1495C84.9098 12.0548 85.5486 11.7473 85.5486 11.7473C86.353 11.4397 87.1573 11.487 87.1573 11.487L87.11 11.2978C86.4712 11.0139 86.9207 10.6827 86.9207 10.6827L86.7551 10.3988C85.4303 10.0439 83.7979 9.14488 83.7979 9.14488C81.9052 8.12759 80.9353 8.29319 80.9353 8.29319C80.1072 9.14488 80.2492 10.588 80.2492 10.588L80.6987 10.6353C80.6514 9.6417 81.2901 9.12122 81.2901 9.12122C81.4557 9.05025 81.3375 9.26317 81.3375 9.26317C80.675 10.2332 80.9589 10.8956 80.9589 10.8956C80.675 10.7536 78.948 10.6827 78.948 10.6827C77.907 10.5644 77.6941 11.5107 77.6941 11.5107L77.3629 12.6699C77.008 13.356 76.9844 13.7819 76.9844 13.7819Z" fill="#F6F3EF"/>
<path d="M80.0582 9.73564C80.1292 9.33346 80.2712 8.90761 80.2712 8.90761L79.1356 7.67739C78.5678 6.99131 78.2366 7.25155 78.2366 7.25155L78 7.36984C78.2602 7.55911 78.4495 7.86666 78.4495 7.86666L78.6861 8.05592L80.0582 9.73564Z" fill="#F6F3EF"/>
<path d="M80.6499 3.34748C80.6262 2.92163 80.4606 2.85066 80.4606 2.85066C80.0111 2.51944 79.9402 2.61408 79.9402 2.61408C79.8219 2.73237 80.1767 2.96895 80.1767 2.96895L80.6499 3.34748Z" fill="#F6F3EF"/>
<path d="M81.2167 3.77356C81.2876 3.41869 80.9328 3.1348 80.9328 3.1348L80.6016 2.92188C80.7672 3.06382 80.7672 3.41869 80.7672 3.41869L81.2167 3.77356Z" fill="#F6F3EF"/>
<path d="M81.3377 3.84536L81.7399 4.12925C81.7399 3.72706 81.5979 3.5378 81.5979 3.5378L81.1484 3.25391C81.4323 3.49049 81.3377 3.84536 81.3377 3.84536Z" fill="#F6F3EF"/>
<path d="M80.4384 6.1875C80.1545 6.28213 80.0599 6.21116 80.0836 6.25847C80.1309 6.54237 80.5567 6.51871 80.5567 6.51871C80.746 6.51871 80.9116 6.32945 80.9116 6.32945V6.23482C80.746 6.40042 80.604 6.32945 80.5804 6.32945L80.4384 6.1875Z" fill="#F6F3EF"/>
<path d="M81.1229 6.94478L80.8153 6.61356C80.8153 6.61356 81.1702 6.40064 81.0046 6.16406C80.9336 6.04577 80.7443 6.21138 80.6734 6.21138C80.5314 6.18772 80.4841 5.85651 80.5078 5.76188L80.697 5.5253L80.9809 5.50164L82.1638 4.22411C82.3767 3.72729 82.708 3.79826 82.708 3.79826C82.5897 3.65631 82.4714 3.23047 82.4714 3.23047C83.1338 3.23047 83.2048 3.89289 83.2048 3.89289C85.192 5.47798 83.9382 8.03304 83.9382 8.03304C83.2994 7.58354 81.9272 7.29965 81.9272 7.29965C82.1402 6.85015 82.7316 6.51893 82.7316 6.51893C83.5123 6.49527 83.3704 5.57261 83.3704 5.57261C83.2994 5.43066 83.2521 5.59627 83.2521 5.59627C83.1575 7.08672 81.9509 5.90382 81.9509 5.90382C81.8563 5.80919 81.8563 5.9748 81.8563 5.9748C81.9036 6.11675 82.1165 6.23504 82.1165 6.23504L81.5724 6.51893L81.1938 6.92112L81.1229 6.94478Z" fill="#F6F3EF"/>
<path d="M81.7852 3.65625L82.1637 3.89283C82.1164 4.08209 81.9034 4.2477 81.9034 4.2477C81.9508 3.9638 81.7852 3.65625 81.7852 3.65625Z" fill="#F6F3EF"/>
<path d="M83.4414 3.86748C84.1038 3.79651 84.648 4.64819 84.648 4.62454C84.3168 4.31698 84.0565 4.38796 84.0565 4.38796C83.8436 4.17503 83.4414 3.86748 83.4414 3.86748Z" fill="#F6F3EF"/>
<path d="M84.082 4.55447C84.224 4.7674 84.3423 5.14592 84.3423 5.14592C84.8627 5.26421 85.052 5.6664 85.052 5.6664C84.7445 4.45984 84.082 4.55447 84.082 4.55447Z" fill="#F6F3EF"/>
<path d="M84.4355 5.40625C85.2636 5.64283 85.0507 6.73109 85.0507 6.73109C84.9087 6.39988 84.5775 6.30525 84.5775 6.30525C84.5538 5.59551 84.4355 5.40625 84.4355 5.40625Z" fill="#F6F3EF"/>
<path d="M84.6022 6.4707C84.6259 6.65997 84.5312 6.99118 84.5312 6.99118C84.8388 7.25141 84.7915 7.55897 84.7915 7.55897C84.9098 7.3697 84.9808 6.9202 84.9808 6.9202C84.9098 6.61265 84.6022 6.4707 84.6022 6.4707Z" fill="#F6F3EF"/>
<path d="M84.484 7.17969C84.4367 7.46358 84.1055 8.10235 84.1055 8.10235L84.413 8.31527C84.8389 7.70016 84.484 7.17969 84.484 7.17969Z" fill="#F6F3EF"/>
<path d="M86.4232 11.723C87.2039 11.5101 87.7007 12.0306 87.7007 12.0306C87.89 12.4091 87.9136 12.8586 87.9136 12.8586C87.4168 13.1189 86.4942 13.1425 86.4942 13.1425C86.0447 13.2608 86.3759 13.4974 86.3759 13.4974C87.1093 14.1835 86.5178 14.3254 86.5178 14.3254C85.8317 14.4674 85.0274 15.2954 85.0274 15.2954C84.4832 15.3427 83.7025 15.2717 83.7025 15.2717C83.4896 15.1061 83.3477 14.5857 83.3477 14.5857C83.6316 14.3254 83.8918 14.6093 83.8918 14.6093C84.4832 14.9878 85.4059 14.2781 85.4059 14.2781C85.5242 14.1835 85.7371 14.1125 85.7371 14.1125L85.6898 13.9232C85.2876 13.663 85.0037 13.3081 85.0037 13.3081C84.7908 12.9533 84.9801 12.7877 84.9801 12.7877C85.2876 12.5274 86.4232 11.723 86.4232 11.723Z" fill="#F6F3EF"/>
<path d="M80.7207 14.7988C80.8153 15.4376 80.7917 15.8398 80.7917 16.3603C80.7917 16.6442 82.8972 17.0937 84.9555 17.0937C90.2549 17.0937 89.7817 16.1237 89.7817 16.1C89.5451 15.5559 89.4268 14.8935 89.4268 14.8935C89.4268 14.8935 88.5752 15.4139 84.9555 15.4139C81.5724 15.4376 80.7207 14.7988 80.7207 14.7988Z" fill="#F6F3EF"/>
<path d="M89.8556 15.6977L89.5717 14.8224C89.3825 14.5148 89.0986 14.7277 89.0986 14.7277C88.862 14.8933 88.5544 14.7987 88.5544 14.7987C88.2469 14.7514 88.5071 14.5621 88.5071 14.5621C88.933 14.2782 89.3351 14.1836 89.3351 14.1836C89.6427 14.3019 90.2105 14.2782 90.2105 14.2782C90.731 14.2073 90.6127 14.6331 90.6127 14.6331C90.6363 15.0353 90.518 15.6977 90.518 15.6977C90.2342 15.6267 89.8556 15.6977 89.8556 15.6977Z" fill="#F6F3EF"/>
<path d="M90.7757 16.0287L90.7047 15.9813L90.6574 15.8867C90.6574 15.8867 90.6101 16.2889 90.3262 16.5491L90.3735 16.6201L90.4681 16.6911L90.7757 16.0287Z" fill="#F6F3EF"/>
<path d="M90.8683 16.0764L90.5371 16.7625C91.1286 16.8571 91.5544 16.4786 91.5544 16.4786L91.4598 16.0527C91.1995 16.171 90.8683 16.0764 90.8683 16.0764Z" fill="#F6F3EF"/>
<path d="M92.0059 15.8384L92.3845 15.933C92.4791 15.3889 92.2898 14.8447 92.2898 14.8447C92.7394 14.9867 92.7393 14.8211 92.7393 14.8211C92.9286 14.135 91.3672 14.1113 91.3672 14.1113C91.3672 14.3243 91.4618 14.7737 91.4618 14.7737C92.1952 15.034 92.0059 15.8384 92.0059 15.8384Z" fill="#F6F3EF"/>
<path d="M69.7681 6.91964C69.7208 7.13256 69.7208 7.39279 69.7918 7.60572C69.7918 7.60572 69.5789 7.62938 69.4842 7.51109C69.4842 7.51109 69.5315 7.86595 69.2713 8.38643C69.0111 8.9069 69.0111 8.88325 68.9874 9.00154C68.9874 9.00154 68.8691 8.83593 68.2304 8.55204C68.0647 8.48106 67.7572 8.22082 67.6862 8.03156C67.6862 8.03156 67.6152 8.12619 67.426 8.19717C67.426 8.19717 67.3787 7.91327 67.1894 7.65303C66.9765 7.36914 66.9528 7.41645 66.9292 7.29816C66.9055 7.20353 66.9292 7.03793 66.9292 7.03793C66.9528 7.17987 67.0475 7.32182 67.2604 7.53474C67.4496 7.74767 67.497 8.05522 67.497 8.05522C67.6626 7.98424 67.6862 7.79498 67.6862 7.79498C67.7335 7.91327 68.0411 8.2918 68.2304 8.38643C68.8218 8.67032 68.9164 8.76496 68.9164 8.76496C68.9401 8.64667 68.9401 8.71764 69.2003 8.19717C69.4133 7.72401 69.3423 7.25085 69.3423 7.25085C69.4842 7.46377 69.6735 7.51109 69.6735 7.51109C69.6498 7.29816 69.6025 7.15622 69.6498 6.94329L69.6972 6.70671C69.6498 6.51745 69.5789 6.30452 69.5552 6.16258C69.5079 5.85502 69.4133 5.66576 69.5079 5.54747C69.7208 5.28723 69.5079 4.88504 69.2477 4.88504C68.1594 4.81407 66.7636 5.66576 66.6216 5.926C66.3614 6.3755 66.9055 6.54111 66.8582 6.6594C66.6689 7.1089 66.8109 7.44011 67.0475 7.86596C67.284 8.26814 67.3077 8.83594 67.3077 8.83594C67.5206 8.71765 67.5679 8.43375 67.5679 8.43375C67.7335 9.33275 68.3723 9.4747 68.3723 9.4747C68.6562 9.54567 68.7745 9.78226 68.7745 9.78226C68.8455 9.52202 68.8691 9.35641 68.8691 9.35641C68.9401 9.71128 69.2003 9.7586 69.2003 9.7586C69.2476 9.42738 69.3659 9.19081 69.3659 9.19081C69.6025 8.69399 69.4842 8.33912 69.4842 8.33912C69.5789 8.52838 69.8154 8.5757 69.8154 8.5757C69.6735 8.12619 69.7445 8.07888 69.8391 7.72401C69.9101 7.46377 69.7681 6.91964 69.7681 6.91964Z" fill="#F6F3EF"/>
<path d="M69.8154 7.58348C69.7681 7.37055 69.7444 7.11032 69.7918 6.92105V6.87374H69.7445L69.7208 6.70813V6.66081V6.6135L69.6498 6.58984V6.63716L69.6025 6.8974C69.5788 7.063 69.5788 7.20495 69.6025 7.3469V7.41787C69.5315 7.39422 69.4369 7.32324 69.3423 7.18129L69.2713 7.20495C69.2713 7.20495 69.3423 7.67811 69.1293 8.15127C69.0111 8.4115 68.9401 8.50614 68.9164 8.57712L68.8691 8.67175C68.7981 8.62443 68.6325 8.5298 68.2067 8.31688C68.0174 8.22224 67.7099 7.84372 67.6625 7.74908H67.5916C67.5916 7.74908 67.5679 7.86737 67.4496 7.93835C67.426 7.84371 67.3786 7.63079 67.2367 7.46519C67.0474 7.27592 66.9528 7.11032 66.9291 6.99203H66.8582C66.8582 6.99203 66.8345 7.15763 66.8582 7.27592L66.9291 7.41787C66.9765 7.46519 67.0238 7.5125 67.1184 7.63079C67.3077 7.86737 67.355 8.15127 67.355 8.15127V8.19859L67.4023 8.17493C67.5206 8.12761 67.6152 8.08029 67.6389 8.03298C67.7335 8.22224 68.0174 8.45882 68.183 8.5298C68.7981 8.79003 68.9401 8.95564 68.9401 8.95564L68.9874 9.00296L69.0111 8.93199C69.0347 8.83735 69.0347 8.83735 69.153 8.60077L69.2949 8.31688C69.4842 7.93835 69.5079 7.63079 69.5079 7.5125C69.6262 7.58348 69.7681 7.58348 69.7681 7.58348H69.8154Z" fill="#2F5F9D"/>
<path d="M78.1187 4.41221L77.9768 4.83805L77.7875 4.38855L77.4799 5.21658L77.8585 5.12195L77.6929 5.47682C77.5982 5.61877 76.8412 5.78437 76.8175 5.2639C76.8175 5.07463 76.8412 4.74342 77.267 5.02732C77.267 5.02732 77.5273 4.29391 76.8412 4.60147C76.8412 4.60147 77.1251 4.17562 76.7229 3.89173C76.3207 4.17562 76.5809 4.60147 76.5809 4.60147C75.9185 4.29391 76.1551 5.02732 76.1551 5.02732C76.5809 4.74342 76.6046 5.09829 76.5809 5.28756C76.5573 5.50048 76.4153 5.59511 76.0605 5.59511C76.0605 5.59511 75.398 5.57145 75.5163 4.8144C75.5163 4.8144 75.7292 4.67245 75.9658 5.02732L75.9422 4.03368C75.9422 4.03368 75.7766 4.31757 75.4927 4.36489C75.4927 4.36489 75.3744 4.08099 75.7056 3.77344H75.3271H74.8539C75.1851 4.08099 75.0668 4.36489 75.0668 4.36489C74.7593 4.31757 74.6173 4.03368 74.6173 4.03368V5.02732C74.8539 4.67245 75.0668 4.8144 75.0668 4.8144C75.1615 5.57145 74.5463 5.59511 74.5463 5.59511C74.1915 5.59511 74.0259 5.50048 74.0022 5.28756V5.2639C73.9785 5.07463 74.0022 4.74342 74.428 5.02732C74.428 5.02732 74.6646 4.29391 74.0022 4.60147C74.0022 4.60147 74.2624 4.17562 73.8603 3.89173C73.4581 4.19928 73.742 4.60147 73.742 4.60147C73.2688 4.38855 73.2925 4.83805 73.3398 5.02732C73.7656 4.74342 73.7656 5.07463 73.7656 5.2639V5.28756C73.742 5.80803 72.7956 5.73705 72.7247 5.57145C72.6774 5.45316 72.5354 5.07463 72.5354 5.07463L72.8666 5.2639L72.7483 4.41221L72.4881 4.76708L72.4171 4.31758L72.2988 4.64879L72.843 6.4468C74.3098 6.09193 76.2497 6.13924 77.5746 6.42314L78.237 4.74342L78.1187 4.41221Z" fill="#F6F3EF"/>
<path d="M67.4009 3.18217L67.2117 2.99291H67.4482L67.3063 2.61438L67.117 2.80365L67.1407 2.49609L66.7148 2.63804L66.9514 2.87462L66.7385 2.85096L66.8568 3.22949L67.0461 3.06388L67.0224 3.41875V3.46607C67.0224 3.60802 67.1643 3.72631 67.3063 3.72631C67.4482 3.72631 67.5665 3.58436 67.5665 3.44241L67.4009 3.18217Z" fill="#F6F3EF"/>
<path d="M67.7342 3.23037L67.7815 3.325L67.7578 3.41963C68.5386 3.27768 68.9881 3.65621 69.1537 3.84548L69.13 4.17669C69.0827 4.24766 68.7278 4.5079 68.6095 4.27132C68.5622 4.17669 68.5149 4.01108 68.8224 4.0584C68.8224 4.0584 68.8225 3.65621 68.5149 3.94011C68.5149 3.94011 68.5859 3.67987 68.302 3.6089C68.1364 3.82182 68.3493 3.98743 68.3493 3.98743C67.9234 3.98743 68.1837 4.29498 68.1837 4.29498C68.373 4.0584 68.4439 4.22401 68.4676 4.31864C68.4912 4.43693 68.4439 4.5079 68.231 4.57888C68.231 4.57888 67.8525 4.69717 67.7815 4.31864C67.7815 4.31864 67.8761 4.20035 68.0654 4.3423L67.8761 3.86914C67.8761 3.86914 67.8525 4.03474 67.6869 4.12937C67.6869 4.12937 67.5686 4.01108 67.6869 3.79816L67.4739 3.86914L67.2137 3.94011C67.4503 4.03474 67.4503 4.20035 67.4503 4.20035C67.2847 4.24766 67.1427 4.12937 67.1427 4.12937L67.332 4.60253C67.403 4.38961 67.5449 4.38961 67.5449 4.38961C67.7342 4.74448 67.403 4.88643 67.403 4.88643C67.19 4.9574 67.0954 4.9574 67.0481 4.83911C67.0008 4.74448 66.9535 4.57887 67.2374 4.62619C67.2374 4.62619 67.2374 4.224 66.9062 4.5079C66.9062 4.5079 66.9771 4.24766 66.6932 4.20035C66.5276 4.41327 66.7642 4.57888 66.7642 4.57888C66.3147 4.57888 66.5986 4.88643 66.5986 4.88643C66.7879 4.64985 66.8588 4.81546 66.9062 4.91009C67.0008 5.17033 66.5276 5.26495 66.4566 5.19398C66.362 5.09935 66.291 4.93375 66.2674 4.88643C66.2437 4.81546 66.1254 4.27132 66.9062 3.75085L66.8588 3.67987L66.8115 3.6089C66.1964 4.03474 66.1018 4.5079 66.0781 4.86277L66.5986 5.6908C67.7815 4.93374 67.9944 4.81545 69.2956 4.62619L69.3429 3.67987C69.2956 3.67987 68.7042 3.0411 67.7342 3.23037Z" fill="#F6F3EF"/>
<path d="M68.0868 11.2743C68.0158 11.1323 67.9212 10.8721 67.9212 10.8721V11.1087C67.9921 11.4635 68.276 11.8894 68.276 11.8894C66.9275 13.3562 64.6564 11.7238 64.0176 11.4399C62.882 10.9194 61.1077 12.8121 61.0367 13.5218C60.8947 14.4918 60.4452 14.6337 60.4452 14.6337C60.6345 14.2079 60.3033 13.995 60.2087 13.995L59.1677 14.0186C58.6236 14.7284 59.0494 15.4854 59.0494 15.4854C59.9484 15.4617 59.5935 16.2188 59.5935 16.2188C59.4989 16.4317 59.3097 16.4317 59.3097 16.4317C59.357 15.6983 58.6236 15.7456 58.6236 15.7456C59.215 15.9822 59.0967 16.3608 59.0967 16.3608C58.8838 16.2898 58.7655 16.621 58.7655 16.621C57.8665 16.0532 58.0085 14.9886 58.0085 14.9886C58.245 13.1196 58.5526 12.883 58.5526 12.883C58.6709 12.8121 58.7419 12.9067 58.7419 12.9067C59.1914 13.2142 59.6409 12.9303 59.6409 12.9303C59.8301 12.8357 59.9248 12.4572 59.9248 12.4572C60.1377 11.6528 60.5162 11.2033 60.5162 11.2033L58.2924 11.7711C57.417 11.984 57.1804 12.6228 57.1804 12.6228C56.8019 11.8657 57.4407 11.7001 57.4407 11.7001C56.8729 11.5345 56.8019 11.1323 56.8019 11.1323C56.5653 10.5882 56.9675 9.19238 58.3633 8.69556L58.7182 8.60093C59.1677 7.96217 59.7828 7.89119 59.7828 7.89119C59.6882 8.08046 59.5226 8.2224 59.5226 8.2224C59.9484 8.15143 60.3269 7.82021 60.3269 7.82021C60.3033 8.34069 59.8065 8.52995 59.8065 8.52995V8.55361C60.4926 8.52995 64.8456 8.50629 64.8456 8.50629C65.9339 8.34069 65.7919 7.06316 65.7919 7.06316C65.5554 6.09318 64.2542 6.61365 64.2542 6.61365C61.0367 8.2224 60.3743 5.97489 60.3743 5.97489C61.8174 6.75561 62.1013 6.51902 62.1013 6.51902C61.4625 6.32976 61.2969 5.78562 61.2969 5.78562C62.6218 6.23513 62.7401 5.97489 62.7401 5.97489C62.2669 5.97489 62.1723 5.52539 62.1723 5.52539C62.5271 5.66734 63.4735 5.66733 63.4735 5.66733C63.9466 5.64367 64.7747 5.71465 64.7747 5.71465C66.1941 5.95123 66.1941 7.01584 66.1941 7.01584C66.2414 8.83751 64.8929 8.86116 64.8929 8.86116C64.3015 8.90848 60.5635 8.88482 59.8065 8.88482V8.90848C59.8065 8.90848 60.3269 9.05043 60.3979 9.5709C60.3979 9.5709 59.9957 9.28701 59.5699 9.26335C59.5699 9.26335 59.7592 9.38164 59.8538 9.5709C59.8538 9.5709 59.215 9.64188 58.8128 9.02677C58.8128 9.02677 58.7655 9.02677 58.4343 9.14506C57.2514 9.57091 57.2277 10.6119 57.2277 10.6119C57.1095 11.4162 58.1977 11.3689 58.1977 11.3689C58.6709 11.3453 59.6409 11.085 59.6409 11.085C60.114 10.9431 64.9403 9.52359 65.5317 9.31067C66.3834 9.00312 66.9985 8.17508 66.9985 8.17508C67.0931 8.26972 67.2114 9.07409 67.2114 9.07409C67.4243 9.05043 67.519 8.88482 67.519 8.88482C67.6846 9.47627 68.3943 9.73651 68.3943 9.73651C68.6309 9.78383 68.8675 10.0914 68.8675 10.0914L68.9858 9.80748C69.1041 9.94943 69.7428 10.5645 70.6182 11.1087L72.2506 12.1496C72.9603 11.3689 73.5281 11.984 73.4098 12.055L73.2206 12.0077C72.8657 11.9604 72.6291 12.1496 72.6291 12.1496C73.4808 12.0077 73.5991 12.3152 73.5991 12.3152C73.7884 12.7411 73.2206 12.9303 73.2206 12.9303C73.2206 12.3626 72.6764 12.3862 72.6764 12.3862C73.0786 12.5991 73.055 12.954 73.055 12.954C72.8894 13.4508 72.4635 13.0723 72.4635 13.0723C72.2979 13.0013 72.0613 12.7884 72.0613 12.7884C70.7128 12.6938 69.7192 11.913 69.5772 11.8421C69.4353 11.7711 69.1514 12.126 68.9385 12.1023C68.5126 12.055 68.0868 11.2743 68.0868 11.2743Z" fill="#F6F3EF"/>
<path d="M62.1261 16.3832C62.1261 16.5015 62.1498 16.5251 62.2444 16.5488C62.41 16.5724 62.4573 16.4305 62.4573 16.1229C62.4337 15.839 62.3627 15.6734 62.2208 15.6498C62.1025 15.6261 62.1025 15.6734 62.1025 15.7917C62.1025 15.981 62.1025 16.1939 62.1261 16.3832ZM61.7949 16.5488V16.4778H61.8422L61.9132 16.3358C61.9132 16.1466 61.8896 15.9337 61.8896 15.7444L61.8186 15.5788H61.7949V15.5078L62.1025 15.5551H62.1735C62.2917 15.5788 62.41 15.6024 62.5047 15.6734C62.623 15.7681 62.7176 15.9337 62.7176 16.1229C62.7176 16.3122 62.6703 16.4541 62.552 16.5488C62.4573 16.6197 62.3391 16.5961 62.2208 16.5961H62.1735C62.0315 16.5961 61.9132 16.5724 61.7949 16.5488Z" fill="#2F5F9D"/>
<path d="M63.4515 15.7685H63.4041L63.3332 15.9104C63.3332 16.0997 63.3568 16.2889 63.3568 16.4782L63.4515 16.6201H63.4988V16.6911C63.3568 16.6911 63.1912 16.6675 63.0493 16.6675V16.5965H63.0966L63.1676 16.4545C63.1676 16.2653 63.1439 16.076 63.1439 15.8867L63.0493 15.7448H63.002V15.6738C63.1439 15.6738 63.2858 15.6975 63.4278 15.6975L63.4515 15.7685Z" fill="#2F5F9D"/>
<path d="M64.5641 16.0519H64.4932C64.4458 15.8627 64.3512 15.7917 64.2093 15.7917C64.091 15.7917 64.091 15.839 64.1146 15.9336L64.1383 16.1466H64.1856C64.2802 16.1466 64.3276 16.0992 64.3276 15.9573H64.3985C64.4222 16.0992 64.4222 16.2648 64.4222 16.4068H64.3512C64.3276 16.2648 64.2802 16.2175 64.1856 16.2175H64.1383L64.162 16.5014C64.162 16.6197 64.1856 16.6434 64.2802 16.6434C64.4695 16.6434 64.5405 16.5724 64.5641 16.3595H64.6351C64.6351 16.4778 64.6588 16.5961 64.6588 16.7143C64.3985 16.7143 64.1383 16.7143 63.8544 16.7143V16.6434H63.8781L63.949 16.5014C63.9254 16.3122 63.9254 16.1229 63.9017 15.9336L63.8071 15.7917H63.7598V15.7207C64.02 15.7444 64.2802 15.7444 64.5405 15.7444C64.5405 15.839 64.5641 15.9336 64.5641 16.0519Z" fill="#2F5F9D"/>
<path d="M65.3675 15.7685H65.3202L65.2492 15.8631C65.2728 16.005 65.2728 16.1706 65.2965 16.3126C65.3202 16.4309 65.3202 16.5019 65.3438 16.5255L65.5331 16.6201C65.6987 16.6201 65.746 16.5019 65.7223 16.3126C65.7223 16.1943 65.6987 16.076 65.6987 15.9341C65.675 15.7921 65.6514 15.7685 65.5567 15.7685V15.6975C65.675 15.6975 65.7933 15.6738 65.8879 15.6738V15.7448C65.7933 15.7448 65.7697 15.7921 65.7697 15.9341C65.7697 16.0524 65.7933 16.1706 65.7933 16.2889C65.817 16.4309 65.817 16.5255 65.746 16.5965C65.6987 16.6675 65.6041 16.7148 65.4858 16.7148C65.3438 16.7148 65.2492 16.6911 65.1782 16.6201C65.1072 16.5492 65.0836 16.4309 65.0836 16.2889C65.0836 16.147 65.0599 16.005 65.0599 15.8631L64.9653 15.7685H64.918V15.6975C65.0599 15.6975 65.2019 15.6738 65.3675 15.6738V15.7685Z" fill="#2F5F9D"/>
<path d="M67.5427 15.8164L67.4717 15.8401C67.4244 15.6745 67.3297 15.6035 67.1641 15.6272C67.0458 15.6508 67.0458 15.6745 67.0695 15.7928L67.0932 16.0057H67.1405C67.2351 15.982 67.2824 15.9347 67.2588 15.8164H67.3297C67.3534 15.9584 67.3534 16.1003 67.3771 16.2423H67.3061C67.2824 16.124 67.2351 16.053 67.1405 16.0767H67.0932L67.1168 16.3606C67.1405 16.4789 67.1405 16.5025 67.2351 16.5025C67.4007 16.4789 67.4717 16.3842 67.4953 16.1713H67.5663C67.59 16.2896 67.59 16.4079 67.59 16.5262C67.3297 16.5735 67.0695 16.5972 66.8093 16.6445V16.5735H66.8566L66.9039 16.4315C66.8802 16.2423 66.8566 16.053 66.8566 15.8874L66.7619 15.7691H66.7383V15.6982C66.9985 15.6745 67.2588 15.6272 67.519 15.6035C67.519 15.6035 67.519 15.6982 67.5427 15.8164Z" fill="#2F5F9D"/>
<path d="M68.7738 15.6502H68.7265C68.6318 15.461 68.5609 15.3663 68.4426 15.39L68.4189 15.4373C68.4426 15.6502 68.4662 15.8868 68.5135 16.0997L68.6082 16.1707H68.6555L68.6792 16.2417C68.5136 16.2653 68.3479 16.3127 68.206 16.3363V16.2653L68.2533 16.2417L68.3243 16.1234C68.3006 15.9105 68.277 15.6739 68.2296 15.461L68.206 15.4137C68.0877 15.4373 68.0404 15.5556 67.9931 15.7685L67.9458 15.7922C67.9221 15.6739 67.9221 15.5319 67.8984 15.4137C68.1823 15.3663 68.4662 15.319 68.7501 15.248C68.7265 15.39 68.7501 15.5083 68.7738 15.6502Z" fill="#2F5F9D"/>
<path d="M81.3386 16.1716V16.2426L81.0547 16.1716V16.1006C81.1493 16.1243 81.173 16.077 81.173 15.9587C81.173 15.7694 81.173 15.6038 81.173 15.4145L81.102 15.2489L81.0783 15.2253V15.1543C81.1966 15.178 81.2913 15.2016 81.4096 15.2489C81.4805 15.4855 81.5278 15.6984 81.5988 15.935C81.6698 15.7458 81.7171 15.5328 81.7644 15.3199C81.8827 15.3436 81.9773 15.3672 82.0956 15.3909V15.4619H82.072L82.001 15.5801C82.001 15.7694 82.001 15.9587 82.001 16.1479L82.072 16.3135H82.0956V16.3845C81.9537 16.3609 81.8354 16.3372 81.6935 16.3135V16.2426H81.7171L81.7881 16.1243C81.7881 15.8877 81.7881 15.6511 81.7881 15.4145C81.7171 15.6984 81.6225 16.006 81.5515 16.2899L81.5042 16.2662C81.4096 15.935 81.3386 15.6038 81.2439 15.2726C81.2439 15.4855 81.2439 15.7221 81.2439 15.9587C81.2203 16.1006 81.244 16.1479 81.3386 16.1716Z" fill="#2F5F9D"/>
<path d="M82.9691 16.0522C82.9691 15.7447 82.8744 15.5791 82.7325 15.5554C82.5905 15.5318 82.5196 15.6737 82.5196 15.9813C82.5196 16.2888 82.6142 16.4544 82.7561 16.4781C82.8981 16.5017 82.9691 16.3598 82.9691 16.0522ZM83.04 15.6737C83.1347 15.792 83.182 15.934 83.182 16.0759C83.182 16.2178 83.1347 16.3598 83.0637 16.4544C82.9927 16.5254 82.8744 16.5727 82.7561 16.5491C82.6379 16.5254 82.5196 16.4544 82.4486 16.3598C82.354 16.2415 82.3066 16.0996 82.3066 15.9576C82.3066 15.792 82.354 15.6737 82.4249 15.6027C82.4959 15.5318 82.6142 15.4844 82.7325 15.5081C82.8508 15.5081 82.9454 15.5791 83.04 15.6737Z" fill="#2F5F9D"/>
<path d="M83.9625 15.745V15.6741L84.2464 15.6977V15.7687C84.1518 15.7687 84.1518 15.816 84.1518 15.9343C84.1755 16.1945 84.1755 16.4311 84.1991 16.6913H84.1045C83.9152 16.4311 83.7496 16.1709 83.5604 15.9106C83.5604 16.0762 83.584 16.2418 83.584 16.4074C83.584 16.5494 83.6077 16.5967 83.7023 16.5967V16.6677L83.3948 16.644V16.5731C83.4894 16.5731 83.513 16.5257 83.513 16.4074C83.513 16.2182 83.4894 16.0053 83.4894 15.816L83.3711 15.7214V15.6504L83.6313 15.6741C83.7969 15.9106 83.9625 16.1472 84.1045 16.3838C84.1045 16.2418 84.0808 16.0999 84.0808 15.9579C84.0808 15.7923 84.0572 15.745 83.9625 15.745Z" fill="#2F5F9D"/>
<path d="M85.2179 16.5268C85.2179 16.6451 85.2416 16.6688 85.3362 16.6688C85.4782 16.6688 85.5491 16.5268 85.5255 16.2429C85.5018 15.959 85.4308 15.8171 85.2889 15.7934C85.1943 15.7934 85.1943 15.8407 85.1943 15.9354C85.1943 16.1246 85.1943 16.3375 85.2179 16.5268ZM84.9104 16.7397V16.6688H84.934L85.005 16.5268C85.005 16.3375 84.9813 16.1483 84.9813 15.959L84.9104 15.8171H84.8867V15.7461H85.1706H85.2416C85.3599 15.7461 85.4545 15.7461 85.5491 15.8171C85.6674 15.9117 85.7384 16.0536 85.7621 16.2429C85.7857 16.4322 85.7147 16.5978 85.6201 16.6688C85.5255 16.7397 85.4309 16.7397 85.3126 16.7397H85.2652C85.1233 16.7397 85.0287 16.7397 84.9104 16.7397Z" fill="#2F5F9D"/>
<path d="M86.2336 16.1483H86.2809C86.4228 16.1483 86.4701 16.1009 86.4465 15.959C86.4465 15.8407 86.3755 15.7697 86.2809 15.7934C86.1862 15.7934 86.1862 15.8407 86.1862 15.959L86.2336 16.1483ZM86.3518 16.6451H86.3755V16.7161C86.2336 16.7161 86.0916 16.7397 85.9497 16.7397V16.6687H85.9733L86.0443 16.5268C86.0206 16.3375 86.0206 16.1483 85.997 15.959L85.926 15.8171H85.9023V15.7461C86.0206 15.7461 86.1389 15.7461 86.2572 15.7224C86.5175 15.6988 86.6594 15.7461 86.6831 15.9353C86.7067 16.0773 86.6121 16.1483 86.4228 16.1956C86.5411 16.2192 86.6121 16.2666 86.6594 16.3848L86.7067 16.5268L86.754 16.5741C86.8013 16.5741 86.8013 16.5031 86.8013 16.3848H86.8487V16.4322C86.8723 16.6214 86.8013 16.7397 86.6831 16.7397L86.5411 16.6687C86.4938 16.5978 86.4701 16.5031 86.4701 16.3612C86.4465 16.2429 86.3992 16.2192 86.2809 16.2192L86.3045 16.5031L86.3518 16.6451Z" fill="#2F5F9D"/>
<path d="M87.6295 16.1005C87.6059 15.793 87.5112 15.6511 87.3693 15.6747C87.2273 15.6984 87.18 15.8403 87.2037 16.1479C87.2273 16.4554 87.322 16.5974 87.4639 16.5974C87.6059 16.5737 87.6532 16.4081 87.6295 16.1005ZM87.6768 15.6984C87.7715 15.793 87.8424 15.9113 87.8424 16.0769C87.8661 16.2425 87.8188 16.3844 87.7478 16.4791C87.6768 16.5737 87.5822 16.6447 87.4639 16.6447C87.3456 16.6683 87.2273 16.621 87.1327 16.5264C87.0381 16.4318 86.9907 16.3135 86.9671 16.1479C86.9434 15.9823 86.9907 15.864 87.0617 15.7457C87.1327 15.651 87.2273 15.5801 87.3456 15.5801C87.4876 15.5801 87.5822 15.6274 87.6768 15.6984Z" fill="#2F5F9D"/>
<path d="M88.3866 15.5319H88.3629L88.3156 15.6975C88.3393 15.8868 88.3629 16.076 88.3866 16.2653L88.4812 16.4073H88.5049V16.4782C88.3629 16.5019 88.2446 16.5255 88.1027 16.5492V16.4782H88.1263L88.1736 16.3126C88.15 16.1234 88.1263 15.9341 88.1027 15.7448L88.0317 15.6029H87.9844V15.5319C88.1263 15.5083 88.2446 15.4846 88.3866 15.4609V15.5319Z" fill="#2F5F9D"/>
<path d="M89.3806 15.6732L89.3332 15.6969C89.2623 15.484 89.1913 15.3893 89.073 15.413L89.0493 15.484C89.073 15.7205 89.1203 15.9571 89.144 16.1937L89.2386 16.2883H89.2859V16.3593C89.144 16.383 89.002 16.4303 88.8601 16.4539V16.383L88.9074 16.3593L88.9784 16.241C88.9547 16.0044 88.9074 15.7679 88.8837 15.5313L88.8601 15.484C88.7418 15.5076 88.6945 15.6259 88.6708 15.8625L88.6235 15.8862C88.5998 15.7442 88.5998 15.6259 88.5762 15.484C88.8364 15.4366 89.073 15.3893 89.3332 15.3184C89.3332 15.413 89.3569 15.5313 89.3806 15.6732Z" fill="#2F5F9D"/>
<path d="M72.3696 6.70703C72.3696 6.70703 70.6425 9.07283 70.4533 9.26209C70.335 9.38038 69.6253 9.02551 69.6253 9.02551C69.6253 9.23844 69.507 9.4277 69.507 9.4277C69.436 9.59331 69.3887 10.0192 69.3887 10.0192L69.9565 10.4213C70.1457 10.5396 70.5479 10.5633 70.6899 10.4687C70.8318 10.374 71.2103 9.5933 71.2103 9.5933C71.5652 8.03188 72.4406 7.46408 72.4406 7.46408L72.4879 7.27482C72.1803 7.13287 72.2749 6.84898 72.3696 6.70703Z" fill="#F6F3EF"/>
<path d="M77.4813 6.7311C77.4813 6.7311 75.2101 6.18697 72.7497 6.68379C72.7497 6.68379 72.5368 6.70744 72.5604 6.89671C72.5604 6.99134 72.6314 7.08597 72.7497 7.08597L72.8443 7.06231C73.2228 6.99134 75.4467 6.56549 77.3867 7.08597L77.4576 7.10963C77.5759 7.10963 77.6469 7.015 77.6469 6.92037C77.6469 6.77842 77.4813 6.7311 77.4813 6.7311Z" fill="#F6F3EF"/>
<path d="M80.4126 7.77268C80.247 7.77268 80.1287 7.65439 80.1287 7.48879C80.1287 7.32318 80.2707 7.20489 80.4126 7.20489C80.5782 7.20489 80.6965 7.32318 80.6965 7.48879C80.6965 7.65439 80.5782 7.77268 80.4126 7.77268ZM81.0514 7.55976L80.9094 7.46513C80.8858 7.22855 80.6729 7.01562 80.4363 7.01562C80.1524 7.01562 79.9395 7.22855 79.9395 7.51244C79.9395 7.77268 80.1524 8.00926 80.4363 8.00926C80.6492 8.00926 80.8148 7.86731 80.8858 7.70171L81.0277 7.67805L81.0514 7.55976Z" fill="#2F5F9D"/>
<path d="M89.6625 11.3448C90.3486 11.5104 91.5552 11.747 91.5552 11.747C92.7381 11.9836 92.7854 12.6933 92.7854 12.6933C93.1166 11.9599 92.5252 11.747 92.5252 11.747C93.0929 11.6051 93.1876 11.1792 93.1876 11.1792C93.4478 10.6351 93.6371 9.23926 92.0757 8.74244L91.6735 8.64781C91.1766 8.00904 90.4906 7.93807 90.4906 7.93807C90.5852 8.12733 90.7745 8.26928 90.7745 8.26928C90.3013 8.1983 89.8755 7.8671 89.8755 7.8671C89.8991 8.38757 90.4669 8.57684 90.4669 8.57684V8.6005C89.6862 8.57684 86.8472 8.55318 86.8472 8.55318C85.6407 8.38757 85.7826 7.11004 85.7826 7.11004C86.0429 6.14006 87.5097 6.66054 87.5097 6.66054C91.1057 8.26928 91.8627 6.02177 91.8627 6.02177C90.254 6.80248 89.9228 6.5659 89.9228 6.5659C90.6562 6.37664 90.8454 5.83251 90.8454 5.83251C89.355 6.28201 89.2367 6.02177 89.2367 6.02177C89.7808 6.02177 89.8518 5.57227 89.8518 5.57227C89.4496 5.71421 88.385 5.73787 88.385 5.73787C87.8409 5.71422 86.9182 5.78519 86.9182 5.78519C85.3095 6.02177 85.3331 7.08638 85.3331 7.08638C85.2858 8.90804 86.7999 8.93171 86.7999 8.93171C87.4623 8.97902 89.6152 8.95537 90.4669 8.95537V8.97902C90.4669 8.97902 89.8755 9.12097 89.7808 9.64145C89.7808 9.64145 90.254 9.35755 90.7271 9.33389C90.7271 9.33389 90.5142 9.45218 90.3959 9.64145C90.3959 9.64145 91.1057 9.71242 91.5788 9.09731C91.5788 9.09731 91.6498 9.09731 92.0047 9.2156C93.3532 9.64144 92.9037 10.777 92.9037 10.777C92.6671 11.6287 91.6262 11.4395 91.6262 11.4395C91.082 11.4395 86.8945 10.3985 86.8945 10.3985L86.9892 10.5878C87.2258 10.6351 87.2967 10.7297 87.3204 10.8243C87.344 10.9426 87.2967 11.0609 87.2967 11.0609C87.2494 11.2029 87.1784 11.2502 87.1784 11.2502L87.2258 11.4631C87.8882 11.6524 87.9828 12.5041 87.9828 12.5041C88.0774 13.1192 88.4087 13.3558 88.4087 13.3558C89.284 14.1365 90.2067 13.9945 90.2067 13.9945C90.4906 13.9709 90.5379 14.0655 90.5379 14.0655C90.8454 14.2311 90.7981 15.0828 90.7981 15.0828C90.8218 15.414 90.6562 15.7689 90.6562 15.7689C90.7508 16.0528 91.2713 15.9108 91.2713 15.9108L91.3659 15.7689C91.4132 15.6033 91.2949 15.4613 91.2949 15.4613V15.3903C91.6261 15.5559 91.6025 15.9581 91.6025 15.9581C92.123 15.3194 91.3896 14.8699 91.3896 14.8699L91.224 14.8225C91.1293 14.4913 91.1293 13.8289 91.1293 13.6396C91.1293 13.4504 90.9874 13.2611 90.8454 13.3321C90.4432 13.545 89.6152 13.2848 89.6152 13.2848C89.8281 12.4094 89.5206 11.3212 89.5206 11.3212L89.6625 11.3448Z" fill="#F6F3EF"/>
<path d="M87.4168 10.9193C87.4168 11.1086 87.2512 11.2742 87.0619 11.2742C86.8726 11.2742 86.707 11.1086 86.707 10.9193C86.707 10.7301 86.8726 10.5645 87.0619 10.5645C87.2512 10.5645 87.4168 10.7301 87.4168 10.9193Z" fill="#2F5F9D"/>
<path d="M87.4634 14.727C87.3214 14.727 87.2268 14.6087 87.2268 14.4431C87.2268 14.2775 87.3214 14.1592 87.4634 14.1592L87.6763 14.3248L87.7 14.4431C87.7 14.6087 87.6053 14.727 87.4634 14.727ZM87.8183 14.1119C87.7473 14.0173 87.6527 13.9463 87.5344 13.9227C87.5344 13.828 87.5344 13.7097 87.5107 13.5678C87.6527 13.5205 87.7473 13.3785 87.7473 13.2129C87.7473 13.0237 87.6053 12.9054 87.4634 12.8581C87.4397 12.7398 87.4397 12.5978 87.4161 12.4795C87.5344 12.4322 87.629 12.3139 87.629 12.172C87.629 12.0064 87.4871 11.8644 87.3451 11.8408L87.2978 11.5569L87.1558 11.5332C87.1795 11.6278 87.2032 11.7461 87.2268 11.8644C87.0849 11.9117 86.9902 12.03 86.9902 12.1956C86.9902 12.3849 87.1322 12.5268 87.3214 12.5268C87.3451 12.6451 87.3451 12.7634 87.3451 12.8817C87.1795 12.9054 87.0375 13.0473 87.0375 13.2366C87.0375 13.4495 87.2032 13.5914 87.3924 13.6151C87.3924 13.7571 87.4161 13.8753 87.4161 13.9463C87.2032 13.9936 87.0139 14.2066 87.0139 14.4668C87.0139 14.7507 87.2268 14.9873 87.4871 14.9873C87.7473 14.9873 87.9602 14.7507 87.9602 14.4668C87.9366 14.3248 87.8892 14.2066 87.8183 14.1119Z" fill="#2F5F9D"/>
<path d="M88.3869 14.7988L88.3633 15.0591C88.3633 15.0591 88.6708 15.0118 88.9074 14.9408C88.8838 14.9408 88.4106 14.9408 88.3869 14.7988Z" fill="#F6F3EF"/>
<path d="M62.1497 14.7754L62.0077 15.0593C62.0077 15.0593 61.3453 15.1066 61.1797 14.8464C61.1797 14.8464 61.5109 14.8227 62.1497 14.7754Z" fill="#F6F3EF"/>
<path d="M80.4605 13.6391L80.1293 13.9703L80.0347 13.8283L80.3185 13.5444L80.1766 13.4025L79.94 13.6864L79.8217 13.5444L80.0347 13.2605L80.011 13.2369L79.9164 13.1186L79.7034 13.4261L79.5851 13.3315L79.8217 13.0003L79.7034 12.8583L79.4905 13.2369L79.3722 13.1659L79.5378 12.7164C79.4195 12.5508 79.4432 12.5508 79.4432 12.5508C79.4432 12.5508 79.3249 13.1186 79.041 13.5917C79.041 13.5917 79.5851 13.7337 79.8454 14.3251L80.6498 13.6627L80.4605 13.6391Z" fill="#F6F3EF"/>
<path d="M75.5151 2.92188H74.9473V3.48967H75.5151V2.92188Z" fill="#F6F3EF"/>
<path d="M72.7 3.56114C72.5344 3.51382 72.3214 3.63211 72.2031 3.84504C72.0849 4.05796 72.0849 4.29454 72.2268 4.41283C72.3214 4.15259 72.487 3.89235 72.7 3.67943V3.56114Z" fill="#F6F3EF"/>
<path d="M72.7958 3.58449C72.9378 3.44254 73.1034 3.32425 73.2926 3.20596L72.9851 3.11133C72.8195 3.13499 72.7012 3.32425 72.7012 3.53717L72.7958 3.58449Z" fill="#F6F3EF"/>
<path d="M77.6928 3.58433C77.6691 3.30043 77.5035 3.08751 77.3143 3.11117L77.125 3.2058C77.3379 3.32409 77.5272 3.46604 77.6928 3.63165V3.58433Z" fill="#F6F3EF"/>
<path d="M78.3792 3.89247C78.2373 3.63223 77.9534 3.49029 77.7641 3.60858L77.7168 3.65589C78.0007 3.93978 78.1426 4.1054 78.2373 4.43661C78.2609 4.43661 78.5448 4.15271 78.3792 3.89247Z" fill="#F6F3EF"/>
<path d="M74.7834 2.94727V3.4914C74.7834 3.4914 73.5769 3.37311 72.5123 4.17748C72.4886 4.17748 73.222 3.16019 74.7834 2.94727Z" fill="#F6F3EF"/>
<path d="M75.6816 2.94727V3.4914C75.6816 3.4914 76.8645 3.37311 77.9528 4.17748C77.9528 4.17748 77.2194 3.16019 75.6816 2.94727Z" fill="#F6F3EF"/>
<path d="M79.0869 15.0351L79.1579 14.7985C79.2999 14.7749 79.3945 14.7749 79.4418 14.7985L79.3945 15.0115L79.0869 15.0351ZM78.3535 14.2781C78.4009 14.1361 78.4245 13.9942 78.4245 13.8995L78.6611 13.9705C78.6611 14.0415 78.6611 14.1834 78.6138 14.3017L78.3535 14.2781ZM78.7557 14.2544C78.7794 14.1361 78.7794 13.9942 78.7794 13.9469C78.803 13.9232 78.945 13.8995 79.0869 13.9232C79.1106 13.9942 79.1343 14.1598 79.1343 14.2781C79.0396 14.2544 78.8977 14.2071 78.7557 14.2544ZM78.6374 14.7512C78.7084 14.5856 78.7084 14.4437 78.7084 14.3727C78.8504 14.3017 79.0396 14.349 79.1106 14.3727C79.1106 14.42 79.1106 14.5383 79.0396 14.7039C78.9687 14.7039 78.7794 14.7039 78.6374 14.7512ZM79.4891 14.3017C79.4891 14.42 79.4891 14.5856 79.4418 14.7039C79.3945 14.6803 79.2999 14.6803 79.1816 14.7039C79.2289 14.5383 79.2289 14.42 79.2289 14.3727L79.4891 14.3017ZM79.5128 14.9878L79.5601 14.7749L79.7967 14.8222L79.844 14.7276C79.8203 14.7039 79.6784 14.6566 79.5601 14.6566C79.5838 14.5383 79.5838 14.3727 79.6074 14.2781V14.2544L79.6311 14.1834H79.6074V14.1598H79.4891V14.1834L79.2525 14.2308C79.2525 14.0888 79.2052 13.9232 79.2052 13.8995H79.1816L79.2052 13.8286C79.1343 13.8286 78.9687 13.8049 78.8267 13.8286V13.7812H78.7084L78.6848 13.8759L78.4482 13.8049H78.3772L78.2353 13.8286L78.3062 13.9232H78.3299C78.3299 14.0178 78.3062 14.2071 78.2116 14.349L78.1406 14.3964L78.1643 14.42L78.1406 14.4673L78.2353 14.5383L78.3062 14.4437H78.5901C78.5901 14.5146 78.5665 14.7039 78.4718 14.8695V14.8932L78.4009 14.9642L78.4245 14.9878L78.4009 15.0115L78.4955 15.0824L78.5665 14.9642C78.7084 14.8695 78.9213 14.8695 79.016 14.8695C78.9923 14.9405 78.9687 15.0824 78.9213 15.2007L78.8504 15.2954H78.874L78.8504 15.319L78.945 15.39L79.0396 15.248C79.1343 15.1534 79.2762 15.1534 79.3472 15.1534C79.3472 15.1534 79.3472 15.3427 79.2525 15.461L79.3472 15.5319C79.4655 15.4137 79.4655 15.2244 79.4655 15.1771C79.6074 15.1298 79.7967 15.2007 79.7967 15.2007L79.844 15.1061C79.8203 15.0588 79.6547 14.9878 79.5128 14.9878Z" fill="#2F5F9D"/>
<path d="M74.877 5.76046L75.2082 6.04435L75.5394 5.76046L75.2082 5.47656L74.877 5.76046Z" fill="#2F5F9D"/>
<path d="M74.0988 5.88001C74.0988 5.95098 73.9805 6.02195 73.8386 6.04561C73.6966 6.06927 73.5547 5.99829 73.5547 5.92732C73.5547 5.85635 73.673 5.78538 73.8149 5.76172C73.9805 5.76172 74.0988 5.80903 74.0988 5.88001Z" fill="#2F5F9D"/>
<path d="M76.7707 5.95077C76.7707 6.02174 76.6288 6.06906 76.4868 6.06906C76.3449 6.0454 76.2266 5.97442 76.2266 5.90345C76.2266 5.83247 76.3685 5.78516 76.5105 5.78516C76.6524 5.78516 76.7707 5.87979 76.7707 5.95077Z" fill="#2F5F9D"/>
<path d="M82.3297 4.95709C81.9039 4.8388 81.8329 4.55491 81.8093 4.55491L81.7619 4.53125L81.7383 4.57857C81.7383 4.57857 81.7619 4.6732 81.8566 4.79149C81.8329 4.83881 81.8093 4.88612 81.8093 5.00441C81.8093 5.1227 81.9039 5.19367 81.9985 5.19367L82.1878 5.00441L82.3061 5.05173L82.3534 5.02807L82.3297 4.95709Z" fill="#2F5F9D"/>
<path d="M81.8809 4.93386L81.9279 4.98091L81.9985 4.93386L81.9279 4.86328L81.8809 4.93386Z" fill="#F6F3EF"/>
<path d="M71.6836 12.9062L71.7309 13.1192C71.7782 13.2375 71.8729 13.3084 71.9912 13.3558C72.1094 13.4031 72.2277 13.3794 72.346 13.3321L72.488 13.2375" fill="#F6F3EF"/>
<path d="M71.8027 11.6767L72.063 11.8186L72.2049 11.6057V11.582L71.8027 11.6767Z" fill="#F6F3EF"/>
<path d="M72.111 11.0842L72.0874 11.1552L72.0164 11.2025L71.4249 11.2261L71.354 11.2025L71.3303 11.1315H71.3066L71.3303 11.3444L71.4722 11.4391L72.04 11.3918L72.1347 11.4154V11.4864H72.1583L72.1347 11.0605L72.111 11.0842Z" fill="#F6F3EF"/>
<path d="M71.4948 9.47427L71.6368 9.35598C71.7078 9.33232 71.826 9.33232 71.9443 9.37963L72.1573 9.47427L72.2756 9.71085C72.2519 9.80548 72.1809 9.8528 72.0626 9.8528L71.826 9.82914L71.6131 9.7345L71.4948 9.47427ZM71.7787 9.99474C71.897 10.0184 72.0153 10.0184 72.1099 9.97109C72.2282 9.92377 72.2992 9.82913 72.3229 9.68719C72.3465 9.5689 72.3465 9.45061 72.2992 9.35598C72.2282 9.26134 72.1336 9.19037 72.0153 9.14305C71.8734 9.1194 71.7787 9.1194 71.6604 9.19037C71.5658 9.26135 71.4948 9.33232 71.4712 9.45061C71.4475 9.5689 71.4475 9.68719 71.5185 9.78182C71.5422 9.90011 71.6368 9.97109 71.7787 9.99474Z" fill="#F6F3EF"/>
<path d="M71.6602 8.8846L71.6838 8.90826L71.7311 8.83729H71.8258L72.3699 9.07387L72.4409 9.14484L72.4172 9.21581L72.4409 9.23947L72.6301 8.83729H72.5828L72.5355 8.8846H72.4645L71.8967 8.64802L71.8494 8.57705L71.8731 8.50607L71.8494 8.48242L71.6602 8.8846Z" fill="#F6F3EF"/>
<path d="M71.9199 8.36316L72.1328 8.48145L72.1565 8.45779L72.0619 8.26852L72.1092 8.15023L72.6533 8.5051L72.7243 8.57608L72.677 8.67071H72.7006L72.7243 8.64705V8.31584L72.2275 7.98463L72.3221 7.89L72.535 7.91365V7.89L72.3221 7.74805L71.9199 8.36316Z" fill="#F6F3EF"/>
<path d="M77.8115 7.58225L77.8351 7.65323L77.7878 7.7242L77.5039 7.93712V8.19736L77.9061 7.88981L78.0007 7.86615L78.0717 7.93712L78.0954 7.91346L77.8351 7.55859L77.8115 7.58225Z" fill="#F6F3EF"/>
<path d="M77.5039 8.57705L77.5749 8.64802L77.8351 8.52973L77.8115 8.50607H77.5749L77.5039 8.48242V8.57705Z" fill="#F6F3EF"/>
<path d="M78.2852 8.24609V8.29341L78.2616 8.36438L77.9777 8.74291L77.8121 8.81388L77.7175 8.83754L77.6701 8.76657L77.6465 8.79023L77.8121 9.16875L77.8594 9.1451L77.8357 9.05046L77.9067 9.00315L78.1196 8.90852L78.5691 8.95583L78.6165 8.97949L78.6401 9.00315H78.6638L78.5455 8.74291L78.5218 8.76657L78.5455 8.83754L78.5218 8.88486H78.4509H78.4035L78.1433 8.8612L78.3326 8.5773L78.3562 8.55364H78.3799H78.4035L78.4509 8.62462L78.4745 8.60096L78.3089 8.24609H78.2852Z" fill="#F6F3EF"/>
<path d="M78.499 9.8779L78.428 9.73595L78.7592 9.66498H78.8065L78.8302 9.71229L78.8065 9.83058L78.6646 9.8779H78.499ZM78.7592 9.35742V9.45205L78.6883 9.49937L78.1441 9.61766H78.0495L78.0022 9.54669H77.9785L78.0731 9.94887H78.0968V9.85424L78.1914 9.80692L78.428 9.75961L78.4753 9.92521L78.5226 10.0199L78.6409 10.1145H78.7592L78.9248 9.99619V9.75961L78.8302 9.38108L78.7592 9.35742Z" fill="#F6F3EF"/>
<path d="M78.8271 10.3273L78.212 10.3746L78.1411 10.3509L78.1174 10.28H78.0938L78.1174 10.5875C78.3067 10.4692 78.5432 10.3982 78.8745 10.4219H78.9691L78.9454 10.209H78.9218L78.8981 10.28L78.8271 10.3273Z" fill="#F6F3EF"/>
<path d="M78.8273 11.936L78.7327 11.9597L78.3778 11.9124L78.8273 11.6758C78.6854 11.6994 78.5671 11.6521 78.2832 11.9597L78.7327 12.0307L78.8037 12.0543L78.8273 12.1253H78.851L78.8983 11.865H78.8747L78.8273 11.936Z" fill="#F6F3EF"/>
<path d="M78.4983 12.1719L78.3327 12.2902L78.2854 12.3611L78.1908 12.4321H78.0961H78.0725L78.0488 12.5504L78.1435 12.5977H78.3091L78.4037 12.5267L78.4747 12.4321L78.593 12.3375H78.6876L78.7586 12.3848V12.4794L78.6639 12.5977L78.4747 12.6214V12.6687L78.7349 12.7397V12.716L78.7113 12.6924V12.645L78.7586 12.5977L78.8059 12.4794L78.7822 12.2902L78.6403 12.1719H78.4983Z" fill="#F6F3EF"/>
<path d="M78.1895 12.1258L78.3317 12.1021L78.3555 12.0784L78.2369 12.0547L78.1895 12.1258Z" fill="#F6F3EF"/>
<path d="M78.1901 13.0727L78.403 13.1674L78.4267 13.2147L78.403 13.262L78.2611 13.4276H78.1428L78.1191 13.4749L78.2847 13.5696L78.616 12.9544L78.5923 12.9308L78.545 12.9781H78.474L78.1428 12.8125L78.1901 13.0727Z" fill="#F6F3EF"/>
<path d="M72.3234 13.1189L72.2525 13.1426L72.0159 13.2136C71.8976 13.2372 71.803 13.1899 71.7793 13.1189L71.803 12.9297" fill="#2F5F9D"/>
<path d="M81.2203 7.3457C81.2203 7.3457 82.8054 7.44034 84.3431 8.43397L83.941 9.00176C83.941 9.00176 82.072 8.03179 81.0547 8.05544L81.2203 7.3457Z" fill="#F6F3EF"/>
<path d="M81.7171 7.84274C81.4096 8.17396 81.173 7.86641 81.173 7.77177L81.2203 7.58251L81.3149 7.7008L81.4332 7.4169L81.2676 7.48787L81.3386 7.34593L81.1966 7.32227L81.0547 8.05567C81.8354 8.10298 82.8764 8.50517 83.9173 9.0493L84.3668 8.4342L84.2722 8.36322L84.1539 8.52883L83.9883 8.36322L83.87 8.5998L84.0829 8.62346L83.9646 8.71809C83.6807 8.93102 83.2785 8.69443 83.3022 8.4342C83.3022 8.4342 83.3495 8.24493 83.5624 8.4342C83.5624 8.4342 83.7754 8.24493 83.4205 8.24493C83.4205 8.24493 83.6098 8.1503 83.4678 8.00835C83.2549 8.03201 83.3022 8.19761 83.3022 8.19761C83.1366 8.05567 83.0656 8.19761 83.042 8.26859C83.2785 8.24493 83.2312 8.36322 83.1839 8.41054C82.971 8.5998 82.5215 8.41054 82.5215 8.12664V8.10298C82.5451 8.03201 82.5925 7.93738 82.7817 8.10298C82.829 8.05567 82.8764 7.93738 82.6161 7.89006C82.6161 7.89006 82.8054 7.81909 82.6398 7.65348C82.4269 7.67714 82.4978 7.84274 82.4978 7.84274C82.2849 7.7008 82.2376 7.84274 82.2376 7.91372C82.4742 7.89006 82.4505 8.00835 82.4268 8.05567L82.4032 8.07932C82.1666 8.26859 81.7881 8.17396 81.8117 7.89006C81.8117 7.89006 81.8591 7.7008 82.072 7.89006C82.072 7.89006 82.2849 7.7008 81.93 7.7008C81.93 7.7008 82.1193 7.60616 81.9773 7.46422C81.7644 7.48787 81.8117 7.65348 81.8117 7.65348C81.6461 7.51154 81.5752 7.65348 81.5515 7.72445C81.8117 7.67714 81.7644 7.79543 81.7171 7.84274Z" fill="#2F5F9D"/>
<path d="M72.8672 10.8945V11.6043C73.6242 11.5333 73.5533 12.1011 73.5533 12.1011C73.8608 12.2194 73.6716 12.7635 73.6716 12.7635C73.7898 13.0711 73.6479 13.4023 73.6479 13.4023C73.9791 14.2067 74.8781 14.5852 74.9727 14.6562V10.9182H72.8672V10.8945Z" fill="#F6F3EF"/>
<path d="M74.9962 7.32392C73.8843 7.30026 73.1509 7.53684 72.8906 7.63148V10.5414H74.9725V7.32392H74.9962Z" fill="#F6F3EF"/>
<path d="M75.3281 10.5398H77.2444V7.60616C76.4401 7.4169 75.7303 7.34592 75.3281 7.32227V10.5398Z" fill="#F6F3EF"/>
<path d="M75.3281 14.6796C76.2981 14.4667 76.653 13.6623 76.653 13.6623C76.7003 13.3074 77.2681 11.746 77.2681 11.746V10.918H75.3518V14.6796H75.3281Z" fill="#F6F3EF"/>
<path d="M68.2534 6.47108C68.3717 6.42377 68.4664 6.37645 68.49 6.32913C68.5137 6.30547 68.49 6.13987 68.4427 5.97426C68.3954 5.80866 68.5846 5.80865 68.5846 5.80865C69.0815 5.87963 68.9868 5.38281 68.9868 5.38281C68.7739 5.57208 68.6793 5.5011 68.5846 5.52476C68.2061 5.61939 68.2771 5.87963 68.3244 5.97426L68.419 6.30547L68.2534 6.37644L68.0642 6.4001L67.9459 6.09255C67.9459 5.99792 67.8513 5.73768 67.4727 5.87963C67.3781 5.92695 67.3308 6.02158 67.0469 5.99792C67.0469 5.99792 67.2598 6.44742 67.6147 6.11621C67.6147 6.11621 67.7566 5.99792 67.8276 6.16352C67.8986 6.32913 67.9695 6.47108 67.9932 6.49473C68.0169 6.51839 68.1351 6.5184 68.2534 6.47108Z" fill="#2F5F9D"/>
<path d="M68.6087 7.65408C69.0818 6.94434 68.8216 6.21094 68.8216 6.21094C68.7506 7.25189 68.2538 6.47118 68.2538 6.47118C68.2538 6.47118 68.2774 7.39384 67.6387 6.58947C67.6387 6.58947 67.8043 7.32287 68.6087 7.65408Z" fill="#2F5F9D"/>
<path d="M68.1348 7.08445C68.324 7.32103 68.5606 7.41567 68.5606 7.41567C68.7026 7.15543 68.7026 6.89519 68.7026 6.89519C68.537 7.03714 68.3713 6.82422 68.3713 6.82422C68.324 7.10811 68.1348 7.08445 68.1348 7.08445Z" fill="#F6F3EF"/>
<path d="M82.8993 11.722C83.2305 11.4618 83.3725 10.9649 83.3725 10.3971L83.3252 10.3262L83.2778 10.4208C83.2542 10.9176 83.1122 11.3671 82.8047 11.6274L82.8283 11.6983L82.8993 11.722Z" fill="#2F5F9D"/>
<path d="M83.3954 11.7934C83.703 11.5568 83.8449 11.06 83.8449 10.5395L83.7976 10.4922L83.7503 10.5632C83.7266 11.0363 83.5847 11.4622 83.3008 11.6987L83.3244 11.7697L83.3954 11.7934Z" fill="#2F5F9D"/>
<path d="M83.8446 11.8886C84.1522 11.6521 84.2941 11.1789 84.2941 10.6821L84.2468 10.6348L84.1995 10.7057C84.1995 11.1552 84.0339 11.5811 83.75 11.8177L83.7737 11.8886H83.8446Z" fill="#2F5F9D"/>
<path d="M67.6157 11.8643C67.2845 11.6041 67.1426 11.1073 67.1426 10.5395L67.1899 10.4922L67.2609 10.5632C67.2845 11.06 67.4265 11.5095 67.734 11.7697L67.7104 11.8407L67.6157 11.8643Z" fill="#2F5F9D"/>
<path d="M67.1429 11.9594C66.8353 11.6992 66.6934 11.2497 66.6934 10.7055L66.7407 10.6582L66.788 10.7292C66.8117 11.2023 66.9536 11.6282 67.2375 11.8648L67.2138 11.9357L67.1429 11.9594Z" fill="#2F5F9D"/>
<path d="M66.6917 12.0312C66.3841 11.7946 66.2422 11.3215 66.2422 10.8247L66.2895 10.7773L66.3368 10.8483C66.3605 11.2978 66.5024 11.7237 66.7863 11.9602L66.7627 12.0312H66.6917Z" fill="#2F5F9D"/>
<path d="M69.436 16.1472L69.3887 15.7451L69.4123 15.4375C69.4123 15.4375 69.507 15.6031 69.6253 15.6977L69.7672 15.7687L69.436 16.1472Z" fill="#F6F3EF"/>
<path d="M67.1178 14.4678C67.1178 14.4678 66.55 13.7581 65.9349 14.4678C65.9349 14.4678 64.823 14.2313 64.4917 13.9474C64.4917 13.9474 64.8939 13.7344 64.9649 13.3796C64.9649 13.3796 65.6273 13.4269 65.8876 13.0484C65.8876 13.0484 65.2725 12.9301 64.9176 12.4332C64.752 12.1967 64.1132 11.6289 63.711 11.6052C63.2852 11.5816 62.4335 11.7945 61.6055 12.9064C61.6055 12.9064 62.3389 13.1666 63.2379 13.2849C63.2379 13.2849 63.5691 13.2849 63.4035 13.5215C63.4035 13.5215 63.2142 13.7344 62.6701 13.971C62.6701 13.971 62.5281 14.0183 62.5281 14.2313C62.5281 14.2313 62.5045 14.5388 62.5991 14.5861C62.5991 14.5861 63.1906 14.9173 64.6337 15.1303C64.6337 15.1303 66.3607 15.1066 66.8812 15.012C66.9049 14.9883 66.8576 14.5861 67.1178 14.4678Z" fill="#F6F3EF"/>
<path d="M78.1428 14.7512C78.0008 14.491 77.9772 13.9941 77.9772 13.9941C77.9772 13.9941 77.7406 14.7749 77.2438 14.9405C77.2911 14.9878 77.4094 15.1297 77.4094 15.2953C77.4094 15.4609 77.2674 15.6029 77.1018 15.6029L77.0072 15.5792L76.8652 16.0997C76.8652 16.0997 77.2674 15.9578 77.4803 15.7212C77.4803 15.7212 77.7169 15.4136 77.9062 14.7512C78.0008 14.4436 77.7406 15.6029 77.7406 15.6029L78.4267 15.1297C78.4267 15.1297 78.3084 15.0114 78.1428 14.7512Z" fill="#F6F3EF"/>
<path d="M77.2441 15.2955C77.2441 15.2008 77.1731 15.1299 77.0785 15.1062L76.9602 15.0825C76.487 14.8933 76.2031 14.6094 76.2031 14.6094V15.0589C76.8892 15.4611 77.0785 15.4611 77.0785 15.4611L77.2441 15.2955Z" fill="#F6F3EF"/>
<path d="M76.8415 16.6674L76.6995 16.5491L76.6049 16.5254C76.2027 16.4071 76.1317 16.3125 76.1317 16.3125V16.4544L76.0371 16.5491C76.6759 16.8803 76.7468 16.833 76.7468 16.833L76.8415 16.6674Z" fill="#F6F3EF"/>
<path d="M72.8681 14.207L72.5605 14.6329C72.5605 14.6329 72.4186 14.8221 72.5842 14.9877L72.8681 15.2716C72.8681 15.2716 73.0337 15.319 73.081 15.106L72.8917 14.9168C72.8917 14.9168 72.7498 14.7985 72.8444 14.6802L73.0573 14.3963L72.8917 14.2307L72.8681 14.207Z" fill="#F6F3EF"/>
<path d="M72.2301 13.7342L72.1354 13.7578L72.0881 13.7105L72.0645 13.7342L72.3247 14.0654L72.372 14.0417L72.3247 13.9708L72.3484 13.8998L72.5613 13.7342L72.4903 13.5449L72.2301 13.7342Z" fill="#F6F3EF"/>
<path d="M72.5601 14.1359L72.4655 14.1595L72.4182 14.1122H72.3945L72.6075 14.3961L72.7967 14.1359L72.7257 14.0176L72.5601 14.1359Z" fill="#F6F3EF"/>
<path d="M83.2525 12.1728L83.1342 12.1018L82.9923 12.2675L82.8266 12.2201C82.6374 12.2201 82.4954 12.3621 82.4954 12.5513L82.5191 12.6933L82.3062 12.8352C82.2352 12.7406 82.1406 12.6933 82.0459 12.6933C81.8567 12.6933 81.7147 12.8352 81.7147 13.0245V13.0482L81.5255 13.0718L81.3362 13.0482L81.3598 12.9535C81.3598 12.7643 81.2179 12.6223 81.0286 12.6223C80.9103 12.6223 80.8157 12.6933 80.7447 12.7643L80.4845 12.5513L80.5318 12.3857C80.5318 12.1965 80.3899 12.0545 80.2006 12.0545L80.0823 12.0782C79.9877 11.9599 79.8931 11.8179 79.7984 11.6523L79.6328 11.676C79.7274 11.8416 79.8457 12.0072 79.9404 12.1492L79.8457 12.3857C79.8457 12.575 79.9877 12.717 80.1769 12.717L80.3899 12.646L80.6738 12.8826L80.6501 12.9535C80.6501 13.1428 80.7921 13.2847 80.9813 13.2847L81.2179 13.1665L81.4545 13.1901L81.6911 13.1665C81.7384 13.2847 81.8567 13.3557 81.975 13.3557C82.1642 13.3557 82.3062 13.2138 82.3062 13.0245L82.2825 12.9535L82.5427 12.7879L82.7557 12.8826C82.9449 12.8826 83.0869 12.7406 83.0869 12.5513L83.0159 12.3384L83.2525 12.1728Z" fill="#2F5F9D"/>
<path d="M80.2248 7.91277L80.0828 7.8418C79.9645 8.10204 79.8462 8.33862 79.7753 8.5752H79.7279C79.586 8.5752 79.4677 8.69349 79.4677 8.83544L79.6097 9.04836C79.5387 9.26128 79.4914 9.42688 79.4677 9.59249C79.3021 9.61615 79.1602 9.75809 79.1602 9.9237C79.1602 10.0656 79.2548 10.1839 79.3731 10.2313C79.3494 10.3969 79.3494 10.4915 79.3494 10.5151H79.4914C79.4914 10.4915 79.4914 10.4205 79.4914 10.2549C79.657 10.2313 79.7989 10.0893 79.7989 9.9237C79.7989 9.78175 79.7279 9.66346 79.586 9.61615C79.6333 9.45054 79.6806 9.28494 79.7279 9.07202C79.8462 9.04836 79.9645 8.95372 79.9645 8.81178L79.8936 8.62251C80.0118 8.40959 80.1065 8.17301 80.2248 7.91277Z" fill="#2F5F9D"/>
<path d="M73.7894 15.6031C73.7657 15.7687 73.6711 16.2419 73.4818 16.5258C73.4818 16.5258 73.6474 16.0053 73.6948 15.5795C73.3872 15.4139 73.1743 15.2246 73.1743 15.2246C73.0323 15.7214 72.7484 15.3902 72.7484 15.3902C72.5119 16.1473 73.127 15.6978 73.3872 15.6978C73.6948 15.6978 73.4818 15.887 73.4818 15.887C73.2926 16.0053 73.0796 16.0763 73.0796 16.0763C72.7011 16.2182 72.8667 16.5258 72.8667 16.5258C73.056 16.7624 73.3162 16.6914 73.3162 16.6914C73.4818 16.7151 73.4818 16.8334 73.4818 16.8334C73.5765 17.1409 73.8367 16.999 73.8367 16.999C74.0496 16.8097 73.9313 16.4548 73.9313 16.4548C73.7184 15.6504 74.0023 15.8634 74.0023 15.8634L74.0733 15.9817V15.7214C73.9787 15.6741 73.884 15.6504 73.7894 15.6031Z" fill="#F6F3EF"/>
</svg>
