<svg width="86" height="34" viewBox="0 0 86 34" fill="none" xmlns="http://www.w3.org/2000/svg">
<path fill-rule="evenodd" clip-rule="evenodd" d="M0.5 2.43609V5.45309H5.2167V33.0452H9.84844V5.45309H14.4377V2.42192L0.5 2.43609ZM0.66996 2.59188L14.296 2.57771V5.29725H9.69263V32.8893H5.38669V5.29728H0.66996V2.59188Z" fill="#D42704"/>
<path fill-rule="evenodd" clip-rule="evenodd" d="M52.3272 19.929C52.3414 19.5466 52.3838 17.8327 52.3272 14.9998C52.2564 11.8978 50.6275 11.7704 50.5708 11.7562C50.2026 11.7562 49.8909 11.8978 49.6218 12.1528C48.7861 13.0026 48.8144 14.9148 48.8144 14.929V19.929H52.3272ZM52.483 20.0848H48.6728V14.929C48.6728 14.929 48.6728 14.9254 48.6728 14.9225C48.672 14.7809 48.6622 12.9139 49.5226 12.0395C49.8201 11.742 50.1742 11.6004 50.585 11.6004C50.67 11.6004 52.4263 11.6995 52.4972 14.9998C52.5632 17.9976 52.5061 19.7394 52.4981 19.9844C52.4975 20.0022 52.4972 20.0121 52.4972 20.014L52.483 20.0848ZM50.7408 10.0707C50.6841 10.0707 50.6558 10.0707 50.6558 10.0707C44.0127 10.8922 44.381 19.5891 44.3952 19.674C44.3952 19.6774 44.3946 19.6906 44.3936 19.7129C44.3658 20.3459 44.0134 28.374 47.2422 31.6712C48.2054 32.6486 49.3952 33.116 50.7833 33.0735C52.6105 33.0027 54.0694 32.3653 55.1034 31.1471C57.2705 28.6117 56.9164 24.3341 56.8598 23.725H52.6388V28.6684C52.6388 28.7392 52.5963 30.2689 51.7889 31.0196C51.4915 31.2888 51.1374 31.4162 50.7266 31.4162C49.9759 31.3879 49.381 30.9063 49.0127 30.014C48.8427 29.589 48.7295 29.1358 48.687 28.6825V21.7704H56.9164C57.1572 16.997 56.279 13.5976 54.3244 11.657C52.8088 10.1698 51.1232 10.0707 50.7408 10.0707ZM50.5708 33.2293C49.211 33.2293 48.0496 32.7477 47.1147 31.7845C43.7295 28.3284 44.2252 19.7732 44.2252 19.6882C44.2252 19.6032 43.8428 10.7647 50.6275 9.91484C50.6558 9.91484 52.6671 9.80153 54.4235 11.5296C56.4349 13.4984 57.313 16.9687 57.0581 21.8412V21.912H48.8286V28.6684C48.8286 28.6826 49.0411 31.1896 50.7125 31.2605C51.0807 31.2746 51.4065 31.1613 51.6615 30.9064C52.4122 30.1981 52.4547 28.6826 52.4547 28.6684V23.5834H56.9873L57.0014 23.6542C57.0156 23.6967 57.5822 28.4984 55.2167 31.2746C54.1544 32.521 52.6671 33.1868 50.7833 33.2434C50.7125 33.2293 50.6416 33.2435 50.5708 33.2293ZM69.5793 11.6854C69.5793 11.6854 71.3499 11.742 71.4065 14.9998C71.4773 18.2576 71.4065 20.014 71.4065 20.014H67.738V14.9431C67.7521 14.9432 67.6955 11.6854 69.5793 11.6854ZM71.5482 23.6542V28.6684C71.5482 28.6684 71.4773 31.4021 69.721 31.3312C67.9504 31.2746 67.7521 28.6684 67.7521 28.6684V21.8412H75.9816C76.6331 9.54657 69.6502 9.99983 69.6502 9.99983C62.8513 10.8497 63.3187 19.6882 63.3187 19.6882C63.3187 19.6882 62.4689 33.4134 69.7918 33.1585C77.1147 32.9035 75.9391 23.6684 75.9391 23.6684H71.5482V23.6542Z" fill="#D42704"/>
<path fill-rule="evenodd" clip-rule="evenodd" d="M58.2479 32.8752H62.0722V2.33693H58.2479V32.8752ZM58.0779 33.0452H62.228V2.16697H58.0779V33.0452ZM80.9674 11.3596V10.0565H77.0156V32.946H81.1657C81.1657 32.946 81.1516 17.5919 81.1657 15.963C81.1799 14.0083 84.0411 13.8809 84.0411 13.8809H85.415V9.84402C83.1912 9.54657 80.9674 11.3596 80.9674 11.3596Z" fill="#D42704"/>
<path fill-rule="evenodd" clip-rule="evenodd" d="M24.8343 28.4559C24.8485 28.5126 24.9476 28.9092 25.2309 29.2916C25.6133 29.844 26.1374 30.1273 26.7889 30.1131C27.3838 30.099 27.8371 29.7874 28.1346 29.1783C28.347 28.725 28.4037 28.2859 28.4037 28.2293V19.7732C28.0779 20.014 27.5255 20.3539 26.9448 20.7222C26.2224 21.1613 25.4858 21.6287 25.2734 21.8554C24.8768 22.2803 24.8343 22.9743 24.8343 22.9743V28.4559ZM26.7606 30.2831C26.5652 30.2831 26.3871 30.2585 26.225 30.215C26.0251 30.1614 25.8495 30.0792 25.6955 29.9791C24.9146 29.4717 24.6889 28.5051 24.6785 28.4842V22.9885C24.6785 22.946 24.721 22.2378 25.1601 21.7562C25.3867 21.5154 26.1091 21.0622 26.8739 20.5947C27.2696 20.3485 27.6762 20.1023 27.9921 19.8934C28.0696 19.8421 28.1416 19.7931 28.2066 19.7469C28.3036 19.678 28.3851 19.6154 28.4462 19.5607L28.5737 19.4474V28.2718C28.5737 28.2859 28.3754 30.2689 26.8031 30.2973H26.7606L26.7606 30.2831ZM26.8031 11.7987C28.3045 11.7987 28.4887 13.9517 28.4887 13.98V17.0395L28.4745 17.0536C28.4513 17.095 28.4129 17.1445 28.363 17.1996C28.3014 17.2678 28.2223 17.3447 28.1329 17.4258C27.6744 17.8414 26.9441 18.3678 26.9023 18.3993C26.7284 18.511 26.5438 18.6446 26.3292 18.7998C26.3175 18.8083 26.3057 18.8168 26.2938 18.8254C26.2749 18.839 26.2558 18.8528 26.2365 18.8667C26.1145 18.9505 25.9815 19.0436 25.8319 19.1482C25.8256 19.1526 25.8192 19.1571 25.8128 19.1615C25.8105 19.1631 25.8082 19.1648 25.8059 19.1664C25.5196 19.3665 25.1741 19.608 24.736 19.9058C24.5582 20.0267 24.365 20.1568 24.1544 20.2973C23.8129 20.5266 23.5044 20.7585 23.2276 20.9851C23.068 21.1159 22.9189 21.2448 22.7802 21.3705C22.7658 21.3835 22.7515 21.3966 22.7374 21.4095C21.7797 22.286 21.3316 22.9926 21.3215 23.0026C20.0892 24.9573 20.4292 29.6599 21.1091 30.963C21.449 31.6145 22.483 33.1301 24.7635 33.1301C25.2028 33.1301 25.6124 33.0772 25.9883 32.9911C27.5944 32.6229 28.5827 31.648 28.6287 31.602L28.6303 31.6004L28.772 31.4587V32.8752H32.4688V17.082C32.4688 14.5749 31.8173 12.6911 30.5283 11.5013C30.3323 11.3191 30.1297 11.1612 29.925 11.0243C29.6578 10.8455 29.3871 10.7026 29.123 10.5884C27.9374 10.0758 26.8841 10.1415 26.8739 10.1415C24.9192 10.184 23.432 10.7789 22.4263 11.9403C20.8258 13.7959 21.0099 16.5296 21.0524 16.997H24.9901V14.0933C25.0082 14.03 25.1361 13.1113 25.6138 12.4559C25.7111 12.3222 25.823 12.1995 25.9515 12.0973C26.1795 11.9158 26.4596 11.7987 26.8031 11.7987ZM24.7776 33.3001C22.4122 33.3001 21.3357 31.7279 20.9816 31.048C20.2875 29.7165 19.9334 24.9148 21.2082 22.9176C21.2224 22.9035 22.1147 21.4729 24.0836 20.1556C25.0892 19.4757 25.7125 19.0508 26.1516 18.725C26.4207 18.5409 26.619 18.3992 26.8173 18.2576C27.1856 17.9885 28.1487 17.2661 28.3329 16.9828V13.9658C28.3329 13.9517 28.1487 11.9403 26.8031 11.9403C25.4575 11.9403 25.1601 14.065 25.1601 14.0791V17.1386H20.9108L20.8966 17.0678C20.8966 17.0395 20.5 13.895 22.2988 11.8129C23.3187 10.6231 24.8626 9.99983 26.8598 9.95734C26.9448 9.95734 29.0127 9.84402 30.6416 11.3596C31.9589 12.5919 32.6246 14.5041 32.6246 17.0678V33.0168H28.6161V31.8129C28.1912 32.2236 26.7889 33.3001 24.7776 33.3001Z" fill="#D42704"/>
<path fill-rule="evenodd" clip-rule="evenodd" d="M24.8343 28.4559V22.9743C24.8343 22.9743 24.8768 22.2803 25.2734 21.8554C25.4858 21.6287 26.2224 21.1613 26.9448 20.7222C27.057 20.651 27.1684 20.5808 27.2771 20.5123C27.7308 20.2262 28.1409 19.9675 28.4037 19.7732V28.2293C28.4037 28.2859 28.347 28.725 28.1346 29.1783C27.8371 29.7874 27.3838 30.099 26.7889 30.1131C26.1374 30.1273 25.6133 29.844 25.2309 29.2916C24.9476 28.9092 24.8485 28.5126 24.8343 28.4559ZM24.6851 28.5051C24.7271 28.651 24.9747 29.5107 25.6955 29.9791C25.8495 30.0792 26.0251 30.1614 26.225 30.215C26.3871 30.2585 26.5652 30.2831 26.7606 30.2831L26.7606 30.2973H26.8031C28.3754 30.2689 28.5737 28.2859 28.5737 28.2718V19.4474L28.4462 19.5607C28.3851 19.6154 28.3036 19.678 28.2066 19.7469C28.1416 19.7931 28.0696 19.8421 27.9921 19.8934C27.7597 20.0471 27.4782 20.2211 27.1879 20.4004C27.0838 20.4647 26.9784 20.5297 26.8739 20.5947C26.1091 21.0622 25.3867 21.5154 25.1601 21.7562C24.721 22.2378 24.6785 22.946 24.6785 22.9885V28.4842C24.6793 28.4858 24.6816 28.493 24.6851 28.5051ZM28.4887 13.98C28.4887 13.9517 28.3045 11.7987 26.8031 11.7987C26.4596 11.7987 26.1795 11.9158 25.9515 12.0973C25.823 12.1995 25.7111 12.3222 25.6138 12.4559C25.1916 13.0352 25.0428 13.8202 25.0014 14.0384C24.996 14.067 24.9922 14.086 24.9901 14.0933V16.997H21.0524C21.0099 16.5296 20.8258 13.7959 22.4263 11.9403C23.432 10.7789 24.9192 10.184 26.8739 10.1415C26.8739 10.1415 26.8756 10.1413 26.8775 10.1413C26.9437 10.1382 27.9708 10.0902 29.123 10.5884C29.3871 10.7026 29.6578 10.8455 29.925 11.0243C30.1297 11.1612 30.3323 11.3191 30.5283 11.5013C31.8173 12.6911 32.4688 14.5749 32.4688 17.082V32.8752H28.772V31.4587L28.6303 31.6004L28.6287 31.602C28.5801 31.6505 27.5921 32.6234 25.9883 32.9911C25.6124 33.0772 25.2028 33.1301 24.7635 33.1301C22.483 33.1301 21.449 31.6145 21.1091 30.963C20.4292 29.6599 20.0892 24.9573 21.3215 23.0026C21.3215 23.0026 21.3268 22.9956 21.3342 22.9847C21.4136 22.8684 21.8631 22.2098 22.7374 21.4095C22.7515 21.3966 22.7658 21.3835 22.7802 21.3705C22.9189 21.2448 23.068 21.1159 23.2276 20.9851C23.5044 20.7585 23.8129 20.5266 24.1544 20.2973C24.365 20.1568 24.5582 20.0267 24.736 19.9058C25.1735 19.6084 25.5187 19.3672 25.8047 19.1672L25.8059 19.1664C25.8082 19.1648 25.8105 19.1631 25.8128 19.1615C25.8192 19.1571 25.8256 19.1526 25.8319 19.1482C25.9815 19.0436 26.1145 18.9505 26.2365 18.8667C26.2558 18.8528 26.2749 18.839 26.2938 18.8254C26.3041 18.8179 26.3144 18.8105 26.3245 18.8032C26.3261 18.802 26.3276 18.8009 26.3292 18.7998C26.5438 18.6446 26.7284 18.511 26.9023 18.3993C26.906 18.3965 26.9154 18.3897 26.9294 18.3795C27.0722 18.275 27.7153 17.8044 28.1329 17.4258C28.2223 17.3447 28.3014 17.2678 28.363 17.1996C28.4129 17.1445 28.4513 17.095 28.4745 17.0536L28.4887 17.0395V13.98ZM20.9816 31.048C21.3357 31.7279 22.4122 33.3001 24.7776 33.3001C26.7889 33.3001 28.1912 32.2236 28.6161 31.8129V33.0168H32.6246V17.0678C32.6246 14.5041 31.9589 12.5919 30.6416 11.3596C29.0721 9.8993 27.0953 9.95117 26.8771 9.9569C26.8688 9.95711 26.8629 9.95734 26.8598 9.95734C24.8626 9.99983 23.3187 10.6231 22.2988 11.8129C20.5657 13.819 20.8708 16.8113 20.8954 17.0524C20.8963 17.0615 20.8966 17.0678 20.8966 17.0678L20.9108 17.1386H25.1601V14.0791C25.1601 14.065 25.4575 11.9403 26.8031 11.9403C28.1487 11.9403 28.3329 13.9517 28.3329 13.9658V16.9828C28.1487 17.2661 27.1856 17.9885 26.8173 18.2576L26.8161 18.2585C26.6183 18.3998 26.4201 18.5413 26.1516 18.725C25.7125 19.0508 25.0892 19.4757 24.0836 20.1556C22.2356 21.392 21.3363 22.7281 21.221 22.8993C21.2135 22.9105 21.2082 22.9176 21.2082 22.9176C19.9334 24.9148 20.2875 29.7165 20.9816 31.048Z" fill="#D42704"/>
<path fill-rule="evenodd" clip-rule="evenodd" d="M44.2703 7.38869H45.2901V1.00058H44.2986V5.39151H44.1711L44.1286 5.34901L41.749 1.00058H40.6442V7.38869H41.6357V2.81362H41.7632L41.8057 2.85612L44.2703 7.38869ZM45.4601 7.5445H44.1853L41.8057 3.18189V7.5445H40.4884V0.830615H41.8482L44.1428 5.02326V0.830615H45.4601V7.5445ZM48.5904 5.06573C48.1938 5.15073 47.1456 5.37736 47.1456 6.09972C47.1456 6.46799 47.4147 6.65213 47.6555 6.65213C48.038 6.65213 48.4487 6.298 48.5904 6.15637V5.06573ZM49.5535 6.43967C49.5535 6.7088 49.6244 7.13371 49.6952 7.34619H48.7178C48.6753 7.19038 48.647 7.04874 48.6328 6.89293C48.4487 7.07707 48.0804 7.41701 47.4572 7.41701C46.7915 7.41701 46.1824 6.97792 46.1824 6.19889C46.1824 5.05159 47.3297 4.54165 48.5903 4.44251V4.31502C48.5903 3.89008 48.3071 3.62098 47.9104 3.62098C47.4572 3.62098 47.1314 3.86179 46.8906 4.23006L46.2816 3.67765C46.664 3.15357 47.2731 2.85612 47.9246 2.8703C48.6187 2.8703 49.5394 3.1111 49.5394 4.38587V6.4397L49.5535 6.43967Z" fill="#231B1C"/>
<path fill-rule="evenodd" clip-rule="evenodd" d="M48.5195 5.1649C48.0946 5.26404 47.2306 5.49067 47.2306 6.09975C47.2306 6.42552 47.4572 6.58133 47.6555 6.58133C47.9955 6.58133 48.3637 6.26971 48.5195 6.12807V5.1649ZM47.6555 6.75129C47.3581 6.75129 47.0606 6.53884 47.0606 6.1139C47.0606 5.30654 48.1654 5.07991 48.5762 4.99492L48.6753 4.98074V6.21304L48.647 6.22721C48.4912 6.36885 48.0805 6.75129 47.6555 6.75129ZM47.9246 3.52184C48.3779 3.52184 48.6895 3.83346 48.6895 4.30087V4.49918L48.6187 4.51336C47.9105 4.57 46.2816 4.8533 46.2816 6.19892C46.2816 6.97795 46.8906 7.34622 47.4714 7.34622C48.0663 7.34622 48.4062 7.00627 48.5762 6.83631L48.6895 6.723L48.7178 6.87881C48.732 6.97795 48.7462 7.09127 48.7887 7.26125H49.596C49.5252 6.99213 49.4827 6.70885 49.4827 6.43972V4.37172C49.4827 3.18192 48.647 2.92697 47.9388 2.92697C47.3297 2.92697 46.7915 3.18192 46.409 3.64936L46.8906 4.08844C47.1739 3.72012 47.5139 3.52184 47.9246 3.52184ZM47.4572 7.50201C46.7773 7.50201 46.0975 7.04874 46.0975 6.19889C46.0975 5.17905 46.9757 4.51333 48.5054 4.35752V4.30087C48.5054 3.91843 48.2646 3.67765 47.9105 3.67765C47.5422 3.67765 47.2164 3.87596 46.9614 4.25838L46.9048 4.3292L46.1824 3.66348L46.2249 3.60683C46.6215 3.06858 47.2589 2.74281 47.9246 2.75698C48.562 2.75698 49.6243 2.96944 49.6243 4.35755V6.42555C49.6243 6.6805 49.6951 7.10544 49.766 7.30372L49.7943 7.41704H48.647L48.6328 7.36039C48.6045 7.26125 48.5903 7.14794 48.562 7.04877C48.3637 7.24705 48.0096 7.50201 47.4572 7.50201ZM52.2448 4.68332C51.8057 4.58418 51.3949 4.48501 51.3949 4.07424C51.3949 3.80512 51.6357 3.53599 52.0323 3.53599C52.3156 3.53599 52.5281 3.6493 52.8822 3.89011L52.9813 3.96093L53.6045 3.39435C53.2929 3.1394 52.7972 2.72863 52.0181 2.72863C51.0833 2.72863 50.3892 3.39435 50.3892 4.17338C50.3892 5.32069 51.4516 5.57564 51.919 5.66063C52.3439 5.73145 52.698 5.85894 52.698 6.22721C52.698 6.56716 52.3439 6.69462 52.0323 6.69462C51.5082 6.69462 51.1824 6.41135 50.9416 6.21304L50.2901 6.7088C50.5592 7.02042 51.0408 7.55865 52.0182 7.55865C53.3354 7.55865 53.7745 6.7088 53.7745 6.05723C53.7745 5.02324 52.8113 4.81078 52.2448 4.68332Z" fill="#231B1C"/>
<path fill-rule="evenodd" clip-rule="evenodd" d="M50.4034 6.7088C50.6583 7.00625 51.1116 7.47366 52.0181 7.47366C52.6414 7.47366 53.6895 7.17621 53.6895 6.05723C53.6895 5.1082 52.7688 4.89575 52.2306 4.76828H52.2164L52.2306 4.68329L52.2023 4.75411C51.749 4.64079 51.2957 4.54165 51.2957 4.06007C51.2957 3.74844 51.5649 3.43685 52.004 3.43685C52.3014 3.43685 52.528 3.56434 52.8963 3.80512L52.9388 3.84761L53.4487 3.3802C53.1513 3.1394 52.6838 2.79948 51.9898 2.79948C51.1258 2.79948 50.4459 3.39438 50.4459 4.17341C50.4459 5.29239 51.5365 5.50485 51.9048 5.57567C52.3439 5.66066 52.7546 5.78812 52.7546 6.21306C52.7546 6.60965 52.358 6.76547 52.0039 6.76547C51.4798 6.76547 51.1399 6.49634 50.9133 6.31221L50.4034 6.7088ZM52.0181 7.62947C50.9841 7.62947 50.4742 7.03457 50.2334 6.75129L50.1768 6.68047L50.9416 6.08557L50.9841 6.12807C51.2249 6.32638 51.5365 6.58133 52.0323 6.58133C52.3014 6.58133 52.6131 6.48219 52.6131 6.19889C52.6131 5.94394 52.4147 5.81645 51.8907 5.71731C50.8425 5.519 50.3043 4.99492 50.3043 4.15924C50.3043 3.29521 51.055 2.62949 52.004 2.62949C52.8113 2.62949 53.3213 3.05443 53.6329 3.30938L53.7037 3.36603L52.9671 4.04592L52.8113 3.94678C52.4572 3.70597 52.2589 3.59269 52.004 3.59269C51.664 3.59269 51.4516 3.83349 51.4516 4.0601C51.4516 4.38587 51.749 4.48504 52.2306 4.59835L52.2164 4.68334L52.2448 4.61253C52.7972 4.74002 53.8312 4.98079 53.8312 6.05728C53.8595 6.83629 53.2929 7.62947 52.0181 7.62947ZM56.7632 3.6493V2.79945H56.0124V1.28388H54.936V2.79945H54.2986V3.6493H54.936V6.12804C54.936 6.59545 55.0918 7.04872 55.4742 7.31784C55.7717 7.54448 56.1541 7.55865 56.7632 7.5303V6.56713C56.3524 6.55296 56.0124 6.53881 56.0124 6.12804V3.6493H56.7632Z" fill="#231B1C"/>
<path fill-rule="evenodd" clip-rule="evenodd" d="M54.3836 3.57848H55.021V6.14222C55.021 6.42549 55.0918 6.94958 55.5167 7.2612C55.7858 7.47366 56.1541 7.48783 56.6782 7.45951V6.65215C56.3382 6.63798 55.9275 6.59551 55.9275 6.12807V3.56434H56.6782V2.8703H55.9275V1.36887H55.021V2.8703H54.3836V3.57848ZM56.3666 7.62947C55.97 7.62947 55.6725 7.58697 55.4317 7.38866C55.0634 7.11954 54.8651 6.68045 54.8651 6.12804V3.72012H54.2136V2.70031H54.8651V1.19888H56.0974V2.70031H56.834V3.70597H56.0974V6.1139C56.0974 6.41135 56.2957 6.46802 56.7632 6.48217H56.834V7.60115H56.7632C56.6215 7.62947 56.4799 7.62947 56.3666 7.62947Z" fill="#231B1C"/>
<path fill-rule="evenodd" clip-rule="evenodd" d="M76.9306 33.0452H81.2507L81.2507 32.9602L81.2504 32.6189V32.6132C81.2485 30.3209 81.2377 17.4421 81.2507 15.9772C81.2507 15.2123 81.7181 14.6315 82.6388 14.2774C83.3329 14.0225 84.0411 13.98 84.0411 13.98H85.5V9.80153L85.4292 9.78735C83.5028 9.50408 81.5623 10.8213 81.0524 11.2038V9.98566H76.9306V33.0452ZM26.7889 30.2123C28.3187 30.1981 28.4887 28.2576 28.4887 28.2576V19.6316C28.2155 19.8657 27.5899 20.2492 26.9534 20.6394C26.2037 21.0989 25.4388 21.5677 25.2167 21.8129C24.8059 22.2661 24.7634 22.9885 24.7634 22.9885V28.4701C24.7634 28.4701 25.1601 30.2265 26.7889 30.2123ZM20.9958 17.0678C20.9958 17.0678 20.0751 10.184 26.8739 10.0565C26.8739 10.0565 32.5538 9.67404 32.568 17.082V32.9602H28.7153V31.6571C28.7153 31.6571 27.2139 33.2151 24.7918 33.2151C22.3697 33.2151 21.3357 31.5437 21.0666 31.0055C20.3725 29.6882 20.0184 24.9573 21.279 22.9602C21.279 22.9602 22.1431 21.5437 24.1261 20.2264C25.211 19.5031 25.842 19.0612 26.2982 18.7416C26.5209 18.5857 26.702 18.4588 26.8739 18.3426C26.8739 18.3426 28.2196 17.3794 28.4179 17.0253V13.9941C28.4179 13.9941 28.2479 11.8837 26.8031 11.8837C25.3725 11.8837 25.0892 14.0933 25.0892 14.0933V17.0678H20.9958ZM28.4887 13.98C28.4887 13.9517 28.3045 11.7987 26.8031 11.7987C26.4596 11.7987 26.1795 11.9158 25.9515 12.0973C25.823 12.1995 25.7111 12.3222 25.6138 12.4559C25.1916 13.0352 25.0428 13.8202 25.0014 14.0384C24.996 14.067 24.9922 14.086 24.9901 14.0933V16.997H21.0524C21.0099 16.5296 20.8258 13.7959 22.4263 11.9403C23.432 10.7789 24.9192 10.184 26.8739 10.1415C26.8739 10.1415 26.8756 10.1413 26.8775 10.1413C26.9437 10.1382 27.9708 10.0902 29.123 10.5884C29.3871 10.7026 29.6578 10.8455 29.925 11.0243C30.1297 11.1612 30.3323 11.3191 30.5283 11.5013C31.8173 12.6911 32.4688 14.5749 32.4688 17.082V32.8752H28.772V31.4587L28.6303 31.6004L28.6287 31.602C28.5827 31.648 27.5944 32.6229 25.9883 32.9911C25.6124 33.0772 25.2028 33.1301 24.7635 33.1301C22.483 33.1301 21.449 31.6145 21.1091 30.963C20.4292 29.6599 20.0892 24.9573 21.3215 23.0026C21.3215 23.0026 21.3268 22.9956 21.3342 22.9847C21.4136 22.8684 21.8631 22.2098 22.7374 21.4095C22.7515 21.3966 22.7658 21.3835 22.7802 21.3705C22.9189 21.2448 23.068 21.1159 23.2276 20.9851C23.5044 20.7585 23.8129 20.5266 24.1544 20.2973C24.365 20.1568 24.5582 20.0267 24.736 19.9058C25.1735 19.6084 25.5187 19.3672 25.8047 19.1672L25.8059 19.1664L25.8128 19.1615L25.8319 19.1482C25.9815 19.0436 26.1145 18.9505 26.2365 18.8667C26.2558 18.8528 26.2749 18.839 26.2938 18.8254C26.3041 18.8179 26.3144 18.8105 26.3245 18.8032L26.3292 18.7998C26.5438 18.6446 26.7284 18.511 26.9023 18.3993C26.906 18.3965 26.9154 18.3897 26.9294 18.3795C27.0722 18.275 27.7153 17.8044 28.1329 17.4258C28.2223 17.3447 28.3014 17.2678 28.363 17.1996C28.4129 17.1445 28.4513 17.095 28.4745 17.0536L28.4887 17.0395V13.98ZM26.225 30.215C26.3871 30.2585 26.5652 30.2831 26.7606 30.2831L26.7606 30.2973H26.8031C28.3754 30.2689 28.5737 28.2859 28.5737 28.2718V19.4474L28.4462 19.5607C28.3851 19.6154 28.3036 19.678 28.2066 19.7469C28.1416 19.7931 28.0696 19.8421 27.9921 19.8934C27.7597 20.0471 27.4782 20.2211 27.1879 20.4004C27.0838 20.4647 26.9784 20.5297 26.8739 20.5947C26.1091 21.0622 25.3867 21.5154 25.1601 21.7562C24.721 22.2378 24.6785 22.946 24.6785 22.9885V28.4842C24.6793 28.4858 24.6816 28.493 24.6851 28.5051C24.7271 28.651 24.9747 29.5107 25.6955 29.9791C25.8495 30.0792 26.0251 30.1614 26.225 30.215Z" fill="#D42704"/>
<path fill-rule="evenodd" clip-rule="evenodd" d="M26.8031 11.7987C28.3045 11.7987 28.4887 13.9517 28.4887 13.98V17.0395L28.4745 17.0536C28.4513 17.095 28.4129 17.1445 28.363 17.1996C28.3014 17.2678 28.2223 17.3447 28.1329 17.4258C27.7153 17.8044 27.0722 18.275 26.9294 18.3795C26.9154 18.3897 26.906 18.3965 26.9023 18.3993C26.7284 18.511 26.5438 18.6446 26.3292 18.7998L26.3245 18.8032L26.2938 18.8254L26.2365 18.8667C26.1145 18.9505 25.9815 19.0436 25.8319 19.1482L25.8128 19.1615L25.8059 19.1664L25.8047 19.1672C25.5187 19.3672 25.1735 19.6084 24.736 19.9058C24.5582 20.0267 24.365 20.1568 24.1544 20.2973C23.8129 20.5266 23.5044 20.7585 23.2276 20.9851C23.068 21.1159 22.9189 21.2448 22.7802 21.3705C22.7658 21.3835 22.7515 21.3966 22.7374 21.4095C21.8631 22.2098 21.4136 22.8684 21.3342 22.9847C21.3268 22.9956 21.3215 23.0026 21.3215 23.0026C20.0892 24.9573 20.4292 29.6599 21.1091 30.963C21.449 31.6145 22.483 33.1301 24.7635 33.1301C25.2028 33.1301 25.6124 33.0772 25.9883 32.9911C27.5921 32.6234 28.5801 31.6505 28.6287 31.602L28.6303 31.6004L28.772 31.4587V32.8752H32.4688V17.082C32.4688 14.5749 31.8173 12.6911 30.5283 11.5013C30.3323 11.3191 30.1297 11.1612 29.925 11.0243C29.6578 10.8455 29.3871 10.7026 29.123 10.5884C27.9374 10.0758 26.8841 10.1415 26.8739 10.1415C24.9192 10.184 23.432 10.7789 22.4263 11.9403C20.8258 13.7959 21.0099 16.5296 21.0524 16.997H24.9901V14.0933C25.0082 14.03 25.1361 13.1113 25.6138 12.4559C25.7111 12.3222 25.823 12.1995 25.9515 12.0973C26.1795 11.9158 26.4596 11.7987 26.8031 11.7987ZM24.6785 28.4842V22.9885C24.6785 22.946 24.721 22.2378 25.1601 21.7562C25.3867 21.5154 26.1091 21.0622 26.8739 20.5947C27.2696 20.3485 27.6762 20.1023 27.9921 19.8934C28.0696 19.8421 28.1416 19.7931 28.2066 19.7469C28.3036 19.678 28.3851 19.6154 28.4462 19.5607L28.5737 19.4474V28.2718C28.5737 28.2859 28.3754 30.2689 26.8031 30.2973H26.7606L26.7606 30.2831C26.5652 30.2831 26.3871 30.2585 26.225 30.215C26.0251 30.1614 25.8495 30.0792 25.6955 29.9791C24.9146 29.4717 24.6889 28.5051 24.6785 28.4842Z" fill="#D42704"/>
<path fill-rule="evenodd" clip-rule="evenodd" d="M15.7691 10.3256V11.6287C15.7691 11.6287 17.9929 9.80153 20.2167 10.1273V14.1641H18.8428C18.8428 14.1641 15.8966 14.2916 15.9674 16.2463C16.0241 17.8752 15.9674 32.9035 15.9674 32.9035H11.8173V10.3256H15.7691ZM15.8966 32.8185H11.9164V10.3964H15.7125V11.7987L15.84 11.6854C15.8541 11.6712 18.0071 9.92899 20.1459 10.1981V14.0791H18.8428C18.8145 14.0791 15.8258 14.235 15.8966 16.2463C15.9308 17.4892 15.9099 26.701 15.9005 30.8657C15.9005 30.8678 15.9005 30.8698 15.9005 30.8718L15.9005 30.8753C15.8982 31.8786 15.8966 32.5873 15.8966 32.8185Z" fill="#D42704"/>
<path d="M11.9164 32.8185H15.8966C15.8966 32.5873 15.8982 31.8786 15.9005 30.8753L15.9005 30.8718L15.9005 30.8657C15.9099 26.701 15.9308 17.4892 15.8966 16.2463C15.8258 14.235 18.8145 14.0791 18.8428 14.0791H20.1459V10.1981C18.0071 9.92899 15.8541 11.6712 15.84 11.6854L15.7125 11.7987V10.3964H11.9164V32.8185Z" fill="#D42704"/>
<path fill-rule="evenodd" clip-rule="evenodd" d="M0.584967 5.3681V2.50691H14.3668V5.3681H9.77759V32.9602H5.31584V5.3681H0.584967ZM14.296 2.57771L0.66996 2.59188V5.29728H5.38669V32.8893H9.69263V5.29725H14.296V2.57771Z" fill="#D42704"/>
<path d="M0.66996 2.59188L14.296 2.57771V5.29725H9.69263V32.8893H5.38669V5.29728H0.66996V2.59188Z" fill="#D42704"/>
<path fill-rule="evenodd" clip-rule="evenodd" d="M15.8966 32.8185H11.9164V10.3964H15.7125V11.7987L15.84 11.6854C15.8541 11.6712 18.0071 9.92899 20.1459 10.1981V14.0791H18.8428C18.8145 14.0791 15.8258 14.235 15.8966 16.2463C15.9308 17.4892 15.9099 26.701 15.9005 30.8657L15.9005 30.8718L15.9005 30.8753C15.8982 31.8786 15.8966 32.5873 15.8966 32.8185ZM11.7465 32.9743H16.0524L16.0524 32.8894C16.0524 32.8762 16.0528 32.7572 16.0535 32.5496C16.0612 30.3063 16.1042 17.7101 16.0524 16.2321C16.024 15.4672 16.4773 14.9007 17.4122 14.5466C18.1204 14.2775 18.8428 14.235 18.8428 14.235H20.3017V10.0565L20.2309 10.0423C18.3045 9.75903 16.364 11.0763 15.8541 11.4587V10.2406H11.7465V32.9743ZM39.5651 24.7732L41.9164 10.3256V10.3398H44.6501L40.4717 32.9743H37.1431L32.6954 10.2689H37.0156L39.5651 24.7732ZM40.415 32.8752H37.2139L32.7804 10.3256H36.9306L39.551 25.2406L41.9731 10.3964H44.551L40.415 32.8752Z" fill="#D42704"/>
<path d="M37.2139 32.8752H40.415L44.551 10.3964H41.9731L39.551 25.2406L36.9306 10.3256H32.7804L37.2139 32.8752Z" fill="#D42704"/>
<path fill-rule="evenodd" clip-rule="evenodd" d="M40.415 32.8752H37.2139L32.7804 10.3256H36.9306L39.551 25.2406L41.9731 10.3964H44.551L40.415 32.8752ZM37.0722 33.0452H40.5425L44.7351 10.2406H41.8315L39.551 24.2774L37.0864 10.2406L37.0722 10.1698H32.5963L37.0581 32.9743L37.0722 33.0452ZM52.4122 14.9998C52.3413 11.742 50.585 11.6854 50.585 11.6854C48.687 11.6854 48.7578 14.9431 48.7578 14.9431V20.014H52.4122C52.4122 20.014 52.483 18.2576 52.4122 14.9998ZM52.5397 28.6684V23.6684H56.9306C56.9306 23.6684 58.0921 32.9035 50.7833 33.1585C43.4603 33.4134 44.3102 19.6882 44.3102 19.6882C44.3102 19.6882 43.8428 10.8497 50.6416 9.99983C50.6416 9.99983 57.6246 9.54657 56.9731 21.8412H48.7436V28.6684C48.7436 28.6684 48.9419 31.2746 50.7125 31.3312C52.4688 31.4021 52.5397 28.6684 52.5397 28.6684ZM50.6558 10.0707H50.7408C51.1232 10.0707 52.8088 10.1698 54.3244 11.657C56.279 13.5976 57.1572 16.997 56.9164 21.7704H48.687V28.6825C48.7295 29.1358 48.8427 29.589 49.0127 30.014C49.381 30.9063 49.9759 31.3879 50.7266 31.4162C51.1374 31.4162 51.4915 31.2888 51.7889 31.0196C52.5963 30.2689 52.6388 28.7392 52.6388 28.6684V23.725H56.8598C56.9164 24.3341 57.2705 28.6117 55.1034 31.1471C54.0694 32.3653 52.6105 33.0027 50.7833 33.0735C49.3952 33.116 48.2054 32.6486 47.2422 31.6712C44.0134 28.374 44.3658 20.3459 44.3936 19.7129C44.3946 19.6906 44.3952 19.6774 44.3952 19.674C44.381 19.5891 44.0127 10.8922 50.6558 10.0707ZM52.483 20.0848H48.6728V14.929C48.6728 14.929 48.6728 14.9254 48.6728 14.9225C48.672 14.7809 48.6622 12.9139 49.5226 12.0395C49.8201 11.742 50.1742 11.6004 50.585 11.6004C50.67 11.6004 52.4263 11.6995 52.4972 14.9998C52.5632 17.9976 52.5061 19.7394 52.4981 19.9844C52.4975 20.0022 52.4972 20.0121 52.4972 20.014L52.483 20.0848Z" fill="#D42704"/>
<path fill-rule="evenodd" clip-rule="evenodd" d="M50.7408 10.0707H50.6558C44.0127 10.8922 44.381 19.5891 44.3952 19.674C44.3952 19.6774 44.3946 19.6906 44.3936 19.7129C44.3658 20.3459 44.0134 28.374 47.2422 31.6712C48.2054 32.6486 49.3952 33.116 50.7833 33.0735C52.6105 33.0027 54.0694 32.3653 55.1034 31.1471C57.2705 28.6117 56.9164 24.3341 56.8598 23.725H52.6388V28.6684C52.6388 28.7392 52.5963 30.2689 51.7889 31.0196C51.4915 31.2888 51.1374 31.4162 50.7266 31.4162C49.9759 31.3879 49.381 30.9063 49.0127 30.014C48.8427 29.589 48.7295 29.1358 48.687 28.6825V21.7704H56.9164C57.1572 16.997 56.279 13.5976 54.3244 11.657C52.8088 10.1698 51.1232 10.0707 50.7408 10.0707ZM48.6728 20.0848H52.483L52.4972 20.014L52.4981 19.9844C52.5061 19.7394 52.5632 17.9976 52.4972 14.9998C52.4263 11.6995 50.67 11.6004 50.585 11.6004C50.1742 11.6004 49.8201 11.742 49.5226 12.0395C48.6622 12.9139 48.672 14.7809 48.6728 14.9225L48.6728 14.929V20.0848Z" fill="#D42704"/>
<path fill-rule="evenodd" clip-rule="evenodd" d="M71.3357 14.9998C71.3923 17.8327 71.3498 19.5466 71.3357 19.929H67.8229V14.929L67.8229 14.9276C67.8224 14.8677 67.8049 12.9921 68.6303 12.1528C68.8853 11.8978 69.211 11.7562 69.5793 11.7562C69.5818 11.7565 69.5853 11.757 69.5897 11.7575C69.759 11.7781 71.2804 11.963 71.3357 14.9998ZM67.6671 20.0848H71.4915L71.4915 20.014C71.4915 20.0121 71.4918 20.0022 71.4924 19.9844C71.5005 19.7394 71.5575 17.9976 71.4915 14.9998C71.4207 11.6995 69.6501 11.6004 69.5793 11.6004C69.1544 11.6004 68.8003 11.742 68.517 12.0395C67.6565 12.9138 67.6664 14.7809 67.6671 14.9225L67.6671 14.929V20.0848ZM69.6502 10.0707H69.7351C70.1176 10.0707 71.8031 10.1556 73.3046 11.6712C75.2734 13.5976 76.1374 16.997 75.8966 21.7704H67.6672V28.6825C67.7097 29.1358 67.823 29.589 67.9929 30.014C68.3612 30.9063 68.9561 31.3879 69.7068 31.4162C70.1034 31.4304 70.4858 31.2888 70.7691 31.0196C71.5765 30.2831 71.619 28.7392 71.619 28.6684V23.7392H75.84C75.8966 24.3341 76.2507 28.6259 74.0836 31.1613C73.0496 32.3653 71.6048 33.0027 69.7635 33.0735C68.3754 33.116 67.1856 32.6486 66.2224 31.6712C63.0075 28.3879 63.3601 20.3478 63.388 19.7131C63.3889 19.6906 63.3895 19.6774 63.3895 19.674C63.3895 19.674 63.3894 19.6679 63.3892 19.6606C63.3783 19.2695 63.1441 10.877 69.6502 10.0707ZM66.1091 31.7845C67.0581 32.7477 68.2195 33.2293 69.5793 33.2293C69.6148 33.2364 69.6502 33.2364 69.6856 33.2364C69.721 33.2364 69.7564 33.2364 69.7918 33.2434C71.6757 33.1868 73.1629 32.521 74.2252 31.2746C76.4999 28.605 76.0502 24.0624 76.0123 23.6798C76.0108 23.6645 76.0099 23.6542 76.0099 23.6542L75.9958 23.5834H71.4632V28.6684C71.4632 28.6826 71.4207 30.1981 70.67 30.9064C70.415 31.1613 70.0892 31.2746 69.721 31.2605C68.0496 31.1896 67.8371 28.6826 67.8371 28.6684V21.912H76.0666V21.8412C76.3357 16.9687 75.4433 13.4984 73.432 11.5296C71.7025 9.84153 69.7567 9.91058 69.6411 9.91468C69.6383 9.91478 69.636 9.91484 69.636 9.91484C62.8513 10.7647 63.2195 19.6032 63.2337 19.6882C63.2196 19.7732 62.7238 28.3284 66.1091 31.7845ZM62.1431 32.9602H58.1629V2.25193H62.1431V32.9602ZM62.0722 32.8752H58.2479V2.33693H62.0722V32.8752Z" fill="#D42704"/>
<path d="M58.2479 32.8752H62.0722V2.33693H58.2479V32.8752Z" fill="#D42704"/>
<path fill-rule="evenodd" clip-rule="evenodd" d="M18.3493 6.42557C18.4626 6.42557 19.2841 6.42557 19.6382 5.2641L20.7147 5.57572C20.7077 5.6026 20.7008 5.62958 20.6938 5.65668C20.6166 5.958 20.5355 6.27419 20.2756 6.63806C19.9357 7.10549 19.3833 7.5729 18.4909 7.5729C17.3861 7.5729 15.9272 6.82219 15.9272 4.28678C15.9272 1.96382 17.1028 0.774023 18.5193 0.774023C20.1198 0.759875 20.6014 2.27545 20.6722 2.5729L19.5816 2.91284C19.3833 1.99217 18.8167 1.83636 18.4626 1.83636C17.3153 1.83636 17.1453 3.52189 17.1453 4.24428C17.1453 5.36326 17.5136 6.42557 18.3493 6.42557ZM18.5195 0.858937H18.5479C20.0068 0.858937 20.4742 2.17623 20.6017 2.5445L19.6668 2.84195C19.4402 1.92127 18.8312 1.77964 18.4912 1.77964C17.1598 1.77964 17.089 3.84761 17.089 4.25838C17.089 5.29239 17.4289 6.51051 18.3779 6.51051C18.6045 6.51051 19.3552 6.42555 19.7235 5.36321L20.6442 5.64649C20.6393 5.66448 20.6344 5.68243 20.6296 5.70034C20.5504 5.99263 20.4737 6.27598 20.2334 6.60966C19.7943 7.20456 19.2136 7.51618 18.5054 7.51618C18.0805 7.51618 16.0125 7.36037 16.0125 4.30087C16.0125 2.20455 16.9898 0.858937 18.5195 0.858937Z" fill="#231B1C"/>
<path fill-rule="evenodd" clip-rule="evenodd" d="M18.5195 0.858937H18.5479C20.0068 0.858937 20.4742 2.17623 20.6017 2.5445L19.6668 2.84195C19.4402 1.92127 18.8312 1.77964 18.4912 1.77964C17.1598 1.77964 17.089 3.84761 17.089 4.25838C17.089 5.29239 17.4289 6.51051 18.3779 6.51051C18.6045 6.51051 19.3552 6.42555 19.7235 5.36321L20.6442 5.64649L20.6296 5.70034C20.5504 5.99263 20.4737 6.27598 20.2334 6.60966C19.7943 7.20456 19.2136 7.51618 18.5054 7.51618C18.0805 7.51618 16.0125 7.36037 16.0125 4.30087C16.0125 2.20455 16.9898 0.858937 18.5195 0.858937ZM16.7348 6.94958C17.3581 7.57282 18.0946 7.67197 18.4912 7.67197C19.4544 7.67197 20.021 7.14788 20.3751 6.68045C20.6583 6.28386 20.7433 5.95806 20.8141 5.63229L20.8425 5.51897L19.6102 5.13653L19.5819 5.22152C19.2703 6.22719 18.6329 6.3405 18.3637 6.3405C17.5422 6.3405 17.2447 5.20735 17.2447 4.24418C17.2447 3.86173 17.3014 1.92122 18.477 1.92122C18.7745 1.92122 19.3269 2.06289 19.511 2.94106L19.5252 3.02605L20.7575 2.62946L20.7433 2.55864C20.5875 1.8646 19.9501 0.703125 18.5479 0.703125H18.5195C16.8907 0.703125 15.8425 2.11956 15.8425 4.30085C15.8425 5.46233 16.1399 6.35468 16.7348 6.94958ZM23.1938 6.69462C22.3864 6.69462 22.3581 5.434 22.3581 5.13655C22.3581 4.38587 22.5139 3.49349 23.2079 3.50764C23.9586 3.50764 24.0436 4.58412 24.0436 5.00906C24.0436 5.41983 24.0153 6.69462 23.1938 6.69462ZM23.2079 7.5445C24.1428 7.5445 25.1201 6.82211 25.1201 5.10823C25.1201 4.01757 24.7093 2.71446 23.0946 2.70031C22.0889 2.70031 21.2816 3.53599 21.2816 5.10823C21.2816 6.92128 22.3581 7.5445 23.2079 7.5445ZM21.3807 5.12241C21.3807 3.70597 22.0606 2.79945 23.1088 2.79945C24.851 2.79945 25.0351 4.41419 25.0493 5.12241C25.0493 6.28388 24.4827 7.47368 23.2221 7.47368C22.3722 7.47368 21.3807 6.85046 21.3807 5.12241ZM23.2079 6.76547C22.6272 6.76547 22.2872 6.17057 22.2872 5.13658C22.2872 4.0176 22.613 3.4227 23.2221 3.4227C24.0719 3.4227 24.1428 4.64082 24.1428 5.00909C24.1286 6.46802 23.6329 6.76547 23.2079 6.76547Z" fill="#231B1C"/>
<path fill-rule="evenodd" clip-rule="evenodd" d="M23.1088 2.79945C22.0606 2.79945 21.3807 3.70597 21.3807 5.12241C21.3807 6.85046 22.3722 7.47368 23.2221 7.47368C24.4827 7.47368 25.0493 6.28388 25.0493 5.12241C25.0351 4.41419 24.851 2.79945 23.1088 2.79945ZM22.2872 5.13658C22.2872 6.17057 22.6272 6.76547 23.2079 6.76547C23.6329 6.76547 24.1286 6.46802 24.1428 5.00909C24.1428 4.64082 24.0719 3.4227 23.2221 3.4227C22.613 3.4227 22.2872 4.0176 22.2872 5.13658Z" fill="#231B1C"/>
<path fill-rule="evenodd" clip-rule="evenodd" d="M22.4431 5.13655C22.4431 4.42834 22.5847 3.57848 23.2221 3.57848C23.9161 3.57848 23.9728 4.66914 23.9728 5.00909C23.9728 5.73148 23.8453 6.60966 23.2079 6.60966C22.5139 6.60966 22.4431 5.57564 22.4431 5.13655ZM22.2872 5.13658C22.2872 6.17057 22.6272 6.76547 23.2079 6.76547C23.6329 6.76547 24.1286 6.46802 24.1428 5.00909C24.1428 4.64082 24.0719 3.4227 23.2221 3.4227C22.613 3.4227 22.2872 4.0176 22.2872 5.13658ZM21.3807 5.12241C21.3807 3.70597 22.0606 2.79945 23.1088 2.79945C24.851 2.79945 25.0351 4.41419 25.0493 5.12241C25.0493 6.28388 24.4827 7.47368 23.2221 7.47368C22.3722 7.47368 21.3807 6.85046 21.3807 5.12241ZM21.2108 5.12238C21.2108 6.85043 22.2306 7.62947 23.2221 7.62947C24.2136 7.62947 25.2051 6.85043 25.2051 5.12238C25.2051 2.88444 23.7462 2.64364 23.1088 2.64364C21.9615 2.64364 21.2108 3.60681 21.2108 5.12238ZM26.8765 3.45102C27.0889 3.22439 27.5705 2.72863 28.3496 2.72863C29.0153 2.72863 29.3269 3.1394 29.3127 3.91843V7.47371H28.2504V4.21591C28.2504 3.96093 28.1796 3.67765 27.8538 3.67765C27.5422 3.67765 27.2589 3.87596 26.8765 4.27255V7.47368H25.8V2.81362H26.8765V3.45102ZM29.2419 7.38869H28.3354L28.3354 4.18756C28.3354 3.77679 28.1796 3.57848 27.868 3.57848C27.5139 3.57848 27.2164 3.81926 26.834 4.20171L26.8057 4.21588V7.37452H25.8991V2.87027H26.8057V3.63513L26.9473 3.49349C27.1315 3.28103 27.5989 2.79945 28.3496 2.79945C28.9445 2.79945 29.2419 3.16772 29.2419 3.91843V7.38869Z" fill="#231B1C"/>
<path d="M28.3354 7.38869H29.2419V3.91843C29.2419 3.16772 28.9445 2.79945 28.3496 2.79945C27.5989 2.79945 27.1315 3.28103 26.9473 3.49349L26.8057 3.63513V2.87027H25.8991V7.37452H26.8057V4.21588L26.834 4.20171C27.2164 3.81926 27.5139 3.57848 27.868 3.57848C28.1796 3.57848 28.3354 3.77679 28.3354 4.18756L28.3354 7.38869Z" fill="#231B1C"/>
<path fill-rule="evenodd" clip-rule="evenodd" d="M29.2419 7.38869H28.3354L28.3354 4.18756C28.3354 3.77679 28.1796 3.57848 27.868 3.57848C27.5139 3.57848 27.2164 3.81926 26.834 4.20171L26.8057 4.21588V7.37452H25.8991V2.87027H26.8057V3.63513L26.9473 3.49349C27.1315 3.28103 27.5989 2.79945 28.3496 2.79945C28.9445 2.79945 29.2419 3.16772 29.2419 3.91843V7.38869ZM28.1796 7.5445H29.3977V3.91843C29.3977 2.87027 28.8311 2.64364 28.3496 2.64364C27.6697 2.64364 27.2164 2.99773 26.9615 3.23854V2.71446H25.7292V7.54448H26.9615V4.30085C27.3014 3.9609 27.5705 3.74844 27.868 3.74844C28.0946 3.74844 28.1796 3.87593 28.1796 4.20171V7.5445ZM31.9615 3.70597C32.3156 3.70597 32.5705 3.98928 32.698 4.15924V6.1139C32.5847 6.26971 32.3439 6.56716 31.9615 6.56716C31.2249 6.56716 31.1258 5.56149 31.1258 5.1649C31.1258 4.81078 31.1683 3.70597 31.9615 3.70597ZM32.6839 7.45951H33.7603V0.802293H32.6839V3.32356C32.2164 2.74281 31.7349 2.71448 31.5365 2.71448C30.5876 2.71448 29.9502 3.79099 29.9502 5.13658C29.9502 6.48217 30.5734 7.5445 31.5365 7.5445C32.1598 7.5445 32.5564 7.09124 32.6839 6.93543V7.45951ZM30.0351 5.13655C30.0351 3.79094 30.6725 2.79945 31.5365 2.79945C31.9473 2.79945 32.3156 2.99776 32.6272 3.3802L32.7688 3.55016V0.887259H33.6754V7.37452H32.7688V6.7088L32.6272 6.87878C32.4997 7.03457 32.1314 7.45951 31.5365 7.45951C30.6583 7.45951 30.0351 6.48217 30.0351 5.13655ZM31.9615 6.65215C31.2816 6.65215 31.0408 5.85894 31.0408 5.1649C31.0408 4.17341 31.3666 3.63516 31.9615 3.63516C32.2447 3.63516 32.5139 3.80512 32.7688 4.13091L32.783 4.14509V6.15642L32.7688 6.17059C32.6414 6.32635 32.3722 6.65215 31.9615 6.65215Z" fill="#231B1C"/>
<path fill-rule="evenodd" clip-rule="evenodd" d="M31.5365 2.79945C30.6725 2.79945 30.0351 3.79094 30.0351 5.13655C30.0351 6.48217 30.6583 7.45951 31.5365 7.45951C32.1314 7.45951 32.4997 7.03457 32.6272 6.87878L32.7688 6.7088V7.37452H33.6754V0.887259H32.7688V3.55016L32.6272 3.3802C32.3156 2.99776 31.9473 2.79945 31.5365 2.79945ZM31.0408 5.1649C31.0408 5.85894 31.2816 6.65215 31.9615 6.65215C32.3722 6.65215 32.6414 6.32635 32.7688 6.17059L32.783 6.15642V4.14509L32.7688 4.13091C32.5139 3.80512 32.2447 3.63516 31.9615 3.63516C31.3666 3.63516 31.0408 4.17341 31.0408 5.1649Z" fill="#231B1C"/>
<path fill-rule="evenodd" clip-rule="evenodd" d="M31.1966 5.1649C31.1966 4.655 31.2958 3.79097 31.9473 3.79097C32.1881 3.79097 32.4006 3.91843 32.613 4.20173V6.09975C32.4997 6.25553 32.2872 6.49634 31.9615 6.49634C31.2108 6.49634 31.1966 5.30654 31.1966 5.1649ZM31.0408 5.1649C31.0408 5.85894 31.2816 6.65215 31.9615 6.65215C32.3722 6.65215 32.6414 6.32635 32.7688 6.17059L32.783 6.15642V4.14509L32.7688 4.13091C32.5139 3.80512 32.2447 3.63516 31.9615 3.63516C31.3666 3.63516 31.0408 4.17341 31.0408 5.1649ZM30.0351 5.13655C30.0351 3.79094 30.6725 2.79945 31.5365 2.79945C31.9473 2.79945 32.3156 2.99776 32.6272 3.3802L32.7688 3.55016V0.887259H33.6754V7.37452H32.7688V6.7088L32.6272 6.87878C32.4997 7.03457 32.1314 7.45951 31.5365 7.45951C30.6583 7.45951 30.0351 6.48217 30.0351 5.13655ZM29.8652 5.15073C29.8652 6.58131 30.5592 7.62947 31.5224 7.62947C32.0465 7.62947 32.4005 7.34619 32.613 7.14788V7.55865H33.8453V0.745622H32.613V3.12522C32.3581 2.87027 32.004 2.64364 31.5365 2.64364C30.5734 2.64364 29.8652 3.70597 29.8652 5.15073ZM36.3241 3.52184C35.97 3.52184 35.5167 3.77679 35.4742 4.64082H37.2023C37.1598 3.72015 36.6215 3.52184 36.3241 3.52184ZM36.3241 2.72863C37.2448 2.72863 37.8397 3.29518 38.0521 4.01757C38.1938 4.52751 38.1796 4.93827 38.1512 5.34904H35.4742C35.5167 6.42552 36.0549 6.60966 36.3665 6.60966C36.8804 6.60966 37.0845 6.19651 37.1882 5.98653C37.1931 5.97658 37.1978 5.96708 37.2022 5.95811L38.0804 6.3547L38.0753 6.36508C37.9283 6.65943 37.4862 7.5445 36.3666 7.5445C35.2901 7.5445 34.3552 6.6663 34.3552 5.07991C34.3552 3.66348 35.1626 2.72863 36.3241 2.72863ZM34.4402 5.07991C34.4402 3.72012 35.2051 2.79945 36.3241 2.79945C37.1173 2.79945 37.7405 3.26689 37.9955 4.03175C38.1229 4.49918 38.1229 4.86745 38.1088 5.26404H35.4175V5.34904C35.46 6.58133 36.1683 6.68047 36.3807 6.68047C36.9048 6.68047 37.1456 6.26971 37.2589 6.05725L37.9813 6.38302C37.8113 6.72297 37.3722 7.45951 36.3666 7.45951C35.4317 7.45951 34.4402 6.72297 34.4402 5.07991ZM37.2872 4.71164H35.3892V4.62665C35.4317 3.74847 35.8991 3.43685 36.3241 3.43685C36.4799 3.43685 37.2306 3.49349 37.2872 4.62665V4.71164Z" fill="#231B1C"/>
<path fill-rule="evenodd" clip-rule="evenodd" d="M36.3241 2.79945C35.2051 2.79945 34.4402 3.72012 34.4402 5.07991C34.4402 6.72297 35.4317 7.45951 36.3666 7.45951C37.3722 7.45951 37.8113 6.72297 37.9813 6.38302L37.2589 6.05725C37.1456 6.26971 36.9048 6.68047 36.3807 6.68047C36.1683 6.68047 35.46 6.58133 35.4175 5.34904V5.26404H38.1088C38.1229 4.86745 38.1229 4.49918 37.9955 4.03175C37.7405 3.26689 37.1173 2.79945 36.3241 2.79945ZM35.3892 4.71164H37.2872V4.62665C37.2306 3.49349 36.4799 3.43685 36.3241 3.43685C35.8991 3.43685 35.4317 3.74847 35.3892 4.62665V4.71164Z" fill="#231B1C"/>
<path fill-rule="evenodd" clip-rule="evenodd" d="M35.2618 2.28954H36.2533L37.953 0.773971H36.4374L35.2618 2.28954ZM44.2136 5.30654V0.915608H45.3751V7.47366H44.2278L41.7348 2.89859H41.7207V7.47368H40.5592V0.915608H41.7915L44.1994 5.30654H44.2136ZM35.5592 4.55583H37.1173C37.0465 3.6493 36.4374 3.59266 36.3241 3.59266C36.1683 3.60681 35.6442 3.67765 35.5592 4.55583ZM37.2872 4.71164H35.3892V4.62665C35.4317 3.74847 35.8991 3.43685 36.3241 3.43685C36.4799 3.43685 37.2306 3.49349 37.2872 4.62665V4.71164ZM36.3241 2.79945C35.2051 2.79945 34.4402 3.72012 34.4402 5.07991C34.4402 6.72297 35.4317 7.45951 36.3666 7.45951C37.3722 7.45951 37.8113 6.72297 37.9813 6.38302L37.2589 6.05725C37.1456 6.26971 36.9048 6.68047 36.3807 6.68047C36.1683 6.68047 35.46 6.58133 35.4175 5.34904V5.26404H38.1088C38.1229 4.86745 38.1229 4.49918 37.9955 4.03175C37.7405 3.26689 37.1173 2.79945 36.3241 2.79945ZM36.3524 7.62947C35.3467 7.62947 34.2702 6.83626 34.2702 5.07988C34.2702 3.62095 35.0918 2.64361 36.3241 2.64361C37.1881 2.64361 37.8821 3.16769 38.1371 3.98922C38.2929 4.49913 38.2787 4.9099 38.2504 5.34901V5.41983H35.5734C35.6442 6.41132 36.1541 6.51049 36.3807 6.51049C36.8195 6.51049 37.0087 6.17347 37.1239 5.96815L37.1456 5.92976L37.1881 5.84477L38.2079 6.31218L38.1654 6.383L38.1434 6.4238C37.9576 6.76879 37.494 7.62947 36.3524 7.62947ZM36.4799 0.858937H37.7405L36.2391 2.21872H35.4317L36.4799 0.858937Z" fill="#231B1C"/>
<path d="M35.6017 2.13373H36.2108L37.5422 0.943931H36.5365L35.6017 2.13373Z" fill="#231B1C"/>
<path d="M18.5479 0.858937H18.5195C16.9898 0.858937 16.0125 2.20455 16.0125 4.30087C16.0125 7.36037 18.0805 7.51618 18.5054 7.51618C19.2136 7.51618 19.7943 7.20456 20.2334 6.60966C20.4737 6.27598 20.5504 5.99263 20.6296 5.70034L20.6442 5.64649L19.7235 5.36321C19.3552 6.42555 18.6045 6.51051 18.3779 6.51051C17.4289 6.51051 17.089 5.29239 17.089 4.25838C17.089 3.84761 17.1598 1.77964 18.4912 1.77964C18.8312 1.77964 19.4402 1.92127 19.6668 2.84195L20.6017 2.5445C20.4742 2.17623 20.0068 0.858937 18.5479 0.858937Z" fill="#231B1C"/>
</svg>
