<svg width="110" height="34" viewBox="0 0 110 34" fill="none" xmlns="http://www.w3.org/2000/svg">
<g clip-path="url(#clip0_3204_13991)">
<path d="M0 0.693359V33.302H22.4571V0.693359H0ZM19.2091 30.0191H3.23643V3.97843H19.2091V30.0191Z" fill="#FBD42C"/>
<path d="M35.8405 12.0633H35.809C34.0175 9.14523 32.2089 6.5677 30.3848 3.97302H28.9929V15.3229H30.529V7.18292H30.5445C32.3537 10.1181 34.1612 12.7128 35.9859 15.3229H37.3778V3.97302H35.8405V12.0633ZM46.9295 15.3229L43.3609 3.97302H41.7618L37.8891 15.3229H39.5529L40.5296 12.2258H43.9048L44.7854 15.3229H46.9295ZM41.0249 10.8306C41.4732 9.3387 41.9215 7.96287 42.3211 6.2095H42.3538C42.8021 7.96232 43.2017 9.3387 43.6179 10.8306H41.0249ZM48.7371 15.3229H50.6574V5.49754H53.602V3.97302H45.7936V5.49754H48.7376L48.7371 15.3229ZM56.1292 3.97302H54.2255V15.3229H56.1292V3.97302ZM62.0509 15.5164C64.9795 15.5164 66.8036 12.8742 66.8036 9.48518C66.8036 6.30734 64.7866 3.77734 62.0509 3.77734C59.3142 3.77734 57.2972 6.30734 57.2972 9.48518C57.2972 12.8747 59.1213 15.5164 62.0509 15.5164ZM62.0509 5.39971C63.9552 5.39971 64.7545 7.39352 64.7545 9.48573C64.7545 11.6581 64.0514 13.8957 62.0509 13.8957C60.0505 13.8957 59.3468 11.6586 59.3468 9.48573C59.3468 7.39352 60.1467 5.39971 62.0509 5.39971ZM69.5061 7.18292H69.5238C71.3313 10.1181 73.1388 12.7128 74.9635 15.3229H76.3554V3.97302H74.8192V12.0633H74.7872C72.9957 9.14523 71.187 6.5677 69.3629 3.97302H67.971V15.3229H69.5061V7.18292ZM79.5061 12.2258H82.8835L83.7635 15.3229H85.9071L82.3396 3.97302H80.7393L76.8661 15.3229H78.5322L79.5061 12.2258ZM81.3004 6.2095H81.3319C81.7791 7.96232 82.1793 9.3387 82.5966 10.8306H80.0025C80.4519 9.3387 80.8985 7.96232 81.3004 6.2095ZM92.1633 13.7978H88.3719V3.97302H86.4671V15.3229H92.1639L92.1633 13.7978ZM34.2751 28.304C33.8744 28.5152 33.4432 28.5804 32.9313 28.5804C31.2836 28.5804 29.6833 26.9907 29.6833 24.2998C29.6833 21.7223 31.0752 20.0839 33.1237 20.0839C33.86 20.0839 34.6598 20.3591 35.1717 20.6831L35.7952 19.3382C35.1557 18.8507 34.1154 18.4621 33.0751 18.4621C29.7154 18.4621 27.6348 21.1701 27.6348 24.2666C27.6348 27.607 29.7154 30.2017 33.0104 30.2017C34.0988 30.2017 35.1711 29.9115 36.196 29.5041V24.8172H34.2751V28.304ZM39.8586 24.8183H42.9955V23.2949H39.8586V20.1817H43.0596V18.6577H37.9394V30.0076H43.6356V28.482H39.8586V24.8183ZM48.9803 18.4626C46.2436 18.4626 44.2282 20.9921 44.2282 24.1705C44.2282 27.5589 46.0518 30.2022 48.9803 30.2022C51.9083 30.2022 53.7319 27.5589 53.7319 24.1705C53.7319 20.9921 51.7159 18.4626 48.9803 18.4626ZM48.9803 28.5804C46.9793 28.5804 46.2756 26.3428 46.2756 24.1699C46.2756 22.0777 47.0755 20.0833 48.9803 20.0833C50.884 20.0833 51.6839 22.0771 51.6839 24.1699C51.6839 26.3428 50.9807 28.5804 48.9803 28.5804ZM61.0289 28.304C60.6292 28.5152 60.1964 28.5804 59.6846 28.5804C58.0362 28.5804 56.436 26.9907 56.436 24.2998C56.436 21.7223 57.8284 20.0839 59.8775 20.0839C60.6132 20.0839 61.4136 20.3591 61.9238 20.6831L62.5484 19.3382C61.9089 18.8507 60.868 18.4621 59.8272 18.4621C56.4686 18.4621 54.3885 21.1701 54.3885 24.2666C54.3885 27.607 56.4686 30.2017 59.7653 30.2017C60.852 30.2017 61.9238 29.9115 62.9492 29.5041V24.8172H61.0289V28.304ZM71.1738 21.9334C71.1738 19.7268 69.8449 18.6577 67.7019 18.6577H64.7092V30.0076H66.6289V25.727H67.4929L69.301 30.0076H71.4927L69.238 25.3047C70.4684 24.6403 71.1738 23.2949 71.1738 21.9334ZM67.4293 24.2672C67.2364 24.2838 66.7876 24.3004 66.6284 24.3164V20.1823H67.478C68.6123 20.1823 69.2518 20.8456 69.2518 22.0136C69.2518 23.537 68.3414 24.2191 67.4293 24.2672ZM75.398 18.6577L71.5248 30.0076H73.188L74.1648 26.91H77.541L78.4233 30.0076H80.5658L76.9971 18.6577H75.398ZM74.6623 25.517C75.11 24.024 75.5577 22.6459 75.9579 20.8953H75.9906C76.4377 22.6459 76.8379 24.024 77.2547 25.517H74.6623ZM94.6154 23.0191H90.6305V18.6577H88.7262V30.0076H90.6305V24.5425H94.6154V30.0076H96.5346V18.6887H94.6154V23.0191ZM98.3742 30.0065H100.278V18.6577H98.3742V30.0065ZM106.999 28.5804C105.143 28.5804 103.574 26.9907 103.574 24.2998C103.574 21.7223 105 20.0839 106.951 20.0839C107.687 20.0839 108.455 20.4238 108.92 20.7157L109.527 19.3387C108.871 18.8844 107.944 18.4626 106.951 18.4626C103.607 18.4626 101.543 21.1706 101.543 24.2672C101.543 27.6075 103.623 30.2022 106.92 30.2022C107.848 30.2022 108.872 29.8291 109.448 29.4245L108.92 28.0133C108.424 28.3372 107.735 28.5804 106.999 28.5804ZM84.1654 18.6577H81.1749V30.0076H83.0952V25.727H83.9581C86.2476 25.727 87.6384 23.8449 87.6384 21.9334C87.6378 19.7268 86.3112 18.6577 84.1654 18.6577ZM83.894 24.2672C83.7022 24.2821 83.2389 24.2976 83.0947 24.3125V20.1817H83.9575C85.0785 20.1817 85.7186 20.845 85.7186 22.013C85.7181 23.537 84.806 24.2191 83.894 24.2672Z" fill="#4B4B4B"/>
</g>
<defs>
<clipPath id="clip0_3204_13991">
<rect width="110" height="32.6131" fill="white" transform="translate(0 0.693359)"/>
</clipPath>
</defs>
</svg>
