<svg width="126" height="32" viewBox="0 0 126 32" fill="none" xmlns="http://www.w3.org/2000/svg">
<g clip-path="url(#clip0_3204_14407)">
<path fill-rule="evenodd" clip-rule="evenodd" d="M22.777 29.2362C22.5385 30.1914 22.5056 30.2876 22.2636 30.2876H19.5436V30.4745H25.7043V30.2876H22.8844C22.702 30.2876 22.7325 30.158 22.9543 29.285L24.8492 21.9271H32.3507L34.6409 30.2876H31.5935V30.4745H41.8447V30.2876H38.6578L30.1566 0.804688H30.105L22.777 29.2362ZM28.476 7.83522L32.2925 21.741H24.9029L28.476 7.83522ZM111.071 15.7644H113.416C115.493 15.7644 118.557 16.6591 118.557 20.2944V26.8775C118.557 29.5712 120.044 31.2676 122.666 31.2676C125.422 31.2676 125.38 28.4845 125.38 26.4768V24.3609H125.193V26.4768C125.193 28.7604 124.923 30.7436 123.578 30.7436C122.387 30.7436 122.13 30.0047 122.13 26.9063V20.2944C122.13 17.2351 119.651 16.1138 115.821 15.67C120.591 15.1026 122.387 12.0567 122.387 8.68853C122.387 3.70651 120.086 1.61234 114.161 1.61234L104.77 1.61034V1.79755H107.236C107.414 1.79755 107.498 1.8475 107.498 1.94852V30.1354C107.498 30.237 107.414 30.2876 107.236 30.2876H104.77V30.4745H113.406V30.2876H111.332C111.153 30.2876 111.071 30.237 111.071 30.1354V15.7644ZM111.071 1.79927H113.602C117.501 1.79927 118.604 4.76502 118.604 8.68853C118.604 12.3621 117.501 15.5775 113.602 15.5775H111.071V1.79927ZM48.2191 30.1403C48.1886 30.2074 48.2231 30.2876 48.3672 30.2876L55.0964 30.2893C57.168 30.2893 59.8421 27.2253 59.8421 17.3523V16.3244H60.0293V30.4756H43.9625L56.1346 1.94339C56.1643 1.87718 56.1295 1.79755 55.9857 1.79755L48.8413 1.79927C46.966 1.79927 44.2428 5.22278 44.2428 14.7368V15.7644H44.0559V1.61234H60.4032L48.2191 30.1403ZM8.44058 1.79927C12.3407 1.79927 13.9286 4.76502 13.9286 8.68853C13.9286 12.3621 12.3407 15.297 8.44058 15.297H6.66603V1.79927H8.44058ZM0.365234 1.61034V1.79755H2.83156C3.00993 1.79755 3.09326 1.8475 3.09326 1.94852V30.1354C3.09326 30.237 3.00993 30.2876 2.83156 30.2876H0.365234V30.4745L9.56186 30.4756C15.4854 30.4756 18.6458 28.0082 18.6458 23.0276C18.6458 19.5784 16.7779 16.0678 10.8818 15.3686C15.8903 14.9003 17.6184 11.7545 17.6184 8.68853C17.6184 4.2048 14.9252 1.61234 9.00136 1.61234L0.365234 1.61034ZM8.44058 15.4839C12.8384 15.4839 14.5827 18.4811 14.5827 23.0276C14.5827 26.9499 13.0256 30.2893 9.37465 30.2893L6.92773 30.2876C6.74937 30.2876 6.66603 30.237 6.66603 30.1354V15.4816L8.44058 15.4839ZM65.1871 29.2362C64.9474 30.1914 64.9146 30.2876 64.6732 30.2876H61.9531V30.4745H68.1144V30.2876H65.2936C65.1124 30.2876 65.1421 30.158 65.3649 29.285L67.2591 21.9271H74.7605L77.0513 30.2876H74.0028V30.4745H84.2548V30.2876H81.0667L72.5661 0.804688H72.5139L65.1871 29.2362ZM70.8861 7.83522L74.7014 21.741H67.3119L70.8861 7.83522Z" fill="#4B4B4B"/>
<path fill-rule="evenodd" clip-rule="evenodd" d="M85.6466 29.2362C85.4072 30.1914 85.3755 30.2876 85.1338 30.2876H82.4132V30.4745H88.5741V30.2876H85.7536C85.5724 30.2876 85.6024 30.158 85.8244 29.285L87.7194 21.9271H95.2205L97.511 30.2876H94.4628V30.4745H104.715V30.2876H101.528L93.027 0.804688H92.9748L85.6466 29.2362ZM91.3464 7.83522L95.1623 21.741H87.7719L91.3464 7.83522ZM79.0544 4.59778C79.0544 4.6092 79.065 4.61348 79.085 4.61348H79.5013V4.67997H78.0798V4.61348H78.4511C78.4719 4.61348 78.4811 4.6092 78.4811 4.59778V3.15857H77.1235V4.59778C77.1235 4.6092 77.1329 4.61348 77.1532 4.61348H77.5245V4.67997H76.1035V4.61348H76.5199C76.5402 4.61348 76.5496 4.6092 76.5496 4.59778V1.77358C76.5496 1.76331 76.5402 1.75845 76.5199 1.75845H76.1035V1.69167H77.5245V1.75845H77.1532C77.1329 1.75845 77.1235 1.76331 77.1235 1.77358V3.09264H78.4811V1.77358C78.4811 1.76331 78.4719 1.75845 78.4511 1.75845H78.0798V1.69167H79.5013V1.75845H79.085C79.065 1.75845 79.0544 1.76331 79.0544 1.77358V4.59778ZM83.0013 3.37118C82.8706 3.37118 82.783 3.31068 82.783 3.2088C82.783 3.11662 82.8384 3.11976 82.8384 3.05212C82.8384 2.98363 82.7944 2.95223 82.7239 2.95223C82.6512 2.95223 82.5213 2.97649 82.4229 3.27558V4.59778C82.4229 4.6092 82.432 4.61348 82.4525 4.61348H82.7077V4.67997H81.7071V4.61348H81.9614C81.9819 4.61348 81.9911 4.6092 81.9911 4.59778V2.96565C81.9911 2.95566 81.9819 2.94995 81.9614 2.94995H81.7071V2.88345H82.4103L82.4229 2.8963V3.17512C82.4979 2.94282 82.66 2.84692 82.8507 2.84692C83.0827 2.84692 83.2334 2.96879 83.2334 3.15743C83.2334 3.27643 83.1415 3.37118 83.0013 3.37118ZM86.7542 4.71622C87.0798 4.71622 87.3418 4.5584 87.5168 4.31667L87.4662 4.27615C87.3027 4.5076 87.0835 4.65086 86.7542 4.65086C86.6338 4.65086 86.5367 4.62803 86.4537 4.5544C86.3167 4.4314 86.2739 4.28728 86.2739 3.78214C86.2739 3.74476 86.2742 3.73448 86.275 3.70024H87.555L87.5675 3.68853C87.5675 3.3475 87.3324 2.84692 86.7542 2.84692C86.2205 2.84692 85.8195 3.26616 85.8195 3.78214C85.8195 4.29727 86.2205 4.71622 86.7542 4.71622ZM86.9916 3.01017C87.0898 3.1209 87.1218 3.29213 87.1295 3.63374H86.2762C86.2867 3.29213 86.3298 3.1209 86.4537 3.01017C86.5367 2.93625 86.6338 2.91342 86.7542 2.91342C86.8584 2.91342 86.9257 2.93625 86.9916 3.01017ZM80.386 4.63403C80.6149 4.63403 80.7633 4.47107 80.7633 4.31525V3.69339C80.6569 3.75474 80.5025 3.75474 80.3661 3.77929C80.2128 3.80726 80.0484 3.88745 80.0484 4.27444C80.0484 4.56981 80.2419 4.63403 80.386 4.63403ZM79.8487 3.21222C79.8487 3.06296 80.0367 2.84692 80.4 2.84692C80.9323 2.84692 81.1957 3.08151 81.1957 3.60834V4.46536C81.1957 4.5661 81.2439 4.60777 81.3141 4.60777C81.3963 4.60777 81.4622 4.53985 81.4799 4.49875L81.5236 4.54213C81.4968 4.6169 81.3604 4.71622 81.1868 4.71622C80.9899 4.71622 80.8167 4.60235 80.7862 4.44424C80.7234 4.62432 80.551 4.71622 80.303 4.71622C79.8918 4.71622 79.6275 4.57295 79.6275 4.27444C79.6275 3.8338 80.0981 3.73134 80.279 3.71679C80.5342 3.69538 80.7633 3.67855 80.7633 3.58836V3.34264C80.7633 3.04184 80.6321 2.91342 80.4 2.91342C80.2839 2.91342 80.2117 2.9665 80.2117 3.09093C80.2117 3.16171 80.2485 3.1834 80.2485 3.25246C80.2485 3.3298 80.1871 3.40343 80.0416 3.40343C79.9032 3.40343 79.8487 3.30754 79.8487 3.21222ZM84.8569 3.00817C84.7796 2.93625 84.6749 2.91342 84.563 2.91342C84.4083 2.91342 84.2662 3.01559 84.1677 3.13089V4.38688C84.2271 4.53642 84.3992 4.65086 84.563 4.65086C84.6749 4.65086 84.7796 4.6286 84.8569 4.55583C84.9845 4.43511 85.0704 4.22478 85.0704 3.79299C85.0704 3.36091 84.9845 3.1286 84.8569 3.00817ZM85.5096 3.79299C85.5096 4.2596 85.1132 4.71622 84.563 4.71622C84.3946 4.71622 84.2662 4.61119 84.1677 4.5096V5.90143C84.1677 5.91114 84.178 5.91599 84.198 5.91599H84.4523V5.98248H83.4525V5.91599H83.7065C83.7268 5.91599 83.7362 5.91114 83.7362 5.90143V2.96565C83.7362 2.95566 83.7268 2.94995 83.7065 2.94995H83.4525V2.88345H84.1555L84.1677 2.8963V3.0564C84.2662 2.95395 84.3946 2.84692 84.563 2.84692C85.1132 2.84692 85.5096 3.32581 85.5096 3.79299ZM90.9674 2.89715C91.0148 2.89715 91.041 2.87775 91.0462 2.85948H91.1184V3.30469H91.0462C91.0462 3.04584 90.8141 2.91342 90.5944 2.91342C90.3669 2.91342 90.2571 3.01559 90.2571 3.17683C90.2571 3.38431 90.406 3.4899 90.7442 3.58465C91.0984 3.68425 91.3315 3.8572 91.3315 4.12718C91.3315 4.46879 91.0556 4.71622 90.6141 4.71622C90.3518 4.71622 90.2382 4.59407 90.1024 4.59407C90.0721 4.59304 90.0422 4.60125 90.0166 4.61761C89.9911 4.63397 89.9711 4.65771 89.9594 4.68568H89.8863L89.9114 4.0935H89.9845C89.9722 4.404 90.2628 4.65086 90.6141 4.65086C90.8795 4.65086 91.0299 4.52929 91.0299 4.30297C91.0299 4.07723 90.8521 3.98734 90.5276 3.88831C90.2102 3.79242 89.9894 3.66342 89.9894 3.38431C89.9894 3.05355 90.3098 2.84692 90.5944 2.84692C90.7799 2.84692 90.7973 2.89715 90.9674 2.89715ZM89.6486 2.27301C89.6486 2.15258 89.7508 2.0544 89.8769 2.0544C90.0136 2.0544 90.1149 2.15372 90.1149 2.29927C90.1149 2.51416 89.9209 2.76645 89.6546 2.92655L89.6121 2.8786C89.8044 2.7673 89.9428 2.63003 90.0247 2.43511C89.9894 2.47421 89.9403 2.49219 89.8769 2.49219C89.7508 2.49219 89.6486 2.39458 89.6486 2.27301ZM89.0713 3.37118C88.9411 3.37118 88.8529 3.31068 88.8529 3.2088C88.8529 3.11662 88.9086 3.11976 88.9086 3.05212C88.9086 2.98363 88.8641 2.95223 88.7933 2.95223C88.7208 2.95223 88.5907 2.97649 88.4928 3.27558V4.59778C88.4928 4.6092 88.5011 4.61348 88.5216 4.61348H88.7765V4.67997H87.7759V4.61348H88.0313C88.0513 4.61348 88.061 4.6092 88.061 4.59778V2.96565C88.061 2.95566 88.0513 2.94995 88.0313 2.94995H87.7759V2.88345H88.4797L88.4928 2.8963V3.17512C88.5684 2.94282 88.7297 2.84692 88.9217 2.84692C89.1515 2.84692 89.3041 2.96879 89.3041 3.15743C89.3041 3.27643 89.2105 3.37118 89.0713 3.37118Z" fill="#4B4B4B"/>
</g>
<defs>
<clipPath id="clip0_3204_14407">
<rect width="125" height="30.5365" fill="white" transform="translate(0.367188 0.732422)"/>
</clipPath>
</defs>
</svg>
