<svg width="80" height="24" viewBox="0 0 80 24" fill="none" xmlns="http://www.w3.org/2000/svg">
<path d="M43.3441 15.334C43.3441 17.8116 40.2599 17.6646 40.2599 17.6646H37.1756V13.1875H40.2599C43.433 13.1615 43.3441 15.334 43.3441 15.334ZM37.1756 6.35956H39.5281C41.9695 6.48826 41.8738 8.3049 41.8738 8.3049C41.8738 10.5622 39.1793 10.5989 39.1793 10.5989H37.1756V6.35956ZM42.7765 11.4793C42.7765 11.4793 44.8829 10.5801 44.8692 8.19479C44.8692 8.19479 45.211 4.28566 40.0068 3.80882H34.2623V20.197H40.848C40.848 20.197 46.3532 20.2126 46.3532 15.573C46.3532 15.573 46.49 12.415 42.7765 11.4793ZM27.9022 0.597656H52.0978V23.3989H27.9022V0.597656ZM15.442 15.334C15.442 17.8116 12.3576 17.6646 12.3576 17.6646H9.27331V13.1875H12.3576C15.5308 13.1615 15.442 15.334 15.442 15.334ZM9.27331 6.35956H11.6259C14.0673 6.48826 13.9716 8.3049 13.9716 8.3049C13.9716 10.5622 11.2771 10.5989 11.2771 10.5989H9.27331V6.35956ZM14.8743 11.4793C14.8743 11.4793 16.9806 10.5801 16.967 8.19479C16.967 8.19479 17.3088 4.28566 12.1046 3.80882H6.36004V20.197H12.9458C12.9458 20.197 18.451 20.2126 18.451 15.573C18.451 15.573 18.5881 12.415 14.8743 11.4793ZM0 0.597656H24.1956V23.3989H0V0.597656ZM75.0624 4.9837V8.01146C75.0624 8.01146 72.1081 6.19524 68.846 6.15866C68.846 6.15866 62.7526 6.03933 62.4791 11.9991C62.4791 11.9991 62.2739 17.4802 68.7707 17.7926C68.7707 17.7926 71.5062 18.1218 75.2129 15.7573V18.8929C75.2129 18.8929 70.2343 21.848 64.476 19.572C64.476 19.572 59.6341 17.8032 59.4495 11.9992C59.4495 11.9992 59.2444 6.02957 65.707 4.04796C65.707 4.04796 67.4303 3.38762 70.5283 3.68122C70.5283 3.68112 72.3816 3.86439 75.0624 4.9837ZM55.8044 23.3991H80V0.597815H55.8044V23.3991Z" fill="#B90005"/>
</svg>
