<svg width="126" height="20" viewBox="0 0 126 20" fill="none" xmlns="http://www.w3.org/2000/svg">
<g clip-path="url(#clip0_3204_14429)">
<path d="M27.858 16.0646L26.8177 12.4859L26.3811 10.5581C26.4455 10.5415 26.393 10.4126 26.3906 10.3935C26.0208 7.3373 23.6613 7.68085 22.1296 8.20573C22.1296 8.20573 22.0484 8.28208 22.0508 8.18189C22.0556 8.05782 22.058 6.81955 22.058 6.48554C22.058 6.40683 22.1272 6.38295 22.1272 6.38295C24.0406 5.54317 26.8105 5.61474 28.514 6.46647C29.7928 7.10824 30.5372 8.0793 31.241 10.9947C31.4343 11.8012 31.6561 12.9106 32.2717 15.3202C32.5676 16.4773 32.8801 16.9092 33.5171 16.7875C33.5958 16.7732 33.5982 16.8138 33.5982 16.8829C33.5958 17.4317 33.5958 18.3502 33.5958 18.4146C33.5958 18.6055 33.5958 18.6055 33.5314 18.6031C33.4503 18.6007 31.7707 18.6055 31.7707 18.6055C31.0048 18.6007 30.0719 18.6007 28.86 17.5414L27.858 16.0646Z" fill="#4B4B4B"/>
<path d="M27.8549 16.0651C27.8835 16.151 27.7595 16.2368 27.6784 16.275C25.0325 17.7805 24.071 13.3214 26.6477 12.4625C26.7527 12.4339 26.8147 12.4863 26.8147 12.4863L26.3781 10.5586C25.0015 10.8616 22.8375 11.4843 21.8999 12.3694C19.8028 14.3497 20.707 17.5395 23.0093 18.365C24.2953 18.8255 26.953 19.1905 28.8569 17.5419L27.8549 16.0651Z" fill="#4B4B4B"/>
<path d="M45.8384 5.54903C47.2961 5.54903 48.4795 4.59472 48.4795 3.41612C48.4795 2.23755 47.2961 1.2832 45.8384 1.2832C44.3782 1.2832 43.1973 2.23755 43.1973 3.41612C43.1973 4.59472 44.3782 5.54903 45.8384 5.54903Z" fill="#4B4B4B"/>
<path d="M57.6249 11.3508C57.706 11.3294 58.0257 11.3365 57.9994 10.8856C57.9302 9.73563 57.644 8.95067 57.3075 8.49259C56.6729 7.63133 55.511 7.60031 54.9121 8.87673C54.5614 9.6211 54.4923 10.9762 54.5399 11.8804C54.5567 12.162 54.602 12.1763 54.8597 12.1143L55.0672 13.8154C54.9766 13.8631 54.8645 13.8225 54.9957 14.1732C55.8236 16.3992 57.0117 16.7022 58.6007 16.6115C59.4238 16.5662 60.3447 16.1368 60.6691 15.9674C60.9912 15.7956 60.9411 16.0008 60.9411 16.1224V17.6279C60.9411 17.8712 60.9626 17.9571 60.5332 18.1122C58.3621 18.9067 55.511 19.0952 53.2969 18.0048C51.436 17.0887 49.7421 14.6719 49.8876 12.0355C50.119 7.83891 52.7268 5.56999 56.6371 5.69642C59.7172 5.79664 62.072 8.05599 62.3583 11.377C62.3702 11.5154 62.3678 11.7278 62.2366 11.8017L57.6249 11.3508Z" fill="#4B4B4B"/>
<path d="M57.6246 11.3477C57.0806 11.5123 54.8594 12.1111 54.8594 12.1111L55.067 13.8122C55.1553 13.7621 62.2363 11.7986 62.2363 11.7986L57.6246 11.3477Z" fill="#4B4B4B"/>
<path d="M19.4762 17.6315C19.4738 18.2065 19.6074 18.426 19.6527 18.5214C19.6909 18.6073 19.5764 18.5954 19.5764 18.5954H18.6841H14.9645C14.9645 18.5954 14.8739 18.6002 14.9025 18.5214C14.9574 18.3664 15.0695 18.0872 15.0695 17.6315L15.0647 17.0351V11.3664V10.2999C15.0624 9.89909 14.8143 9.03783 13.8432 9.03543C13.0392 9.0426 12.29 9.77266 12.2877 10.7842V12.9005L12.2853 17.1233C12.2853 17.1233 12.2877 17.6101 12.2877 17.6315C12.2853 18.2065 12.4189 18.426 12.4642 18.5214C12.5024 18.6073 12.3879 18.5954 12.3879 18.5954H11.4979H7.77607C7.77607 18.5954 7.68542 18.6002 7.71404 18.5214C7.76893 18.3664 7.87866 18.0872 7.88106 17.6315V17.3142V11.3736V10.3071C7.87866 9.90386 7.63052 9.04497 6.65714 9.0402C5.8555 9.04737 5.10397 9.77743 5.10397 10.789V11.3354V17.2904L5.09923 17.6315C5.09923 18.2065 5.23284 18.426 5.27572 18.5214C5.31395 18.6073 5.20182 18.5954 5.20182 18.5954H4.30947H0.590006C0.590006 18.5954 0.496955 18.6002 0.525569 18.5214C0.58287 18.3664 0.690191 18.0872 0.694997 17.6315V17.2307C0.694997 15.7491 0.692594 9.24301 0.690191 8.64415C0.694997 8.25287 0.57093 7.97376 0.511299 7.82104C0.475477 7.74233 0.554183 7.70655 0.554183 7.70655C0.554183 7.70655 2.25057 6.94547 5.02999 5.66188C5.05861 5.64997 5.10637 5.66665 5.10397 5.71678V6.83571V7.7972C5.10397 7.84969 5.16127 7.87831 5.20415 7.83298C5.22803 7.80914 5.25665 7.77095 5.29487 7.72803C6.81935 5.40421 11.5648 5.02727 12.3115 7.80914C12.3259 7.85683 12.3783 7.85206 12.4094 7.80914C13.3493 6.54943 14.2918 5.91478 16.229 5.91478C20.0177 5.91478 19.4714 9.14519 19.469 11.135L19.4714 17.0351L19.4762 17.6315Z" fill="#4B4B4B"/>
<path d="M39.2206 17.6431C39.2182 18.2157 39.3519 18.4376 39.3948 18.533C39.4354 18.6189 39.3208 18.607 39.3208 18.607H38.1923H34.4728C34.4728 18.607 34.3798 18.6094 34.4084 18.533C34.4633 18.3756 34.573 18.0988 34.5754 17.6431L34.5778 17.2996C34.5778 15.8228 34.5754 9.51705 34.5754 8.9182C34.5754 8.58418 34.3512 7.96148 34.3082 7.84935C34.2796 7.78972 34.3726 7.76584 34.3726 7.76584C34.3726 7.76584 36.3815 6.73996 39.149 5.45877C39.1777 5.44683 39.223 5.46354 39.223 5.51363V6.75903C39.223 6.92606 39.2397 7.44854 39.2397 7.51774C39.2397 7.57261 39.297 7.60122 39.3375 7.5559C39.3614 7.52965 39.3924 7.49386 39.4282 7.44854C40.4612 5.42062 42.1027 5.48502 43.3505 5.67112C43.5103 5.69496 43.4888 5.74746 43.4459 5.9574C43.3648 6.35822 42.8136 8.62714 42.766 8.79413C42.7277 8.93491 42.6896 8.99694 42.5202 8.96115C40.9527 8.63191 39.223 9.14248 39.223 11.0965V11.378C39.223 12.8023 39.223 16.2856 39.2254 17.302L39.2206 17.6431Z" fill="#4B4B4B"/>
<path d="M48.3108 17.6428C48.3084 18.2154 48.442 18.4373 48.485 18.5327C48.5255 18.6186 48.411 18.6067 48.411 18.6067H47.2753H43.5559C43.5559 18.6067 43.4628 18.6114 43.489 18.5327C43.5463 18.3752 43.6561 18.0985 43.6585 17.6428L43.6609 17.576V7.90392C43.6609 7.66532 43.6609 7.66292 43.8302 7.58658C43.9185 7.54602 43.8875 7.56033 43.8875 7.56033C43.8875 7.56033 45.4908 6.76824 48.1653 5.50853C48.1939 5.49422 48.306 5.5133 48.3036 5.56343C48.3036 5.94513 48.3084 16.5716 48.3108 17.5975V17.6428Z" fill="#4B4B4B"/>
<path d="M76.4719 16.4056C75.3577 16.9734 73.6948 17.1571 72.7022 15.895C71.7145 14.6377 71.2278 13.5378 71.2302 11.7365C71.2326 7.64248 74.0741 7.10565 76.2309 8.3105V6.2062C75.0141 5.58827 73.4084 5.48091 72.2012 5.60738C68.6058 5.99149 66.5063 9.00477 66.5039 12.4332C66.5015 16.1694 68.8873 20.6404 76.4719 18.5623V16.4056Z" fill="#4B4B4B"/>
<path d="M82.4316 17.1673C82.4316 17.1673 82.4149 0.924621 82.422 1.00813C82.422 1.00813 79.0699 2.55653 77.3164 3.39395C77.4906 3.53709 77.858 4.1622 77.858 6.22114V11.4341C77.8604 12.9253 77.858 15.7835 77.8365 18.0453C77.8342 18.2934 77.6767 18.6393 77.6767 18.6632H82.7417C82.6916 18.6632 82.4316 17.1673 82.4316 17.1673Z" fill="#4B4B4B"/>
<path d="M90.9953 16.1985C91.0239 16.2892 90.9762 16.3178 90.8927 16.3608C90.3154 16.7282 89.3252 16.8093 88.7431 16.2677C88.1943 15.6188 87.9081 14.8768 88.1394 13.9487C88.3231 13.3785 88.9077 12.3836 89.8835 12.2095L89.571 10.3438C89.5734 10.3772 89.571 10.3748 89.4732 10.3962C89.1773 10.4702 89.0199 10.4988 88.5068 10.5847C87.4261 10.7636 86.2045 11.1311 85.1882 11.9232C82.2894 14.1754 83.6494 17.4893 86.0042 18.4627C87.3784 19.0305 89.8047 19.3621 91.8088 17.6897L90.9953 16.1985Z" fill="#4B4B4B"/>
<path d="M90.9926 16.1988L89.9166 12.2265C89.9166 12.2265 89.9166 12.1979 89.8808 12.2098L89.5683 10.3441C89.3535 7.01107 86.6766 7.31888 85.1903 7.87474C85.1903 7.87474 85.1068 7.95348 85.1115 7.84849C85.1139 7.71969 85.1187 6.43373 85.1187 6.08778C85.1163 6.00427 85.1879 5.98279 85.1879 5.98279C87.0798 5.15254 89.9715 5.26467 91.6415 6.10209C93.1064 6.83455 93.8341 8.18014 94.1276 9.33726C94.1276 9.33726 95.4421 15.3352 95.59 15.9841C95.7094 16.5042 96.0481 16.9576 96.5778 16.9552C96.7877 16.9552 96.8164 16.9957 96.8188 17.2128C96.8212 17.7377 96.8235 18.5465 96.8212 18.6586C96.8188 18.7946 96.8092 18.8447 96.7066 18.8447C96.6231 18.8447 94.8887 18.8471 94.8887 18.8471C93.9557 18.8423 93.1875 18.84 91.8061 17.69L90.9926 16.1988Z" fill="#4B4B4B"/>
<path d="M100.343 5.38076C101.855 5.38076 103.082 4.39066 103.082 3.16673C103.082 1.94521 101.855 0.955078 100.343 0.955078C98.8279 0.955078 97.6016 1.94521 97.6016 3.16673C97.6016 4.39066 98.8279 5.38076 100.343 5.38076Z" fill="#4B4B4B"/>
<path d="M102.724 17.6424V17.9025C102.724 18.2794 102.894 18.5633 102.934 18.6635C102.937 18.6755 102.922 18.6826 102.922 18.6826H101.632H97.6808C97.6808 18.6826 97.6641 18.6755 97.6688 18.6635C97.7046 18.5705 97.8764 18.2747 97.8764 17.9025V17.6209C97.8764 16.0821 97.8788 8.52382 97.8788 7.58382C97.8788 7.35239 97.9861 7.34286 97.9861 7.34286C97.9861 7.34286 99.7588 6.43623 102.646 5.10255C102.674 5.08824 102.724 5.10495 102.722 5.15745C102.722 5.55586 102.724 16.5783 102.724 17.6424Z" fill="#4B4B4B"/>
<path d="M113.03 8.86518C111.889 8.8485 111.603 8.77693 111.002 8.98924C110.253 9.27557 109.737 9.87202 109.723 10.781V11.3321V17.6498V17.9027C109.723 18.2701 109.888 18.5469 109.926 18.6447C109.931 18.6542 109.916 18.6613 109.916 18.6613H108.664H104.823C104.823 18.6613 104.808 18.6542 104.811 18.6423C104.846 18.554 105.013 18.2653 105.013 17.9027V17.6307V8.61468C104.987 8.27353 104.849 7.86077 104.808 7.75341C104.78 7.69375 104.873 7.67227 104.873 7.67227C104.873 7.67227 106.841 6.76091 109.647 5.46778C109.673 5.45348 109.723 5.47019 109.721 5.52268V6.65115C109.721 6.81818 109.74 7.3502 109.74 7.42177C109.74 7.47426 109.797 7.50288 109.84 7.45755C109.864 7.43131 109.892 7.39552 109.931 7.3502C111.061 5.25547 112.908 5.52028 113.848 5.66819C114.01 5.69207 113.986 5.74453 113.944 5.95688C113.86 6.36246 113.328 8.52639 113.28 8.69579C113.24 8.83896 113.204 8.86998 113.03 8.86518Z" fill="#4B4B4B"/>
<path d="M120.764 11.6283C120.842 11.6045 121.162 11.6117 121.136 11.1607C121.067 10.0108 120.78 9.2282 120.444 8.77012C119.809 7.90646 118.647 7.87544 118.049 9.15426C117.7 9.89623 117.631 11.2538 117.679 12.1556C117.693 12.4371 117.741 12.4514 117.996 12.3918L118.204 14.0905C118.115 14.1406 118.001 14.1001 118.132 14.4508C118.96 16.6767 120.151 16.9773 121.737 16.8891C122.56 16.8437 123.481 16.4119 123.806 16.2425C124.13 16.0707 124.08 16.2783 124.08 16.4V17.9054C124.08 18.1464 124.099 18.2323 123.672 18.3898C121.499 19.1818 118.647 19.3703 116.436 18.28C114.575 17.3662 112.881 14.947 113.024 12.3131C113.256 8.11404 115.866 5.84511 119.774 5.97395C122.856 6.07417 125.208 8.33115 125.495 11.6522C125.507 11.7906 125.507 12.0029 125.375 12.0769L120.764 11.6283Z" fill="#4B4B4B"/>
<path d="M120.764 11.6309C120.22 11.7931 117.996 12.3943 117.996 12.3943L118.204 14.0931C118.292 14.0453 125.375 12.0794 125.375 12.0794L120.764 11.6309Z" fill="#4B4B4B"/>
</g>
<defs>
<clipPath id="clip0_3204_14429">
<rect width="125" height="18.1316" fill="white" transform="translate(0.5 0.962891)"/>
</clipPath>
</defs>
</svg>
