<svg width="150" height="49" viewBox="0 0 150 49" fill="none" xmlns="http://www.w3.org/2000/svg">
<path d="M42.3532 32.2694C42.2091 30.2835 41.5845 28.4337 40.5274 26.7361C39.4944 25.0704 38.1091 23.7732 36.3794 22.8443C36.1392 22.7162 35.8989 22.572 35.6347 22.4279L35.6186 22.4119L35.7548 22.2837L35.7948 22.2437L36.2192 21.8753L36.2433 21.8513C36.8278 21.3068 37.3323 20.6982 37.7647 20.0175C38.3253 19.1287 38.7737 18.1837 38.9739 17.1507C39.1501 16.2218 39.2862 15.2769 39.3743 14.34C39.5345 12.5623 39.2862 10.8246 38.6536 9.15896C38.005 7.47733 36.972 6.06796 35.6106 4.92284C34.5216 4.00195 32.4476 2.98496 31.0702 2.60058C30.4776 2.43242 29.8691 2.29629 29.2685 2.16816C28.6198 2.03203 27.9312 2 27.2745 2C19.1066 2 10.9386 2 2.76269 2H0.456444C0.456444 2 0.392382 2.01602 0.360351 2.02402V2H0V47.9567H3.6996C11.4992 47.9567 19.3068 47.9567 27.1064 47.9567C28.2835 47.9567 29.4687 48.0208 30.6538 47.7805C31.7989 47.5403 32.9521 47.3801 34.0411 46.9077C35.0741 46.4673 36.0911 45.9948 36.956 45.2901C37.5726 44.7856 38.1651 44.2651 38.7417 43.7126C39.8147 42.6956 40.5755 41.4464 41.1841 40.1011C41.8807 38.6116 42.2971 37.0421 42.4012 35.4085C42.4573 34.3755 42.4413 33.3185 42.3612 32.2855L42.3532 32.2694ZM31.9591 38.5155C31.7669 38.8919 31.4626 39.0921 31.0462 39.1241C30.9501 39.1401 30.862 39.1241 30.7659 39.1241C22.7341 39.1241 14.6943 39.1241 6.67049 39.1241C6.14998 39.1241 5.73358 38.988 5.48534 38.4995C5.26112 38.0431 5.37323 37.6267 5.66952 37.2343C7.28709 35.0321 8.92068 32.83 10.5383 30.6278C10.6103 30.5318 10.6744 30.4277 10.7865 30.2755H8.58435C8.40818 30.2755 8.23201 30.2755 8.06384 30.2755C7.58338 30.2915 7.199 30.0993 6.97479 29.6669C6.74256 29.2105 6.83865 28.7941 7.13494 28.4017C8.1199 27.1284 9.09685 25.8392 10.0658 24.5579C10.8586 23.5249 11.6513 22.4839 12.5002 21.3708C11.9316 21.3708 11.4271 21.3708 10.9226 21.3708C10.4101 21.3708 10.0097 21.0665 9.85759 20.5781C9.72947 20.1777 9.85759 19.8333 10.0898 19.497C11.347 17.7113 12.5882 15.9336 13.8375 14.1478C15.1187 12.314 16.408 10.4802 17.6812 8.64647C18.2658 7.81366 19.1546 7.81366 19.7312 8.64647C22.2697 12.266 24.8001 15.8775 27.3306 19.497C27.6189 19.8974 27.723 20.3138 27.4827 20.7623C27.2505 21.2107 26.8501 21.3869 26.3616 21.3708C26.0013 21.3548 25.6409 21.3708 25.2806 21.3708H24.9603C25.0404 21.499 25.0884 21.5871 25.1525 21.6591C26.8501 23.9013 28.5638 26.1435 30.2694 28.3857C30.83 29.1224 30.5737 30.0273 29.7489 30.2435C29.6048 30.2915 29.4446 30.2915 29.2925 30.2915H26.7941C26.7941 30.2915 26.754 30.2915 26.6659 30.3155C26.754 30.4437 26.8261 30.5478 26.8982 30.6519C28.5237 32.854 30.1493 35.0562 31.7749 37.2503C32.0712 37.6427 32.1673 38.0591 31.9431 38.5155H31.9591Z" fill="#BAA886"/>
<path d="M57.8161 35.9769L57.5839 35.3283H58.8011C60.4747 35.3283 61.2675 35.9769 61.2675 37.074C61.2675 38.171 60.4507 38.8677 58.8011 38.8757V40.3171L59.0333 40.9657H57.5919L57.8161 40.3171V35.9769ZM58.8011 38.6275C59.738 38.6275 60.2745 38.0829 60.2745 37.138C60.2745 36.1931 59.714 35.5685 58.8011 35.5685V38.6275Z" fill="#BAA886"/>
<path d="M66.4958 40.3091C66.3117 39.3241 65.583 38.5474 64.7822 38.4193V40.3091L65.0144 40.9577H63.573L63.7972 40.3091V35.9769L63.565 35.3283H64.7822C66.4638 35.3283 67.3447 35.8568 67.3447 36.8497C67.3447 37.7146 66.688 38.2431 65.4708 38.3872C66.7601 38.6755 67.4248 39.4843 67.6089 40.9657H66.2796L66.4878 40.3171L66.4958 40.3091ZM64.7822 38.171C65.7992 38.171 66.3517 37.7226 66.3517 36.9058C66.3517 36.089 65.7751 35.5685 64.7822 35.5605V38.171Z" fill="#BAA886"/>
<path d="M70.2528 40.3093V35.9771L70.0206 35.3285H71.47L71.2378 35.9771V40.3093L71.47 40.9579H70.0206L70.2528 40.3093Z" fill="#BAA886"/>
<path d="M74.3027 36.0015L73.8863 35.3208H75.5038L75.3437 36.0015L76.8491 40.2536L78.3546 36.0015L78.1945 35.3208H79.0193L78.6029 36.0015L76.9693 40.614L77.0974 40.9583L76.0884 41.0864L74.3027 36.0015Z" fill="#BAA886"/>
<path d="M79.7354 40.9657L80.1518 40.285L81.7854 35.6725L81.6572 35.3282L82.6582 35.2001L84.452 40.285L84.8684 40.9657H83.2508L83.4109 40.285L83.0186 39.1639H80.8004L80.4 40.285L80.5602 40.9657H79.7354ZM82.9305 38.9237L81.9135 36.0329L80.8885 38.9237H82.9305Z" fill="#BAA886"/>
<path d="M87.8414 40.3098V35.5211H87.2168L86.1678 36.5301V35.3209H90.508V36.5301L89.459 35.5211H88.8344V40.3098L89.0986 40.9584H87.5771L87.8414 40.3098Z" fill="#BAA886"/>
<path d="M93.1452 40.3091V35.9769L92.9129 35.3283H96.5245V36.5374L95.4674 35.5685H94.1221V37.8107H94.9469L95.8999 37.2181V38.6515L94.9469 38.0589H94.1221V40.7335H95.4834L96.5164 39.7646V40.9738H92.9049L93.1372 40.3251L93.1452 40.3091Z" fill="#BAA886"/>
<path d="M102.995 35.9771L102.771 35.3285H103.98C105.55 35.3285 106.334 35.7128 106.334 36.4816C106.334 37.0181 105.934 37.4425 105.285 37.6027C106.182 37.8669 106.623 38.4355 106.623 39.2282C106.623 40.3333 105.758 40.9659 103.98 40.9739H102.763L102.995 40.3253V35.9771ZM103.98 37.4185C104.373 37.4185 104.733 37.4585 105.037 37.5306C105.261 37.3304 105.397 36.9701 105.397 36.5937C105.397 35.897 104.933 35.5607 103.98 35.5607V37.4185ZM103.98 40.7177C104.997 40.7177 105.63 40.1251 105.63 39.1482C105.63 38.1712 105.021 37.6587 103.98 37.6587V40.7177Z" fill="#BAA886"/>
<path d="M108.513 40.9657L108.929 40.285L110.563 35.6725L110.435 35.3282L111.436 35.2001L113.229 40.285L113.646 40.9657H112.028L112.188 40.285L111.796 39.1639H109.578L109.177 40.285L109.337 40.9657H108.513ZM111.708 38.9237L110.691 36.0329L109.666 38.9237H111.708Z" fill="#BAA886"/>
<path d="M116.294 40.3098V35.6412L116.062 35.3209H117.279L120.073 39.2688V35.9696L119.849 35.3209H120.546L120.322 35.9696V40.9584H120.081L116.542 35.9776V40.3098L116.766 40.9584H116.07L116.294 40.3098Z" fill="#BAA886"/>
<path d="M124.924 40.3098V38.6602L122.954 35.3209H124.596L124.5 35.9936L125.845 38.2918L127.198 35.9936L127.062 35.3209H127.871L125.909 38.6602V40.3098L126.181 40.9584H124.652L124.924 40.3098Z" fill="#BAA886"/>
<path d="M128.844 40.966L129.261 40.2854L130.894 35.6729L130.766 35.3285L131.767 35.2004L133.561 40.2854L133.977 40.966H132.36L132.52 40.2854L132.127 39.1643H129.909L129.509 40.2854L129.669 40.966H128.844ZM132.039 38.924L131.022 36.0332L129.997 38.924H132.039Z" fill="#BAA886"/>
<path d="M69.1501 9.16642L69.4384 13.0262H69.3103C68.6616 12.0652 67.3003 11.4166 65.1062 11.4166H64.2013V24.4773C64.2013 25.3822 64.4896 26.3191 65.6267 26.7355V26.8396H57.9232V26.7355C59.0523 26.3191 59.3486 25.3902 59.3486 24.4773V11.4246H58.4757C56.2736 11.4246 54.9203 12.0732 54.2716 13.0342H54.1435L54.4318 9.17443H69.1501V9.16642Z" fill="#BAA886"/>
<path d="M90.5362 24.4621C90.8886 25.3429 91.2489 26.2478 92.378 26.6642V26.8484H84.8747V26.7203C85.8116 26.2798 85.8757 25.3509 85.5554 24.4621L84.6505 22.0517H78.4044L77.4995 24.4621C77.1792 25.3429 77.0751 26.2798 78.0201 26.7203V26.8484H72.2304V26.6642C73.3595 26.2478 73.7519 25.3429 74.0722 24.4621L79.0851 11.5295C79.3734 10.8328 79.6056 9.71173 78.5325 9.32736V9.17521H86.0038V9.32736C85.0989 9.74376 85.195 10.6486 85.5153 11.5295L90.5282 24.4621H90.5362ZM83.6735 19.3851L81.5355 13.6356L79.3974 19.3851H83.6735Z" fill="#BAA886"/>
<path d="M97.3018 11.5287C97.3018 10.6238 97.0135 9.68693 95.8764 9.27052V9.16642H103.58V9.27052C102.451 9.68693 102.155 10.6158 102.155 11.5287V24.4853C102.155 25.3902 102.443 26.3271 103.58 26.7435V26.8476H95.8764V26.7435C97.0055 26.3271 97.3018 25.3982 97.3018 24.4853V11.5287Z" fill="#BAA886"/>
<path d="M121.246 18.6803C121.246 17.7754 120.926 16.8385 119.789 16.398V16.2939H126.844V16.398C125.643 16.8385 125.386 17.7754 125.386 18.6803V26.8402H125.162C124.874 26.7361 124.482 26.7121 124.001 26.7121C122.48 26.7121 120.277 27.0724 118.692 27.0724C111.933 27.0724 108.858 23.0525 108.858 18.0316C108.858 12.6664 112.71 8.98282 118.628 8.98282C120.702 8.98282 122.48 9.42325 123.16 9.42325C123.481 9.42325 123.777 9.3752 124.065 9.23907H124.161L124.225 13.6193H123.841C123.288 12.1139 121.254 11.3932 119.405 11.3932C115.977 11.3932 113.871 13.6193 113.871 17.7674C113.871 22.1476 116.458 24.2697 119.925 24.2697C120.317 24.2697 120.862 24.2457 121.254 24.1416V18.6722L121.246 18.6803Z" fill="#BAA886"/>
<path d="M148.158 24.4621C148.511 25.3429 148.871 26.2478 150 26.6642V26.8484H142.497V26.7203C143.434 26.2798 143.498 25.3509 143.177 24.4621L142.272 22.0517H136.026L135.122 24.4621C134.801 25.3429 134.705 26.2798 135.642 26.7203V26.8484H129.852V26.6642C130.981 26.2478 131.374 25.3429 131.694 24.4621L136.707 11.5295C136.995 10.8328 137.228 9.71173 136.155 9.32736V9.17521H143.626V9.32736C142.721 9.74376 142.817 10.6486 143.137 11.5295L148.15 24.4621H148.158ZM141.296 19.3851L139.157 13.6356L137.019 19.3851H141.296Z" fill="#BAA886"/>
</svg>
