<svg width="101" height="31" viewBox="0 0 101 31" fill="none" xmlns="http://www.w3.org/2000/svg">
<path d="M28.5909 20.1796C28.4948 18.8557 28.0784 17.6225 27.3738 16.4907C26.6851 15.3803 25.7615 14.5155 24.6084 13.8962C24.4482 13.8108 24.2881 13.7147 24.1119 13.6186L24.1012 13.6079L24.192 13.5225L24.2187 13.4958L24.5016 13.2502L24.5176 13.2342C24.9073 12.8712 25.2437 12.4655 25.532 12.0117C25.9057 11.4191 26.2046 10.7892 26.3381 10.1005C26.4555 9.48122 26.5463 8.85128 26.605 8.22667C26.7118 7.04152 26.5463 5.88306 26.1245 4.77264C25.6921 3.65155 25.0034 2.71197 24.0959 1.94856C23.3699 1.33463 21.9872 0.656639 21.0689 0.40039C20.6739 0.28828 20.2682 0.197525 19.8678 0.112109C19.4354 0.0213541 18.9762 0 18.5385 0C13.0932 0 7.6479 0 2.19726 0H0.659765C0.659765 0 0.617057 0.0106771 0.595702 0.0160156V0H0.355469V30.6378H2.82187C8.02159 30.6378 13.2267 30.6378 18.4264 30.6378C19.2111 30.6378 20.0012 30.6805 20.7913 30.5204C21.5548 30.3602 22.3235 30.2534 23.0495 29.9385C23.7382 29.6448 24.4162 29.3299 24.9928 28.8601C25.4038 28.5237 25.7989 28.1767 26.1833 27.8084C26.8986 27.1304 27.4058 26.2976 27.8115 25.4007C28.276 24.4077 28.5536 23.3614 28.623 22.2723C28.6603 21.5837 28.6497 20.879 28.5963 20.1903L28.5909 20.1796ZM21.6615 24.3437C21.5334 24.5946 21.3305 24.7281 21.0529 24.7494C20.9889 24.7601 20.9301 24.7494 20.8661 24.7494C15.5115 24.7494 10.1517 24.7494 4.80246 24.7494C4.45546 24.7494 4.17785 24.6587 4.01236 24.333C3.86288 24.0287 3.93762 23.7511 4.13515 23.4895C5.21353 22.0214 6.30259 20.5533 7.38097 19.0852C7.42902 19.0212 7.47172 18.9518 7.54646 18.8503H6.07837C5.96092 18.8503 5.84347 18.8503 5.73136 18.8503C5.41105 18.861 5.1548 18.7329 5.00533 18.4446C4.85051 18.1403 4.91457 17.8627 5.1121 17.6011C5.76873 16.7523 6.42003 15.8928 7.066 15.0386C7.59451 14.35 8.12302 13.656 8.68891 12.9139C8.30987 12.9139 7.97355 12.9139 7.63722 12.9139C7.29555 12.9139 7.02863 12.711 6.92719 12.3854C6.84178 12.1185 6.92719 11.8889 7.08201 11.6647C7.92016 10.4742 8.74763 9.28904 9.58044 8.09855C10.4346 6.87602 11.2941 5.6535 12.1429 4.43098C12.5326 3.87577 13.1252 3.87577 13.5096 4.43098C15.2019 6.84399 16.8889 9.25167 18.5759 11.6647C18.768 11.9316 18.8374 12.2092 18.6773 12.5082C18.5225 12.8071 18.2555 12.9246 17.9299 12.9139C17.6897 12.9032 17.4494 12.9139 17.2092 12.9139H16.9957C17.049 12.9993 17.0811 13.058 17.1238 13.1061C18.2555 14.6009 19.398 16.0957 20.5351 17.5904C20.9088 18.0816 20.738 18.6848 20.1881 18.829C20.092 18.861 19.9852 18.861 19.8838 18.861H18.2182C18.2182 18.861 18.1915 18.861 18.1328 18.877C18.1915 18.9624 18.2395 19.0318 18.2876 19.1012C19.3713 20.5693 20.455 22.0374 21.5387 23.5002C21.7363 23.7618 21.8003 24.0394 21.6508 24.3437H21.6615Z" fill="#BAA886"/>
<path d="M38.8995 22.6513L38.7447 22.2188H39.5562C40.6719 22.2188 41.2004 22.6513 41.2004 23.3826C41.2004 24.114 40.6559 24.5785 39.5562 24.5838V25.5447L39.711 25.9772H38.7501L38.8995 25.5447V22.6513ZM39.5562 24.4183C40.1808 24.4183 40.5385 24.0553 40.5385 23.4253C40.5385 22.7954 40.1648 22.379 39.5562 22.379V24.4183Z" fill="#BAA886"/>
<path d="M44.686 25.5394C44.5632 24.8828 44.0774 24.3649 43.5436 24.2795V25.5394L43.6984 25.9718H42.7375L42.8869 25.5394V22.6513L42.7321 22.2188H43.5436C44.6647 22.2188 45.2519 22.5712 45.2519 23.2332C45.2519 23.8097 44.8142 24.1621 44.0027 24.2582C44.8622 24.4503 45.3053 24.9895 45.4281 25.9772H44.5419L44.6807 25.5447L44.686 25.5394ZM43.5436 24.114C44.2216 24.114 44.5899 23.8151 44.5899 23.2705C44.5899 22.726 44.2056 22.379 43.5436 22.3737V24.114Z" fill="#BAA886"/>
<path d="M47.1907 25.5395V22.6514L47.0358 22.219H48.0021L47.8473 22.6514V25.5395L48.0021 25.972H47.0358L47.1907 25.5395Z" fill="#BAA886"/>
<path d="M49.8906 22.6676L49.613 22.2139H50.6914L50.5846 22.6676L51.5882 25.5024L52.5919 22.6676L52.4851 22.2139H53.035L52.7574 22.6676L51.6683 25.7426L51.7537 25.9722L51.0811 26.0576L49.8906 22.6676Z" fill="#BAA886"/>
<path d="M53.5124 25.9771L53.79 25.5233L54.879 22.4483L54.7936 22.2188L55.4609 22.1334L56.6568 25.5233L56.9344 25.9771H55.856L55.9628 25.5233L55.7012 24.7759H54.2224L53.9555 25.5233L54.0622 25.9771H53.5124ZM55.6424 24.6158L54.9645 22.6886L54.2811 24.6158H55.6424Z" fill="#BAA886"/>
<path d="M58.9164 25.5399V22.3474H58.5L57.8006 23.0201V22.214H60.6941V23.0201L59.9948 22.3474H59.5784V25.5399L59.7545 25.9723H58.7402L58.9164 25.5399Z" fill="#BAA886"/>
<path d="M62.4522 25.5394V22.6513L62.2974 22.2188H64.7051V23.025L64.0004 22.379H63.1035V23.8738H63.6534L64.2887 23.4787V24.4343L63.6534 24.0393H63.1035V25.8223H64.0111L64.6998 25.1764V25.9825H62.2921L62.4469 25.5501L62.4522 25.5394Z" fill="#BAA886"/>
<path d="M69.0189 22.6514L68.8694 22.219H69.6755C70.7219 22.219 71.2451 22.4752 71.2451 22.9877C71.2451 23.3454 70.9781 23.6283 70.5457 23.7351C71.1436 23.9113 71.4373 24.2903 71.4373 24.8188C71.4373 25.5555 70.8607 25.9773 69.6755 25.9826H68.8641L69.0189 25.5502V22.6514ZM69.6755 23.6123C69.9371 23.6123 70.1774 23.639 70.3802 23.6871C70.5297 23.5536 70.6205 23.3134 70.6205 23.0625C70.6205 22.598 70.3108 22.3738 69.6755 22.3738V23.6123ZM69.6755 25.8118C70.3535 25.8118 70.7753 25.4167 70.7753 24.7654C70.7753 24.1141 70.3696 23.7725 69.6755 23.7725V25.8118Z" fill="#BAA886"/>
<path d="M72.6972 25.9771L72.9748 25.5233L74.0639 22.4483L73.9785 22.2188L74.6458 22.1334L75.8416 25.5233L76.1192 25.9771H75.0408L75.1476 25.5233L74.886 24.7759H73.4073L73.1403 25.5233L73.2471 25.9771H72.6972ZM74.8273 24.6158L74.1493 22.6886L73.466 24.6158H74.8273Z" fill="#BAA886"/>
<path d="M77.8847 25.5399V22.4275L77.7298 22.214H78.5413L80.4044 24.8459V22.6464L80.255 22.214H80.7194L80.5699 22.6464V25.9723H80.4098L78.0502 22.6517V25.5399L78.1996 25.9723H77.7352L77.8847 25.5399Z" fill="#BAA886"/>
<path d="M83.6381 25.5399V24.4401L82.3248 22.214H83.4192L83.3552 22.6624L84.252 24.1945L85.1543 22.6624L85.0635 22.214H85.6027L84.2947 24.4401V25.5399L84.4763 25.9723H83.4566L83.6381 25.5399Z" fill="#BAA886"/>
<path d="M86.2516 25.9773L86.5292 25.5236L87.6183 22.4486L87.5328 22.219L88.2002 22.1336L89.396 25.5236L89.6736 25.9773H88.5952L88.702 25.5236L88.4404 24.7762H86.9616L86.6947 25.5236L86.8015 25.9773H86.2516ZM88.3817 24.616L87.7037 22.6888L87.0203 24.616H88.3817Z" fill="#BAA886"/>
<path d="M46.4555 4.77761L46.6477 7.35078H46.5623C46.1299 6.71016 45.2223 6.27774 43.7596 6.27774H43.1563V14.9849C43.1563 15.5881 43.3485 16.2127 44.1066 16.4903V16.5597H38.9709V16.4903C39.7237 16.2127 39.9212 15.5935 39.9212 14.9849V6.28308H39.3393C37.8712 6.28308 36.969 6.7155 36.5366 7.35612H36.4511L36.6433 4.78295H46.4555V4.77761Z" fill="white"/>
<path d="M60.7129 14.9747C60.9478 15.562 61.1881 16.1652 61.9408 16.4428V16.5656H56.9386V16.4802C57.5632 16.1866 57.6059 15.5673 57.3924 14.9747L56.7891 13.3678H52.6251L52.0218 14.9747C51.8083 15.562 51.7389 16.1866 52.3688 16.4802V16.5656H48.5091V16.4428C49.2618 16.1652 49.5234 15.562 49.7369 14.9747L53.0789 6.353C53.271 5.88855 53.4259 5.14116 52.7105 4.88491V4.78348H57.6913V4.88491C57.0881 5.16251 57.1522 5.76576 57.3657 6.353L60.7076 14.9747H60.7129ZM56.1378 11.5901L54.7124 7.75703L53.2871 11.5901H56.1378Z" fill="white"/>
<path d="M65.2233 6.35248C65.2233 5.74923 65.0312 5.12462 64.2731 4.84702V4.77761H69.4088V4.84702C68.656 5.12462 68.4585 5.74389 68.4585 6.35248V14.9902C68.4585 15.5935 68.6507 16.2181 69.4088 16.4957V16.5651H64.2731V16.4957C65.0258 16.2181 65.2233 15.5988 65.2233 14.9902V6.35248Z" fill="white"/>
<path d="M81.1864 11.1202C81.1864 10.5169 80.9728 9.89231 80.2148 9.59869V9.52929H84.918V9.59869C84.1172 9.89231 83.9464 10.5169 83.9464 11.1202V16.5601H83.7969C83.6047 16.4907 83.3431 16.4747 83.0228 16.4747C82.0085 16.4747 80.5404 16.7149 79.4834 16.7149C74.9777 16.7149 72.9277 14.035 72.9277 10.6877C72.9277 7.11094 75.4955 4.65521 79.4407 4.65521C80.8234 4.65521 82.0085 4.94883 82.4623 4.94883C82.6758 4.94883 82.8734 4.9168 83.0655 4.82605H83.1296L83.1723 7.74622H82.9161C82.5477 6.74258 81.1917 6.26211 79.9585 6.26211C77.6736 6.26211 76.2696 7.74622 76.2696 10.5116C76.2696 13.4318 77.9939 14.8465 80.3055 14.8465C80.5671 14.8465 80.9301 14.8304 81.1917 14.761V11.1148L81.1864 11.1202Z" fill="white"/>
<path d="M99.1276 14.9747C99.3625 15.562 99.6027 16.1652 100.355 16.4428V16.5656H95.3533V16.4802C95.9779 16.1866 96.0206 15.5673 95.807 14.9747L95.2038 13.3678H91.0397L90.4365 14.9747C90.2229 15.562 90.1589 16.1866 90.7835 16.4802V16.5656H86.9237V16.4428C87.6765 16.1652 87.938 15.562 88.1516 14.9747L91.4935 6.353C91.6857 5.88855 91.8405 5.14116 91.1251 4.88491V4.78348H96.106V4.88491C95.5027 5.16251 95.5668 5.76576 95.7803 6.353L99.1223 14.9747H99.1276ZM94.5525 11.5901L93.1271 7.75703L91.7017 11.5901H94.5525Z" fill="white"/>
</svg>
