<svg width="90" height="28" viewBox="0 0 90 28" fill="none" xmlns="http://www.w3.org/2000/svg">
<path d="M3.38983 9.17499C3.38983 10.2572 3.68143 10.3775 4.91448 10.4276V10.8134H0.00585938V10.4276C1.02546 10.3775 1.31706 10.2572 1.31706 9.17499V2.10041C1.31706 1.01317 1.02546 0.892927 0.0329156 0.847834V0.452013H8.69928L8.7579 2.73672H8.33152C7.96526 1.57933 7.56995 1.21358 5.54077 1.21358H3.96903C3.49705 1.21358 3.38983 1.3188 3.38983 1.74969V5.02644H5.16099C6.77732 5.02644 7.12754 4.73583 7.32545 3.6536H7.72277V7.31615H7.32545C7.11201 6.09363 6.50125 5.78801 5.16099 5.78801H3.38983V9.17499ZM13.6099 9.17499C13.6099 10.2572 13.8975 10.3775 15.1345 10.4276V10.8134H10.0085V10.4276C11.2475 10.3775 11.5331 10.2572 11.5331 9.17499V2.10041C11.5331 1.01317 11.2475 0.892927 10.0085 0.847834V0.452013H15.1345V0.847834C13.8975 0.892927 13.6099 1.01317 13.6099 2.10041V9.17499ZM25.8266 2.39101C25.8266 1.38393 25.5505 0.973091 24.4212 0.847834V0.452013H28.0812V0.847834C26.9539 0.973091 26.6798 1.38393 26.6798 2.39101V11.0689H26.1613L19.0862 2.89204V8.88438C19.0862 9.89146 19.3582 10.3023 20.4876 10.4276V10.8134H16.8255V10.4276C17.9549 10.3023 18.2289 9.89146 18.2289 8.88438V1.905C17.8787 1.28873 17.4653 0.998144 16.8255 0.847834V0.452013H19.6478L25.8266 7.59173V2.39101ZM31.3615 7.10071L32.9172 2.99725L34.4594 7.10071H31.3615ZM38.7888 10.8134V10.4276C38.0117 10.4426 37.8143 10.1069 37.4172 9.1299L33.7707 0.206499H33.2697L29.4708 9.45055C29.2108 10.0919 28.8601 10.2873 28.2047 10.4276V10.8134H31.4985V10.4276C30.782 10.4276 30.4318 10.2723 30.4318 9.77122C30.4318 9.34534 30.9058 8.19798 31.025 7.86229H34.7788C34.9 8.19798 35.4031 9.34534 35.4031 9.77122C35.4031 10.2723 35.0233 10.4276 34.3053 10.4276V10.8134H38.7888ZM48.8405 2.39101C48.8405 1.38393 48.567 0.973091 47.4394 0.847834V0.452013H51.0992V0.847834C49.9698 0.973091 49.6943 1.38393 49.6943 2.39101V11.0689H49.1772L42.0996 2.89204L42.0999 8.88438C42.0999 9.89146 42.374 10.3023 43.5033 10.4276V10.8134H39.8412V10.4276C40.9705 10.3023 41.2466 9.89146 41.2466 8.88438V1.905C40.8944 1.28873 40.4815 0.998144 39.8412 0.847834V0.452013H42.6635L48.8403 7.59173L48.8405 2.39101ZM61.936 8.37835C60.8518 10.2272 59.4328 11.0689 57.2819 11.0689C53.9115 11.0689 51.9133 8.85433 51.9133 5.54251C51.9133 3.18264 53.7747 0.206499 57.3896 0.206499C58.4719 0.206499 60.01 0.817759 60.241 0.817759C60.5446 0.817759 60.6363 0.652418 60.8833 0.206499H61.3999L61.6148 3.66863H61.1569C60.5446 2.06533 59.4644 0.907955 57.6482 0.907955C55.2071 0.907955 54.1409 3.5484 54.1409 5.54251C54.1409 8.33827 55.3444 10.2121 57.9237 10.2121C59.9359 10.2121 61.0497 8.71905 61.5232 8.0627L61.936 8.37835ZM66.9584 9.17499C66.9584 10.2572 67.25 10.3775 68.4845 10.4276V10.8134H63.3589V10.4276C64.596 10.3775 64.8856 10.2572 64.8856 9.17499V2.10041C64.8856 1.01317 64.596 0.892927 63.3589 0.847834V0.452013H68.4845V0.847834C67.25 0.892927 66.9584 1.01317 66.9584 2.10041V9.17499ZM72.7318 7.10071L74.2875 2.99725L75.8281 7.10071H72.7318ZM80.1611 10.8134V10.4276C79.382 10.4426 79.1846 10.1069 78.7892 9.1299L75.1427 0.206499H74.6402L70.8414 9.45055C70.5808 10.0919 70.2306 10.2873 69.5748 10.4276V10.8134H72.8685V10.4276C72.1526 10.4276 71.8023 10.2723 71.8023 9.77122C71.8023 9.34534 72.2758 8.19798 72.3971 7.86229H76.1488C76.2701 8.19798 76.7731 9.34534 76.7731 9.77122C76.7731 10.2723 76.3918 10.4276 75.6753 10.4276V10.8134H80.1611ZM81.0674 10.8134V10.4276C82.0595 10.3825 82.3491 10.2572 82.3491 9.17499V2.10041C82.3491 1.01317 82.0595 0.892927 81.0674 0.847834V0.452013H85.8563V0.847834C84.7135 0.892927 84.4219 1.01317 84.4219 2.10041V9.3754C84.4219 10.0017 84.6057 10.2121 85.7646 10.2121C87.626 10.2121 88.7237 9.87644 89.6086 8.04767H90.0059L89.3049 10.8134H81.0674Z" fill="#4B4B4B"/>
<path d="M21.2652 25.9041C21.2652 26.9863 20.9776 27.1065 19.7997 27.1566V27.5425H24.802V27.1566C23.6295 27.1065 23.34 26.9863 23.34 25.9041V17.9427H24.6221C25.8256 17.9427 26.2991 18.4287 26.6317 19.8316H27.0917L26.8472 17.1811H17.7579L17.5134 19.8316H17.9714C18.3061 18.4287 18.7801 17.9427 19.9855 17.9427H21.2652V25.9041Z" fill="#4B4B4B"/>
<path d="M33.2845 27.1516C32.0494 27.1066 31.7578 26.9863 31.7578 25.9041V18.8245C31.7578 17.7422 32.0494 17.622 33.2845 17.5769V17.1761H28.1584V17.5769C29.3974 17.622 29.685 17.7422 29.685 18.8245V25.9041C29.685 26.9863 29.3974 27.1066 28.1584 27.1516V27.5425H33.2845V27.1516Z" fill="#4B4B4B"/>
<path d="M47.7418 17.1811H44.1719L41.2754 24.3759L38.5157 17.1811H34.7485V17.5769C35.8462 17.5769 36.1499 17.8525 36.1499 18.569V25.6135C36.1499 26.6206 35.8758 27.0314 34.7485 27.1566V27.5425H38.408V27.1566C37.2787 27.0314 37.0051 26.6206 37.0051 25.6135V18.614H37.0362L40.4202 27.6727H40.8936L44.3558 18.614H44.3873V25.9041C44.3873 26.9863 44.0957 27.1065 43.0741 27.1566V27.5425H47.7418V27.1566C46.7497 27.1065 46.4621 26.9863 46.4621 25.9041V18.8245C46.4621 17.7422 46.7497 17.622 47.7418 17.5769V17.1811Z" fill="#4B4B4B"/>
<path d="M49.2138 27.1566V27.5425H58.1204L58.8213 24.7717H58.4255C57.5412 26.6055 56.4414 26.9412 54.5823 26.9412C52.7521 26.9412 52.5702 26.7258 52.5702 26.1045V22.5171H54.3373C55.6799 22.5171 56.2886 22.8227 56.5041 24.0402H56.9009V20.3827H56.5041C56.3041 21.4649 55.9539 21.7555 54.3373 21.7555H52.5702V18.4738C52.5702 18.0479 52.6739 17.9427 53.1494 17.9427H54.7191C56.7466 17.9427 57.1439 18.3084 57.5116 19.4658H57.9365L57.8756 17.1811H49.2138V17.5769C50.2038 17.622 50.4934 17.7422 50.4934 18.8245V25.9041C50.4934 26.9863 50.2038 27.1065 49.2138 27.1566Z" fill="#4B4B4B"/>
<path d="M60.5692 24.2857H60.1699L60.1696 27.6727H60.7213C60.7804 27.337 60.9663 27.1566 61.2383 27.1566C61.9563 27.1566 62.4283 27.793 64.258 27.793C66.1216 27.793 67.4624 26.5404 67.4629 24.912C67.4629 21.2695 62.0918 21.2044 62.0918 19.09C62.0918 18.3836 62.5222 17.637 63.6791 17.637C65.0845 17.637 66.1509 18.7343 66.5778 20.2274H66.9751V16.9356H66.5778C66.5017 17.2562 66.3193 17.4817 66.0297 17.4817C65.3408 17.4817 64.7924 16.9356 63.2367 16.9356C61.6514 16.9356 60.2636 18.1581 60.2638 19.5911C60.2638 22.5471 65.6324 22.9881 65.6324 25.368C65.6324 26.1796 65.1587 27.0915 63.8495 27.0915C62.3228 27.0915 61.0096 25.6586 60.5692 24.2857Z" fill="#4B4B4B"/>
</svg>
