<svg width="110" height="22" viewBox="0 0 110 22" fill="none" xmlns="http://www.w3.org/2000/svg">
<g clip-path="url(#clip0_3204_14206)">
<path fill-rule="evenodd" clip-rule="evenodd" d="M16.4419 2.83844C16.3706 3.30813 15.7916 3.76578 15.3349 4.2225C14.5678 4.98864 13.7553 5.60841 12.3453 5.16373C12.0878 8.57849 12.3074 12.4703 12.2342 16.0694C13.1875 16.0222 13.9212 15.4849 14.7809 15.294C14.7253 15.7971 14.1565 16.0917 13.785 16.3464C12.5668 17.1811 10.8964 17.8871 8.96858 18.0075C4.61167 18.278 0.218621 16.2223 0.442813 11.7514C0.553063 9.55029 1.775 8.36726 3.04511 7.21203C4.09658 6.39308 5.60756 5.3907 7.30752 4.94232C7.18801 5.37403 6.70813 5.55098 6.36629 5.88263C4.67096 7.52979 2.79034 10.573 4.2624 13.7997C4.47641 14.0684 4.60889 14.4427 4.87199 14.741C6.11893 16.1556 8.72771 16.641 11.5699 16.2353C11.5699 12.5445 11.5699 8.85363 11.5699 5.16373C11.3244 4.81911 10.8733 4.67922 10.4629 4.49857C10.3628 5.83353 10.4073 7.3686 10.4073 8.92775C10.4073 10.4443 10.6333 12.1229 10.4073 13.3569C10.1266 14.8901 8.20707 15.3107 6.42188 15.2394C6.6859 14.7651 7.46965 14.8114 7.69477 14.2981C7.69477 13.293 7.69477 12.0738 7.69477 10.8102C7.69477 9.1436 8.06256 7.19165 6.97495 6.7692C7.3557 6.24671 7.91526 5.9901 8.47017 5.60656C9.00749 5.23506 9.6041 4.88488 10.1312 4.44391C9.61244 4.02148 8.83426 3.80932 8.08201 3.6685C5.61868 3.20623 2.93209 3.74447 1.05148 4.49857C0.635513 4.66625 0.358521 4.93954 0 4.99698C0.0110866 4.43557 0.57067 4.07613 0.941226 3.72409C2.04922 2.67169 3.45181 1.61744 5.36948 1.34322C5.49454 1.37287 5.30282 1.12736 5.42505 1.28765C7.73274 1.01065 9.35767 1.6508 11.1271 2.28447C12.3991 2.74026 13.7414 3.31093 15.169 3.17012C15.7545 3.11268 15.9361 2.85604 16.4419 2.83844ZM87.6922 11.3086C87.6922 12.072 87.6922 13.0623 87.6922 13.9656C87.6922 14.8549 87.48 15.9018 88.1897 16.1806C88.6816 16.2103 89.1161 15.7044 89.4079 15.3496C89.3708 13.7627 89.482 12.0284 89.3523 10.5332C88.8113 10.8037 88.2814 11.0863 87.6922 11.3086ZM92.6744 16.0139C93.0672 15.9082 93.3025 15.3515 93.6712 15.4052C93.9788 15.7887 93.2933 16.1945 92.9505 16.5123C92.6577 16.7846 92.1529 17.422 91.7332 17.4535C90.8911 17.5175 90.3195 16.5067 89.7952 16.0139C89.0383 16.5299 88.5445 17.3182 87.5254 17.4535C86.3591 17.6091 85.3058 16.8986 85.0343 15.9036C84.7166 14.7363 85.1547 13.0957 84.9787 11.6403C86.436 10.9751 87.9368 10.3535 89.4079 9.70315C89.6701 7.17775 87.2716 8.00318 86.3628 9.03891C86.0691 9.37428 85.8662 10.1617 85.3113 9.86897C85.4216 9.38538 85.7903 8.93886 86.0867 8.5405C86.3841 8.13936 86.6963 7.59834 87.028 7.32227C88.2258 6.32268 90.6827 6.33843 91.5118 7.43344C92.3409 8.52846 92.1205 10.4647 92.1205 12.4713C92.1205 13.884 91.8314 15.5154 92.6744 16.0139ZM81.3806 7.65485C81.8956 7.33617 81.9994 6.60708 82.5988 6.60245C83.2417 6.5983 83.528 7.79845 84.1487 7.82068C84.875 7.84666 84.686 6.6571 85.4771 6.99062C85.0862 7.60668 84.5313 9.64756 83.4288 9.64756C82.7414 9.64756 82.3866 8.4599 81.8234 8.59609C81.363 8.70633 81.5464 10.7685 81.5464 11.7514C81.5464 13.3273 81.1823 15.836 82.156 16.0694C82.7109 16.2028 82.8915 15.8462 83.3186 15.7378C83.6169 16.125 83.0722 16.4363 82.709 16.679C82.2569 16.981 81.7669 17.2979 81.1591 17.3433C80.1808 17.4155 79.2665 16.9125 78.7783 16.3464C78.7783 13.67 78.7783 10.9946 78.7783 8.31909C78.4633 8.39228 78.1465 8.94163 77.7268 9.0945C77.8213 9.05653 77.6073 8.72301 77.6166 8.65074C77.62 8.61367 79.4694 6.6534 79.8307 6.60245C80.544 6.5024 80.8896 7.24909 81.3806 7.65485ZM73.6302 8.59609C73.3421 8.29963 72.7001 7.85218 72.2461 8.04209C71.6551 8.28945 71.9136 10.5008 71.9136 11.53C71.9136 13.0845 71.8709 14.3426 71.9691 15.294C72.3008 15.5905 73.1059 15.4126 73.6858 15.4608C73.6487 13.1911 73.759 10.7732 73.6302 8.59609ZM77.3395 8.59609C76.9773 8.73227 76.7077 8.96109 76.3983 9.14915C76.6373 11.3772 76.0769 13.4459 76.3983 15.4052C76.553 16.3492 77.5054 16.8856 77.561 17.7305C77.6258 18.7245 76.8374 19.2229 76.3983 19.613C75.849 20.1003 75.3589 20.6089 74.6817 20.8859C72.8233 21.6464 71.279 20.0984 69.6439 20.2216C69.1297 20.2606 68.7267 20.5977 68.371 20.6089C68.4627 19.6852 69.4725 18.7153 70.3637 18.3947C70.6509 18.291 71.0353 18.2289 71.3605 18.2289C72.8659 18.2289 74.1786 20.2818 75.1801 18.782C74.6289 17.9315 74.0462 17.1117 73.7404 16.0139C72.8066 16.4409 72.4092 17.3053 71.4707 17.4535C70.4304 17.6184 69.3687 16.7485 69.2566 15.9036C69.0954 14.6863 69.2566 13.5218 69.2566 12.1943C69.2566 10.8797 69.0046 9.02223 69.3669 8.09768C69.7819 7.03694 71.4541 6.4005 72.7446 6.93503C73.1911 7.12031 73.646 7.65207 74.0174 7.65485C74.6891 7.65832 75.0467 6.42921 75.8443 6.60245C76.5039 6.74604 76.8652 8.16624 77.3395 8.59609ZM26.5176 13.1355C27.369 12.4916 28.2694 11.4179 29.0643 10.5332C28.3176 9.69295 27.4208 9.00278 26.5176 8.31909C26.5176 9.92456 26.5176 11.53 26.5176 13.1355ZM31.334 9.70315C30.1565 10.5378 28.7734 11.8709 27.6246 13.1355C27.1346 13.6756 26.0433 14.6428 27.016 15.3496C28.0128 16.075 29.8036 14.9012 30.5595 14.7966C30.6559 15.1606 30.0852 15.5016 29.7841 15.848C29.1523 16.5753 28.6557 17.5786 27.1262 17.4535C25.9664 17.359 24.0302 16.3502 23.805 15.3496C23.416 13.6219 24.3822 10.2432 23.4178 9.0945C24.7944 8.10879 26.6149 7.27225 28.0128 6.4922C29.231 7.45104 30.3928 8.46639 31.334 9.70315ZM63.8306 13.1355C64.6783 12.4694 65.6149 11.4133 66.3773 10.4776C65.5584 9.74762 64.795 8.96109 63.8306 8.37468C63.8306 9.96161 63.8306 11.5486 63.8306 13.1355ZM68.648 9.70315C67.5224 10.5805 66.0271 11.8237 64.883 13.0799C64.5569 13.4384 63.977 14.0601 63.9418 14.464C63.7704 16.4187 67.1991 15.1217 67.8726 14.7966C67.8541 15.2014 67.4149 15.5331 67.0972 15.9036C66.5774 16.5104 66.0197 17.3238 65.0489 17.4535C63.2803 17.6897 61.9018 16.4928 61.1181 15.4052C60.8494 13.6682 61.5026 11.1595 61.0625 9.64756C60.993 9.40763 60.8587 9.27515 60.7309 9.0945C62.0899 8.05414 63.8547 7.41955 65.2703 6.43662C66.4903 7.43159 67.6947 8.44138 68.648 9.70315ZM98.4867 9.86897C98.4867 9.15193 98.6535 8.00596 98.2107 7.87627C97.7382 7.73731 97.2907 8.34689 96.8813 8.42934C96.8813 11.0687 96.8813 13.7071 96.8813 16.3464C97.4204 16.3307 97.9587 16.5892 98.4321 16.4567C98.5303 14.7437 98.4876 12.0081 98.4867 9.86897ZM96.6608 7.87627C97.4575 7.59464 97.9874 6.82108 98.8749 6.7692C99.7772 6.7155 101.011 7.45845 101.2 8.37468C101.417 9.42615 101.2 11.0168 101.2 12.4157C101.2 13.8535 101.2 15.244 101.2 16.402C100.545 17.7018 98.4534 17.1709 96.9924 16.9551C96.7442 17.611 96.9488 18.7199 96.8813 19.5574C96.2837 20.3059 95.2591 20.6292 94.1131 20.8312C94.1131 18.0603 94.1131 14.5659 94.1131 11.3642C94.1131 10.5777 94.3077 8.80175 93.7815 8.59609C93.51 8.48955 93.0913 8.96202 92.8958 8.70633C92.995 8.30241 93.5175 7.96057 93.8927 7.59927C94.3077 7.19905 94.7459 6.78866 95.2211 6.4922C95.8418 6.81182 96.2004 7.39546 96.6608 7.87627ZM51.4862 13.1355C52.3172 12.4537 53.3149 11.4587 54.032 10.4776C53.2455 9.69666 52.4015 8.97128 51.4862 8.31909C51.4862 9.92456 51.4862 11.53 51.4862 13.1355ZM50.5996 2.83844C50.532 3.23588 50.0725 3.73706 49.6584 4.16692C48.9367 4.91638 47.9158 5.60841 46.503 5.16373C46.2464 8.59701 46.4651 12.5074 46.3928 16.125C47.2636 15.9258 48.0344 15.6257 48.7727 15.294C48.5486 13.5857 49.0738 11.3383 48.7727 9.75873C48.7162 9.46136 48.4995 9.30016 48.4411 9.03891C49.8279 8.0634 51.5372 7.41028 52.9249 6.43662C54.1904 7.4038 55.3521 8.47565 56.3573 9.70315C55.1826 10.5416 53.7392 11.8228 52.5923 13.0799C52.0874 13.6339 51.187 14.4918 51.8734 15.2394C52.7341 16.1769 54.8 14.8957 55.5819 14.7966C55.5902 15.0578 55.3197 15.3144 55.14 15.5164C54.6656 16.0463 53.9245 17.0718 53.2019 17.3433C51.4491 18.001 49.7094 16.5993 48.9395 15.571C45.2181 19.5509 34.6005 18.7625 34.6005 12.0284C34.6005 9.87268 35.8095 8.44323 37.037 7.37786C38.3173 6.26431 39.894 5.39349 41.5208 4.94232C41.1975 5.37217 40.7695 5.7483 40.3582 6.15963C39.1066 7.41121 37.7475 9.14174 37.9217 11.7514C38.1718 15.4802 41.3262 16.868 45.7276 16.2353C45.7276 12.5259 45.7276 8.8175 45.7276 5.10814C45.4312 4.79594 44.9485 4.66996 44.565 4.44391C44.5657 6.5024 44.565 9.00741 44.565 11.253C44.565 12.0238 44.6882 12.8715 44.565 13.4672C44.2658 14.9198 42.3055 15.3042 40.5796 15.2394C40.839 14.7789 41.5931 14.8142 41.8525 14.3537C41.8525 13.3375 41.8525 12.1489 41.8525 10.9214C41.8525 9.73928 42.0646 8.358 41.8525 7.48902C41.7654 7.1305 41.417 7.00359 41.1882 6.7692C41.5625 6.23003 42.1962 5.92339 42.7381 5.55098C43.2847 5.17671 43.8563 4.80892 44.3992 4.44391C41.6107 2.73098 36.5237 3.72872 34.1577 4.94232C34.254 4.3837 34.8164 4.0437 35.2092 3.6685C36.6507 2.29464 38.4497 1.03379 41.4096 1.23298C44.2621 1.42381 46.5614 3.41467 49.3267 3.1701C49.7927 3.12936 50.2161 2.86901 50.5996 2.83844ZM17.7157 2.34003C17.7518 2.34003 17.7889 2.34003 17.826 2.34003C17.9548 4.05668 17.8446 6.0114 17.8816 7.82068C18.5375 7.71692 18.9497 6.91743 19.764 6.87945C20.8664 6.82755 21.9485 7.73638 22.5321 8.42934C22.3339 11.0891 22.7962 14.6539 22.5321 17.2321C22.3885 18.6337 21.363 19.3554 20.1513 19.7788C19.5157 20.0011 18.7533 20.2531 18.0474 20.1114C18.229 19.826 18.8163 19.612 19.0998 19.2804C20.1179 18.0872 19.8187 15.4172 19.8187 12.9697C19.8187 11.7663 20.1077 9.53268 19.7084 8.8175C19.4472 8.34966 18.5875 8.30889 17.9371 8.31909C17.838 9.24828 17.8816 10.4369 17.8816 11.6959C17.8816 12.8715 17.6527 14.325 17.8816 15.1282C17.9899 15.509 18.5125 15.7313 18.8228 15.848C18.2855 16.5104 17.4573 16.8819 16.7745 17.3979C16.1168 16.9847 15.6109 16.4206 15.169 15.7924C15.169 13.6913 15.169 10.9807 15.169 8.65074C15.169 7.45104 15.4182 6.07903 14.5595 5.77239C15.4803 4.49672 16.6615 3.48137 17.7157 2.34003ZM105.297 7.82068C105.915 7.70303 106.346 6.93688 107.124 6.87945C108.217 6.79885 109.313 7.71507 109.892 8.37468C109.636 11.2771 110.233 14.9133 109.892 17.5647C109.668 19.3045 107.318 20.0576 105.463 20.166C105.499 19.7936 106.065 19.7251 106.348 19.4471C107.667 18.1557 107.179 13.9989 107.179 11.1419C107.179 10.3609 107.31 9.44375 107.179 8.98333C106.987 8.30982 106.03 8.33762 105.352 8.31909C105.253 9.25755 105.297 10.4804 105.297 11.7514C105.297 12.9345 105.055 14.3806 105.297 15.1838C105.407 15.5488 105.946 15.7285 106.238 15.848C105.685 16.4947 104.859 16.868 104.19 17.3979C103.739 17.032 102.705 16.4307 102.529 15.7378C102.389 15.1866 102.529 14.2185 102.529 13.3569C102.529 11.8052 102.529 10.3118 102.529 8.70633C102.529 7.43993 102.811 6.09386 101.975 5.77239C102.876 4.47727 104.06 3.46562 105.131 2.34003C105.175 2.35022 105.186 2.3956 105.241 2.3956C105.37 4.0937 105.261 6.02993 105.297 7.82068ZM59.5682 0.900391C59.6683 4.09003 59.6238 8.00411 59.6238 11.53C59.6238 12.7094 59.382 14.0916 59.6238 15.0726C59.7433 15.5608 60.2602 15.6813 60.6753 15.9592C60.0407 16.5595 59.3375 17.0931 58.627 17.6193C57.9433 17.196 57.4634 16.5697 56.9113 16.0139C56.9113 12.286 56.9113 8.55903 56.9113 4.83115C56.8103 4.51062 56.4656 4.94695 56.3573 4.77558C56.3036 4.36054 56.7324 4.05945 56.9659 3.77968C57.745 2.84494 58.627 1.83885 59.457 0.900398C59.4941 0.900398 59.5312 0.900391 59.5682 0.900391Z" fill="#056CB4"/>
</g>
<defs>
<clipPath id="clip0_3204_14206">
<rect width="110" height="20.1966" fill="white" transform="translate(0 0.902344)"/>
</clipPath>
</defs>
</svg>
