<svg width="106" height="24" viewBox="0 0 106 24" fill="none" xmlns="http://www.w3.org/2000/svg">
<path d="M22.4665 15.8012C22.3879 14.7635 22.0657 13.802 21.5151 12.9165C20.9722 12.0463 20.2491 11.3663 19.3459 10.8817C19.2215 10.8132 19.0972 10.7397 18.9628 10.661L18.9526 10.6534L19.0262 10.59L19.049 10.5722L19.2723 10.3768L19.2824 10.3667C19.5894 10.0851 19.8533 9.76794 20.0766 9.41274C20.3683 8.94844 20.6017 8.45371 20.7058 7.9133C20.7996 7.42871 20.8732 6.93904 20.9163 6.44684C21.0026 5.52079 20.8707 4.6125 20.5408 3.7448C20.2034 2.86442 19.6655 2.12865 18.9551 1.52735C18.3843 1.0453 17.3035 0.517574 16.5829 0.317141C16.2709 0.230878 15.9563 0.154765 15.6417 0.0913365C15.3017 0.0177599 14.9465 0.00253713 14.5989 0.00253713C10.3289 0 6.064 0 1.79909 0H0.355469V22.5145L0.41636 22.4307L0.489936 22.3369L0.794392 21.9284L0.533068 22.2785C0.555902 22.2481 0.576199 22.2176 0.599033 22.1872C0.733501 22.0121 0.862894 21.837 0.994825 21.662L0.794392 21.9309L1.16481 21.4387C1.50732 20.9846 1.84984 20.533 2.19235 20.0788C2.56277 19.5892 2.94334 19.102 3.31376 18.6073C3.48375 18.3815 3.62075 18.1278 3.68418 17.8538C3.75268 17.5595 3.75014 17.255 3.6791 16.9556C3.56747 16.4913 3.41778 16.0372 3.25794 15.5906C2.97125 14.7864 2.63127 13.9999 2.53232 13.1398C2.45621 12.4725 2.44099 11.8129 2.69724 11.1786C2.82409 10.8665 3.1666 10.5773 3.57001 10.6813C3.88715 10.7625 4.11549 10.9807 4.37428 11.1583C4.52904 11.2648 4.67112 11.3942 4.83857 11.483C5.12019 11.6327 5.49061 11.5211 5.62762 11.2522C5.70119 11.1075 5.76462 10.9528 5.79507 10.7929C5.91685 10.1688 6.02341 9.54467 6.14012 8.92054C6.28473 8.1391 6.49531 7.3805 6.90887 6.68533C7.16258 6.25909 7.72075 6.04597 8.14445 6.26416C8.26877 6.33013 8.38801 6.40371 8.49964 6.48236C9.09079 6.90352 9.75806 6.64473 9.94327 5.94449C9.94327 5.93941 9.94581 5.93434 9.94834 5.92926C10.1006 5.34319 10.2274 4.74443 10.5014 4.19894C10.5953 4.00612 10.7272 3.8133 10.8947 3.68137C11.5112 3.19424 12.4119 3.47586 12.7138 4.2167C12.9396 4.75965 13.2948 4.87128 13.7134 4.7013C14.2006 4.50086 14.6623 4.24208 15.1317 4.00866C15.2535 3.95031 15.3702 3.8818 15.4945 3.83106C15.733 3.73719 15.9715 3.60018 16.2176 3.57735C16.8772 3.51899 17.4481 4.23193 17.2654 4.87128C17.1741 5.1935 17.0371 5.50556 16.8874 5.80241C16.692 6.18805 16.4967 6.57116 16.4155 6.99993C16.2759 7.70272 16.5423 8.22029 17.268 8.43341C17.3796 8.46639 17.4912 8.51206 17.5952 8.56026C17.9327 8.71249 18.1737 9.14888 17.9682 9.54467C17.8464 9.77808 17.6612 9.93792 17.4557 10.0622C17.0878 10.2906 16.6819 10.4555 16.3318 10.7041C15.9004 11.0137 15.7863 11.2775 16.1592 11.7291C16.4231 12.0488 16.7453 12.3152 17.0219 12.6273C17.2426 12.8785 17.4608 13.1372 17.6308 13.4265C17.9479 13.972 17.6511 14.6976 17.1335 14.9995C16.8265 15.1746 16.4865 15.1695 16.1465 15.1466C15.6467 15.1187 15.1444 15.0781 14.6446 15.0705C14.4188 15.068 14.2209 15.1289 14.0458 15.238C13.5029 15.5754 13.3506 16.3036 13.6576 16.8668C13.9037 17.3159 14.1524 17.7675 14.2335 18.28C14.3832 19.1959 14.0128 19.919 13.2212 20.2793C12.8762 20.4366 12.4753 20.5152 12.0948 20.5482C11.1332 20.6319 10.1919 20.5355 9.28108 20.1676C8.84977 19.9926 8.44383 19.7896 8.08356 19.4953C7.92879 19.371 7.78925 19.2187 7.67 19.0589C7.43151 18.7392 7.30466 18.3764 7.42137 17.9831C7.53554 17.5899 7.63956 17.1865 7.82223 16.8262C8.10132 16.2731 8.4286 15.7403 8.76097 15.2151C9.28108 14.3957 9.82149 13.5888 10.3543 12.7744C10.7653 12.1452 11.1865 11.5186 11.5975 10.8919C11.7193 10.7067 11.836 10.5139 11.9375 10.3134C11.9654 10.2576 11.9501 10.1333 11.9146 10.1079C11.8563 10.0724 11.7472 10.0749 11.6863 10.1079C11.6 10.1561 11.534 10.2424 11.4732 10.3185C11.118 10.7676 10.7628 11.2166 10.4101 11.6657C9.85193 12.3761 9.28869 13.0814 8.73052 13.7893C8.31697 14.3145 7.90596 14.8397 7.49494 15.3648C6.90887 16.1108 6.31772 16.8541 5.73164 17.6C5.3054 18.143 4.88424 18.6859 4.45546 19.2263C4.20429 19.5486 3.9455 19.8657 3.69433 20.1879C3.1869 20.84 2.67948 21.4869 2.17205 22.139C1.75596 22.6743 1.33734 23.2071 0.923785 23.745L0.725889 23.9987H2.28622C6.36085 23.9987 10.4355 24.0012 14.5101 23.9961C15.1241 23.9961 15.7431 24.0291 16.3597 23.9023C16.9584 23.7779 17.5597 23.6917 18.1306 23.4456C18.6684 23.2172 19.1962 22.9737 19.6503 22.6007C19.97 22.3394 20.2821 22.0654 20.5789 21.7812C21.1371 21.2459 21.5354 20.5964 21.8551 19.8987C22.2179 19.1198 22.4361 18.3028 22.4894 17.4478C22.5198 16.9049 22.5097 16.3569 22.4691 15.8139L22.4665 15.8012ZM0.593959 0C0.576199 0 0.560976 0.00761138 0.543216 0.0101485V0C0.555902 0 0.573662 0 0.593959 0Z" fill="#BAA886"/>
<path d="M78.3011 3.57735C78.4228 3.57735 78.5573 3.61794 78.773 3.68137V3.50631H77.5653V3.68137C77.786 3.61794 77.918 3.57735 78.0423 3.57735H78.06V4.67085C78.06 4.81547 78.0423 4.87382 77.9459 4.91188V4.92202H78.4V4.91188C78.2985 4.87382 78.2858 4.81547 78.2858 4.67085V3.57735H78.3036H78.3011Z" fill="white"/>
<path d="M80.516 4.67085V3.75495C80.516 3.60018 80.5312 3.54944 80.6276 3.51392V3.50377H80.2724L79.7751 4.65055L79.2677 3.50377H78.91V3.51392C79.0089 3.55198 79.0241 3.60272 79.0241 3.75495V4.67085C79.0241 4.81547 79.0089 4.87382 78.9024 4.91188V4.92202H79.2525V4.91188C79.1434 4.87382 79.1282 4.81547 79.1282 4.67085V3.69659L79.6863 4.93978H79.7447L80.3003 3.66615V4.67085C80.3003 4.81547 80.2826 4.87382 80.1785 4.91188V4.92202H80.6327V4.91188C80.5312 4.87382 80.516 4.81547 80.516 4.67085Z" fill="white"/>
<path d="M34.3428 7.65451V7.56317C35.1953 7.27394 35.6723 6.62951 35.6723 5.69839C35.6723 4.26491 34.5356 3.50377 32.3715 3.50377H28.0989V3.55705C28.6216 3.76763 28.7561 4.23954 28.7561 4.69876V11.2522C28.7561 11.7114 28.6216 12.1833 28.0989 12.4065V12.4598H32.237C34.7614 12.4598 36.0478 11.3562 36.0478 9.70197C36.0478 8.82159 35.4947 7.96911 34.3454 7.65451H34.3428ZM30.9963 4.64548H31.8031C32.8332 4.64548 33.3736 5.05396 33.3736 5.81509C33.3736 6.57623 32.8205 7.1141 31.9681 7.1141H30.9963V4.64548ZM31.996 11.1735H30.9963V8.30909H31.9376C33.0438 8.30909 33.7009 8.83681 33.7009 9.72734C33.7009 10.6179 33.0438 11.171 31.996 11.171V11.1735Z" fill="white"/>
<path d="M54.0918 3.50377V3.55705C54.6297 3.76763 54.7489 4.23954 54.7489 4.69876V8.62623L51.0143 3.50377H48.4594V3.55705C48.982 3.76763 49.1165 4.23954 49.1165 4.69876V11.2648C49.1165 11.7241 48.982 12.196 48.4594 12.4065V12.4598H51.3289V12.4065C50.791 12.196 50.6718 11.7241 50.6718 11.2648V6.85278L54.7515 12.4598H56.3067V4.69876C56.3067 4.23954 56.4412 3.76763 56.9638 3.55705V3.50377H54.0918Z" fill="white"/>
<path d="M65.1892 3.50377V3.58242C65.5317 3.80569 65.3541 4.23954 65.1131 4.69876L63.7989 7.27394L62.4694 4.69876C62.2309 4.23954 62.0508 3.80569 62.4085 3.58242V3.50377H59.062V3.59511C59.6303 3.80569 59.8232 4.26491 60.0642 4.69876L62.3933 8.92815V11.2674C62.3933 11.7266 62.2588 12.1985 61.7362 12.4091V12.4624H65.2907V12.4091C64.768 12.1985 64.6336 11.7266 64.6336 11.2674V8.73279L66.8307 4.7013C67.054 4.26745 67.2493 3.80823 67.8177 3.59765V3.50631H65.1892V3.50377Z" fill="white"/>
<path d="M77.4663 11.2522L75.15 4.69876C75.1322 4.6404 75.1144 4.58459 75.0992 4.52623L74.7415 3.50377H71.9227V3.58242C72.4175 3.78032 72.3109 4.34356 72.1764 4.69876L69.86 11.2522C69.7104 11.6987 69.5328 12.1579 69.0076 12.3685V12.4598H71.6817V12.3939C71.2479 12.1706 71.2935 11.6987 71.4432 11.2522L71.8618 10.0293H74.7465L75.1652 11.2522C75.3149 11.6987 75.2844 12.1706 74.8506 12.3939V12.4598H78.3188V12.3685C77.7962 12.1579 77.6313 11.6987 77.4663 11.2522ZM72.3261 8.67697L73.3131 5.76181L74.3 8.67697H72.3261Z" fill="white"/>
<path d="M45.9654 11.2522L43.649 4.69876C43.6312 4.6404 43.6135 4.58459 43.5982 4.52623L43.2405 3.50377H40.4218V3.58242C40.9165 3.78032 40.8099 4.34356 40.6755 4.69876L38.3591 11.2522C38.2094 11.6987 38.0318 12.1579 37.5066 12.3685V12.4598H40.1807V12.3939C39.7469 12.1706 39.7926 11.6987 39.9422 11.2522L40.3609 10.0293H43.2456L43.6642 11.2522C43.8139 11.6987 43.7835 12.1706 43.3496 12.3939V12.4598H46.8179V12.3685C46.2952 12.1579 46.1303 11.6987 45.9654 11.2522ZM40.8252 8.67697L41.8121 5.76181L42.7991 8.67697H40.8252Z" fill="white"/>
<path d="M91.3977 3.50377V3.55705C91.9356 3.76763 92.0548 4.23954 92.0548 4.69876V8.62623L88.3202 3.50377H85.7653V3.55705C86.2879 3.76763 86.4224 4.23954 86.4224 4.69876V11.2648C86.4224 11.7241 86.2879 12.196 85.7653 12.4065V12.4598H88.6348V12.4065C88.0969 12.196 87.9777 11.7241 87.9777 11.2648V6.85278L92.0574 12.4598H93.6126V4.69876C93.6126 4.23954 93.7471 3.76763 94.2697 3.55705V3.50377H91.3977Z" fill="white"/>
<path d="M96.6902 3.50377C95.5941 3.50377 94.8913 4.20402 94.8913 5.23409C94.8913 6.26416 95.5941 6.97963 96.6902 6.97963C97.7862 6.97963 98.4864 6.26416 98.4864 5.23409C98.4864 4.20402 97.7887 3.50377 96.6902 3.50377ZM96.6902 6.33774C96.3045 6.33774 96.0914 6.01299 96.0914 5.23409C96.0914 4.45519 96.3045 4.11776 96.6902 4.11776C97.0758 4.11776 97.2889 4.45519 97.2889 5.23409C97.2889 6.01299 97.086 6.33774 96.6902 6.33774Z" fill="white"/>
<path d="M101.27 12.6121C101.762 12.2391 101.891 11.5642 101.891 10.5189V6.38087C101.561 6.89845 100.93 7.34244 100.085 7.3805V5.87598C101.399 5.71868 102.571 4.72159 102.992 3.50631H104.611V10.6052C104.611 11.6048 104.728 12.2645 105.162 12.6146H101.27V12.6121Z" fill="white"/>
<path d="M28.2943 21.0176V17.3083L28.0989 16.7501H29.3371L29.1417 17.3083V18.9828H30.768V17.3083L30.5701 16.7501H31.8031L31.6103 17.3083V21.0176L31.8031 21.5757H30.5701L30.768 21.0176V19.1908H29.1417V21.0176L29.3371 21.5757H28.0989L28.2943 21.0176Z" fill="#BAA886"/>
<path d="M33.7694 19.1629C33.7694 17.7091 34.6701 16.7146 36.1416 16.7146C37.6132 16.7146 38.5138 17.7066 38.5138 19.1629C38.5138 20.6192 37.6182 21.6112 36.1416 21.6112C34.665 21.6112 33.7694 20.6192 33.7694 19.1629ZM37.6791 19.4395C37.6791 17.9908 36.9205 16.9328 35.959 16.9328C35.1522 16.9328 34.6041 17.6609 34.6041 18.8813C34.6041 20.33 35.3627 21.3905 36.3243 21.3905C37.1311 21.3905 37.6791 20.6598 37.6791 19.4395Z" fill="#BAA886"/>
<path d="M42.6468 21.0023L41.7411 19.6018L40.6324 21.0023L40.7085 21.5783H39.9042L41.6244 19.4217L39.9042 16.7526H41.3174L41.2768 17.3286L42.1825 18.7291L43.2913 17.3286L43.2151 16.7526H44.0194L42.2992 18.9092L44.0194 21.5783H42.6062L42.6468 21.0023Z" fill="#BAA886"/>
<path d="M47.5257 21.0176V16.9226H46.9904L46.0897 17.7853V16.7501H49.8015V17.7853L48.9008 16.9226H48.3655V21.0176L48.5939 21.5757H47.2948L47.5232 21.0176H47.5257Z" fill="#BAA886"/>
<path d="M51.6688 19.1629C51.6688 17.7091 52.5695 16.7146 54.0411 16.7146C55.5126 16.7146 56.4133 17.7066 56.4133 19.1629C56.4133 20.6192 55.5177 21.6112 54.0411 21.6112C52.5645 21.6112 51.6688 20.6192 51.6688 19.1629ZM55.5786 19.4395C55.5786 17.9908 54.82 16.9328 53.8584 16.9328C53.0516 16.9328 52.5036 17.6609 52.5036 18.8813C52.5036 20.33 53.2622 21.3905 54.2237 21.3905C55.0305 21.3905 55.5786 20.6598 55.5786 19.4395Z" fill="#BAA886"/>
<path d="M58.5698 21.0176V17.0216L58.3745 16.7501H59.4198L61.8072 20.127V17.3083L61.6144 16.7501H62.2081L62.0152 17.3083V21.5757H61.8072L58.7779 17.3108V21.015L58.9707 21.5732H58.377L58.5698 21.015V21.0176Z" fill="#BAA886"/>
</svg>
