<svg width="84" height="32" viewBox="0 0 84 32" fill="none" xmlns="http://www.w3.org/2000/svg">
<path d="M2.283 0.0976562H11.9096C12.5582 0.154551 13.2181 0.427645 13.6392 0.951075C14.026 1.41761 14.1854 2.03207 14.174 2.62378C14.174 3.54547 14.174 4.46716 14.174 5.38885C14.174 5.93504 13.8667 6.44709 13.4685 6.79984C12.8768 7.33465 12.1258 7.64188 11.3861 7.90359C10.9651 8.0629 10.51 8.25634 10.3051 8.67736C10.0207 9.24631 10.032 9.8949 10.0093 10.5094C10.0093 16.6995 10.0093 22.8783 10.0093 29.0684C9.98653 29.8421 9.70206 30.6273 9.14449 31.1849C8.32521 32.0041 6.99387 32.1634 5.93563 31.7424C5.18463 31.4238 4.61568 30.7866 4.37672 30.0015C4.20604 29.478 4.19466 28.9318 4.21742 28.397C4.21742 22.7986 4.21742 17.2002 4.21742 11.6131C4.20604 10.8507 4.25156 10.0883 4.13777 9.33734C4.06949 8.90494 3.88743 8.47254 3.51193 8.23358C2.96574 7.89221 2.32852 7.75567 1.77095 7.44844C0.963049 7.05018 0.166524 6.36744 0.0527344 5.42299V2.49861C0.09825 1.9069 0.280313 1.29244 0.701333 0.848666C1.0996 0.38213 1.6913 0.16593 2.283 0.0976562ZM2.00991 1.30382C1.52061 1.44037 1.21338 1.94104 1.20201 2.44171C1.19063 3.36341 1.20201 4.2851 1.20201 5.20679C1.19063 5.59367 1.4751 5.88953 1.75957 6.09435C2.62437 6.75432 3.81916 6.8226 4.58154 7.6305C5.2529 8.34737 5.30979 9.39423 5.34393 10.3273C5.35531 16.2899 5.35531 22.2524 5.34393 28.215C5.34393 28.7156 5.29842 29.2391 5.48048 29.7284C5.6284 30.2063 6.00391 30.5932 6.4932 30.7411C7.09629 30.9118 7.80178 30.8435 8.27969 30.4225C8.72347 30.0242 8.8714 29.387 8.8714 28.8067C8.8714 22.901 8.8714 16.9953 8.8714 11.0897C8.8714 10.3045 8.86002 9.50802 9.06484 8.74563C9.17863 8.2222 9.47448 7.75567 9.88412 7.4143C10.6806 6.77708 11.7616 6.68605 12.5582 6.06021C12.7857 5.86677 13.0475 5.62781 13.0247 5.3092C13.0247 4.37613 13.0247 3.45444 13.0247 2.52137C13.0361 2.16862 12.9109 1.82725 12.6606 1.57692C12.3989 1.34934 12.0575 1.22417 11.7047 1.23555C8.74623 1.23555 5.77633 1.23555 2.81781 1.23555C2.5561 1.20141 2.27162 1.23555 2.00991 1.30382ZM52.9533 1.70208C53.7726 1.16728 54.7284 0.882802 55.707 0.90556C57.0611 0.90556 58.3469 1.54278 59.2914 2.46447C60.452 3.57961 61.2144 5.05887 61.7378 6.57226C62.1702 7.86946 62.4775 9.21217 62.6595 10.5663C62.8985 10.0542 63.2171 9.56492 63.695 9.25768C64.446 8.75701 65.4246 8.66598 66.278 8.91632C66.9722 9.12114 67.5525 9.61043 67.8825 10.259C68.2011 10.8849 68.2807 11.5904 68.2466 12.2731C68.258 15.9599 68.2238 19.6353 68.2693 23.322C68.2921 23.7658 68.2352 24.2437 68.4742 24.6306C68.77 24.4599 68.7245 24.0617 68.7473 23.7658C68.77 19.988 68.7473 16.2102 68.7586 12.4324C68.7473 11.8293 68.7359 11.2262 68.9521 10.6459C69.2024 9.89491 69.76 9.29182 70.4769 8.99597C71.2506 8.68874 72.1154 8.70012 72.8778 9.01873C73.4354 9.25769 73.8792 9.67871 74.1636 10.2249C74.4481 9.76974 74.8464 9.39423 75.3357 9.16666C75.3243 7.71015 75.347 6.25365 75.3357 4.79715C75.3243 3.93235 75.6087 3.03342 76.246 2.41896C77.1563 1.55416 78.6355 1.44037 79.7165 2.03207C80.3879 2.43033 80.8658 3.10169 81.0251 3.86408C81.1503 4.33061 81.1161 4.81991 81.1161 5.29782V8.91632C81.9696 9.087 82.7888 9.5763 83.1757 10.3842C83.6878 11.4652 83.5512 12.8762 82.7206 13.7637C82.2882 14.2075 81.7192 14.5034 81.1048 14.6058V23.3448C81.1048 24.0844 81.0479 24.8582 81.3323 25.5637C81.503 25.9733 81.833 26.3716 82.2882 26.4399C82.8116 26.5309 83.2668 26.8609 83.5171 27.316C83.8585 27.9191 83.9381 28.6246 83.9267 29.296C83.9154 30.0128 83.5967 30.6842 83.0619 31.1507C82.5044 31.6286 81.7647 31.8448 81.0365 31.9017C79.5572 32.0155 78.1121 31.4466 77.1108 30.3656C76.0867 29.2504 75.6315 27.737 75.4267 26.2578C75.2446 25.063 75.3356 23.8682 75.3129 22.6621C75.3129 19.8856 75.3015 17.1091 75.3243 14.3327C75.0398 14.1734 74.7667 13.9913 74.5277 13.7637C74.5277 18.6339 74.5277 23.5041 74.5277 28.3743C74.5846 29.2846 74.4367 30.2632 73.8223 30.9914C72.673 32.4024 70.1127 32.2545 69.191 30.6501C68.5652 31.2873 67.7573 31.7766 66.8584 31.879C65.9822 32.0269 65.015 31.9131 64.2981 31.3442C63.274 30.559 62.8302 29.2732 62.6026 28.0443C62.3182 26.5878 62.4775 25.0971 62.4092 23.6179C62.102 25.1996 61.6354 26.7698 60.8731 28.1922C60.2813 29.2846 59.5076 30.2859 58.4835 30.9914C57.6642 31.5604 56.6856 31.9472 55.6729 31.9472C54.2847 31.9814 52.9647 31.3214 51.9861 30.377C50.9051 29.3415 50.1769 27.9874 49.6534 26.5878C49.0845 25.063 48.7659 23.4586 48.5497 21.8541C48.2766 19.5329 48.1742 17.1888 48.2652 14.8447C48.3335 12.6714 48.5269 10.498 49.0162 8.38151C49.369 6.89087 49.8583 5.42299 50.6548 4.10304C51.2579 3.18134 51.9975 2.31655 52.9533 1.70208ZM54.9788 2.07759C54.0343 2.24827 53.2037 2.79446 52.5664 3.48857C51.7244 4.38751 51.1441 5.51402 50.7231 6.67467C50.0403 8.57495 49.7331 10.6004 49.551 12.6031C49.369 14.9016 49.3462 17.2002 49.4941 19.4987C49.6307 21.4445 49.8696 23.4017 50.4272 25.2792C50.8482 26.6674 51.4285 28.0215 52.373 29.1367C53.0444 29.9218 53.9319 30.5704 54.9674 30.7866C55.8208 30.9459 56.697 30.798 57.448 30.3656C58.62 29.717 59.4507 28.6132 60.0538 27.4412C60.7479 26.053 61.1575 24.551 61.4306 23.0262C61.863 20.5569 61.954 18.0536 61.9199 15.5502C61.9085 13.5817 61.7265 11.6131 61.3965 9.67871C61.112 8.17669 60.7024 6.67467 59.9969 5.3092C59.4052 4.18269 58.5859 3.12445 57.4594 2.49861C56.6856 2.07759 55.8208 1.94104 54.9788 2.07759ZM77.7366 2.85136C77.2018 2.97652 76.7808 3.36341 76.6101 3.88684C76.4166 4.38751 76.4735 4.9337 76.4622 5.46851C76.4622 6.59502 76.4735 7.71015 76.4508 8.83667C76.4394 9.1439 76.4963 9.45113 76.428 9.75836C76.337 10.077 75.9843 10.1225 75.7339 10.259C74.5846 10.8052 74.5846 12.7624 75.7453 13.2972C75.916 13.3996 76.1436 13.4451 76.2573 13.6272C76.4622 13.923 76.4622 14.2985 76.4622 14.6399C76.4622 18.1332 76.4622 21.6266 76.4622 25.1313C76.5077 26.144 76.7239 27.1453 77.0766 28.1012C77.418 28.966 77.9528 29.7853 78.7493 30.2973C79.4776 30.7638 80.3765 30.889 81.2186 30.7752C81.742 30.6956 82.2882 30.4907 82.5954 30.0356C82.9026 29.5804 82.8344 28.966 82.7433 28.4425C82.6751 28.067 82.4816 27.6233 82.0492 27.5664C81.321 27.3843 80.7065 26.8836 80.3879 26.2009C80.0238 25.484 79.9669 24.6534 79.9896 23.8682C79.9896 20.7618 79.9783 17.6667 79.9896 14.5603C80.0124 14.1279 80.1945 13.5475 80.7065 13.5248C81.1617 13.5248 81.6054 13.3427 81.924 13.0013C82.3906 12.4779 82.4589 11.67 82.2199 11.0214C82.0037 10.4411 81.4006 10.0997 80.8089 10.0315C80.6041 9.98594 80.3538 10.0087 80.1945 9.86077C80.0465 9.7356 79.9782 9.54216 80.001 9.34872C80.001 7.81256 80.001 6.26503 80.001 4.72888C79.9896 4.15993 79.8076 3.53409 79.341 3.15859C78.8859 2.78308 78.2714 2.72619 77.7366 2.85136ZM64.8898 9.96318C64.0478 10.0997 63.5812 10.9759 63.5812 11.761C63.5699 16.4605 63.5699 21.1714 63.5812 25.8709C63.5812 26.9405 63.695 28.0215 64.0592 29.0342C64.2867 29.6601 64.6508 30.2745 65.2426 30.6045C65.766 30.889 66.3918 30.8321 66.9608 30.7297C67.7687 30.559 68.4286 29.9901 68.9521 29.3756C69.1228 29.1594 69.4414 29.0342 69.6917 29.1936C70.0217 29.3756 69.9989 29.8194 70.2038 30.1039C70.6817 30.9004 71.8423 31.0256 72.6161 30.5932C73.2192 30.229 73.4354 29.478 73.4354 28.8067C73.4354 23.1513 73.4354 17.5074 73.4354 11.8521C73.4126 11.3059 73.2761 10.7142 72.8437 10.3273C72.4113 9.91766 71.7513 9.86077 71.1937 9.96318C70.6931 10.0656 70.2834 10.407 70.09 10.8735C69.8624 11.3628 69.8738 11.909 69.8852 12.4438C69.8852 16.3354 69.8965 20.227 69.8738 24.1186C69.8851 24.6306 69.669 25.1085 69.2821 25.4385C68.9521 25.7116 68.5083 25.7913 68.0987 25.6433C67.5411 25.4385 67.1883 24.8582 67.1428 24.2779C67.0632 20.079 67.1201 15.8802 67.0973 11.6814C67.0746 11.1125 66.8356 10.5207 66.3577 10.1908C65.9253 9.90629 65.3791 9.87215 64.8898 9.96318ZM55.3315 7.12983C55.9915 6.97052 56.6742 7.31189 56.9246 7.94911C57.4139 9.17803 57.5959 10.5094 57.7325 11.8179C57.9714 14.1506 57.9828 16.4947 57.9031 18.8274C57.8007 20.5911 57.687 22.3662 57.1863 24.073C57.0384 24.5282 56.9018 25.0402 56.5149 25.3475C55.946 25.8026 55.1153 25.723 54.6374 25.1768C54.3074 24.7558 54.1822 24.2096 54.0229 23.6975C53.5678 21.9224 53.454 20.0677 53.3857 18.2357C53.3288 15.8575 53.363 13.4679 53.6588 11.1125C53.7726 10.168 53.966 9.22355 54.2505 8.31324C54.3871 7.77843 54.7512 7.255 55.3201 7.11845M55.5591 8.25634C55.3884 8.42703 55.3657 8.67736 55.286 8.89356C54.9333 10.0656 54.7967 11.2831 54.6829 12.4893C54.5236 14.6968 54.5009 16.9157 54.5919 19.1346C54.6943 20.7732 54.8195 22.4459 55.3543 24.0161C55.4339 24.1868 55.4681 24.4941 55.7184 24.4599C55.9346 24.3006 55.9574 23.9934 56.0598 23.7544C56.5377 22.1728 56.6515 20.5114 56.7425 18.8729C56.8222 16.7678 56.788 14.6513 56.6401 12.5462C56.5149 11.1807 56.367 9.80387 55.9005 8.50668C55.8549 8.37013 55.7525 8.16531 55.5591 8.25634ZM37.9218 10.1794C38.8093 9.24631 40.0269 8.52944 41.3468 8.58633C42.3482 8.58633 43.3154 8.95045 44.0664 9.61043C45.1132 10.5207 45.7505 11.8179 46.1829 13.1151C46.6949 14.7082 46.9794 16.3695 47.0249 18.0422C47.0363 19.1801 46.8315 20.3863 46.0918 21.2852C45.6025 21.8769 44.8857 22.241 44.1233 22.2865C43.1902 22.3207 42.2571 22.2638 41.3354 22.4231C41.0965 22.6052 41.051 22.9465 40.9827 23.2196C40.8917 23.891 40.8917 24.5851 41.1534 25.2223C41.2672 25.5068 41.5061 25.7685 41.8361 25.7571C42.2344 25.6433 42.5302 25.3475 42.8375 25.0858C43.3495 24.642 44.0436 24.4713 44.7036 24.6306C45.375 24.824 45.9325 25.302 46.2284 25.9278C46.5129 26.5764 46.5584 27.3046 46.3535 27.9874C46.0236 29.148 45.3294 30.1608 44.385 30.9118C43.2926 31.7652 41.8816 32.1066 40.5162 31.879C39.2531 31.6286 38.1835 30.7866 37.3983 29.7853C36.4425 28.5563 35.7484 27.1453 35.3501 25.6319C35.3388 26.7471 35.3501 27.8508 35.3501 28.9546C35.3388 29.7966 35.0201 30.6728 34.3829 31.2531C33.4385 32.0952 31.9365 32.1634 30.8668 31.5148C30.002 30.98 29.5696 29.9446 29.5469 28.9546C29.5469 25.905 29.5469 22.8555 29.5469 19.8059C29.5469 18.7136 29.5469 17.6098 29.3193 16.5288C29.2966 16.4378 29.2624 16.3468 29.2169 16.2671C28.9438 17.3709 28.9893 18.5087 28.9779 19.6353C28.9779 22.7417 28.9779 25.8481 28.9779 28.9546C28.9552 29.7284 28.7162 30.5249 28.1928 31.1052C27.2142 32.209 25.2684 32.2203 24.2671 31.128C23.7209 30.5476 23.4705 29.7284 23.4592 28.9432C23.4592 25.723 23.4592 22.5027 23.4592 19.2939C23.4705 18.395 23.4023 17.4846 23.243 16.5971C23.243 16.4947 23.1975 16.4036 23.1292 16.324C22.9813 17.0522 22.9016 17.7919 22.9016 18.5315C22.8902 22.0362 22.9016 25.5295 22.9016 29.0229C22.8902 29.8421 22.5716 30.6159 21.9913 31.1962C21.1606 31.97 19.8634 32.1179 18.828 31.6969C18.02 31.3669 17.4397 30.6159 17.2349 29.7739C17.0642 29.1708 17.1325 28.545 17.1211 27.9305C17.1211 22.5255 17.1211 17.1319 17.1211 11.7269C17.1325 11.0556 17.3373 10.4183 17.7128 9.86077C18.5093 8.7115 20.2845 8.37013 21.4451 9.18941C21.7637 9.42837 22.0368 9.72422 22.2302 10.077C23.095 9.43975 24.085 8.83667 25.2001 8.83667C26.3153 8.83667 27.2825 9.57629 27.7832 10.5435C28.5911 9.67871 29.6379 8.96183 30.8327 8.80253C31.8227 8.66598 32.824 9.09838 33.5295 9.78112C34.6219 10.828 35.2363 12.33 35.3274 13.832C35.3729 14.2872 35.316 14.7423 35.3501 15.1861C35.8963 13.411 36.6132 11.579 37.9218 10.1794ZM40.8689 9.74698C39.8334 9.92904 38.98 10.6345 38.3542 11.4424C37.5349 12.5121 37.0115 13.7865 36.6132 15.0609C36.1239 16.7109 35.8622 18.4291 35.8508 20.1587C35.8167 22.1386 36.0898 24.1072 36.6473 26.0075C37.1366 27.3843 37.8421 28.7156 38.889 29.7511C39.6172 30.468 40.6413 30.9459 41.6768 30.8094C42.9285 30.7297 44.0664 29.9559 44.715 28.8977C45.0677 28.3174 45.3863 27.646 45.3408 26.9519C45.3067 26.3602 44.8402 25.723 44.2029 25.723C43.5885 25.7457 43.2585 26.3374 42.7464 26.5878C42.1775 26.9633 41.4379 26.9747 40.8575 26.5992C40.2658 26.2236 39.97 25.5182 39.8789 24.8354C39.7652 24.0389 39.7765 23.2082 40.0269 22.4345C40.1976 21.9224 40.5617 21.3876 41.1306 21.2852C42.1206 21.1145 43.1219 21.1942 44.1233 21.1373C44.7377 21.1145 45.2726 20.6707 45.5229 20.1246C45.9667 19.1915 45.9553 18.1332 45.8529 17.1319C45.7505 15.7664 45.466 14.4237 45.0108 13.1265C44.6467 12.1593 44.1574 11.1921 43.3723 10.5094C42.6782 9.91766 41.7678 9.63319 40.8689 9.74698ZM19.5562 9.96318C18.7369 10.1225 18.2818 10.9759 18.2931 11.761C18.2931 17.3253 18.2931 22.901 18.2931 28.4653C18.2818 28.9091 18.2818 29.3642 18.4524 29.7853C18.6004 30.2177 18.9304 30.559 19.3628 30.7183C19.9545 30.9231 20.6827 30.8662 21.1834 30.468C21.6158 30.1039 21.7978 29.5235 21.8206 28.9774C21.8206 25.9278 21.8206 22.8783 21.8206 19.8401C21.832 18.8046 21.7978 17.7577 21.9685 16.7336C22.0596 16.2216 22.1734 15.6754 22.5033 15.2544C22.7651 14.913 23.2999 14.7651 23.6754 15.0154C24.0281 15.2544 24.1874 15.664 24.3126 16.0623C24.6312 17.1774 24.6426 18.3494 24.6426 19.4987C24.6426 22.5824 24.6426 25.6547 24.6426 28.7384C24.6426 29.2732 24.7222 29.8421 25.0408 30.2745C25.4846 30.9004 26.4177 30.9914 27.0663 30.6501C27.6466 30.3201 27.8742 29.6146 27.8856 28.9887C27.8856 25.484 27.8856 21.9907 27.8856 18.4974C27.8969 17.6553 27.9538 16.8133 28.1814 16.0054C28.3066 15.5844 28.5114 15.1178 28.9438 14.9358C29.2624 14.7878 29.6379 14.8561 29.8769 15.1064C30.2182 15.4706 30.3662 15.9712 30.4686 16.4492C30.7417 17.7919 30.6962 19.1573 30.6962 20.5114C30.6962 23.3334 30.6962 26.1668 30.6962 28.9887C30.7075 29.6373 30.9806 30.3542 31.5951 30.6501C32.2096 30.9459 33.0288 30.9118 33.5864 30.468C34.0188 30.1039 34.2009 29.5235 34.2236 28.966C34.2236 24.4372 34.2236 19.897 34.2236 15.3682C34.2236 14.5944 34.2691 13.8206 34.0871 13.0696C33.8254 12.0114 33.2792 10.9645 32.3689 10.3159C31.8341 9.94042 31.1513 9.83801 30.5369 10.0542C29.5241 10.3842 28.739 11.1466 28.0904 11.9659C27.8969 12.2048 27.5442 12.2503 27.3052 12.0569C27.2825 12.0455 27.2597 12.0228 27.2484 12C26.9639 11.67 26.8842 11.2035 26.6225 10.8507C26.2356 10.259 25.496 9.89491 24.7905 10.0428C23.994 10.2249 23.334 10.7142 22.6854 11.1807C22.3668 11.3969 21.8889 11.6017 21.5703 11.2831C21.3313 10.9759 21.2517 10.5663 20.9558 10.3045C20.6258 9.90629 20.0455 9.84939 19.5562 9.96318ZM12.9109 8.84805C13.753 8.67736 14.686 8.82529 15.3801 9.3601C16.1084 9.91766 16.4725 10.8507 16.4839 11.761C16.4839 17.496 16.4839 23.2424 16.4839 28.9774C16.4839 29.8194 16.1653 30.6956 15.5281 31.2645C14.5836 32.1066 13.0702 32.1862 12.0006 31.5376C11.1586 31.0142 10.7262 30.0242 10.692 29.057C10.692 23.2651 10.692 17.4733 10.692 11.6928C10.7262 10.9418 10.9765 10.1794 11.5113 9.62181C11.8754 9.22355 12.3647 8.95046 12.9109 8.84805ZM13.0816 9.96318C12.2623 10.1225 11.8185 10.9759 11.8185 11.7497C11.8185 17.3253 11.8185 22.8896 11.8185 28.4653C11.8072 28.9091 11.8072 29.3756 11.9778 29.7853C12.1371 30.2404 12.5013 30.5932 12.9678 30.7411C13.5595 30.9118 14.2764 30.8549 14.7543 30.4225C15.1867 30.0356 15.3346 29.4439 15.346 28.8863C15.346 23.4244 15.346 17.9626 15.346 12.5121C15.346 12.0683 15.3801 11.6131 15.255 11.1807C15.1639 10.7711 14.9136 10.407 14.5609 10.168C14.1285 9.88353 13.5823 9.87215 13.0816 9.96318ZM40.7893 13.9117C41.1648 13.7524 41.5858 13.923 41.8703 14.1848C42.2571 14.5489 42.4051 15.0951 42.4278 15.6185C42.4506 16.1874 42.4164 16.8019 42.0523 17.2571C41.6085 17.8146 40.6527 17.826 40.1976 17.2798C39.7538 16.7564 39.7538 16.0168 39.8221 15.3682C39.8789 14.7651 40.1862 14.1165 40.7893 13.9117ZM40.903 15.7095C40.8917 15.9485 40.9031 16.1988 40.9486 16.4378C40.9827 16.5288 41.0851 16.563 41.1761 16.5288C41.2444 16.5061 41.2786 16.4378 41.2786 16.3695C41.3013 15.9144 41.381 15.4023 41.142 14.9813C40.903 15.1406 40.9144 15.4478 40.903 15.7095Z" fill="#4B4B4B"/>
</svg>
