<svg width="151" height="96" viewBox="0 0 151 96" fill="none" xmlns="http://www.w3.org/2000/svg">
<path d="M95.8536 28.6054C95.715 26.7272 95.1317 24.9831 94.1373 23.3828C93.1572 21.8065 91.852 20.5799 90.217 19.7031C89.9923 19.5785 89.7676 19.4444 89.5237 19.3054L89.5046 19.291L89.6337 19.176L89.672 19.1473L90.0735 18.7927L90.0927 18.7736C90.6472 18.2657 91.1206 17.6907 91.5269 17.0439C92.0528 16.2006 92.4783 15.3047 92.6648 14.3272C92.8369 13.4504 92.966 12.564 93.0472 11.6728C93.205 9.99588 92.966 8.35246 92.3684 6.78091C91.7612 5.19019 90.7859 3.85342 89.5046 2.77058C88.4719 1.89856 86.5214 0.945087 85.221 0.576156C84.6616 0.418042 84.0927 0.283882 83.5238 0.168891C82.9118 0.0395253 82.2664 0.00598783 81.6401 0.00598783C73.9381 -0.0035948 66.2314 0.00119915 58.5294 0.00119915H55.9238V40.7561L56.0338 40.6028L56.1629 40.4303L56.7127 39.6925L56.2394 40.3249C56.2776 40.2674 56.3159 40.2147 56.3589 40.1572C56.5979 39.841 56.837 39.5248 57.0712 39.2037L56.7127 39.6877L57.3772 38.7965C57.9939 37.9772 58.6155 37.1531 59.2322 36.3338C59.9015 35.4474 60.59 34.5658 61.2593 33.6698C61.5653 33.2625 61.8139 32.8026 61.9286 32.3043C62.0529 31.7676 62.0481 31.2214 61.919 30.6752C61.7182 29.8319 61.4457 29.0126 61.1589 28.2029C60.6425 26.7463 60.0306 25.3233 59.8489 23.7661C59.715 22.5587 59.6816 21.3657 60.1453 20.2158C60.3748 19.6504 60.9963 19.1281 61.723 19.315C62.2967 19.4587 62.7079 19.8612 63.1764 20.1774C63.4585 20.3691 63.7119 20.6039 64.0178 20.7668C64.5246 21.0399 65.1939 20.8386 65.4473 20.3499C65.5764 20.0864 65.6959 19.8037 65.7485 19.521C65.9684 18.3951 66.1597 17.2595 66.37 16.1336C66.633 14.7201 67.0154 13.345 67.7565 12.0897C68.2154 11.3183 69.2242 10.9302 69.9891 11.3279C70.2138 11.4477 70.429 11.577 70.6298 11.7255C71.7007 12.4874 72.9007 12.0226 73.2353 10.7529C73.2353 10.7433 73.2353 10.7337 73.2401 10.7242C73.5174 9.66049 73.7421 8.57765 74.2393 7.59064C74.4114 7.24088 74.6457 6.89111 74.9469 6.65634C76.0608 5.77473 77.6863 6.28261 78.2313 7.62418C78.6377 8.6064 79.2831 8.80763 80.0337 8.50099C80.9134 8.13685 81.7453 7.67209 82.5963 7.24567C82.8162 7.14026 83.0266 7.01568 83.2513 6.92465C83.6815 6.75216 84.1118 6.5078 84.5564 6.46468C85.7469 6.35927 86.7795 7.64814 86.4497 8.80763C86.2823 9.39217 86.0385 9.95755 85.766 10.4942C85.4122 11.1937 85.0632 11.8837 84.9102 12.6599C84.6568 13.9343 85.1397 14.8686 86.4497 15.252C86.6505 15.3142 86.8512 15.3909 87.0425 15.4819C87.6496 15.7598 88.0895 16.5504 87.7166 17.2643C87.4967 17.6859 87.162 17.9734 86.7939 18.1986C86.1293 18.6107 85.3979 18.9077 84.762 19.3629C83.9827 19.9235 83.7772 20.4026 84.4513 21.2171C84.9293 21.7969 85.5126 22.2808 86.0098 22.8462C86.4066 23.3014 86.8034 23.7661 87.1094 24.2932C87.6831 25.2802 87.1429 26.593 86.2106 27.1392C85.656 27.4554 85.0393 27.4459 84.4273 27.4075C83.5238 27.3548 82.6202 27.283 81.7118 27.2734C81.3054 27.2686 80.9469 27.3788 80.6313 27.5752C79.6513 28.1837 79.3788 29.5061 79.9333 30.5219C80.378 31.3364 80.8226 32.1509 80.9756 33.0804C81.2481 34.7382 80.5788 36.0463 79.1445 36.7027C78.523 36.9902 77.7963 37.1291 77.1078 37.1914C75.3676 37.3447 73.6704 37.1674 72.0258 36.5014C71.2465 36.1852 70.515 35.8163 69.8648 35.2845C69.5828 35.0593 69.3342 34.7862 69.1142 34.4939C68.684 33.9141 68.4545 33.2577 68.6648 32.5438C68.8704 31.8347 69.0569 31.1016 69.3867 30.45C69.8887 29.4486 70.4816 28.4856 71.0792 27.5321C72.021 26.0468 72.9915 24.5854 73.9573 23.1145C74.7031 21.9742 75.4585 20.8434 76.2043 19.7031C76.4242 19.3677 76.6345 19.0179 76.8162 18.6538C76.8688 18.5532 76.8401 18.328 76.778 18.2801C76.6728 18.213 76.4768 18.2178 76.3668 18.2801C76.209 18.3663 76.0895 18.5196 75.9796 18.6634C75.3341 19.4731 74.6983 20.2876 74.0576 21.1022C73.0489 22.3862 72.0306 23.6655 71.0218 24.9448C70.2712 25.8983 69.535 26.8469 68.7891 27.7956C67.7278 29.1468 66.6617 30.4883 65.6051 31.8395C64.8354 32.8217 64.0704 33.8039 63.3007 34.7862C62.8465 35.3707 62.3828 35.9457 61.9238 36.5302C61.0107 37.7089 60.088 38.8827 59.1748 40.0614C58.4194 41.0292 57.6688 41.9971 56.9183 42.9649L56.5597 43.4249H59.3804C66.7429 43.4249 74.1007 43.4297 81.4584 43.4201C82.5676 43.4201 83.6863 43.4824 84.8002 43.2476C85.8807 43.0224 86.966 42.8643 88.0034 42.4235C88.9739 42.0115 89.9301 41.5659 90.7476 40.8903C91.3261 40.4159 91.8903 39.9225 92.4257 39.405C93.4345 38.4371 94.1564 37.2585 94.7301 35.9936C95.3851 34.5849 95.7819 33.1044 95.8775 31.5568C95.9349 30.5746 95.911 29.5828 95.844 28.6006L95.8536 28.6054ZM56.3445 0.00598783C56.3111 0.00598783 56.2824 0.0155672 56.2537 0.0251499V0.00598783C56.2776 0.00598783 56.3111 0.00598783 56.3445 0.00598783Z" fill="#BAA886"/>
<path d="M50.7047 95.1086V89.5459L50.4083 88.7074H52.2585L51.962 89.5459V92.0566H54.3955V89.5459L54.0991 88.7074H55.9445L55.6577 89.5459V95.1086L55.9445 95.9471H54.0991L54.3955 95.1086V92.368H51.962V95.1086L52.2585 95.9471H50.4083L50.7047 95.1086Z" fill="#BAA886"/>
<path d="M58.8965 92.3298C58.8965 90.1498 60.2399 88.6597 62.4439 88.6597C64.6479 88.6597 65.9913 90.1498 65.9913 92.3298C65.9913 94.5099 64.6527 96 62.4439 96C60.2351 96 58.8965 94.5099 58.8965 92.3298ZM64.7435 92.7419C64.7435 90.5714 63.6104 88.9855 62.1714 88.9855C60.9666 88.9855 60.1443 90.0779 60.1443 91.9034C60.1443 94.0739 61.2774 95.6646 62.7164 95.6646C63.9212 95.6646 64.7435 94.5674 64.7435 92.7419Z" fill="#BAA886"/>
<path d="M72.1783 95.0847L70.8205 92.9861L69.1615 95.0847L69.2763 95.9471H68.0763L70.6484 92.713L68.0763 88.7122H70.1894L70.1273 89.5747L71.485 91.6733L73.144 89.5747L73.0293 88.7122H74.2293L71.6572 91.9464L74.2293 95.9471H72.1161L72.1783 95.0847Z" fill="#BAA886"/>
<path d="M79.4758 95.1088V88.9711H78.6774L77.334 90.2648V88.7172H82.8894V90.2648L81.5412 88.9711H80.7427V95.1088L81.0822 95.9473H79.1364L79.4758 95.1088Z" fill="#BAA886"/>
<path d="M85.6699 92.3296C85.6699 90.1496 87.0134 88.6595 89.2173 88.6595C91.4213 88.6595 92.7647 90.1496 92.7647 92.3296C92.7647 94.5097 91.4261 95.9998 89.2173 95.9998C87.0086 95.9998 85.6699 94.5097 85.6699 92.3296ZM91.5169 92.7416C91.5169 90.5712 90.3839 88.9853 88.9448 88.9853C87.74 88.9853 86.9177 90.0777 86.9177 91.9032C86.9177 94.0736 88.0508 95.6644 89.4898 95.6644C90.6946 95.6644 91.5169 94.5671 91.5169 92.7416Z" fill="#BAA886"/>
<path d="M95.9948 95.1087V89.1196L95.7031 88.7123H97.2665L100.838 93.7767V89.5508L100.551 88.7123H101.44L101.153 89.5508V95.9472H100.843L96.3103 89.5556V95.1087L96.5971 95.9472H95.7079L95.9948 95.1087Z" fill="#BAA886"/>
<path d="M98.6385 59.4469C98.8775 59.4469 99.1357 59.5236 99.5564 59.6482V59.3032H97.209V59.6482C97.6345 59.5236 97.8974 59.4469 98.1365 59.4469H98.1699V61.5838C98.1699 61.8665 98.1365 61.9815 97.9452 62.0534V62.0726H98.8297V62.0534C98.6337 61.9815 98.605 61.8665 98.605 61.5838V59.4469H98.6385Z" fill="white"/>
<path d="M102.949 61.5792V59.792C102.949 59.4902 102.977 59.3944 103.168 59.3177V59.2985H102.475L101.509 61.5361L100.52 59.2985H99.8218V59.3177C100.013 59.3896 100.042 59.4902 100.042 59.792V61.5792C100.042 61.8619 100.013 61.9769 99.8027 62.0487V62.0679H100.482V62.0487C100.271 61.9769 100.238 61.8619 100.238 61.5792V59.6818L101.323 62.1062H101.438L102.518 59.6243V61.584C102.518 61.8667 102.485 61.9817 102.279 62.0535V62.0727H103.164V62.0535C102.968 61.9817 102.939 61.8667 102.939 61.584L102.949 61.5792Z" fill="white"/>
<path d="M13.0796 67.2233C14.7386 66.658 15.6661 65.4026 15.6661 63.5867C15.6661 60.7934 13.4525 59.3081 9.24058 59.3081H0.921875V59.4135C1.9402 59.8255 2.20314 60.7455 2.20314 61.6414V74.4247C2.20314 75.3207 1.9402 76.2406 0.921875 76.6766V76.782H8.97764C13.8924 76.782 16.3927 74.6307 16.3927 71.4014C16.3927 69.6861 15.3171 68.0187 13.0796 67.4054V67.2233ZM6.56329 61.5313H8.13141C10.1394 61.5313 11.1864 62.3266 11.1864 63.8119C11.1864 65.2972 10.1107 66.3465 8.45174 66.3465H6.56329V61.5313ZM8.50911 74.2618H6.56329V68.6751H8.39437C10.5458 68.6751 11.827 69.7005 11.827 71.4445C11.827 73.1885 10.5458 74.2618 8.50911 74.2618Z" fill="white"/>
<path d="M51.5181 59.3032V59.4086C52.5651 59.8206 52.7946 60.7406 52.7946 61.6366V69.2979L45.5229 59.308H40.5508V59.4134C41.5691 59.8254 41.8273 60.7454 41.8273 61.6413V74.4533C41.8273 75.3493 41.5643 76.2692 40.5508 76.6813V76.7867H46.1348V76.6813C45.0878 76.2692 44.8536 75.3493 44.8536 74.4533V65.8433L52.7946 76.7819H55.8209V61.6413C55.8209 60.7454 56.0838 59.8254 57.1021 59.4134V59.308H51.5181V59.3032Z" fill="white"/>
<path d="M73.1177 59.3032V59.4565C73.787 59.8925 73.438 60.7358 72.9695 61.6318L70.4117 66.6531L67.8253 61.6318C67.3568 60.7358 67.0078 59.8925 67.7058 59.4565V59.3032H61.1895V59.4852C62.2938 59.8973 62.6715 60.7933 63.14 61.6366L67.6771 69.8872V74.4485C67.6771 75.3445 67.4189 76.2644 66.4006 76.6765V76.7819H73.3233V76.6765C72.305 76.2644 72.042 75.3445 72.042 74.4485V69.5039L76.3161 61.6413C76.7512 60.7981 77.1336 59.9021 78.2332 59.49V59.308H73.1177V59.3032Z" fill="white"/>
<path d="M97.02 74.4199L92.5116 61.6367C92.4734 61.5217 92.4399 61.4115 92.4112 61.3013L91.7132 59.3081H86.2296V59.4614C87.1905 59.8447 86.9849 60.9467 86.722 61.6367L82.2136 74.4199C81.922 75.2919 81.573 76.1879 80.5547 76.5952V76.7772H85.761V76.6479C84.9196 76.2118 85.0057 75.2919 85.2925 74.4199L86.1053 72.0338H91.718L92.5355 74.4199C92.8272 75.2919 92.7698 76.2118 91.9236 76.6479V76.7772H98.6742V76.5952C97.6558 76.1831 97.3355 75.2871 97.0152 74.4199H97.02ZM87.0184 69.3986L88.9355 63.7113L90.8527 69.3986H87.0136H87.0184Z" fill="white"/>
<path d="M35.6977 74.4199L31.1894 61.6367C31.1511 61.5217 31.1177 61.4115 31.089 61.3013L30.391 59.3081H24.9073V59.4614C25.8683 59.8447 25.6627 60.9467 25.3997 61.6367L20.8914 74.4199C20.5997 75.2919 20.2507 76.1879 19.2324 76.5952V76.7772H24.4388V76.6479C23.5974 76.2118 23.6834 75.2919 23.9703 74.4199L24.783 72.0338H30.3957L31.2133 74.4199C31.5049 75.2919 31.4475 76.2118 30.6013 76.6479V76.7772H37.3519V76.5952C36.3336 76.1831 36.0133 75.2871 35.6929 74.4199H35.6977ZM25.6962 69.3986L27.6133 63.7113L29.5304 69.3986H25.6914H25.6962Z" fill="white"/>
<path d="M124.131 59.3032V59.4086C125.178 59.8206 125.412 60.7406 125.412 61.6366V69.2979L118.14 59.308H113.168V59.4134C114.186 59.8254 114.449 60.7454 114.449 61.6413V74.4533C114.449 75.3493 114.186 76.2692 113.168 76.6813V76.7867H118.752V76.6813C117.705 76.2692 117.471 75.3493 117.471 74.4533V65.8433L125.412 76.7819H128.438V61.6413C128.438 60.7454 128.701 59.8254 129.719 59.4134V59.308H124.135L124.131 59.3032Z" fill="white"/>
<path d="M134.434 59.3031C132.297 59.3031 130.93 60.6687 130.93 62.6762C130.93 64.6838 132.297 66.0781 134.434 66.0781C136.571 66.0781 137.929 64.6838 137.929 62.6762C137.929 60.6687 136.571 59.3031 134.434 59.3031ZM134.434 64.8323C133.684 64.8323 133.268 64.1951 133.268 62.681C133.268 61.167 133.684 60.5058 134.434 60.5058C135.185 60.5058 135.601 61.1622 135.601 62.681C135.601 64.1999 135.209 64.8323 134.434 64.8323Z" fill="white"/>
<path d="M143.345 77.0695C144.306 76.3412 144.555 75.0284 144.555 72.9873V64.9139C143.914 65.9249 142.681 66.7921 141.041 66.864V63.9317C143.599 63.6251 145.879 61.6798 146.702 59.3081H149.852V73.155C149.852 75.1051 150.082 76.3939 150.923 77.0743H143.345V77.0695Z" fill="white"/>
</svg>
