<svg width="110" height="26" viewBox="0 0 110 26" fill="none" xmlns="http://www.w3.org/2000/svg">
<path d="M23.2068 16.9905C23.1243 15.9014 22.7861 14.8922 22.2082 13.9629C21.6384 13.0495 20.8795 12.3359 19.9315 11.8272C19.801 11.7554 19.6705 11.6781 19.5294 11.5956L19.5188 11.5876L19.596 11.521L19.6199 11.5024L19.8543 11.2973L19.8649 11.2867C20.1871 10.9911 20.4641 10.6583 20.6984 10.2855C21.0046 9.79815 21.2496 9.27889 21.3588 8.7117C21.4573 8.2031 21.5345 7.68917 21.5798 7.17257C21.6703 6.20063 21.5319 5.24733 21.1857 4.33663C20.8315 3.41262 20.267 2.64039 19.5214 2.00929C18.9223 1.50335 17.7879 0.949473 17.0316 0.739107C16.7041 0.64857 16.3739 0.568684 16.0437 0.502113C15.6869 0.42489 15.3141 0.408913 14.9493 0.408913C10.4677 0.40625 5.99143 0.40625 1.51517 0.40625H0V24.0365L0.0639086 23.9486L0.141131 23.8501L0.460674 23.4213L0.1864 23.7888C0.210366 23.7569 0.231669 23.7249 0.255634 23.6929C0.396766 23.5092 0.532572 23.3255 0.67104 23.1417L0.460674 23.424L0.849452 22.9074C1.20894 22.4307 1.56842 21.9568 1.92791 21.4801C2.31669 20.9662 2.71612 20.4549 3.10489 19.9356C3.2833 19.6987 3.4271 19.4324 3.49367 19.1448C3.56557 18.8359 3.5629 18.5163 3.48834 18.2021C3.37118 17.7148 3.21407 17.2382 3.04631 16.7695C2.74541 15.9254 2.38858 15.0999 2.28473 14.1972C2.20485 13.4969 2.18887 12.8045 2.45782 12.1388C2.59096 11.8113 2.95045 11.5077 3.37384 11.6169C3.7067 11.7021 3.94636 11.9311 4.21797 12.1175C4.3804 12.2293 4.52952 12.3651 4.70527 12.4583C5.00085 12.6155 5.38962 12.4983 5.53342 12.216C5.61064 12.0642 5.67721 11.9018 5.70917 11.734C5.83698 11.079 5.94882 10.4239 6.07132 9.76886C6.2231 8.9487 6.44412 8.1525 6.87816 7.42288C7.14445 6.97552 7.73028 6.75184 8.17497 6.98085C8.30545 7.05008 8.43061 7.1273 8.54777 7.20985C9.16822 7.65189 9.86855 7.38028 10.0629 6.64533C10.0629 6.64 10.0656 6.63468 10.0683 6.62935C10.228 6.01423 10.3612 5.38579 10.6488 4.81328C10.7473 4.6109 10.8858 4.40853 11.0615 4.27006C11.7086 3.75879 12.6539 4.05437 12.9708 4.83192C13.2078 5.40177 13.5806 5.51894 14.0199 5.34053C14.5312 5.13016 15.0159 4.85855 15.5085 4.61357C15.6363 4.55232 15.7588 4.48042 15.8893 4.42717C16.1396 4.32864 16.3899 4.18485 16.6482 4.16088C17.3405 4.09963 17.9397 4.8479 17.7479 5.51894C17.6521 5.85712 17.5083 6.18465 17.3512 6.49621C17.1461 6.90096 16.9411 7.30305 16.8559 7.75307C16.7094 8.49069 16.989 9.03391 17.7506 9.25759C17.8678 9.29221 17.9849 9.34014 18.0941 9.39073C18.4483 9.5505 18.7013 10.0085 18.4856 10.4239C18.3577 10.6689 18.1634 10.8367 17.9477 10.9671C17.5615 11.2068 17.1355 11.3799 16.768 11.6408C16.3153 11.9657 16.1955 12.2427 16.5869 12.7166C16.8639 13.0522 17.2021 13.3318 17.4923 13.6593C17.724 13.9229 17.953 14.1945 18.1314 14.4981C18.4643 15.0706 18.1527 15.8322 17.6095 16.1491C17.2873 16.3328 16.9305 16.3275 16.5736 16.3035C16.049 16.2742 15.5218 16.2316 14.9972 16.2236C14.7602 16.221 14.5525 16.2849 14.3688 16.3994C13.7989 16.7535 13.6392 17.5178 13.9614 18.1089C14.2197 18.5803 14.4806 19.0542 14.5658 19.5921C14.7229 20.5534 14.3342 21.3123 13.5034 21.6905C13.1412 21.8556 12.7205 21.9381 12.321 21.9727C11.3118 22.0606 10.3239 21.9594 9.36793 21.5733C8.91525 21.3896 8.48919 21.1765 8.11107 20.8676C7.94863 20.7372 7.80217 20.5774 7.67702 20.4096C7.42671 20.0741 7.29357 19.6933 7.41606 19.2806C7.53589 18.8678 7.64507 18.4444 7.83679 18.0663C8.12971 17.4858 8.47321 16.9266 8.82205 16.3754C9.36793 15.5153 9.93512 14.6685 10.4943 13.8137C10.9257 13.1534 11.3677 12.4956 11.7991 11.8379C11.9269 11.6435 12.0494 11.4411 12.1559 11.2308C12.1852 11.1722 12.1693 11.0417 12.132 11.0151C12.0707 10.9778 11.9562 10.9805 11.8923 11.0151C11.8018 11.0657 11.7326 11.1562 11.6686 11.2361C11.2958 11.7074 10.923 12.1787 10.5529 12.6501C9.96708 13.3957 9.37592 14.1359 8.79009 14.8789C8.35605 15.4301 7.92466 15.9813 7.49328 16.5325C6.87816 17.3154 6.25772 18.0956 5.6426 18.8785C5.19524 19.4483 4.7532 20.0182 4.30318 20.5854C4.03956 20.9236 3.76794 21.2564 3.50432 21.5946C2.97175 22.279 2.43918 22.958 1.90661 23.6423C1.4699 24.2042 1.03053 24.7634 0.59648 25.3279L0.388777 25.5942H2.02643C6.30298 25.5942 10.5795 25.5969 14.8561 25.5916C15.5005 25.5916 16.1502 25.6262 16.7973 25.493C17.4257 25.3626 18.0568 25.272 18.656 25.0137C19.2205 24.7741 19.7744 24.5184 20.251 24.127C20.5866 23.8527 20.9141 23.5651 21.2256 23.2669C21.8115 22.705 22.2295 22.0233 22.5651 21.291C22.9458 20.4735 23.1749 19.6161 23.2308 18.7187C23.2627 18.1489 23.2521 17.5737 23.2095 17.0038L23.2068 16.9905ZM0.250309 0.40625C0.231669 0.40625 0.215691 0.414239 0.197051 0.416901V0.40625C0.210366 0.40625 0.229006 0.40625 0.250309 0.40625Z" fill="#BAA886"/>
<path d="M81.8083 4.16088C81.9361 4.16088 82.0773 4.20349 82.3036 4.27006V4.08632H81.0361V4.27006C81.2678 4.20349 81.4062 4.16088 81.5367 4.16088H81.5553V5.30857C81.5553 5.46035 81.5367 5.5216 81.4355 5.56154V5.57219H81.9122V5.56154C81.8057 5.5216 81.7923 5.46035 81.7923 5.30857V4.16088H81.811H81.8083Z" fill="white"/>
<path d="M84.133 5.30857V4.34728C84.133 4.18485 84.149 4.13159 84.2502 4.09431V4.08366H83.8774L83.3554 5.28727L82.8229 4.08366H82.4474V4.09431C82.5513 4.13425 82.5672 4.18751 82.5672 4.34728V5.30857C82.5672 5.46035 82.5513 5.5216 82.4394 5.56154V5.57219H82.8069V5.56154C82.6924 5.5216 82.6764 5.46035 82.6764 5.30857V4.28603L83.2622 5.59083H83.3235L83.9067 4.25408V5.30857C83.9067 5.46035 83.888 5.5216 83.7788 5.56154V5.57219H84.2555V5.56154C84.149 5.5216 84.133 5.46035 84.133 5.30857Z" fill="white"/>
<path d="M35.6716 8.44009V8.34423C36.5664 8.04066 37.067 7.3643 37.067 6.38703C37.067 4.88251 35.874 4.08366 33.6026 4.08366H29.1184V4.13958C29.6669 4.36059 29.808 4.85589 29.808 5.33786V12.216C29.808 12.698 29.6669 13.1933 29.1184 13.4276V13.4835H33.4615C36.111 13.4835 37.4611 12.3252 37.4611 10.589C37.4611 9.66501 36.8806 8.77029 35.6743 8.44009H35.6716ZM32.1593 5.28194H33.0061C34.0872 5.28194 34.6544 5.71066 34.6544 6.50952C34.6544 7.30838 34.0739 7.8729 33.1792 7.8729H32.1593V5.28194ZM33.2085 12.1335H32.1593V9.12711H33.1473C34.3083 9.12711 34.9979 9.68098 34.9979 10.6156C34.9979 11.5503 34.3083 12.1308 33.2085 12.1308V12.1335Z" fill="white"/>
<path d="M56.3993 4.08366V4.13958C56.9639 4.36059 57.089 4.85589 57.089 5.33786V9.45997L53.1693 4.08366H50.4878V4.13958C51.0363 4.36059 51.1775 4.85589 51.1775 5.33786V12.2293C51.1775 12.7113 51.0363 13.2066 50.4878 13.4276V13.4835H53.4995V13.4276C52.935 13.2066 52.8098 12.7113 52.8098 12.2293V7.59863L57.0917 13.4835H58.724V5.33786C58.724 4.85589 58.8651 4.36059 59.4137 4.13958V4.08366H56.3993Z" fill="white"/>
<path d="M68.0467 4.08366V4.16621C68.4062 4.40054 68.2198 4.85589 67.9668 5.33786L66.5874 8.04066L65.1921 5.33786C64.9418 4.85589 64.7527 4.40054 65.1282 4.16621V4.08366H61.6159V4.17952C62.2124 4.40054 62.4147 4.88251 62.6677 5.33786L65.1122 9.77685V12.232C65.1122 12.714 64.9711 13.2093 64.4225 13.4303V13.4862H68.1532V13.4303C67.6046 13.2093 67.4635 12.714 67.4635 12.232V9.57181L69.7695 5.34053C70.0039 4.88518 70.2089 4.4032 70.8054 4.18218V4.08632H68.0467V4.08366Z" fill="white"/>
<path d="M80.9322 12.216L78.5011 5.33786C78.4824 5.27662 78.4638 5.21803 78.4478 5.15679L78.0723 4.08366H75.1139V4.16621C75.6332 4.37391 75.5213 4.96506 75.3802 5.33786L72.949 12.216C72.7919 12.6847 72.6055 13.1667 72.0543 13.3877V13.4835H74.8609V13.4143C74.4056 13.18 74.4535 12.6847 74.6106 12.216L75.05 10.9325H78.0777L78.517 12.216C78.6741 12.6847 78.6422 13.18 78.1868 13.4143V13.4835H81.827V13.3877C81.2784 13.1667 81.1053 12.6847 80.9322 12.216ZM75.5373 9.51322L76.5731 6.4536L77.609 9.51322H75.5373Z" fill="white"/>
<path d="M47.8702 12.216L45.439 5.33786C45.4204 5.27662 45.4017 5.21803 45.3858 5.15679L45.0103 4.08366H42.0519V4.16621C42.5711 4.37391 42.4593 4.96506 42.3181 5.33786L39.8869 12.216C39.7298 12.6847 39.5434 13.1667 38.9922 13.3877V13.4835H41.7989V13.4143C41.3435 13.18 41.3915 12.6847 41.5486 12.216L41.9879 10.9325H45.0156L45.455 12.216C45.6121 12.6847 45.5801 13.18 45.1248 13.4143V13.4835H48.7649V13.3877C48.2164 13.1667 48.0433 12.6847 47.8702 12.216ZM42.4752 9.51322L43.5111 6.4536L44.5469 9.51322H42.4752Z" fill="white"/>
<path d="M95.554 4.08366V4.13958C96.1185 4.36059 96.2437 4.85589 96.2437 5.33786V9.45997L92.3239 4.08366H89.6425V4.13958C90.191 4.36059 90.3321 4.85589 90.3321 5.33786V12.2293C90.3321 12.7113 90.191 13.2066 89.6425 13.4276V13.4835H92.6541V13.4276C92.0896 13.2066 91.9645 12.7113 91.9645 12.2293V7.59863L96.2463 13.4835H97.8787V5.33786C97.8787 4.85589 98.0198 4.36059 98.5684 4.13958V4.08366H95.554Z" fill="white"/>
<path d="M101.109 4.08366C99.9584 4.08366 99.2207 4.81861 99.2207 5.89973C99.2207 6.98085 99.9584 7.73177 101.109 7.73177C102.259 7.73177 102.994 6.98085 102.994 5.89973C102.994 4.81861 102.262 4.08366 101.109 4.08366ZM101.109 7.05807C100.704 7.05807 100.48 6.71722 100.48 5.89973C100.48 5.08223 100.704 4.72807 101.109 4.72807C101.513 4.72807 101.737 5.08223 101.737 5.89973C101.737 6.71722 101.524 7.05807 101.109 7.05807Z" fill="white"/>
<path d="M105.915 13.6433C106.432 13.2519 106.568 12.5436 106.568 11.4465V7.10334C106.221 7.64656 105.558 8.11256 104.672 8.1525V6.57343C106.051 6.40833 107.281 5.36183 107.723 4.08632H109.422V11.537C109.422 12.5862 109.545 13.2785 110 13.646H105.915V13.6433Z" fill="white"/>
<path d="M29.3234 22.4654V18.5723L29.1184 17.9864H30.4178L30.2128 18.5723V20.3298H31.9197V18.5723L31.712 17.9864H33.0061L32.8037 18.5723V22.4654L33.0061 23.0512H31.712L31.9197 22.4654V20.5481H30.2128V22.4654L30.4178 23.0512H29.1184L29.3234 22.4654Z" fill="#BAA886"/>
<path d="M35.0698 20.5188C35.0698 18.993 36.0152 17.9492 37.5596 17.9492C39.1041 17.9492 40.0494 18.9903 40.0494 20.5188C40.0494 22.0473 39.1094 23.0885 37.5596 23.0885C36.0098 23.0885 35.0698 22.0473 35.0698 20.5188ZM39.1733 20.8091C39.1733 19.2886 38.3771 18.1782 37.3679 18.1782C36.5211 18.1782 35.9459 18.9424 35.9459 20.2232C35.9459 21.7437 36.7421 22.8568 37.7513 22.8568C38.5981 22.8568 39.1733 22.0899 39.1733 20.8091Z" fill="#BAA886"/>
<path d="M44.3872 22.4494L43.4365 20.9795L42.2729 22.4494L42.3528 23.0539H41.5086L43.314 20.7904L41.5086 17.9891H42.9918L42.9492 18.5936L43.8999 20.0635L45.0635 18.5936L44.9837 17.9891H45.8278L44.0224 20.2525L45.8278 23.0539H44.3446L44.3872 22.4494Z" fill="#BAA886"/>
<path d="M49.5079 22.4654V18.1675H48.946L48.0007 19.0729V17.9864H51.8964V19.0729L50.9511 18.1675H50.3893V22.4654L50.6289 23.0512H49.2655L49.5052 22.4654H49.5079Z" fill="#BAA886"/>
<path d="M53.8563 20.5188C53.8563 18.993 54.8016 17.9492 56.3461 17.9492C57.8905 17.9492 58.8358 18.9903 58.8358 20.5188C58.8358 22.0473 57.8959 23.0885 56.3461 23.0885C54.7963 23.0885 53.8563 22.0473 53.8563 20.5188ZM57.9598 20.8091C57.9598 19.2886 57.1636 18.1782 56.1544 18.1782C55.3076 18.1782 54.7324 18.9424 54.7324 20.2232C54.7324 21.7437 55.5286 22.8568 56.5378 22.8568C57.3846 22.8568 57.9598 22.0899 57.9598 20.8091Z" fill="#BAA886"/>
<path d="M61.0993 22.4654V18.2714L60.8942 17.9864H61.9913L64.4971 21.5307V18.5723L64.2947 17.9864H64.9178L64.7154 18.5723V23.0512H64.4971L61.3176 18.5749V22.4627L61.52 23.0485H60.8969L61.0993 22.4627V22.4654Z" fill="#BAA886"/>
</svg>
