<svg width="137" height="56" viewBox="0 0 137 56" fill="none" xmlns="http://www.w3.org/2000/svg">
<path d="M-66.7815 115.341L-67.6761 116L-83.5342 116L-83.5342 111.99L-80.8234 109.848C-75.0765 105.371 -69.3839 100.839 -63.6641 96.3351C-56.6974 90.8421 -49.7848 85.3491 -42.818 79.8561C-39.3753 77.1371 -35.9868 74.3357 -32.5441 71.6167C-26.7701 66.9751 -20.969 62.4159 -15.1679 57.8018C-7.19817 51.4574 0.744468 45.0581 8.71421 38.7137L8.73093 38.7004C14.3367 34.2555 19.9425 29.8106 25.5483 25.3383C33.1114 19.296 40.6474 13.1988 48.2376 7.15647C53.0358 3.33884 57.8339 -0.506245 62.632 -4.35134C63.4452 -5.01049 64.3669 -5.72458 64.8819 -6.65839C65.2343 -7.31755 65.2615 -8.49854 64.8819 -9.13023C64.6109 -9.51474 63.2826 -9.67954 62.6862 -9.37742C60.5447 -8.27882 58.4845 -7.01544 56.5056 -5.69712C49.8099 -1.2478 43.1142 3.31138 36.3915 7.7607C27.6898 13.5283 19.0695 19.3784 10.3136 25.0087C4.70223 28.6066 -0.99044 32.1496 -6.89998 35.1707C-10.7493 37.1482 -15.0595 38.2742 -19.2612 39.5102C-23.4629 40.7735 -27.3394 39.4003 -30.755 36.8186C-32.4628 35.5277 -34.0893 34.0172 -35.4175 32.3418C-38.5621 28.4418 -40.7307 24.0474 -42.6012 19.3784C-46.5318 9.51845 -47.5619 -0.671033 -46.6674 -11.0802C-46.315 -15.2 -45.4746 -19.5394 -43.7939 -23.2747C-39.9446 -31.8437 -32.2188 -35.8536 -22.4329 -34.2332C-16.9881 -33.3593 -12.1866 -30.6932 -7.41544 -28.044L-7.33372 -27.9986C-1.31575 -24.6754 6.46425 -26.3233 10.0696 -32.2008C11.2353 -34.0958 11.8858 -36.2381 11.8587 -38.6825C11.7774 -44.0931 11.3437 -49.5312 11.0455 -54.9418C10.8015 -58.6221 10.7473 -62.3023 12.6178 -65.6256C15.8436 -71.2284 23.5965 -74.4418 29.4247 -71.0087C32.515 -69.1686 35.28 -66.8066 37.9637 -64.4172C41.298 -61.4235 44.1443 -57.9354 47.5599 -55.0791C52.3852 -51.0417 55.2044 -52.2776 58.5116 -56.9467C61.1682 -60.7368 62.9302 -65.1312 65.3699 -69.1137C66.6982 -71.3383 68.406 -73.3432 70.8999 -74.6616C75.1288 -76.8862 79.7913 -74.277 81.4178 -70.6242C81.9328 -69.4981 82.4208 -68.2897 82.7732 -67.0812C85.0503 -59.2263 90.5803 -56.3425 98.0892 -57.853C102.628 -58.7237 106.688 -60.8076 110.769 -62.9026L110.884 -62.9615C114.056 -64.5819 117.39 -66.065 120.833 -67.0538C127.664 -69.0313 135.281 -62.8516 134.658 -55.7108C134.414 -53.0467 132.95 -50.4649 131.947 -47.8832C131.405 -46.5375 130.673 -45.2741 130.05 -43.9558C127.556 -38.8747 124.791 -33.8761 122.649 -28.6029C120.833 -24.0711 122.026 -20.2261 127.827 -17.7817C135.742 -14.5133 138.751 -4.7633 133.546 1.91068C132.137 3.72336 130.077 5.15153 128.016 6.16773C122.188 9.13395 115.791 10.5072 109.529 12.1551C109.475 12.1826 109.42 12.21 109.366 12.21C101.884 14.215 99.1193 21.4382 103.619 27.8376C104.46 29.046 105.246 30.3369 105.951 31.6827C108.282 36.2693 106.005 42.3116 101.451 45.0581C94.023 49.5349 85.9177 51.8145 77.5685 53.38C70.8999 54.6433 64.2313 55.7969 57.5628 57.1152C55.855 57.4448 54.2014 58.1314 52.6562 58.9279C49.7828 60.411 48.5901 64.4209 50.1894 67.4695C51.1382 69.2821 52.5207 70.8202 53.6592 72.4955C55.5568 75.297 57.8881 77.7688 58.7555 81.2019C59.867 85.5689 56.7767 89.2766 53.4424 90.6499C46.6654 93.4238 39.6173 93.259 32.4879 92.4351C23.2983 91.364 14.8948 87.6837 6.3016 84.5801C1.53059 82.8498 -3.32173 81.2294 -8.28249 80.0209C-11.4812 79.2519 -14.7342 79.2245 -17.8787 79.966C-20.8064 80.6526 -23.5172 82.1357 -25.9298 83.9759C-31.2158 87.9858 -36.4206 92.1055 -41.6524 96.1154C-46.5047 99.8231 -51.33 103.531 -56.1823 107.239L-61.4412 111.249L-58.5678 109.079C-59.7953 110.016 -61.0229 110.942 -62.2505 111.879L-62.4342 112.019L-65.0235 113.978L-65.1028 114.038L-65.1116 114.045L-65.155 114.077L-65.7785 114.544L-66.7815 115.341Z" fill="#6B5D3F"/>
</svg>
